<svg id="svg" version="1.1" xmlns="http://www.w3.org/2000/svg" xmlns:xlink="http://www.w3.org/1999/xlink" width="400" height="400" viewBox="0, 0, 400,400"><g id="svgg"><path id="path0" d="M199.071 86.300 C 198.974 86.465,198.771 87.173,198.621 87.872 C 198.471 88.572,198.109 89.344,197.816 89.587 C 197.523 89.830,197.170 90.634,197.031 91.374 C 196.892 92.114,196.514 92.940,196.189 93.209 C 195.865 93.478,195.600 93.966,195.600 94.295 C 195.600 94.623,195.271 95.546,194.869 96.346 C 194.172 97.731,193.336 99.564,191.692 103.309 C 191.284 104.239,190.540 105.900,190.039 107.000 C 189.081 109.102,188.234 111.011,186.933 114.000 C 186.502 114.990,185.740 116.700,185.239 117.800 C 184.737 118.900,184.008 120.520,183.618 121.400 C 183.228 122.280,182.500 123.900,182.000 125.000 C 181.500 126.100,180.755 127.765,180.345 128.700 C 179.396 130.864,178.233 133.481,177.145 135.900 C 176.675 136.945,175.931 138.610,175.491 139.600 C 175.051 140.590,174.331 142.210,173.891 143.200 C 173.451 144.190,172.755 145.765,172.345 146.700 C 171.391 148.877,170.340 151.230,169.085 154.000 C 168.084 156.208,166.773 159.163,165.802 161.400 C 165.515 162.060,164.832 163.590,164.284 164.800 C 163.736 166.010,162.908 167.855,162.444 168.900 C 161.980 169.945,161.240 171.610,160.800 172.600 C 160.360 173.590,159.640 175.177,159.200 176.126 C 158.760 177.076,158.400 178.044,158.400 178.277 C 158.400 178.511,158.149 178.910,157.842 179.165 C 157.535 179.420,157.170 180.234,157.031 180.974 C 156.892 181.714,156.514 182.540,156.189 182.809 C 155.865 183.078,155.594 183.591,155.587 183.949 C 155.581 184.307,155.132 185.500,154.591 186.600 C 154.050 187.700,153.606 188.803,153.604 189.051 C 153.602 189.299,153.349 189.710,153.042 189.965 C 152.735 190.220,152.370 191.034,152.231 191.774 C 152.092 192.514,151.732 193.324,151.431 193.574 C 151.130 193.824,150.770 194.634,150.631 195.374 C 150.492 196.114,150.132 196.924,149.831 197.174 C 149.530 197.424,149.170 198.234,149.031 198.974 C 148.892 199.714,148.532 200.524,148.231 200.774 C 147.930 201.024,147.570 201.834,147.431 202.574 C 147.292 203.314,146.932 204.124,146.631 204.374 C 146.330 204.624,145.970 205.434,145.831 206.174 C 145.692 206.914,145.332 207.724,145.031 207.974 C 144.730 208.224,144.370 209.034,144.231 209.774 C 144.092 210.514,143.714 211.340,143.389 211.609 C 143.065 211.878,142.800 212.366,142.800 212.695 C 142.800 213.023,142.471 213.946,142.069 214.746 C 141.389 216.097,140.958 217.038,138.834 221.818 C 138.394 222.808,137.650 224.469,137.181 225.509 C 136.711 226.549,136.010 228.120,135.622 229.000 C 135.234 229.880,134.538 231.459,134.075 232.509 C 133.219 234.453,132.176 236.773,130.709 240.000 C 130.259 240.990,129.555 242.565,129.145 243.500 C 128.735 244.435,128.015 246.055,127.545 247.100 C 127.075 248.145,126.355 249.765,125.945 250.700 C 125.535 251.635,124.815 253.255,124.345 254.300 C 123.875 255.345,123.180 256.920,122.800 257.800 C 122.420 258.680,121.700 260.300,121.200 261.400 C 120.700 262.500,119.955 264.165,119.545 265.100 C 118.591 267.277,117.540 269.630,116.285 272.400 C 115.736 273.610,114.894 275.500,114.413 276.600 C 113.932 277.700,113.282 279.078,112.969 279.662 C 112.656 280.246,112.400 280.986,112.400 281.308 C 112.400 281.629,112.040 282.350,111.600 282.909 C 111.160 283.469,110.799 284.168,110.798 284.463 C 110.796 284.758,110.508 285.540,110.156 286.200 C 107.164 291.821,106.573 291.600,124.617 291.600 C 140.398 291.600,141.999 291.440,142.001 289.861 C 142.002 289.387,142.362 288.411,142.801 287.690 C 143.241 286.970,143.601 286.070,143.601 285.690 C 143.602 285.311,143.962 284.411,144.401 283.690 C 144.841 282.970,145.201 282.070,145.201 281.690 C 145.202 281.311,145.562 280.411,146.001 279.690 C 146.441 278.970,146.801 278.070,146.801 277.690 C 146.802 277.311,147.162 276.411,147.601 275.690 C 148.041 274.970,148.401 274.070,148.401 273.690 C 148.402 273.311,148.762 272.411,149.201 271.690 C 149.641 270.970,150.000 270.153,150.000 269.875 C 150.000 269.597,150.360 268.663,150.800 267.800 C 151.240 266.937,151.601 265.954,151.601 265.615 C 151.602 265.277,151.962 264.411,152.401 263.690 C 152.841 262.970,153.200 262.153,153.200 261.875 C 153.200 261.597,153.560 260.663,154.000 259.800 C 154.440 258.937,154.801 257.954,154.803 257.615 C 154.804 257.277,155.163 256.460,155.600 255.800 C 156.037 255.140,156.396 254.323,156.397 253.985 C 156.399 253.646,156.740 252.702,157.156 251.886 C 157.572 251.070,158.018 249.981,158.147 249.468 C 158.276 248.954,158.851 247.693,159.425 246.667 L 160.468 244.800 199.772 244.800 C 242.020 244.800,240.405 244.727,240.399 246.631 C 240.398 246.834,240.739 247.720,241.156 248.600 C 242.859 252.191,243.600 254.060,243.600 254.762 C 243.600 255.169,243.858 255.717,244.174 255.979 C 244.490 256.241,244.872 257.028,245.023 257.728 C 245.174 258.427,245.636 259.668,246.049 260.484 C 246.462 261.300,246.800 262.313,246.800 262.735 C 246.800 263.157,247.058 263.717,247.374 263.979 C 247.690 264.241,248.072 265.028,248.223 265.728 C 248.374 266.427,248.836 267.668,249.249 268.484 C 249.662 269.300,250.000 270.313,250.000 270.735 C 250.000 271.157,250.258 271.717,250.574 271.979 C 250.890 272.241,251.272 273.028,251.423 273.728 C 251.574 274.427,252.036 275.668,252.449 276.484 C 252.862 277.300,253.200 278.313,253.200 278.735 C 253.200 279.157,253.458 279.717,253.774 279.979 C 254.090 280.241,254.474 281.028,254.628 281.728 C 254.781 282.427,255.243 283.627,255.653 284.394 C 256.064 285.161,256.400 286.137,256.400 286.563 C 256.400 286.989,256.647 287.621,256.948 287.969 C 257.249 288.316,257.666 289.132,257.875 289.782 C 258.441 291.543,259.235 291.620,275.631 291.505 C 292.564 291.386,291.977 291.510,290.507 288.356 C 288.128 283.249,287.600 281.999,287.600 281.474 C 287.600 281.157,287.335 280.678,287.011 280.409 C 286.686 280.140,286.308 279.314,286.169 278.574 C 286.030 277.834,285.665 277.020,285.358 276.765 C 285.051 276.510,284.800 276.111,284.800 275.877 C 284.800 275.644,284.460 274.721,284.045 273.826 C 281.683 268.741,281.200 267.595,281.200 267.074 C 281.200 266.757,280.935 266.278,280.611 266.009 C 280.286 265.740,279.908 264.914,279.769 264.174 C 279.630 263.434,279.265 262.620,278.958 262.365 C 278.651 262.110,278.400 261.711,278.400 261.477 C 278.400 261.244,278.060 260.321,277.645 259.426 C 275.283 254.341,274.800 253.195,274.800 252.674 C 274.800 252.357,274.535 251.878,274.211 251.609 C 273.886 251.340,273.508 250.514,273.369 249.774 C 273.230 249.034,272.865 248.220,272.558 247.965 C 272.251 247.710,272.000 247.311,272.000 247.077 C 272.000 246.844,271.660 245.921,271.245 245.026 C 268.883 239.941,268.400 238.795,268.400 238.274 C 268.400 237.957,268.135 237.478,267.811 237.209 C 267.486 236.940,267.108 236.114,266.969 235.374 C 266.830 234.634,266.465 233.820,266.158 233.565 C 265.851 233.310,265.600 232.911,265.600 232.677 C 265.600 232.444,265.260 231.521,264.845 230.626 C 262.483 225.541,262.000 224.395,262.000 223.874 C 262.000 223.557,261.735 223.078,261.411 222.809 C 261.086 222.540,260.708 221.714,260.569 220.974 C 260.430 220.234,260.065 219.420,259.758 219.165 C 259.451 218.910,259.200 218.511,259.200 218.277 C 259.200 218.044,258.860 217.121,258.445 216.226 C 256.083 211.141,255.600 209.995,255.600 209.474 C 255.600 209.157,255.335 208.678,255.011 208.409 C 254.686 208.140,254.308 207.314,254.169 206.574 C 254.030 205.834,253.665 205.020,253.358 204.765 C 253.051 204.510,252.800 204.111,252.800 203.877 C 252.800 203.644,252.460 202.721,252.045 201.826 C 249.683 196.741,249.200 195.595,249.200 195.074 C 249.200 194.757,248.935 194.278,248.611 194.009 C 248.286 193.740,247.908 192.914,247.769 192.174 C 247.630 191.434,247.265 190.620,246.958 190.365 C 246.651 190.110,246.400 189.711,246.400 189.477 C 246.400 189.244,246.060 188.321,245.645 187.426 C 243.283 182.341,242.800 181.195,242.800 180.674 C 242.800 180.357,242.535 179.878,242.211 179.609 C 241.886 179.340,241.508 178.514,241.369 177.774 C 241.230 177.034,240.865 176.220,240.558 175.965 C 240.251 175.710,240.000 175.311,240.000 175.077 C 240.000 174.844,239.660 173.921,239.245 173.026 C 236.883 167.941,236.400 166.795,236.400 166.274 C 236.400 165.957,236.135 165.478,235.811 165.209 C 235.486 164.940,235.108 164.114,234.969 163.374 C 234.830 162.634,234.465 161.820,234.158 161.565 C 233.851 161.310,233.600 160.911,233.600 160.677 C 233.600 160.444,233.260 159.521,232.845 158.626 C 230.483 153.541,230.000 152.395,230.000 151.874 C 230.000 151.557,229.735 151.078,229.411 150.809 C 229.086 150.540,228.708 149.714,228.569 148.974 C 228.430 148.234,228.065 147.420,227.758 147.165 C 227.451 146.910,227.200 146.511,227.200 146.277 C 227.200 146.044,226.860 145.121,226.445 144.226 C 224.083 139.141,223.600 137.995,223.600 137.474 C 223.600 137.157,223.335 136.678,223.011 136.409 C 222.686 136.140,222.308 135.314,222.169 134.574 C 222.030 133.834,221.665 133.020,221.358 132.765 C 221.051 132.510,220.800 132.111,220.800 131.877 C 220.800 131.644,220.460 130.721,220.045 129.826 C 217.683 124.741,217.200 123.595,217.200 123.074 C 217.200 122.757,216.935 122.278,216.611 122.009 C 216.286 121.740,215.908 120.914,215.769 120.174 C 215.630 119.434,215.265 118.620,214.958 118.365 C 214.651 118.110,214.400 117.711,214.400 117.477 C 214.400 117.244,214.060 116.321,213.645 115.426 C 211.283 110.341,210.800 109.195,210.800 108.674 C 210.800 108.357,210.535 107.878,210.211 107.609 C 209.886 107.340,209.508 106.514,209.369 105.774 C 209.230 105.034,208.865 104.220,208.558 103.965 C 208.251 103.710,208.000 103.311,208.000 103.077 C 208.000 102.844,207.660 101.921,207.245 101.026 C 204.883 95.941,204.400 94.795,204.400 94.274 C 204.400 93.957,204.142 93.483,203.826 93.221 C 203.510 92.959,203.130 92.172,202.981 91.472 C 202.833 90.773,202.484 89.930,202.206 89.600 C 201.928 89.270,201.484 88.325,201.220 87.500 C 200.769 86.097,199.581 85.433,199.071 86.300 M201.447 153.200 C 202.904 156.275,203.600 157.939,203.600 158.345 C 203.600 158.597,203.960 159.475,204.400 160.296 C 204.840 161.116,205.200 162.011,205.200 162.284 C 205.200 162.557,205.559 163.370,205.999 164.090 C 206.438 164.811,206.798 165.783,206.799 166.251 C 206.799 166.719,207.058 167.317,207.374 167.579 C 207.690 167.841,208.070 168.628,208.217 169.328 C 208.365 170.027,208.827 171.161,209.243 171.847 C 209.659 172.533,210.000 173.384,210.000 173.738 C 210.000 174.091,210.359 174.970,210.799 175.690 C 211.238 176.411,211.598 177.383,211.599 177.851 C 211.599 178.319,211.858 178.917,212.174 179.179 C 212.490 179.441,212.870 180.228,213.017 180.928 C 213.165 181.627,213.627 182.761,214.043 183.447 C 214.459 184.133,214.800 185.056,214.800 185.498 C 214.800 185.940,215.058 186.517,215.374 186.779 C 215.690 187.041,216.074 187.828,216.228 188.528 C 216.381 189.227,216.843 190.427,217.253 191.194 C 217.664 191.961,218.001 192.861,218.003 193.194 C 218.004 193.527,218.363 194.340,218.800 195.000 C 219.237 195.660,219.596 196.583,219.597 197.051 C 219.599 197.519,219.858 198.117,220.174 198.379 C 220.490 198.641,220.874 199.428,221.028 200.128 C 221.181 200.827,221.643 202.027,222.053 202.794 C 222.464 203.561,222.800 204.371,222.799 204.594 C 222.798 204.817,223.141 205.720,223.561 206.600 C 225.279 210.204,226.000 211.914,226.000 212.382 C 226.000 212.654,226.295 213.376,226.656 213.987 C 227.076 214.698,227.217 215.476,227.049 216.149 L 226.785 217.200 200.000 217.200 L 173.215 217.200 172.951 216.149 C 172.783 215.476,172.924 214.698,173.344 213.987 C 173.705 213.376,174.000 212.654,174.000 212.382 C 174.000 211.871,175.103 209.309,176.437 206.721 C 176.857 205.907,177.200 205.005,177.200 204.715 C 177.200 204.425,177.536 203.561,177.947 202.794 C 178.357 202.027,178.819 200.827,178.972 200.128 C 179.126 199.428,179.510 198.641,179.826 198.379 C 180.142 198.117,180.400 197.606,180.400 197.245 C 180.400 196.884,180.760 195.916,181.200 195.096 C 181.640 194.275,182.000 193.397,182.000 193.145 C 182.000 192.667,183.136 190.046,184.437 187.521 C 184.857 186.707,185.200 185.805,185.200 185.515 C 185.200 185.225,185.536 184.361,185.947 183.594 C 186.357 182.827,186.819 181.627,186.972 180.928 C 187.126 180.228,187.510 179.441,187.826 179.179 C 188.142 178.917,188.401 178.319,188.403 177.851 C 188.404 177.383,188.763 176.460,189.200 175.800 C 189.637 175.140,189.996 174.327,189.997 173.994 C 189.999 173.661,190.336 172.761,190.747 171.994 C 191.157 171.227,191.619 170.027,191.772 169.328 C 191.926 168.628,192.310 167.841,192.626 167.579 C 192.942 167.317,193.200 166.806,193.200 166.445 C 193.200 166.084,193.536 165.161,193.947 164.394 C 194.357 163.627,194.819 162.427,194.972 161.728 C 195.126 161.028,195.510 160.241,195.826 159.979 C 196.142 159.717,196.401 159.119,196.401 158.651 C 196.402 158.183,196.732 157.260,197.134 156.600 C 197.536 155.940,198.000 154.861,198.164 154.202 C 198.768 151.792,200.526 151.255,201.447 153.200 " stroke="none" fill="#fbf8f8" fill-rule="evenodd"></path><path id="path1" d="M194.516 48.000 C 194.339 48.677,193.970 48.800,192.116 48.800 C 190.262 48.800,189.893 48.923,189.716 49.600 C 189.543 50.262,189.170 50.400,187.557 50.400 C 186.040 50.400,185.496 50.578,185.107 51.200 C 184.758 51.760,184.174 52.000,183.166 52.000 C 182.232 52.000,181.469 52.282,181.000 52.800 C 180.488 53.366,179.768 53.600,178.538 53.600 C 177.067 53.600,176.800 53.723,176.800 54.400 C 176.800 55.105,176.533 55.200,174.563 55.200 C 172.662 55.200,172.294 55.320,172.116 56.000 C 171.939 56.677,171.570 56.800,169.716 56.800 C 167.862 56.800,167.493 56.923,167.316 57.600 C 167.143 58.262,166.770 58.400,165.157 58.400 C 163.640 58.400,163.096 58.578,162.707 59.200 C 162.358 59.760,161.774 60.000,160.766 60.000 C 159.832 60.000,159.069 60.282,158.600 60.800 C 158.088 61.366,157.368 61.600,156.138 61.600 C 154.667 61.600,154.400 61.723,154.400 62.400 C 154.400 63.105,154.133 63.200,152.163 63.200 C 150.262 63.200,149.894 63.320,149.716 64.000 C 149.539 64.677,149.170 64.800,147.316 64.800 C 145.462 64.800,145.093 64.923,144.916 65.600 C 144.743 66.262,144.370 66.400,142.757 66.400 C 141.240 66.400,140.696 66.578,140.307 67.200 C 139.958 67.760,139.374 68.000,138.366 68.000 C 137.432 68.000,136.669 68.282,136.200 68.800 C 135.688 69.366,134.968 69.600,133.738 69.600 C 132.267 69.600,132.000 69.723,132.000 70.400 C 132.000 71.105,131.733 71.200,129.763 71.200 C 127.862 71.200,127.494 71.320,127.316 72.000 C 127.139 72.677,126.770 72.800,124.916 72.800 C 123.062 72.800,122.693 72.923,122.516 73.600 C 122.343 74.262,121.970 74.400,120.357 74.400 C 118.840 74.400,118.296 74.578,117.907 75.200 C 117.558 75.760,116.974 76.000,115.966 76.000 C 115.032 76.000,114.269 76.282,113.800 76.800 C 113.288 77.366,112.568 77.600,111.338 77.600 C 109.867 77.600,109.600 77.723,109.600 78.400 C 109.600 79.105,109.333 79.200,107.363 79.200 C 105.462 79.200,105.094 79.320,104.916 80.000 C 104.739 80.677,104.370 80.800,102.516 80.800 C 100.662 80.800,100.293 80.923,100.116 81.600 C 99.943 82.262,99.570 82.400,97.957 82.400 C 96.440 82.400,95.896 82.578,95.507 83.200 C 95.151 83.770,94.574 84.000,93.504 84.000 C 92.533 84.000,91.716 84.284,91.200 84.800 C 90.667 85.333,89.867 85.600,88.800 85.600 C 87.467 85.600,87.200 85.733,87.200 86.400 C 87.200 87.105,86.933 87.200,84.963 87.200 C 83.062 87.200,82.694 87.320,82.516 88.000 C 82.339 88.677,81.970 88.800,80.116 88.800 C 78.262 88.800,77.893 88.923,77.716 89.600 C 77.543 90.262,77.170 90.400,75.557 90.400 C 74.040 90.400,73.496 90.578,73.107 91.200 C 72.751 91.770,72.174 92.000,71.104 92.000 C 70.133 92.000,69.316 92.284,68.800 92.800 C 68.267 93.333,67.467 93.600,66.400 93.600 C 65.067 93.600,64.800 93.733,64.800 94.400 C 64.800 95.111,64.533 95.200,62.400 95.200 C 60.267 95.200,60.000 95.289,60.000 96.000 C 60.000 96.705,59.733 96.800,57.763 96.800 C 55.862 96.800,55.494 96.920,55.316 97.600 C 55.143 98.261,54.770 98.400,53.176 98.400 C 51.769 98.400,51.104 98.597,50.723 99.126 C 50.435 99.526,49.885 99.970,49.500 100.114 C 48.466 100.500,48.543 102.808,49.600 103.084 C 50.360 103.283,50.400 103.630,50.400 110.043 C 50.400 116.360,50.451 116.825,51.200 117.293 C 51.944 117.758,52.000 118.226,52.000 124.034 C 52.000 129.768,52.065 130.335,52.800 131.000 C 53.536 131.666,53.600 132.232,53.600 138.099 C 53.600 144.138,53.642 144.486,54.400 144.684 C 55.160 144.883,55.200 145.230,55.200 151.643 C 55.200 157.960,55.251 158.425,56.000 158.893 C 56.744 159.358,56.800 159.826,56.800 165.634 C 56.800 171.368,56.865 171.935,57.600 172.600 C 58.336 173.266,58.400 173.832,58.400 179.699 C 58.400 185.738,58.442 186.086,59.200 186.284 C 59.960 186.483,60.000 186.830,60.000 193.243 C 60.000 199.560,60.051 200.025,60.800 200.493 C 61.544 200.958,61.600 201.426,61.600 207.234 C 61.600 212.968,61.665 213.535,62.400 214.200 C 63.136 214.866,63.200 215.432,63.200 221.299 C 63.200 227.338,63.242 227.686,64.000 227.884 C 64.760 228.083,64.800 228.430,64.800 234.843 C 64.800 241.160,64.851 241.625,65.600 242.093 C 66.344 242.558,66.400 243.026,66.400 248.834 C 66.400 254.568,66.465 255.135,67.200 255.800 C 67.936 256.466,68.000 257.032,68.000 262.899 C 68.000 268.938,68.042 269.286,68.800 269.484 C 69.560 269.683,69.600 270.030,69.600 276.443 C 69.600 282.760,69.651 283.225,70.400 283.693 C 71.144 284.158,71.200 284.626,71.200 290.434 C 71.200 296.168,71.265 296.735,72.000 297.400 C 72.440 297.798,72.800 298.546,72.800 299.062 C 72.800 299.714,73.030 300.000,73.553 300.000 C 73.970 300.000,74.400 300.357,74.516 300.800 C 74.676 301.413,75.062 301.600,76.163 301.600 C 77.333 301.600,77.600 301.748,77.600 302.400 C 77.600 303.067,77.867 303.200,79.200 303.200 C 80.533 303.200,80.800 303.333,80.800 304.000 C 80.800 304.573,81.067 304.800,81.738 304.800 C 82.254 304.800,83.002 305.160,83.400 305.600 C 83.798 306.040,84.435 306.400,84.815 306.400 C 85.196 306.400,85.601 306.760,85.716 307.200 C 85.875 307.806,86.262 308.000,87.316 308.000 C 88.370 308.000,88.757 308.194,88.916 308.800 C 89.076 309.413,89.462 309.600,90.563 309.600 C 91.733 309.600,92.000 309.748,92.000 310.400 C 92.000 311.067,92.267 311.200,93.600 311.200 C 94.933 311.200,95.200 311.333,95.200 312.000 C 95.200 312.573,95.467 312.800,96.138 312.800 C 96.654 312.800,97.402 313.160,97.800 313.600 C 98.198 314.040,98.813 314.400,99.166 314.400 C 99.519 314.400,100.032 314.760,100.307 315.200 C 100.619 315.699,101.240 316.000,101.957 316.000 C 102.770 316.000,103.168 316.234,103.316 316.800 C 103.476 317.413,103.862 317.600,104.963 317.600 C 106.133 317.600,106.400 317.748,106.400 318.400 C 106.400 319.067,106.667 319.200,108.000 319.200 C 109.333 319.200,109.600 319.333,109.600 320.000 C 109.600 320.622,109.867 320.800,110.797 320.800 C 111.560 320.800,112.174 321.090,112.493 321.600 C 112.768 322.040,113.269 322.400,113.607 322.400 C 113.946 322.400,114.530 322.760,114.907 323.200 C 115.284 323.640,116.023 324.000,116.549 324.000 C 117.170 324.000,117.580 324.281,117.716 324.800 C 117.876 325.413,118.262 325.600,119.363 325.600 C 120.533 325.600,120.800 325.748,120.800 326.400 C 120.800 327.067,121.067 327.200,122.400 327.200 C 123.733 327.200,124.000 327.333,124.000 328.000 C 124.000 328.622,124.267 328.800,125.197 328.800 C 125.960 328.800,126.574 329.090,126.893 329.600 C 127.168 330.040,127.669 330.400,128.007 330.400 C 128.346 330.400,128.930 330.760,129.307 331.200 C 129.684 331.640,130.423 332.000,130.949 332.000 C 131.570 332.000,131.980 332.281,132.116 332.800 C 132.275 333.406,132.662 333.600,133.716 333.600 C 134.770 333.600,135.157 333.794,135.316 334.400 C 135.476 335.013,135.862 335.200,136.963 335.200 C 138.133 335.200,138.400 335.348,138.400 336.000 C 138.400 336.667,138.667 336.800,140.000 336.800 C 141.333 336.800,141.600 336.933,141.600 337.600 C 141.600 338.100,141.867 338.400,142.311 338.400 C 142.702 338.400,143.330 338.760,143.707 339.200 C 144.084 339.640,144.823 340.000,145.349 340.000 C 145.970 340.000,146.380 340.281,146.516 340.800 C 146.675 341.406,147.062 341.600,148.116 341.600 C 149.170 341.600,149.557 341.794,149.716 342.400 C 149.876 343.013,150.262 343.200,151.363 343.200 C 152.533 343.200,152.800 343.348,152.800 344.000 C 152.800 344.667,153.067 344.800,154.400 344.800 C 155.733 344.800,156.000 344.933,156.000 345.600 C 156.000 346.100,156.267 346.400,156.711 346.400 C 157.102 346.400,157.730 346.760,158.107 347.200 C 158.484 347.640,159.223 348.000,159.749 348.000 C 160.370 348.000,160.780 348.281,160.916 348.800 C 161.075 349.406,161.462 349.600,162.516 349.600 C 163.570 349.600,163.957 349.794,164.116 350.400 C 164.276 351.013,164.662 351.200,165.763 351.200 C 166.933 351.200,167.200 351.348,167.200 352.000 C 167.200 352.667,167.467 352.800,168.800 352.800 C 170.133 352.800,170.400 352.933,170.400 353.600 C 170.400 354.187,170.667 354.400,171.400 354.400 C 172.008 354.400,172.400 354.628,172.400 354.982 C 172.400 355.327,172.954 355.668,173.763 355.819 C 174.632 355.982,175.199 356.352,175.326 356.838 C 175.474 357.403,175.884 357.600,176.916 357.600 C 177.970 357.600,178.357 357.794,178.516 358.400 C 178.676 359.013,179.062 359.200,180.163 359.200 C 181.333 359.200,181.600 359.348,181.600 360.000 C 181.600 360.667,181.867 360.800,183.200 360.800 C 184.533 360.800,184.800 360.933,184.800 361.600 C 184.800 362.173,185.067 362.400,185.738 362.400 C 186.254 362.400,187.002 362.760,187.400 363.200 C 187.798 363.640,188.435 364.000,188.815 364.000 C 189.196 364.000,189.601 364.360,189.716 364.800 C 189.875 365.406,190.262 365.600,191.316 365.600 C 192.370 365.600,192.757 365.794,192.916 366.400 C 193.076 367.013,193.462 367.200,194.563 367.200 C 195.733 367.200,196.000 367.348,196.000 368.000 C 196.000 368.747,196.267 368.800,200.000 368.800 C 203.733 368.800,204.000 368.747,204.000 368.000 C 204.000 367.333,204.267 367.200,205.600 367.200 C 206.933 367.200,207.200 367.067,207.200 366.400 C 207.200 365.748,207.467 365.600,208.637 365.600 C 209.738 365.600,210.124 365.413,210.284 364.800 C 210.432 364.234,210.830 364.000,211.643 364.000 C 212.360 364.000,212.981 363.699,213.293 363.200 C 213.568 362.760,214.109 362.400,214.496 362.400 C 214.933 362.400,215.200 362.097,215.200 361.600 C 215.200 360.933,215.467 360.800,216.800 360.800 C 218.133 360.800,218.400 360.667,218.400 360.000 C 218.400 359.333,218.667 359.200,220.000 359.200 C 221.333 359.200,221.600 359.067,221.600 358.400 C 221.600 357.748,221.867 357.600,223.037 357.600 C 224.138 357.600,224.524 357.413,224.684 356.800 C 224.843 356.194,225.230 356.000,226.284 356.000 C 227.338 356.000,227.725 355.806,227.884 355.200 C 228.000 354.757,228.430 354.400,228.847 354.400 C 229.333 354.400,229.600 354.117,229.600 353.600 C 229.600 352.933,229.867 352.800,231.200 352.800 C 232.533 352.800,232.800 352.667,232.800 352.000 C 232.800 351.333,233.067 351.200,234.400 351.200 C 235.733 351.200,236.000 351.067,236.000 350.400 C 236.000 349.748,236.267 349.600,237.437 349.600 C 238.538 349.600,238.924 349.413,239.084 348.800 C 239.243 348.194,239.630 348.000,240.684 348.000 C 241.738 348.000,242.125 347.806,242.284 347.200 C 242.399 346.760,242.804 346.400,243.185 346.400 C 243.565 346.400,244.202 346.040,244.600 345.600 C 244.998 345.160,245.746 344.800,246.262 344.800 C 246.933 344.800,247.200 344.573,247.200 344.000 C 247.200 343.333,247.467 343.200,248.800 343.200 C 250.133 343.200,250.400 343.067,250.400 342.400 C 250.400 341.733,250.667 341.600,252.000 341.600 C 253.333 341.600,253.600 341.467,253.600 340.800 C 253.600 340.148,253.867 340.000,255.037 340.000 C 256.138 340.000,256.524 339.813,256.684 339.200 C 256.799 338.760,257.204 338.400,257.585 338.400 C 257.965 338.400,258.602 338.040,259.000 337.600 C 259.398 337.160,260.146 336.800,260.662 336.800 C 261.333 336.800,261.600 336.573,261.600 336.000 C 261.600 335.333,261.867 335.200,263.200 335.200 C 264.533 335.200,264.800 335.067,264.800 334.400 C 264.800 333.733,265.067 333.600,266.400 333.600 C 267.733 333.600,268.000 333.467,268.000 332.800 C 268.000 332.148,268.267 332.000,269.437 332.000 C 270.515 332.000,270.925 331.809,271.074 331.238 C 271.201 330.752,271.768 330.382,272.637 330.219 C 273.446 330.068,274.000 329.727,274.000 329.382 C 274.000 329.028,274.392 328.800,275.000 328.800 C 275.733 328.800,276.000 328.587,276.000 328.000 C 276.000 327.333,276.267 327.200,277.600 327.200 C 278.933 327.200,279.200 327.067,279.200 326.400 C 279.200 325.733,279.467 325.600,280.800 325.600 C 282.133 325.600,282.400 325.467,282.400 324.800 C 282.400 324.148,282.667 324.000,283.837 324.000 C 284.938 324.000,285.324 323.813,285.484 323.200 C 285.620 322.681,286.030 322.400,286.651 322.400 C 287.177 322.400,287.916 322.040,288.293 321.600 C 288.670 321.160,289.298 320.800,289.689 320.800 C 290.133 320.800,290.400 320.500,290.400 320.000 C 290.400 319.333,290.667 319.200,292.000 319.200 C 293.333 319.200,293.600 319.067,293.600 318.400 C 293.600 317.733,293.867 317.600,295.200 317.600 C 296.533 317.600,296.800 317.467,296.800 316.800 C 296.800 316.148,297.067 316.000,298.237 316.000 C 299.338 316.000,299.724 315.813,299.884 315.200 C 300.020 314.681,300.430 314.400,301.051 314.400 C 301.577 314.400,302.316 314.040,302.693 313.600 C 303.070 313.160,303.698 312.800,304.089 312.800 C 304.533 312.800,304.800 312.500,304.800 312.000 C 304.800 311.333,305.067 311.200,306.400 311.200 C 307.733 311.200,308.000 311.067,308.000 310.400 C 308.000 309.733,308.267 309.600,309.600 309.600 C 310.933 309.600,311.200 309.467,311.200 308.800 C 311.200 308.148,311.467 308.000,312.637 308.000 C 313.738 308.000,314.124 307.813,314.284 307.200 C 314.432 306.634,314.830 306.400,315.643 306.400 C 316.360 306.400,316.981 306.099,317.293 305.600 C 317.568 305.160,318.109 304.800,318.496 304.800 C 318.933 304.800,319.200 304.497,319.200 304.000 C 319.200 303.333,319.467 303.200,320.800 303.200 C 322.133 303.200,322.400 303.067,322.400 302.400 C 322.400 301.733,322.667 301.600,324.000 301.600 C 325.333 301.600,325.600 301.467,325.600 300.800 C 325.600 300.267,325.867 300.000,326.400 300.000 C 326.900 300.000,327.200 299.733,327.200 299.289 C 327.200 298.898,327.560 298.270,328.000 297.893 C 328.740 297.260,328.800 296.713,328.800 290.651 C 328.800 284.430,328.841 284.083,329.600 283.884 C 330.362 283.685,330.400 283.338,330.400 276.684 C 330.400 270.030,330.438 269.683,331.200 269.484 C 331.956 269.286,332.000 268.938,332.000 263.126 C 332.000 257.473,332.064 256.923,332.800 256.293 C 333.540 255.660,333.600 255.113,333.600 249.051 C 333.600 242.830,333.641 242.483,334.400 242.284 C 335.162 242.085,335.200 241.738,335.200 235.084 C 335.200 228.430,335.238 228.083,336.000 227.884 C 336.756 227.686,336.800 227.338,336.800 221.526 C 336.800 215.873,336.864 215.323,337.600 214.693 C 338.340 214.060,338.400 213.513,338.400 207.451 C 338.400 201.230,338.441 200.883,339.200 200.684 C 339.962 200.485,340.000 200.138,340.000 193.484 C 340.000 186.830,340.038 186.483,340.800 186.284 C 341.558 186.086,341.600 185.738,341.600 179.637 C 341.600 174.423,341.705 173.200,342.153 173.200 C 343.012 173.200,343.189 171.871,343.195 165.347 C 343.200 159.632,343.245 159.282,344.000 159.084 C 344.762 158.885,344.800 158.538,344.800 151.884 C 344.800 145.230,344.838 144.883,345.600 144.684 C 346.358 144.486,346.400 144.138,346.400 138.037 C 346.400 132.823,346.505 131.600,346.953 131.600 C 347.812 131.600,347.989 130.271,347.995 123.747 C 348.000 118.032,348.045 117.682,348.800 117.484 C 349.562 117.285,349.600 116.938,349.600 110.284 C 349.600 103.630,349.638 103.283,350.400 103.084 C 351.510 102.794,351.540 100.414,350.437 100.126 C 350.017 100.016,349.584 99.583,349.474 99.163 C 349.308 98.527,348.902 98.400,347.037 98.400 C 345.067 98.400,344.800 98.305,344.800 97.600 C 344.800 96.889,344.533 96.800,342.400 96.800 C 340.267 96.800,340.000 96.711,340.000 96.000 C 340.000 95.323,339.733 95.200,338.262 95.200 C 337.032 95.200,336.312 94.966,335.800 94.400 C 335.323 93.873,334.568 93.600,333.585 93.600 C 332.430 93.600,332.046 93.420,331.884 92.800 C 331.707 92.123,331.338 92.000,329.484 92.000 C 327.630 92.000,327.261 91.877,327.084 91.200 C 326.906 90.520,326.538 90.400,324.637 90.400 C 322.667 90.400,322.400 90.305,322.400 89.600 C 322.400 88.889,322.133 88.800,320.000 88.800 C 317.867 88.800,317.600 88.711,317.600 88.000 C 317.600 87.323,317.333 87.200,315.862 87.200 C 314.632 87.200,313.912 86.966,313.400 86.400 C 312.931 85.882,312.168 85.600,311.234 85.600 C 310.226 85.600,309.642 85.360,309.293 84.800 C 308.904 84.178,308.360 84.000,306.843 84.000 C 305.230 84.000,304.857 83.862,304.684 83.200 C 304.506 82.520,304.138 82.400,302.237 82.400 C 300.267 82.400,300.000 82.305,300.000 81.600 C 300.000 80.889,299.733 80.800,297.600 80.800 C 295.467 80.800,295.200 80.711,295.200 80.000 C 295.200 79.323,294.933 79.200,293.462 79.200 C 292.232 79.200,291.512 78.966,291.000 78.400 C 290.531 77.882,289.768 77.600,288.834 77.600 C 287.826 77.600,287.242 77.360,286.893 76.800 C 286.504 76.178,285.960 76.000,284.443 76.000 C 282.830 76.000,282.457 75.862,282.284 75.200 C 282.106 74.520,281.738 74.400,279.837 74.400 C 277.867 74.400,277.600 74.305,277.600 73.600 C 277.600 72.889,277.333 72.800,275.200 72.800 C 273.067 72.800,272.800 72.711,272.800 72.000 C 272.800 71.323,272.533 71.200,271.062 71.200 C 269.832 71.200,269.112 70.966,268.600 70.400 C 268.131 69.882,267.368 69.600,266.434 69.600 C 265.426 69.600,264.842 69.360,264.493 68.800 C 264.104 68.178,263.560 68.000,262.043 68.000 C 260.430 68.000,260.057 67.862,259.884 67.200 C 259.706 66.520,259.338 66.400,257.437 66.400 C 255.467 66.400,255.200 66.305,255.200 65.600 C 255.200 64.889,254.933 64.800,252.800 64.800 C 250.667 64.800,250.400 64.711,250.400 64.000 C 250.400 63.289,250.133 63.200,248.000 63.200 C 245.867 63.200,245.600 63.111,245.600 62.400 C 245.600 61.742,245.333 61.600,244.096 61.600 C 243.026 61.600,242.449 61.370,242.093 60.800 C 241.704 60.178,241.160 60.000,239.643 60.000 C 238.030 60.000,237.657 59.862,237.484 59.200 C 237.306 58.520,236.938 58.400,235.037 58.400 C 233.067 58.400,232.800 58.305,232.800 57.600 C 232.800 56.889,232.533 56.800,230.400 56.800 C 228.267 56.800,228.000 56.711,228.000 56.000 C 228.000 55.289,227.733 55.200,225.600 55.200 C 223.467 55.200,223.200 55.111,223.200 54.400 C 223.200 53.742,222.933 53.600,221.696 53.600 C 220.626 53.600,220.049 53.370,219.693 52.800 C 219.304 52.178,218.760 52.000,217.243 52.000 C 215.630 52.000,215.257 51.862,215.084 51.200 C 214.906 50.520,214.538 50.400,212.637 50.400 C 210.667 50.400,210.400 50.305,210.400 49.600 C 210.400 48.889,210.133 48.800,208.000 48.800 C 205.867 48.800,205.600 48.711,205.600 48.000 C 205.600 47.239,205.333 47.200,200.163 47.200 C 195.062 47.200,194.712 47.249,194.516 48.000 M201.586 84.774 C 201.814 85.199,202.000 85.846,202.000 86.211 C 202.000 86.575,202.360 87.331,202.800 87.891 C 203.240 88.450,203.600 89.260,203.600 89.691 C 203.600 90.121,203.960 90.931,204.400 91.491 C 204.840 92.050,205.200 92.763,205.200 93.075 C 205.200 93.386,205.560 94.352,206.000 95.221 C 206.440 96.089,207.160 97.511,207.600 98.379 C 208.040 99.248,208.400 100.254,208.400 100.616 C 208.400 100.978,208.760 101.731,209.200 102.291 C 209.640 102.850,210.000 103.660,210.000 104.091 C 210.000 104.521,210.360 105.331,210.800 105.891 C 211.240 106.450,211.600 107.163,211.600 107.475 C 211.600 107.786,211.960 108.752,212.400 109.621 C 212.840 110.489,213.560 111.911,214.000 112.779 C 214.440 113.648,214.800 114.654,214.800 115.016 C 214.800 115.378,215.160 116.131,215.600 116.691 C 216.040 117.250,216.400 118.060,216.400 118.491 C 216.400 118.921,216.760 119.731,217.200 120.291 C 217.640 120.850,218.000 121.563,218.000 121.875 C 218.000 122.186,218.386 123.197,218.858 124.121 C 220.914 128.147,221.200 128.794,221.200 129.416 C 221.200 129.778,221.560 130.531,222.000 131.091 C 222.440 131.650,222.800 132.460,222.800 132.891 C 222.800 133.321,223.160 134.131,223.600 134.691 C 224.040 135.250,224.400 135.963,224.400 136.275 C 224.400 136.586,224.760 137.552,225.200 138.421 C 225.640 139.289,226.360 140.711,226.800 141.579 C 227.240 142.448,227.600 143.454,227.600 143.816 C 227.600 144.178,227.960 144.931,228.400 145.491 C 228.840 146.050,229.200 146.860,229.200 147.291 C 229.200 147.721,229.560 148.531,230.000 149.091 C 230.440 149.650,230.800 150.363,230.800 150.675 C 230.800 150.986,231.160 151.952,231.600 152.821 C 232.040 153.689,232.760 155.111,233.200 155.979 C 233.640 156.848,234.000 157.854,234.000 158.216 C 234.000 158.578,234.360 159.331,234.800 159.891 C 235.240 160.450,235.600 161.260,235.600 161.691 C 235.600 162.121,235.960 162.931,236.400 163.491 C 236.840 164.050,237.200 164.763,237.200 165.075 C 237.200 165.386,237.560 166.352,238.000 167.221 C 238.440 168.089,239.160 169.511,239.600 170.379 C 240.040 171.248,240.400 172.254,240.400 172.616 C 240.400 172.978,240.760 173.731,241.200 174.291 C 241.640 174.850,242.000 175.660,242.000 176.091 C 242.000 176.521,242.360 177.331,242.800 177.891 C 243.240 178.450,243.600 179.163,243.600 179.475 C 243.600 179.786,243.960 180.752,244.400 181.621 C 244.840 182.489,245.560 183.911,246.000 184.779 C 246.440 185.648,246.800 186.654,246.800 187.016 C 246.800 187.378,247.160 188.131,247.600 188.691 C 248.040 189.250,248.400 190.060,248.400 190.491 C 248.400 190.921,248.760 191.731,249.200 192.291 C 249.640 192.850,250.000 193.563,250.000 193.875 C 250.000 194.186,250.360 195.152,250.800 196.021 C 251.240 196.889,251.960 198.311,252.400 199.179 C 252.840 200.048,253.200 201.054,253.200 201.416 C 253.200 201.778,253.560 202.531,254.000 203.091 C 254.440 203.650,254.800 204.460,254.800 204.891 C 254.800 205.321,255.160 206.131,255.600 206.691 C 256.040 207.250,256.400 207.963,256.400 208.275 C 256.400 208.586,256.760 209.552,257.200 210.421 C 257.640 211.289,258.360 212.711,258.800 213.579 C 259.240 214.448,259.600 215.454,259.600 215.816 C 259.600 216.178,259.960 216.931,260.400 217.491 C 260.840 218.050,261.200 218.860,261.200 219.291 C 261.200 219.721,261.560 220.531,262.000 221.091 C 262.440 221.650,262.800 222.363,262.800 222.675 C 262.800 222.986,263.160 223.952,263.600 224.821 C 264.040 225.689,264.760 227.111,265.200 227.979 C 265.640 228.848,266.000 229.854,266.000 230.216 C 266.000 230.578,266.360 231.331,266.800 231.891 C 267.240 232.450,267.600 233.260,267.600 233.691 C 267.600 234.121,267.960 234.931,268.400 235.491 C 268.840 236.050,269.200 236.763,269.200 237.075 C 269.200 237.386,269.560 238.352,270.000 239.221 C 270.440 240.089,271.160 241.511,271.600 242.379 C 272.040 243.248,272.400 244.254,272.400 244.616 C 272.400 244.978,272.760 245.731,273.200 246.291 C 273.640 246.850,274.000 247.660,274.000 248.091 C 274.000 248.521,274.360 249.331,274.800 249.891 C 275.240 250.450,275.600 251.163,275.600 251.475 C 275.600 251.786,275.960 252.752,276.400 253.621 C 276.840 254.489,277.560 255.911,278.000 256.779 C 278.440 257.648,278.800 258.654,278.800 259.016 C 278.800 259.378,279.160 260.131,279.600 260.691 C 280.040 261.250,280.400 262.060,280.400 262.491 C 280.400 262.921,280.760 263.731,281.200 264.291 C 281.640 264.850,282.000 265.563,282.000 265.875 C 282.000 266.186,282.360 267.152,282.800 268.021 C 283.240 268.889,283.960 270.311,284.400 271.179 C 284.840 272.048,285.200 273.054,285.200 273.416 C 285.200 273.778,285.560 274.531,286.000 275.091 C 286.440 275.650,286.800 276.460,286.800 276.891 C 286.800 277.321,287.160 278.131,287.600 278.691 C 288.040 279.250,288.400 279.963,288.400 280.275 C 288.400 280.586,288.760 281.552,289.200 282.421 C 289.640 283.289,290.360 284.711,290.800 285.579 C 291.240 286.448,291.600 287.469,291.600 287.848 C 291.600 288.227,291.856 288.821,292.169 289.169 C 293.132 290.238,293.333 291.810,292.600 292.542 C 291.733 293.409,259.428 293.558,258.289 292.700 C 257.515 292.117,255.600 288.620,255.600 287.789 C 255.600 287.475,255.241 286.630,254.801 285.910 C 254.362 285.189,254.001 284.240,253.999 283.800 C 253.997 283.360,253.637 282.460,253.200 281.800 C 252.763 281.140,252.404 280.217,252.403 279.749 C 252.401 279.281,252.135 278.678,251.811 278.409 C 251.486 278.140,251.105 277.263,250.962 276.460 C 250.819 275.657,250.365 274.439,249.951 273.753 C 249.538 273.067,249.200 272.144,249.200 271.702 C 249.200 271.260,248.950 270.690,248.644 270.437 C 248.339 270.183,247.879 269.143,247.623 268.125 C 247.366 267.106,246.896 265.902,246.578 265.448 C 246.260 264.994,246.000 264.234,246.000 263.760 C 246.000 263.286,245.750 262.690,245.444 262.437 C 245.139 262.183,244.679 261.143,244.423 260.125 C 244.166 259.106,243.696 257.902,243.378 257.448 C 243.060 256.994,242.800 256.234,242.800 255.760 C 242.800 255.286,242.546 254.687,242.235 254.429 C 241.924 254.171,241.457 253.069,241.195 251.980 C 240.934 250.891,240.566 250.000,240.378 250.000 C 240.190 250.000,239.917 249.365,239.772 248.589 C 239.346 246.322,240.750 246.400,200.126 246.405 C 161.198 246.411,160.402 246.434,160.397 247.547 C 160.396 247.906,160.037 248.740,159.600 249.400 C 159.163 250.060,158.804 250.916,158.803 251.301 C 158.801 251.687,158.440 252.675,158.000 253.496 C 157.560 254.316,157.199 255.261,157.197 255.594 C 157.196 255.927,156.837 256.740,156.400 257.400 C 155.963 258.060,155.604 258.916,155.603 259.301 C 155.601 259.687,155.240 260.675,154.800 261.496 C 154.360 262.316,153.999 263.261,153.997 263.594 C 153.996 263.927,153.637 264.740,153.200 265.400 C 152.763 266.060,152.404 266.916,152.403 267.301 C 152.401 267.687,152.040 268.675,151.600 269.496 C 151.160 270.316,150.799 271.261,150.797 271.594 C 150.796 271.927,150.437 272.740,150.000 273.400 C 149.563 274.060,149.203 274.960,149.200 275.400 C 149.197 275.840,148.837 276.740,148.400 277.400 C 147.963 278.060,147.603 278.960,147.600 279.400 C 147.597 279.840,147.237 280.740,146.800 281.400 C 146.363 282.060,146.003 282.960,146.000 283.400 C 145.997 283.840,145.637 284.740,145.200 285.400 C 144.763 286.060,144.403 286.960,144.400 287.400 C 144.397 287.840,144.037 288.740,143.600 289.400 C 143.163 290.060,142.804 290.905,142.803 291.277 C 142.795 293.124,142.071 293.200,124.391 293.200 C 111.989 293.200,107.638 293.078,107.280 292.720 C 106.535 291.975,106.712 289.638,107.600 288.509 C 108.040 287.950,108.400 287.140,108.400 286.709 C 108.400 286.279,108.760 285.469,109.200 284.909 C 109.640 284.350,110.000 283.540,110.000 283.109 C 110.000 282.679,110.360 281.869,110.800 281.309 C 111.240 280.750,111.600 279.940,111.600 279.509 C 111.600 279.079,111.960 278.269,112.400 277.709 C 112.840 277.150,113.200 276.340,113.200 275.909 C 113.200 275.479,113.560 274.669,114.000 274.109 C 114.440 273.550,114.801 272.801,114.803 272.446 C 114.804 272.091,115.163 271.260,115.600 270.600 C 116.037 269.940,116.396 269.068,116.397 268.663 C 116.399 268.258,116.760 267.469,117.200 266.909 C 117.640 266.350,118.000 265.637,118.000 265.325 C 118.000 265.014,118.338 264.093,118.751 263.279 C 119.165 262.466,119.906 260.900,120.400 259.800 C 120.894 258.700,121.635 257.134,122.049 256.321 C 122.462 255.507,122.800 254.586,122.800 254.275 C 122.800 253.963,123.160 253.250,123.600 252.691 C 124.040 252.131,124.400 251.378,124.400 251.016 C 124.400 250.654,124.760 249.648,125.200 248.779 C 125.640 247.911,126.360 246.489,126.800 245.621 C 127.240 244.752,127.600 243.786,127.600 243.475 C 127.600 243.163,127.960 242.450,128.400 241.891 C 128.840 241.331,129.200 240.521,129.200 240.091 C 129.200 239.660,129.560 238.850,130.000 238.291 C 130.440 237.731,130.800 236.910,130.800 236.465 C 130.800 236.021,131.056 235.401,131.368 235.089 C 131.681 234.776,132.138 233.773,132.384 232.860 C 132.630 231.947,132.983 231.200,133.168 231.200 C 133.353 231.200,133.703 230.415,133.944 229.456 C 134.186 228.497,134.657 227.485,134.992 227.207 C 135.326 226.929,135.600 226.298,135.600 225.805 C 135.600 225.312,135.960 224.450,136.400 223.891 C 136.840 223.331,137.200 222.510,137.200 222.065 C 137.200 221.621,137.456 221.001,137.768 220.689 C 138.081 220.376,138.538 219.373,138.784 218.460 C 139.030 217.547,139.383 216.800,139.568 216.800 C 139.753 216.800,140.103 216.015,140.344 215.056 C 140.586 214.097,141.057 213.085,141.392 212.807 C 141.726 212.529,142.000 211.898,142.000 211.405 C 142.000 210.912,142.360 210.050,142.800 209.491 C 143.240 208.931,143.600 208.125,143.600 207.698 C 143.600 207.271,143.960 206.507,144.400 206.000 C 144.840 205.493,145.200 204.677,145.200 204.188 C 145.200 203.698,145.450 203.090,145.756 202.837 C 146.061 202.583,146.507 201.596,146.747 200.644 C 146.987 199.691,147.457 198.685,147.792 198.407 C 148.126 198.129,148.400 197.502,148.400 197.012 C 148.400 196.523,148.760 195.707,149.200 195.200 C 149.640 194.693,150.000 193.929,150.000 193.502 C 150.000 193.075,150.360 192.269,150.800 191.709 C 151.240 191.150,151.600 190.288,151.600 189.795 C 151.600 189.302,151.858 188.683,152.174 188.421 C 152.490 188.159,152.874 187.372,153.026 186.672 C 153.179 185.973,153.641 184.971,154.052 184.446 C 154.463 183.921,154.800 183.094,154.800 182.607 C 154.800 182.121,155.160 181.307,155.600 180.800 C 156.040 180.293,156.400 179.529,156.400 179.102 C 156.400 178.675,156.760 177.869,157.200 177.309 C 157.640 176.750,158.000 175.940,158.000 175.509 C 158.000 175.079,158.360 174.269,158.800 173.709 C 159.240 173.150,159.600 172.340,159.600 171.909 C 159.600 171.479,159.960 170.669,160.400 170.109 C 160.840 169.550,161.200 168.740,161.200 168.309 C 161.200 167.879,161.560 167.069,162.000 166.509 C 162.440 165.950,162.800 165.140,162.800 164.709 C 162.800 164.279,163.160 163.469,163.600 162.909 C 164.040 162.350,164.400 161.540,164.400 161.109 C 164.400 160.679,164.760 159.869,165.200 159.309 C 165.640 158.750,166.000 158.037,166.000 157.725 C 166.000 157.414,166.338 156.493,166.751 155.679 C 167.470 154.264,168.321 152.404,169.945 148.700 C 170.355 147.765,171.100 146.100,171.600 145.000 C 172.100 143.900,172.867 142.190,173.303 141.200 C 173.740 140.210,174.435 138.734,174.849 137.921 C 175.262 137.107,175.600 136.186,175.600 135.875 C 175.600 135.563,175.960 134.850,176.400 134.291 C 176.840 133.731,177.200 132.910,177.200 132.465 C 177.200 132.021,177.456 131.401,177.768 131.089 C 178.081 130.776,178.534 129.818,178.775 128.960 C 179.016 128.102,179.480 127.051,179.806 126.624 C 180.133 126.196,180.400 125.546,180.400 125.177 C 180.400 124.809,180.760 124.050,181.200 123.491 C 181.640 122.931,182.000 122.121,182.000 121.691 C 182.000 121.260,182.360 120.450,182.800 119.891 C 183.240 119.331,183.600 118.510,183.600 118.065 C 183.600 117.621,183.856 117.001,184.168 116.689 C 184.481 116.376,184.938 115.373,185.184 114.460 C 185.430 113.547,185.783 112.800,185.968 112.800 C 186.153 112.800,186.503 112.015,186.744 111.056 C 186.986 110.097,187.457 109.085,187.792 108.807 C 188.126 108.529,188.400 107.898,188.400 107.405 C 188.400 106.912,188.760 106.050,189.200 105.491 C 189.640 104.931,190.000 104.110,190.000 103.665 C 190.000 103.221,190.256 102.601,190.568 102.289 C 190.881 101.976,191.338 100.973,191.584 100.060 C 191.830 99.147,192.183 98.400,192.368 98.400 C 192.553 98.400,192.903 97.615,193.144 96.656 C 193.386 95.697,193.857 94.685,194.192 94.407 C 194.526 94.129,194.800 93.502,194.800 93.012 C 194.800 92.523,195.160 91.707,195.600 91.200 C 196.040 90.693,196.400 89.929,196.400 89.502 C 196.400 89.075,196.760 88.269,197.200 87.709 C 197.640 87.150,198.000 86.302,198.000 85.826 C 198.000 84.011,200.746 83.205,201.586 84.774 M198.989 155.700 C 198.837 156.415,198.373 157.561,197.957 158.247 C 197.541 158.933,197.200 159.865,197.200 160.319 C 197.200 160.772,196.944 161.399,196.632 161.711 C 196.319 162.024,195.866 162.982,195.625 163.840 C 195.384 164.698,194.920 165.749,194.594 166.176 C 194.267 166.604,193.999 167.324,193.997 167.776 C 193.996 168.229,193.637 169.140,193.200 169.800 C 192.763 170.460,192.404 171.383,192.403 171.851 C 192.401 172.319,192.142 172.917,191.826 173.179 C 191.510 173.441,191.130 174.228,190.983 174.928 C 190.835 175.627,190.373 176.761,189.957 177.447 C 189.541 178.133,189.200 179.065,189.200 179.519 C 189.200 179.972,188.928 180.615,188.595 180.948 C 188.262 181.281,187.874 182.149,187.733 182.877 C 187.591 183.605,187.144 184.629,186.738 185.154 C 186.332 185.679,185.999 186.489,185.997 186.954 C 185.996 187.419,185.637 188.340,185.200 189.000 C 184.763 189.660,184.404 190.583,184.403 191.051 C 184.401 191.519,184.142 192.117,183.826 192.379 C 183.510 192.641,183.130 193.428,182.983 194.128 C 182.835 194.827,182.373 195.961,181.957 196.647 C 181.541 197.333,181.200 198.265,181.200 198.719 C 181.200 199.172,180.928 199.815,180.595 200.148 C 180.262 200.481,179.874 201.349,179.733 202.077 C 179.591 202.805,179.144 203.829,178.738 204.354 C 178.332 204.879,177.999 205.689,177.997 206.154 C 177.996 206.619,177.637 207.540,177.200 208.200 C 176.763 208.860,176.404 209.792,176.403 210.271 C 176.401 210.751,176.112 211.431,175.760 211.782 C 175.409 212.134,175.025 213.138,174.907 214.014 L 174.694 215.606 200.047 215.503 L 225.400 215.400 225.264 214.200 C 225.189 213.540,224.784 212.439,224.364 211.753 C 223.944 211.067,223.600 210.202,223.600 209.832 C 223.600 209.462,223.240 208.448,222.800 207.579 C 222.360 206.711,221.640 205.289,221.200 204.421 C 220.760 203.552,220.399 202.517,220.397 202.121 C 220.396 201.724,220.037 200.860,219.600 200.200 C 219.163 199.540,218.804 198.668,218.803 198.263 C 218.801 197.858,218.440 197.069,218.000 196.509 C 217.560 195.950,217.199 195.111,217.197 194.646 C 217.196 194.181,216.837 193.260,216.400 192.600 C 215.963 191.940,215.604 191.076,215.603 190.679 C 215.601 190.283,215.240 189.248,214.800 188.379 C 214.360 187.511,213.640 186.089,213.200 185.221 C 212.760 184.352,212.399 183.317,212.397 182.921 C 212.396 182.524,212.037 181.660,211.600 181.000 C 211.163 180.340,210.804 179.417,210.803 178.949 C 210.801 178.481,210.542 177.883,210.226 177.621 C 209.910 177.359,209.530 176.572,209.383 175.872 C 209.235 175.173,208.773 174.039,208.357 173.353 C 207.941 172.667,207.600 171.802,207.600 171.432 C 207.600 171.062,207.214 170.003,206.742 169.079 C 204.655 164.991,204.400 164.394,204.400 163.584 C 204.400 163.112,204.040 162.269,203.600 161.709 C 203.160 161.150,202.800 160.301,202.800 159.823 C 202.800 159.344,202.533 158.604,202.206 158.176 C 201.880 157.749,201.423 156.725,201.191 155.900 C 200.636 153.927,199.387 153.814,198.989 155.700 " stroke="none" fill="#d00430" fill-rule="evenodd"></path><path id="path2" d="M198.640 86.184 C 198.423 87.048,197.790 88.497,194.442 95.800 C 194.038 96.680,193.434 98.030,193.099 98.800 C 192.765 99.570,192.002 101.280,191.405 102.600 C 189.072 107.755,188.664 108.661,187.891 110.400 C 187.451 111.390,186.755 112.965,186.345 113.900 C 185.396 116.064,184.233 118.681,183.145 121.100 C 182.675 122.145,181.980 123.720,181.600 124.600 C 181.220 125.480,180.525 127.055,180.055 128.100 C 178.967 130.519,177.804 133.136,176.855 135.300 C 176.445 136.235,175.725 137.855,175.255 138.900 C 174.785 139.945,174.058 141.565,173.641 142.500 C 173.223 143.435,172.433 145.190,171.885 146.400 C 170.649 149.127,168.896 153.072,166.996 157.400 C 166.707 158.060,165.929 159.770,165.268 161.200 C 164.608 162.630,160.794 171.180,156.794 180.200 C 152.794 189.220,149.069 197.590,148.516 198.800 C 147.963 200.010,147.171 201.765,146.755 202.700 C 146.340 203.635,145.620 205.255,145.156 206.300 C 144.692 207.345,143.864 209.190,143.315 210.400 C 142.301 212.640,141.392 214.689,140.299 217.200 C 139.965 217.970,139.202 219.680,138.605 221.000 C 138.007 222.320,137.201 224.120,136.814 225.000 C 136.426 225.880,135.700 227.500,135.200 228.600 C 134.700 229.700,133.955 231.365,133.545 232.300 C 133.135 233.235,132.415 234.855,131.945 235.900 C 131.475 236.945,130.731 238.610,130.291 239.600 C 129.851 240.590,129.131 242.210,128.691 243.200 C 128.251 244.190,127.555 245.765,127.145 246.700 C 126.195 248.868,125.166 251.172,123.795 254.200 C 123.198 255.520,122.435 257.230,122.101 258.000 C 121.008 260.511,120.099 262.560,119.085 264.800 C 117.849 267.527,116.096 271.472,114.196 275.800 C 113.907 276.460,113.129 278.170,112.467 279.600 C 109.171 286.728,107.578 290.653,107.684 291.388 C 107.798 292.186,108.068 292.202,123.800 292.306 C 141.537 292.423,141.679 292.406,142.435 290.059 C 142.693 289.256,143.037 288.420,143.200 288.200 C 143.363 287.980,143.723 287.080,144.000 286.200 C 144.277 285.320,144.637 284.420,144.800 284.200 C 144.963 283.980,145.323 283.080,145.600 282.200 C 145.877 281.320,146.237 280.420,146.400 280.200 C 146.563 279.980,146.925 279.080,147.205 278.200 C 147.485 277.320,147.958 276.245,148.257 275.811 C 148.556 275.377,148.801 274.747,148.802 274.411 C 148.804 274.075,149.054 273.322,149.359 272.739 C 149.663 272.155,150.138 270.985,150.413 270.139 C 150.689 269.292,151.158 268.245,151.457 267.811 C 151.756 267.377,152.001 266.747,152.002 266.411 C 152.004 266.075,152.254 265.322,152.559 264.739 C 152.863 264.155,153.338 262.985,153.613 262.139 C 153.889 261.292,154.358 260.245,154.657 259.811 C 154.956 259.377,155.201 258.747,155.202 258.411 C 155.204 258.075,155.454 257.322,155.759 256.739 C 156.063 256.155,156.538 254.985,156.813 254.139 C 157.089 253.292,157.558 252.245,157.857 251.811 C 158.156 251.377,158.400 250.765,158.400 250.451 C 158.400 248.923,160.568 245.627,161.743 245.369 C 163.230 245.042,238.576 245.609,239.099 245.951 C 239.528 246.231,241.220 250.116,244.000 257.200 C 244.388 258.190,245.108 259.990,245.600 261.200 C 246.092 262.410,246.812 264.210,247.200 265.200 C 247.588 266.190,248.266 267.900,248.706 269.000 C 249.146 270.100,249.866 271.900,250.306 273.000 C 250.746 274.100,251.487 275.945,251.953 277.100 C 252.419 278.255,253.139 280.055,253.553 281.100 C 256.493 288.516,257.702 291.242,258.329 291.870 C 258.750 292.293,262.219 292.400,275.481 292.400 L 292.105 292.400 291.892 290.807 C 291.774 289.931,291.300 288.401,290.839 287.407 C 290.378 286.413,289.640 284.790,289.200 283.800 C 288.760 282.810,288.040 281.190,287.600 280.200 C 287.160 279.210,286.440 277.590,286.000 276.600 C 285.560 275.610,284.840 273.990,284.400 273.000 C 283.960 272.010,283.240 270.390,282.800 269.400 C 282.360 268.410,281.640 266.790,281.200 265.800 C 280.760 264.810,280.040 263.190,279.600 262.200 C 279.160 261.210,278.440 259.590,278.000 258.600 C 277.560 257.610,276.840 255.990,276.400 255.000 C 275.960 254.010,275.240 252.390,274.800 251.400 C 274.360 250.410,273.640 248.790,273.200 247.800 C 272.760 246.810,272.040 245.190,271.600 244.200 C 271.160 243.210,270.440 241.590,270.000 240.600 C 269.560 239.610,268.840 237.990,268.400 237.000 C 267.960 236.010,267.240 234.390,266.800 233.400 C 266.360 232.410,265.640 230.790,265.200 229.800 C 264.760 228.810,264.040 227.190,263.600 226.200 C 263.160 225.210,262.440 223.590,262.000 222.600 C 261.560 221.610,260.840 219.990,260.400 219.000 C 259.960 218.010,259.240 216.390,258.800 215.400 C 258.360 214.410,257.640 212.790,257.200 211.800 C 256.760 210.810,256.040 209.190,255.600 208.200 C 255.160 207.210,254.440 205.590,254.000 204.600 C 253.560 203.610,252.840 201.990,252.400 201.000 C 251.960 200.010,251.240 198.390,250.800 197.400 C 250.360 196.410,249.640 194.790,249.200 193.800 C 248.760 192.810,248.040 191.190,247.600 190.200 C 247.160 189.210,246.440 187.590,246.000 186.600 C 245.560 185.610,244.840 183.990,244.400 183.000 C 243.960 182.010,243.240 180.390,242.800 179.400 C 242.360 178.410,241.640 176.790,241.200 175.800 C 240.760 174.810,240.040 173.190,239.600 172.200 C 239.160 171.210,238.440 169.590,238.000 168.600 C 237.560 167.610,236.840 165.990,236.400 165.000 C 235.960 164.010,235.240 162.390,234.800 161.400 C 234.360 160.410,233.640 158.790,233.200 157.800 C 232.760 156.810,232.040 155.190,231.600 154.200 C 231.160 153.210,230.440 151.590,230.000 150.600 C 229.560 149.610,228.840 147.990,228.400 147.000 C 227.960 146.010,227.240 144.390,226.800 143.400 C 226.360 142.410,225.640 140.790,225.200 139.800 C 224.760 138.810,224.040 137.190,223.600 136.200 C 223.160 135.210,222.440 133.590,222.000 132.600 C 221.560 131.610,220.840 129.990,220.400 129.000 C 219.960 128.010,219.240 126.390,218.800 125.400 C 218.360 124.410,217.640 122.790,217.200 121.800 C 216.760 120.810,216.040 119.190,215.600 118.200 C 215.160 117.210,214.440 115.590,214.000 114.600 C 213.560 113.610,212.840 111.990,212.400 111.000 C 211.960 110.010,211.240 108.390,210.800 107.400 C 210.360 106.410,209.640 104.790,209.200 103.800 C 208.760 102.810,208.040 101.190,207.600 100.200 C 207.160 99.210,206.440 97.590,206.000 96.600 C 205.560 95.610,204.860 94.035,204.445 93.100 C 204.029 92.165,203.241 90.410,202.692 89.200 C 202.144 87.990,201.572 86.595,201.421 86.100 C 201.015 84.771,198.979 84.833,198.640 86.184 M201.220 87.500 C 201.484 88.325,201.928 89.270,202.206 89.600 C 202.484 89.930,202.833 90.773,202.981 91.472 C 203.130 92.172,203.510 92.959,203.826 93.221 C 204.142 93.483,204.400 93.957,204.400 94.274 C 204.400 94.795,204.883 95.941,207.245 101.026 C 207.660 101.921,208.000 102.844,208.000 103.077 C 208.000 103.311,208.251 103.710,208.558 103.965 C 208.865 104.220,209.230 105.034,209.369 105.774 C 209.508 106.514,209.886 107.340,210.211 107.609 C 210.535 107.878,210.800 108.357,210.800 108.674 C 210.800 109.195,211.283 110.341,213.645 115.426 C 214.060 116.321,214.400 117.244,214.400 117.477 C 214.400 117.711,214.651 118.110,214.958 118.365 C 215.265 118.620,215.630 119.434,215.769 120.174 C 215.908 120.914,216.286 121.740,216.611 122.009 C 216.935 122.278,217.200 122.757,217.200 123.074 C 217.200 123.595,217.683 124.741,220.045 129.826 C 220.460 130.721,220.800 131.644,220.800 131.877 C 220.800 132.111,221.051 132.510,221.358 132.765 C 221.665 133.020,222.030 133.834,222.169 134.574 C 222.308 135.314,222.686 136.140,223.011 136.409 C 223.335 136.678,223.600 137.157,223.600 137.474 C 223.600 137.995,224.083 139.141,226.445 144.226 C 226.860 145.121,227.200 146.044,227.200 146.277 C 227.200 146.511,227.451 146.910,227.758 147.165 C 228.065 147.420,228.430 148.234,228.569 148.974 C 228.708 149.714,229.086 150.540,229.411 150.809 C 229.735 151.078,230.000 151.557,230.000 151.874 C 230.000 152.395,230.483 153.541,232.845 158.626 C 233.260 159.521,233.600 160.444,233.600 160.677 C 233.600 160.911,233.851 161.310,234.158 161.565 C 234.465 161.820,234.830 162.634,234.969 163.374 C 235.108 164.114,235.486 164.940,235.811 165.209 C 236.135 165.478,236.400 165.957,236.400 166.274 C 236.400 166.795,236.883 167.941,239.245 173.026 C 239.660 173.921,240.000 174.844,240.000 175.077 C 240.000 175.311,240.251 175.710,240.558 175.965 C 240.865 176.220,241.230 177.034,241.369 177.774 C 241.508 178.514,241.886 179.340,242.211 179.609 C 242.535 179.878,242.800 180.357,242.800 180.674 C 242.800 181.195,243.283 182.341,245.645 187.426 C 246.060 188.321,246.400 189.244,246.400 189.477 C 246.400 189.711,246.651 190.110,246.958 190.365 C 247.265 190.620,247.630 191.434,247.769 192.174 C 247.908 192.914,248.286 193.740,248.611 194.009 C 248.935 194.278,249.200 194.757,249.200 195.074 C 249.200 195.595,249.683 196.741,252.045 201.826 C 252.460 202.721,252.800 203.644,252.800 203.877 C 252.800 204.111,253.051 204.510,253.358 204.765 C 253.665 205.020,254.030 205.834,254.169 206.574 C 254.308 207.314,254.686 208.140,255.011 208.409 C 255.335 208.678,255.600 209.157,255.600 209.474 C 255.600 209.995,256.083 211.141,258.445 216.226 C 258.860 217.121,259.200 218.044,259.200 218.277 C 259.200 218.511,259.451 218.910,259.758 219.165 C 260.065 219.420,260.430 220.234,260.569 220.974 C 260.708 221.714,261.086 222.540,261.411 222.809 C 261.735 223.078,262.000 223.557,262.000 223.874 C 262.000 224.395,262.483 225.541,264.845 230.626 C 265.260 231.521,265.600 232.444,265.600 232.677 C 265.600 232.911,265.851 233.310,266.158 233.565 C 266.465 233.820,266.830 234.634,266.969 235.374 C 267.108 236.114,267.486 236.940,267.811 237.209 C 268.135 237.478,268.400 237.957,268.400 238.274 C 268.400 238.795,268.883 239.941,271.245 245.026 C 271.660 245.921,272.000 246.844,272.000 247.077 C 272.000 247.311,272.251 247.710,272.558 247.965 C 272.865 248.220,273.230 249.034,273.369 249.774 C 273.508 250.514,273.886 251.340,274.211 251.609 C 274.535 251.878,274.800 252.357,274.800 252.674 C 274.800 253.195,275.283 254.341,277.645 259.426 C 278.060 260.321,278.400 261.244,278.400 261.477 C 278.400 261.711,278.651 262.110,278.958 262.365 C 279.265 262.620,279.630 263.434,279.769 264.174 C 279.908 264.914,280.286 265.740,280.611 266.009 C 280.935 266.278,281.200 266.757,281.200 267.074 C 281.200 267.595,281.683 268.741,284.045 273.826 C 284.460 274.721,284.800 275.644,284.800 275.877 C 284.800 276.111,285.051 276.510,285.358 276.765 C 285.665 277.020,286.030 277.834,286.169 278.574 C 286.308 279.314,286.686 280.140,287.011 280.409 C 287.335 280.678,287.600 281.157,287.600 281.474 C 287.600 281.999,288.128 283.249,290.507 288.356 C 291.977 291.510,292.564 291.386,275.631 291.505 C 259.235 291.620,258.441 291.543,257.875 289.782 C 257.666 289.132,257.249 288.316,256.948 287.969 C 256.647 287.621,256.400 286.989,256.400 286.563 C 256.400 286.137,256.064 285.161,255.653 284.394 C 255.243 283.627,254.781 282.427,254.628 281.728 C 254.474 281.028,254.090 280.241,253.774 279.979 C 253.458 279.717,253.200 279.157,253.200 278.735 C 253.200 278.313,252.862 277.300,252.449 276.484 C 252.036 275.668,251.574 274.427,251.423 273.728 C 251.272 273.028,250.890 272.241,250.574 271.979 C 250.258 271.717,250.000 271.157,250.000 270.735 C 250.000 270.313,249.662 269.300,249.249 268.484 C 248.836 267.668,248.374 266.427,248.223 265.728 C 248.072 265.028,247.690 264.241,247.374 263.979 C 247.058 263.717,246.800 263.157,246.800 262.735 C 246.800 262.313,246.462 261.300,246.049 260.484 C 245.636 259.668,245.174 258.427,245.023 257.728 C 244.872 257.028,244.490 256.241,244.174 255.979 C 243.858 255.717,243.600 255.169,243.600 254.762 C 243.600 254.060,242.859 252.191,241.156 248.600 C 240.739 247.720,240.398 246.834,240.399 246.631 C 240.405 244.727,242.020 244.800,199.772 244.800 L 160.468 244.800 159.425 246.667 C 158.851 247.693,158.276 248.954,158.147 249.468 C 158.018 249.981,157.572 251.070,157.156 251.886 C 156.740 252.702,156.399 253.646,156.397 253.985 C 156.396 254.323,156.037 255.140,155.600 255.800 C 155.163 256.460,154.804 257.277,154.803 257.615 C 154.801 257.954,154.440 258.937,154.000 259.800 C 153.560 260.663,153.200 261.597,153.200 261.875 C 153.200 262.153,152.841 262.970,152.401 263.690 C 151.962 264.411,151.602 265.277,151.601 265.615 C 151.601 265.954,151.240 266.937,150.800 267.800 C 150.360 268.663,150.000 269.597,150.000 269.875 C 150.000 270.153,149.641 270.970,149.201 271.690 C 148.762 272.411,148.402 273.311,148.401 273.690 C 148.401 274.070,148.041 274.970,147.601 275.690 C 147.162 276.411,146.802 277.311,146.801 277.690 C 146.801 278.070,146.441 278.970,146.001 279.690 C 145.562 280.411,145.202 281.311,145.201 281.690 C 145.201 282.070,144.841 282.970,144.401 283.690 C 143.962 284.411,143.602 285.311,143.601 285.690 C 143.601 286.070,143.241 286.970,142.801 287.690 C 142.362 288.411,142.002 289.387,142.001 289.861 C 141.999 291.440,140.398 291.600,124.617 291.600 C 106.573 291.600,107.164 291.821,110.156 286.200 C 110.508 285.540,110.796 284.758,110.798 284.463 C 110.799 284.168,111.160 283.469,111.600 282.909 C 112.040 282.350,112.400 281.629,112.400 281.308 C 112.400 280.986,112.656 280.246,112.969 279.662 C 113.282 279.078,113.932 277.700,114.413 276.600 C 114.894 275.500,115.736 273.610,116.285 272.400 C 117.540 269.630,118.591 267.277,119.545 265.100 C 119.955 264.165,120.700 262.500,121.200 261.400 C 121.700 260.300,122.420 258.680,122.800 257.800 C 123.180 256.920,123.875 255.345,124.345 254.300 C 124.815 253.255,125.535 251.635,125.945 250.700 C 126.355 249.765,127.075 248.145,127.545 247.100 C 128.015 246.055,128.735 244.435,129.145 243.500 C 129.555 242.565,130.259 240.990,130.709 240.000 C 132.176 236.773,133.219 234.453,134.075 232.509 C 134.538 231.459,135.234 229.880,135.622 229.000 C 136.010 228.120,136.711 226.549,137.181 225.509 C 137.650 224.469,138.394 222.808,138.834 221.818 C 140.958 217.038,141.389 216.097,142.069 214.746 C 142.471 213.946,142.800 213.023,142.800 212.695 C 142.800 212.366,143.065 211.878,143.389 211.609 C 143.714 211.340,144.092 210.514,144.231 209.774 C 144.370 209.034,144.730 208.224,145.031 207.974 C 145.332 207.724,145.692 206.914,145.831 206.174 C 145.970 205.434,146.330 204.624,146.631 204.374 C 146.932 204.124,147.292 203.314,147.431 202.574 C 147.570 201.834,147.930 201.024,148.231 200.774 C 148.532 200.524,148.892 199.714,149.031 198.974 C 149.170 198.234,149.530 197.424,149.831 197.174 C 150.132 196.924,150.492 196.114,150.631 195.374 C 150.770 194.634,151.130 193.824,151.431 193.574 C 151.732 193.324,152.092 192.514,152.231 191.774 C 152.370 191.034,152.735 190.220,153.042 189.965 C 153.349 189.710,153.602 189.299,153.604 189.051 C 153.606 188.803,154.050 187.700,154.591 186.600 C 155.132 185.500,155.581 184.307,155.587 183.949 C 155.594 183.591,155.865 183.078,156.189 182.809 C 156.514 182.540,156.892 181.714,157.031 180.974 C 157.170 180.234,157.535 179.420,157.842 179.165 C 158.149 178.910,158.400 178.511,158.400 178.277 C 158.400 178.044,158.760 177.076,159.200 176.126 C 159.640 175.177,160.360 173.590,160.800 172.600 C 161.240 171.610,161.980 169.945,162.444 168.900 C 162.908 167.855,163.736 166.010,164.284 164.800 C 164.832 163.590,165.515 162.060,165.802 161.400 C 166.773 159.163,168.084 156.208,169.085 154.000 C 170.340 151.230,171.391 148.877,172.345 146.700 C 172.755 145.765,173.451 144.190,173.891 143.200 C 174.331 142.210,175.051 140.590,175.491 139.600 C 175.931 138.610,176.675 136.945,177.145 135.900 C 177.615 134.855,178.360 133.190,178.800 132.200 C 179.240 131.210,179.935 129.635,180.345 128.700 C 180.755 127.765,181.500 126.100,182.000 125.000 C 182.500 123.900,183.228 122.280,183.618 121.400 C 184.008 120.520,184.737 118.900,185.239 117.800 C 185.740 116.700,186.502 114.990,186.933 114.000 C 188.234 111.011,189.081 109.102,190.039 107.000 C 190.540 105.900,191.284 104.239,191.692 103.309 C 193.336 99.564,194.172 97.731,194.869 96.346 C 195.271 95.546,195.600 94.623,195.600 94.295 C 195.600 93.966,195.865 93.478,196.189 93.209 C 196.514 92.940,196.892 92.114,197.031 91.374 C 197.170 90.634,197.523 89.830,197.816 89.587 C 198.109 89.344,198.471 88.572,198.621 87.872 C 199.158 85.367,200.474 85.178,201.220 87.500 M198.897 152.483 C 198.659 152.770,198.329 153.543,198.164 154.202 C 198.000 154.861,197.536 155.940,197.134 156.600 C 196.732 157.260,196.402 158.183,196.401 158.651 C 196.401 159.119,196.142 159.717,195.826 159.979 C 195.510 160.241,195.126 161.028,194.972 161.728 C 194.819 162.427,194.357 163.627,193.947 164.394 C 193.536 165.161,193.200 166.084,193.200 166.445 C 193.200 166.806,192.942 167.317,192.626 167.579 C 192.310 167.841,191.926 168.628,191.772 169.328 C 191.619 170.027,191.157 171.227,190.747 171.994 C 190.336 172.761,189.999 173.661,189.997 173.994 C 189.996 174.327,189.637 175.140,189.200 175.800 C 188.763 176.460,188.404 177.383,188.403 177.851 C 188.401 178.319,188.142 178.917,187.826 179.179 C 187.510 179.441,187.126 180.228,186.972 180.928 C 186.819 181.627,186.357 182.827,185.947 183.594 C 185.536 184.361,185.200 185.225,185.200 185.515 C 185.200 185.805,184.857 186.707,184.437 187.521 C 183.136 190.046,182.000 192.667,182.000 193.145 C 182.000 193.397,181.640 194.275,181.200 195.096 C 180.760 195.916,180.400 196.884,180.400 197.245 C 180.400 197.606,180.142 198.117,179.826 198.379 C 179.510 198.641,179.126 199.428,178.972 200.128 C 178.819 200.827,178.357 202.027,177.947 202.794 C 177.536 203.561,177.200 204.425,177.200 204.715 C 177.200 205.005,176.857 205.907,176.437 206.721 C 175.103 209.309,174.000 211.871,174.000 212.382 C 174.000 212.654,173.705 213.376,173.344 213.987 C 172.924 214.698,172.783 215.476,172.951 216.149 L 173.215 217.200 200.000 217.200 L 226.785 217.200 227.049 216.149 C 227.217 215.476,227.076 214.698,226.656 213.987 C 226.295 213.376,226.000 212.654,226.000 212.382 C 226.000 211.914,225.279 210.204,223.561 206.600 C 223.141 205.720,222.798 204.817,222.799 204.594 C 222.800 204.371,222.464 203.561,222.053 202.794 C 221.643 202.027,221.181 200.827,221.028 200.128 C 220.874 199.428,220.490 198.641,220.174 198.379 C 219.858 198.117,219.599 197.519,219.597 197.051 C 219.596 196.583,219.237 195.660,218.800 195.000 C 218.363 194.340,218.004 193.527,218.003 193.194 C 218.001 192.861,217.664 191.961,217.253 191.194 C 216.843 190.427,216.381 189.227,216.228 188.528 C 216.074 187.828,215.690 187.041,215.374 186.779 C 215.058 186.517,214.800 185.940,214.800 185.498 C 214.800 185.056,214.459 184.133,214.043 183.447 C 213.627 182.761,213.165 181.627,213.017 180.928 C 212.870 180.228,212.490 179.441,212.174 179.179 C 211.858 178.917,211.599 178.319,211.599 177.851 C 211.598 177.383,211.238 176.411,210.799 175.690 C 210.359 174.970,210.000 174.091,210.000 173.738 C 210.000 173.384,209.659 172.533,209.243 171.847 C 208.827 171.161,208.365 170.027,208.217 169.328 C 208.070 168.628,207.690 167.841,207.374 167.579 C 207.058 167.317,206.799 166.719,206.799 166.251 C 206.798 165.783,206.438 164.811,205.999 164.090 C 205.559 163.370,205.200 162.557,205.200 162.284 C 205.200 162.011,204.840 161.116,204.400 160.296 C 203.960 159.475,203.600 158.597,203.600 158.345 C 203.600 157.939,202.904 156.275,201.447 153.200 C 200.914 152.076,199.553 151.693,198.897 152.483 M201.253 154.300 C 202.737 158.044,203.342 159.535,203.811 160.600 C 204.403 161.945,206.068 165.975,207.281 169.000 C 207.722 170.100,208.406 171.720,208.800 172.600 C 209.194 173.480,209.917 175.190,210.406 176.400 C 210.896 177.610,211.634 179.340,212.048 180.244 C 212.462 181.148,212.800 182.110,212.800 182.382 C 212.800 182.654,213.060 183.354,213.377 183.938 C 213.695 184.522,214.430 186.170,215.011 187.600 C 215.592 189.030,216.308 190.740,216.603 191.400 C 216.898 192.060,217.621 193.770,218.210 195.200 C 218.799 196.630,219.623 198.540,220.040 199.444 C 220.458 200.348,220.800 201.310,220.800 201.582 C 220.800 201.854,221.060 202.554,221.377 203.138 C 221.695 203.722,222.430 205.370,223.011 206.800 C 223.592 208.230,224.317 209.940,224.622 210.600 C 225.963 213.499,226.492 215.696,225.935 216.049 C 225.641 216.235,213.857 216.391,199.749 216.394 C 171.652 216.401,172.583 216.481,173.762 214.148 C 174.082 213.517,174.819 211.830,175.402 210.400 C 175.984 208.970,176.699 207.260,176.989 206.600 C 177.280 205.940,177.918 204.410,178.407 203.200 C 178.896 201.990,179.634 200.260,180.048 199.356 C 180.462 198.452,180.800 197.572,180.800 197.400 C 180.800 197.228,181.138 196.348,181.552 195.444 C 181.966 194.540,182.704 192.810,183.194 191.600 C 183.683 190.390,184.406 188.680,184.800 187.800 C 185.194 186.920,185.878 185.300,186.319 184.200 C 187.532 181.175,189.197 177.145,189.789 175.800 C 190.080 175.140,190.718 173.610,191.207 172.400 C 191.696 171.190,192.434 169.460,192.848 168.556 C 193.262 167.652,193.600 166.772,193.600 166.600 C 193.600 166.428,193.942 165.548,194.360 164.644 C 194.777 163.740,195.601 161.830,196.190 160.400 C 196.779 158.970,197.500 157.260,197.792 156.600 C 198.084 155.940,198.516 154.905,198.753 154.300 C 199.027 153.599,199.480 153.200,200.000 153.200 C 200.519 153.200,200.976 153.601,201.253 154.300 " stroke="none" fill="#e6849c" fill-rule="evenodd"></path><path id="path3" d="M181.578 123.898 C 180.674 125.701,180.687 125.879,181.620 124.483 C 182.104 123.759,182.417 123.083,182.315 122.982 C 182.213 122.880,181.881 123.292,181.578 123.898 M176.778 134.698 C 175.874 136.501,175.887 136.679,176.820 135.283 C 177.304 134.559,177.617 133.883,177.515 133.782 C 177.413 133.680,177.081 134.092,176.778 134.698 M175.178 138.298 C 174.274 140.101,174.287 140.279,175.220 138.883 C 175.704 138.159,176.017 137.483,175.915 137.382 C 175.813 137.280,175.481 137.692,175.178 138.298 M172.025 145.283 C 171.715 146.007,171.389 146.780,171.301 147.000 C 171.212 147.220,171.529 146.818,172.005 146.106 C 172.481 145.395,172.807 144.622,172.730 144.389 C 172.652 144.156,172.335 144.558,172.025 145.283 M165.625 159.683 C 165.315 160.407,164.989 161.180,164.901 161.400 C 164.812 161.620,165.129 161.218,165.605 160.506 C 166.081 159.795,166.407 159.022,166.330 158.789 C 166.252 158.556,165.935 158.958,165.625 159.683 M184.388 188.422 C 184.146 188.874,184.007 189.422,184.080 189.639 C 184.152 189.857,184.418 189.487,184.671 188.817 C 185.197 187.425,185.039 187.205,184.388 188.422 M173.662 214.450 C 173.072 215.394,173.650 216.417,174.749 216.375 C 175.190 216.357,175.109 216.232,174.500 215.988 C 173.491 215.582,173.377 215.183,174.073 214.487 C 174.334 214.226,174.462 213.929,174.358 213.825 C 174.255 213.721,173.941 214.002,173.662 214.450 M128.778 242.298 C 127.874 244.101,127.887 244.279,128.820 242.883 C 129.304 242.159,129.617 241.483,129.515 241.382 C 129.413 241.280,129.081 241.692,128.778 242.298 M171.100 245.500 C 176.435 245.563,185.165 245.563,190.500 245.500 C 195.835 245.437,191.470 245.385,180.800 245.385 C 170.130 245.385,165.765 245.437,171.100 245.500 M123.978 253.098 C 123.074 254.901,123.087 255.079,124.020 253.683 C 124.504 252.959,124.817 252.283,124.715 252.182 C 124.613 252.080,124.281 252.492,123.978 253.098 M120.825 260.083 C 120.515 260.807,120.189 261.580,120.101 261.800 C 120.012 262.020,120.329 261.618,120.805 260.906 C 121.281 260.195,121.607 259.422,121.530 259.189 C 121.452 258.956,121.135 259.358,120.825 260.083 M119.225 263.683 C 118.915 264.407,118.589 265.180,118.501 265.400 C 118.412 265.620,118.729 265.218,119.205 264.506 C 119.681 263.795,120.007 263.022,119.930 262.789 C 119.852 262.556,119.535 262.958,119.225 263.683 M112.825 278.083 C 112.515 278.807,112.189 279.580,112.101 279.800 C 112.012 280.020,112.329 279.618,112.805 278.906 C 113.281 278.195,113.607 277.422,113.530 277.189 C 113.452 276.956,113.135 277.358,112.825 278.083 M107.467 289.867 C 107.104 290.230,107.128 291.908,107.500 292.138 C 107.665 292.240,107.800 291.711,107.800 290.962 C 107.800 290.213,107.785 289.600,107.767 289.600 C 107.748 289.600,107.613 289.720,107.467 289.867 " stroke="none" fill="#ec728c" fill-rule="evenodd"></path><path id="path4" d="M198.480 84.480 C 198.216 84.744,198.000 85.350,198.000 85.826 C 198.000 86.302,197.640 87.150,197.200 87.709 C 196.760 88.269,196.400 89.075,196.400 89.502 C 196.400 89.929,196.040 90.693,195.600 91.200 C 195.160 91.707,194.800 92.523,194.800 93.012 C 194.800 93.502,194.526 94.129,194.192 94.407 C 193.857 94.685,193.386 95.697,193.144 96.656 C 192.903 97.615,192.553 98.400,192.368 98.400 C 192.183 98.400,191.830 99.147,191.584 100.060 C 191.338 100.973,190.881 101.976,190.568 102.289 C 190.256 102.601,190.000 103.221,190.000 103.665 C 190.000 104.110,189.640 104.931,189.200 105.491 C 188.760 106.050,188.400 106.912,188.400 107.405 C 188.400 107.898,188.126 108.529,187.792 108.807 C 187.457 109.085,186.986 110.097,186.744 111.056 C 186.503 112.015,186.153 112.800,185.968 112.800 C 185.783 112.800,185.430 113.547,185.184 114.460 C 184.938 115.373,184.481 116.376,184.168 116.689 C 183.856 117.001,183.600 117.621,183.600 118.065 C 183.600 118.510,183.240 119.331,182.800 119.891 C 182.360 120.450,182.000 121.260,182.000 121.691 C 182.000 122.121,181.640 122.931,181.200 123.491 C 180.760 124.050,180.400 124.809,180.400 125.177 C 180.400 125.546,180.133 126.196,179.806 126.624 C 179.480 127.051,179.016 128.102,178.775 128.960 C 178.534 129.818,178.081 130.776,177.768 131.089 C 177.456 131.401,177.200 132.021,177.200 132.465 C 177.200 132.910,176.840 133.731,176.400 134.291 C 175.960 134.850,175.600 135.563,175.600 135.875 C 175.600 136.186,175.262 137.107,174.849 137.921 C 174.435 138.734,173.740 140.210,173.303 141.200 C 172.867 142.190,172.100 143.900,171.600 145.000 C 171.100 146.100,170.355 147.765,169.945 148.700 C 168.321 152.404,167.470 154.264,166.751 155.679 C 166.338 156.493,166.000 157.414,166.000 157.725 C 166.000 158.037,165.640 158.750,165.200 159.309 C 164.760 159.869,164.400 160.679,164.400 161.109 C 164.400 161.540,164.040 162.350,163.600 162.909 C 163.160 163.469,162.800 164.279,162.800 164.709 C 162.800 165.140,162.440 165.950,162.000 166.509 C 161.560 167.069,161.200 167.879,161.200 168.309 C 161.200 168.740,160.840 169.550,160.400 170.109 C 159.960 170.669,159.600 171.479,159.600 171.909 C 159.600 172.340,159.240 173.150,158.800 173.709 C 158.360 174.269,158.000 175.079,158.000 175.509 C 158.000 175.940,157.640 176.750,157.200 177.309 C 156.760 177.869,156.400 178.675,156.400 179.102 C 156.400 179.529,156.040 180.293,155.600 180.800 C 155.160 181.307,154.800 182.121,154.800 182.607 C 154.800 183.094,154.463 183.921,154.052 184.446 C 153.641 184.971,153.179 185.973,153.026 186.672 C 152.874 187.372,152.490 188.159,152.174 188.421 C 151.858 188.683,151.600 189.302,151.600 189.795 C 151.600 190.288,151.240 191.150,150.800 191.709 C 150.360 192.269,150.000 193.075,150.000 193.502 C 150.000 193.929,149.640 194.693,149.200 195.200 C 148.760 195.707,148.400 196.523,148.400 197.012 C 148.400 197.502,148.126 198.129,147.792 198.407 C 147.457 198.685,146.987 199.691,146.747 200.644 C 146.507 201.596,146.061 202.583,145.756 202.837 C 145.450 203.090,145.200 203.698,145.200 204.188 C 145.200 204.677,144.840 205.493,144.400 206.000 C 143.960 206.507,143.600 207.271,143.600 207.698 C 143.600 208.125,143.240 208.931,142.800 209.491 C 142.360 210.050,142.000 210.912,142.000 211.405 C 142.000 211.898,141.726 212.529,141.392 212.807 C 141.057 213.085,140.586 214.097,140.344 215.056 C 140.103 216.015,139.753 216.800,139.568 216.800 C 139.383 216.800,139.030 217.547,138.784 218.460 C 138.538 219.373,138.081 220.376,137.768 220.689 C 137.456 221.001,137.200 221.621,137.200 222.065 C 137.200 222.510,136.840 223.331,136.400 223.891 C 135.960 224.450,135.600 225.312,135.600 225.805 C 135.600 226.298,135.326 226.929,134.992 227.207 C 134.657 227.485,134.186 228.497,133.944 229.456 C 133.703 230.415,133.353 231.200,133.168 231.200 C 132.983 231.200,132.630 231.947,132.384 232.860 C 132.138 233.773,131.681 234.776,131.368 235.089 C 131.056 235.401,130.800 236.021,130.800 236.465 C 130.800 236.910,130.440 237.731,130.000 238.291 C 129.560 238.850,129.200 239.660,129.200 240.091 C 129.200 240.521,128.840 241.331,128.400 241.891 C 127.960 242.450,127.600 243.163,127.600 243.475 C 127.600 243.786,127.240 244.752,126.800 245.621 C 126.360 246.489,125.640 247.911,125.200 248.779 C 124.760 249.648,124.400 250.654,124.400 251.016 C 124.400 251.378,124.040 252.131,123.600 252.691 C 123.160 253.250,122.800 253.963,122.800 254.275 C 122.800 254.586,122.462 255.507,122.049 256.321 C 121.635 257.134,120.894 258.700,120.400 259.800 C 119.906 260.900,119.165 262.466,118.751 263.279 C 118.338 264.093,118.000 265.014,118.000 265.325 C 118.000 265.637,117.640 266.350,117.200 266.909 C 116.760 267.469,116.399 268.258,116.397 268.663 C 116.396 269.068,116.037 269.940,115.600 270.600 C 115.163 271.260,114.804 272.091,114.803 272.446 C 114.801 272.801,114.440 273.550,114.000 274.109 C 113.560 274.669,113.200 275.479,113.200 275.909 C 113.200 276.340,112.840 277.150,112.400 277.709 C 111.960 278.269,111.600 279.079,111.600 279.509 C 111.600 279.940,111.240 280.750,110.800 281.309 C 110.360 281.869,110.000 282.679,110.000 283.109 C 110.000 283.540,109.640 284.350,109.200 284.909 C 108.760 285.469,108.400 286.279,108.400 286.709 C 108.400 287.140,108.040 287.950,107.600 288.509 C 106.712 289.638,106.535 291.975,107.280 292.720 C 107.638 293.078,111.989 293.200,124.391 293.200 C 142.071 293.200,142.795 293.124,142.803 291.277 C 142.804 290.905,143.163 290.060,143.600 289.400 C 144.037 288.740,144.397 287.840,144.400 287.400 C 144.403 286.960,144.763 286.060,145.200 285.400 C 145.637 284.740,145.997 283.840,146.000 283.400 C 146.003 282.960,146.363 282.060,146.800 281.400 C 147.237 280.740,147.597 279.840,147.600 279.400 C 147.603 278.960,147.963 278.060,148.400 277.400 C 148.837 276.740,149.197 275.840,149.200 275.400 C 149.203 274.960,149.563 274.060,150.000 273.400 C 150.437 272.740,150.796 271.927,150.797 271.594 C 150.799 271.261,151.160 270.316,151.600 269.496 C 152.040 268.675,152.401 267.687,152.403 267.301 C 152.404 266.916,152.763 266.060,153.200 265.400 C 153.637 264.740,153.996 263.927,153.997 263.594 C 153.999 263.261,154.360 262.316,154.800 261.496 C 155.240 260.675,155.601 259.687,155.603 259.301 C 155.604 258.916,155.963 258.060,156.400 257.400 C 156.837 256.740,157.196 255.927,157.197 255.594 C 157.199 255.261,157.560 254.316,158.000 253.496 C 158.440 252.675,158.801 251.687,158.803 251.301 C 158.804 250.916,159.163 250.060,159.600 249.400 C 160.037 248.740,160.396 247.906,160.397 247.547 C 160.402 246.434,161.198 246.411,200.126 246.405 C 240.750 246.400,239.346 246.322,239.772 248.589 C 239.917 249.365,240.190 250.000,240.378 250.000 C 240.566 250.000,240.934 250.891,241.195 251.980 C 241.457 253.069,241.924 254.171,242.235 254.429 C 242.546 254.687,242.800 255.286,242.800 255.760 C 242.800 256.234,243.060 256.994,243.378 257.448 C 243.696 257.902,244.166 259.106,244.423 260.125 C 244.679 261.143,245.139 262.183,245.444 262.437 C 245.750 262.690,246.000 263.286,246.000 263.760 C 246.000 264.234,246.260 264.994,246.578 265.448 C 246.896 265.902,247.366 267.106,247.623 268.125 C 247.879 269.143,248.339 270.183,248.644 270.437 C 248.950 270.690,249.200 271.260,249.200 271.702 C 249.200 272.144,249.538 273.067,249.951 273.753 C 250.365 274.439,250.819 275.657,250.962 276.460 C 251.105 277.263,251.486 278.140,251.811 278.409 C 252.135 278.678,252.401 279.281,252.403 279.749 C 252.404 280.217,252.763 281.140,253.200 281.800 C 253.637 282.460,253.997 283.360,253.999 283.800 C 254.001 284.240,254.362 285.189,254.801 285.910 C 255.241 286.630,255.600 287.475,255.600 287.789 C 255.600 288.620,257.515 292.117,258.289 292.700 C 259.428 293.558,291.733 293.409,292.600 292.542 C 293.333 291.810,293.132 290.238,292.169 289.169 C 291.856 288.821,291.600 288.227,291.600 287.848 C 291.600 287.469,291.240 286.448,290.800 285.579 C 290.360 284.711,289.640 283.289,289.200 282.421 C 288.760 281.552,288.400 280.586,288.400 280.275 C 288.400 279.963,288.040 279.250,287.600 278.691 C 287.160 278.131,286.800 277.321,286.800 276.891 C 286.800 276.460,286.440 275.650,286.000 275.091 C 285.560 274.531,285.200 273.778,285.200 273.416 C 285.200 273.054,284.840 272.048,284.400 271.179 C 283.960 270.311,283.240 268.889,282.800 268.021 C 282.360 267.152,282.000 266.186,282.000 265.875 C 282.000 265.563,281.640 264.850,281.200 264.291 C 280.760 263.731,280.400 262.921,280.400 262.491 C 280.400 262.060,280.040 261.250,279.600 260.691 C 279.160 260.131,278.800 259.378,278.800 259.016 C 278.800 258.654,278.440 257.648,278.000 256.779 C 277.560 255.911,276.840 254.489,276.400 253.621 C 275.960 252.752,275.600 251.786,275.600 251.475 C 275.600 251.163,275.240 250.450,274.800 249.891 C 274.360 249.331,274.000 248.521,274.000 248.091 C 274.000 247.660,273.640 246.850,273.200 246.291 C 272.760 245.731,272.400 244.978,272.400 244.616 C 272.400 244.254,272.040 243.248,271.600 242.379 C 271.160 241.511,270.440 240.089,270.000 239.221 C 269.560 238.352,269.200 237.386,269.200 237.075 C 269.200 236.763,268.840 236.050,268.400 235.491 C 267.960 234.931,267.600 234.121,267.600 233.691 C 267.600 233.260,267.240 232.450,266.800 231.891 C 266.360 231.331,266.000 230.578,266.000 230.216 C 266.000 229.854,265.640 228.848,265.200 227.979 C 264.760 227.111,264.040 225.689,263.600 224.821 C 263.160 223.952,262.800 222.986,262.800 222.675 C 262.800 222.363,262.440 221.650,262.000 221.091 C 261.560 220.531,261.200 219.721,261.200 219.291 C 261.200 218.860,260.840 218.050,260.400 217.491 C 259.960 216.931,259.600 216.178,259.600 215.816 C 259.600 215.454,259.240 214.448,258.800 213.579 C 258.360 212.711,257.640 211.289,257.200 210.421 C 256.760 209.552,256.400 208.586,256.400 208.275 C 256.400 207.963,256.040 207.250,255.600 206.691 C 255.160 206.131,254.800 205.321,254.800 204.891 C 254.800 204.460,254.440 203.650,254.000 203.091 C 253.560 202.531,253.200 201.778,253.200 201.416 C 253.200 201.054,252.840 200.048,252.400 199.179 C 251.960 198.311,251.240 196.889,250.800 196.021 C 250.360 195.152,250.000 194.186,250.000 193.875 C 250.000 193.563,249.640 192.850,249.200 192.291 C 248.760 191.731,248.400 190.921,248.400 190.491 C 248.400 190.060,248.040 189.250,247.600 188.691 C 247.160 188.131,246.800 187.378,246.800 187.016 C 246.800 186.654,246.440 185.648,246.000 184.779 C 245.560 183.911,244.840 182.489,244.400 181.621 C 243.960 180.752,243.600 179.786,243.600 179.475 C 243.600 179.163,243.240 178.450,242.800 177.891 C 242.360 177.331,242.000 176.521,242.000 176.091 C 242.000 175.660,241.640 174.850,241.200 174.291 C 240.760 173.731,240.400 172.978,240.400 172.616 C 240.400 172.254,240.040 171.248,239.600 170.379 C 239.160 169.511,238.440 168.089,238.000 167.221 C 237.560 166.352,237.200 165.386,237.200 165.075 C 237.200 164.763,236.840 164.050,236.400 163.491 C 235.960 162.931,235.600 162.121,235.600 161.691 C 235.600 161.260,235.240 160.450,234.800 159.891 C 234.360 159.331,234.000 158.578,234.000 158.216 C 234.000 157.854,233.640 156.848,233.200 155.979 C 232.760 155.111,232.040 153.689,231.600 152.821 C 231.160 151.952,230.800 150.986,230.800 150.675 C 230.800 150.363,230.440 149.650,230.000 149.091 C 229.560 148.531,229.200 147.721,229.200 147.291 C 229.200 146.860,228.840 146.050,228.400 145.491 C 227.960 144.931,227.600 144.178,227.600 143.816 C 227.600 143.454,227.240 142.448,226.800 141.579 C 226.360 140.711,225.640 139.289,225.200 138.421 C 224.760 137.552,224.400 136.586,224.400 136.275 C 224.400 135.963,224.040 135.250,223.600 134.691 C 223.160 134.131,222.800 133.321,222.800 132.891 C 222.800 132.460,222.440 131.650,222.000 131.091 C 221.560 130.531,221.200 129.778,221.200 129.416 C 221.200 128.794,220.914 128.147,218.858 124.121 C 218.386 123.197,218.000 122.186,218.000 121.875 C 218.000 121.563,217.640 120.850,217.200 120.291 C 216.760 119.731,216.400 118.921,216.400 118.491 C 216.400 118.060,216.040 117.250,215.600 116.691 C 215.160 116.131,214.800 115.378,214.800 115.016 C 214.800 114.654,214.440 113.648,214.000 112.779 C 213.560 111.911,212.840 110.489,212.400 109.621 C 211.960 108.752,211.600 107.786,211.600 107.475 C 211.600 107.163,211.240 106.450,210.800 105.891 C 210.360 105.331,210.000 104.521,210.000 104.091 C 210.000 103.660,209.640 102.850,209.200 102.291 C 208.760 101.731,208.400 100.978,208.400 100.616 C 208.400 100.254,208.040 99.248,207.600 98.379 C 207.160 97.511,206.440 96.089,206.000 95.221 C 205.560 94.352,205.200 93.386,205.200 93.075 C 205.200 92.763,204.840 92.050,204.400 91.491 C 203.960 90.931,203.600 90.121,203.600 89.691 C 203.600 89.260,203.240 88.450,202.800 87.891 C 202.360 87.331,202.000 86.575,202.000 86.211 C 202.000 84.312,199.753 83.207,198.480 84.480 M203.008 89.800 C 205.524 95.542,205.954 96.508,207.725 100.400 C 208.476 102.050,209.671 104.750,210.381 106.400 C 211.788 109.669,212.488 111.242,214.302 115.200 C 214.958 116.630,216.074 119.150,216.783 120.800 C 218.183 124.060,218.879 125.621,220.702 129.600 C 221.358 131.030,222.474 133.550,223.183 135.200 C 224.583 138.460,225.279 140.021,227.102 144.000 C 227.758 145.430,228.874 147.950,229.583 149.600 C 230.983 152.860,231.679 154.421,233.502 158.400 C 234.158 159.830,235.274 162.350,235.983 164.000 C 237.383 167.260,238.079 168.821,239.902 172.800 C 240.558 174.230,241.674 176.750,242.383 178.400 C 243.783 181.660,244.479 183.221,246.302 187.200 C 246.958 188.630,248.074 191.150,248.783 192.800 C 250.183 196.060,250.879 197.621,252.702 201.600 C 253.358 203.030,254.474 205.550,255.183 207.200 C 256.583 210.460,257.279 212.021,259.102 216.000 C 259.758 217.430,260.874 219.950,261.583 221.600 C 262.983 224.860,263.679 226.421,265.502 230.400 C 266.158 231.830,267.274 234.350,267.983 236.000 C 269.383 239.260,270.079 240.821,271.902 244.800 C 272.558 246.230,273.674 248.750,274.383 250.400 C 275.783 253.660,276.479 255.221,278.302 259.200 C 278.958 260.630,280.074 263.150,280.783 264.800 C 282.183 268.060,282.879 269.621,284.702 273.600 C 285.358 275.030,286.474 277.550,287.183 279.200 C 288.643 282.598,289.371 284.230,291.176 288.145 C 293.215 292.569,294.677 292.185,275.347 292.304 C 262.166 292.386,258.422 292.299,258.125 291.904 C 257.916 291.627,257.248 290.230,256.642 288.800 C 256.035 287.370,255.299 285.660,255.007 285.000 C 254.714 284.340,253.972 282.450,253.358 280.800 C 252.744 279.150,252.007 277.445,251.721 277.011 C 251.434 276.577,251.199 275.947,251.198 275.611 C 251.196 275.275,250.946 274.522,250.641 273.939 C 250.337 273.355,249.862 272.185,249.587 271.339 C 249.311 270.492,248.842 269.445,248.543 269.011 C 248.244 268.577,247.999 267.947,247.998 267.611 C 247.996 267.275,247.746 266.522,247.441 265.939 C 247.137 265.355,246.662 264.185,246.387 263.339 C 246.111 262.492,245.642 261.445,245.343 261.011 C 245.044 260.577,244.800 259.944,244.800 259.605 C 244.800 259.266,244.440 258.316,244.000 257.496 C 243.560 256.675,243.200 255.775,243.200 255.496 C 243.200 255.216,242.840 254.316,242.400 253.496 C 241.960 252.675,241.600 251.775,241.600 251.496 C 241.600 251.216,241.240 250.316,240.800 249.496 C 240.360 248.675,240.000 247.742,240.000 247.424 C 240.000 245.566,240.749 245.600,199.811 245.606 C 178.685 245.609,161.206 245.744,160.968 245.906 C 160.229 246.409,159.057 249.173,150.432 270.758 C 145.827 282.285,141.820 291.869,141.529 292.055 C 141.238 292.241,133.442 292.349,124.205 292.296 C 105.458 292.189,106.326 292.339,107.737 289.454 C 108.074 288.764,108.705 287.390,109.139 286.400 C 109.573 285.410,110.414 283.520,111.009 282.200 C 112.080 279.820,112.820 278.162,114.442 274.500 C 114.904 273.455,115.632 271.839,116.059 270.909 C 117.123 268.588,118.205 266.158,119.180 263.900 C 121.199 259.222,122.952 255.366,124.069 253.146 C 124.471 252.346,124.800 251.423,124.800 251.095 C 124.800 250.766,125.058 250.283,125.374 250.021 C 125.690 249.759,126.070 248.972,126.219 248.272 C 126.367 247.573,126.718 246.730,126.997 246.400 C 127.277 246.070,127.636 245.350,127.797 244.800 C 127.957 244.250,128.589 242.720,129.201 241.400 C 130.459 238.686,132.125 235.019,133.245 232.500 C 133.660 231.565,134.360 229.990,134.800 229.000 C 135.240 228.010,135.960 226.390,136.400 225.400 C 136.840 224.410,137.560 222.790,138.000 221.800 C 138.440 220.810,139.160 219.190,139.600 218.200 C 140.040 217.210,140.760 215.590,141.200 214.600 C 141.640 213.610,142.360 211.990,142.800 211.000 C 143.240 210.010,143.960 208.390,144.400 207.400 C 144.840 206.410,145.560 204.790,146.000 203.800 C 146.440 202.810,147.160 201.190,147.600 200.200 C 148.040 199.210,148.760 197.590,149.200 196.600 C 149.640 195.610,150.360 193.990,150.800 193.000 C 151.240 192.010,151.960 190.390,152.400 189.400 C 152.840 188.410,153.560 186.790,154.000 185.800 C 154.440 184.810,155.160 183.190,155.600 182.200 C 156.040 181.210,156.760 179.590,157.200 178.600 C 157.640 177.610,158.344 176.035,158.764 175.100 C 159.184 174.165,160.004 172.320,160.585 171.000 C 161.167 169.680,161.891 168.060,162.195 167.400 C 162.862 165.954,164.723 161.786,167.242 156.100 C 167.704 155.055,168.432 153.439,168.859 152.509 C 169.285 151.579,169.977 150.049,170.397 149.109 C 170.816 148.169,171.529 146.578,171.980 145.574 C 172.431 144.569,172.800 143.556,172.800 143.323 C 172.800 143.089,173.070 142.674,173.400 142.400 C 173.730 142.126,174.000 141.627,174.000 141.291 C 174.000 140.723,175.100 138.206,176.860 134.746 C 177.267 133.946,177.600 133.023,177.600 132.695 C 177.600 132.366,177.858 131.883,178.174 131.621 C 178.490 131.359,178.870 130.572,179.019 129.872 C 179.167 129.173,179.518 128.330,179.797 128.000 C 180.077 127.670,180.436 126.950,180.597 126.400 C 180.757 125.850,181.389 124.320,182.001 123.000 C 183.259 120.286,184.925 116.619,186.045 114.100 C 186.460 113.165,187.160 111.590,187.600 110.600 C 188.040 109.610,188.760 107.990,189.200 107.000 C 189.640 106.010,190.360 104.390,190.800 103.400 C 191.240 102.410,191.960 100.790,192.400 99.800 C 192.840 98.810,193.560 97.190,194.000 96.200 C 194.440 95.210,195.140 93.635,195.555 92.700 C 195.971 91.765,196.759 90.010,197.308 88.800 C 197.856 87.590,198.431 86.185,198.587 85.677 C 199.308 83.316,200.759 84.669,203.008 89.800 M199.870 153.566 C 199.433 153.725,198.666 155.034,197.964 156.816 C 197.318 158.457,196.432 160.540,195.995 161.444 C 195.558 162.348,195.200 163.278,195.200 163.511 C 195.200 163.744,194.937 164.445,194.616 165.068 C 193.431 167.365,192.000 170.766,192.000 171.286 C 192.000 171.581,191.764 172.177,191.475 172.611 C 191.186 173.045,190.389 174.840,189.705 176.600 C 189.020 178.360,188.177 180.340,187.832 181.000 C 187.487 181.660,187.204 182.479,187.202 182.820 C 187.201 183.161,187.035 183.611,186.834 183.820 C 186.633 184.029,185.838 185.820,185.066 187.800 C 184.295 189.780,183.381 191.940,183.035 192.600 C 182.688 193.260,182.404 194.010,182.402 194.268 C 182.401 194.525,182.139 195.245,181.820 195.868 C 180.831 197.796,179.600 200.636,179.600 200.988 C 179.600 201.172,179.173 202.240,178.652 203.361 C 178.131 204.483,177.241 206.573,176.676 208.007 C 176.111 209.441,175.369 211.151,175.027 211.807 C 174.685 212.463,174.404 213.279,174.402 213.620 C 174.401 213.961,174.184 214.456,173.920 214.720 C 172.521 216.119,173.799 216.197,199.732 216.309 C 228.696 216.433,226.888 216.651,225.562 213.200 C 225.097 211.990,224.457 210.299,224.140 209.442 C 223.823 208.585,223.302 207.510,222.982 207.053 C 222.662 206.596,222.400 205.967,222.400 205.655 C 222.400 205.343,222.058 204.348,221.640 203.444 C 221.223 202.540,220.402 200.630,219.818 199.200 C 219.233 197.770,218.495 196.122,218.177 195.538 C 217.860 194.954,217.600 194.254,217.600 193.982 C 217.600 193.514,216.879 191.804,215.161 188.200 C 214.741 187.320,214.398 186.440,214.399 186.244 C 214.400 186.048,214.058 185.148,213.640 184.244 C 213.223 183.340,212.402 181.430,211.818 180.000 C 211.233 178.570,210.495 176.922,210.177 176.338 C 209.860 175.754,209.600 175.054,209.600 174.782 C 209.600 174.510,209.258 173.548,208.840 172.644 C 208.423 171.740,207.602 169.830,207.018 168.400 C 206.433 166.970,205.695 165.322,205.377 164.738 C 205.060 164.154,204.800 163.468,204.800 163.214 C 204.800 162.799,203.790 160.393,202.193 157.000 C 201.882 156.340,201.511 155.303,201.369 154.696 C 201.063 153.384,200.837 153.214,199.870 153.566 M201.191 155.900 C 201.423 156.725,201.880 157.749,202.206 158.176 C 202.533 158.604,202.800 159.344,202.800 159.823 C 202.800 160.301,203.160 161.150,203.600 161.709 C 204.040 162.269,204.400 163.112,204.400 163.584 C 204.400 164.394,204.655 164.991,206.742 169.079 C 207.214 170.003,207.600 171.062,207.600 171.432 C 207.600 171.802,207.941 172.667,208.357 173.353 C 208.773 174.039,209.235 175.173,209.383 175.872 C 209.530 176.572,209.910 177.359,210.226 177.621 C 210.542 177.883,210.801 178.481,210.803 178.949 C 210.804 179.417,211.163 180.340,211.600 181.000 C 212.037 181.660,212.396 182.524,212.397 182.921 C 212.399 183.317,212.760 184.352,213.200 185.221 C 213.640 186.089,214.360 187.511,214.800 188.379 C 215.240 189.248,215.601 190.283,215.603 190.679 C 215.604 191.076,215.963 191.940,216.400 192.600 C 216.837 193.260,217.196 194.181,217.197 194.646 C 217.199 195.111,217.560 195.950,218.000 196.509 C 218.440 197.069,218.801 197.858,218.803 198.263 C 218.804 198.668,219.163 199.540,219.600 200.200 C 220.037 200.860,220.396 201.724,220.397 202.121 C 220.399 202.517,220.760 203.552,221.200 204.421 C 221.640 205.289,222.360 206.711,222.800 207.579 C 223.240 208.448,223.600 209.462,223.600 209.832 C 223.600 210.202,223.944 211.067,224.364 211.753 C 224.784 212.439,225.189 213.540,225.264 214.200 L 225.400 215.400 200.047 215.503 L 174.694 215.606 174.907 214.014 C 175.025 213.138,175.409 212.134,175.760 211.782 C 176.112 211.431,176.401 210.751,176.403 210.271 C 176.404 209.792,176.763 208.860,177.200 208.200 C 177.637 207.540,177.996 206.619,177.997 206.154 C 177.999 205.689,178.332 204.879,178.738 204.354 C 179.144 203.829,179.591 202.805,179.733 202.077 C 179.874 201.349,180.262 200.481,180.595 200.148 C 180.928 199.815,181.200 199.172,181.200 198.719 C 181.200 198.265,181.541 197.333,181.957 196.647 C 182.373 195.961,182.835 194.827,182.983 194.128 C 183.130 193.428,183.510 192.641,183.826 192.379 C 184.142 192.117,184.401 191.519,184.403 191.051 C 184.404 190.583,184.763 189.660,185.200 189.000 C 185.637 188.340,185.996 187.419,185.997 186.954 C 185.999 186.489,186.332 185.679,186.738 185.154 C 187.144 184.629,187.591 183.605,187.733 182.877 C 187.874 182.149,188.262 181.281,188.595 180.948 C 188.928 180.615,189.200 179.972,189.200 179.519 C 189.200 179.065,189.541 178.133,189.957 177.447 C 190.373 176.761,190.835 175.627,190.983 174.928 C 191.130 174.228,191.510 173.441,191.826 173.179 C 192.142 172.917,192.401 172.319,192.403 171.851 C 192.404 171.383,192.763 170.460,193.200 169.800 C 193.637 169.140,193.996 168.229,193.997 167.776 C 193.999 167.324,194.267 166.604,194.594 166.176 C 194.920 165.749,195.384 164.698,195.625 163.840 C 195.866 162.982,196.319 162.024,196.632 161.711 C 196.944 161.399,197.200 160.772,197.200 160.319 C 197.200 159.865,197.541 158.933,197.957 158.247 C 198.373 157.561,198.837 156.415,198.989 155.700 C 199.387 153.814,200.636 153.927,201.191 155.900 " stroke="none" fill="#df5677" fill-rule="evenodd"></path></g></svg>