<svg id="svg" version="1.1" xmlns="http://www.w3.org/2000/svg" xmlns:xlink="http://www.w3.org/1999/xlink" width="400" height="400" viewBox="0, 0, 400,400"><g id="svgg"><path id="path0" d="M99.000 57.859 C 91.848 58.453,82.644 62.201,76.220 67.135 C 67.082 74.153,61.050 83.696,58.353 95.400 C 57.551 98.879,57.524 301.550,58.325 304.600 C 58.614 305.700,59.037 307.320,59.264 308.200 C 59.492 309.080,59.840 310.113,60.039 310.495 C 60.238 310.877,60.400 311.417,60.400 311.695 C 60.402 314.226,66.860 324.094,71.594 328.800 C 76.179 333.359,85.895 339.600,88.407 339.600 C 88.629 339.600,89.123 339.762,89.505 339.961 C 89.887 340.160,90.920 340.508,91.800 340.736 C 92.680 340.963,94.300 341.386,95.400 341.675 C 98.275 342.430,302.135 342.454,304.700 341.700 C 305.635 341.425,307.165 341.002,308.100 340.761 C 309.035 340.520,310.113 340.160,310.495 339.961 C 310.877 339.762,311.375 339.600,311.603 339.600 C 314.123 339.600,324.141 333.171,328.656 328.656 C 333.327 323.985,339.600 314.112,339.600 311.432 C 339.600 311.110,339.759 310.749,339.954 310.629 C 340.149 310.508,340.398 309.913,340.509 309.305 C 340.620 308.697,341.045 307.120,341.455 305.800 C 342.429 302.663,342.641 99.080,341.675 95.400 C 341.386 94.300,340.963 92.680,340.736 91.800 C 340.508 90.920,340.160 89.887,339.961 89.505 C 339.762 89.123,339.600 88.629,339.600 88.407 C 339.600 85.895,333.359 76.179,328.800 71.594 C 324.094 66.860,314.226 60.402,311.695 60.400 C 311.417 60.400,310.877 60.238,310.495 60.039 C 310.113 59.840,309.080 59.496,308.200 59.273 C 307.320 59.050,305.880 58.631,305.000 58.341 C 303.537 57.860,104.595 57.394,99.000 57.859 M228.600 119.718 C 230.140 120.052,232.300 120.509,233.400 120.733 C 235.379 121.137,238.653 122.123,240.200 122.780 C 240.640 122.967,241.900 123.503,243.000 123.971 C 244.100 124.439,245.450 125.098,246.000 125.436 C 246.550 125.773,247.315 126.149,247.700 126.271 C 248.085 126.393,248.400 126.652,248.400 126.847 C 248.400 127.041,248.628 127.200,248.906 127.200 C 250.095 127.200,256.931 133.345,258.278 135.624 C 258.660 136.271,259.114 136.800,259.286 136.800 C 259.459 136.800,259.600 137.055,259.600 137.367 C 259.600 137.678,259.753 137.993,259.939 138.067 C 260.383 138.241,262.481 142.745,263.553 145.821 C 266.223 153.489,266.218 166.454,263.541 174.200 C 262.681 176.688,259.990 182.017,259.198 182.800 C 259.086 182.910,258.466 183.710,257.818 184.578 C 255.328 187.915,250.302 192.040,245.861 194.392 C 242.928 195.945,242.470 196.319,243.233 196.533 C 260.056 201.264,268.758 211.053,272.413 229.362 C 273.050 232.550,273.053 245.633,272.418 248.420 C 267.768 268.817,255.729 279.414,231.281 284.629 C 225.357 285.892,221.170 286.000,177.925 286.000 L 134.400 286.000 134.400 202.667 C 134.400 156.833,134.532 119.202,134.692 119.041 C 135.322 118.412,225.577 119.062,228.600 119.718 M164.400 166.180 L 164.400 188.800 188.900 188.793 C 214.565 188.785,217.388 188.626,221.646 186.944 C 223.480 186.220,226.856 184.453,227.200 184.037 C 227.310 183.904,228.094 183.278,228.943 182.644 C 233.274 179.415,235.406 173.705,235.384 165.400 C 235.354 154.181,232.249 148.621,224.400 145.731 C 223.190 145.285,221.570 144.675,220.800 144.375 C 219.679 143.938,213.929 143.802,191.900 143.694 L 164.400 143.559 164.400 166.180 M164.400 236.000 L 164.400 261.600 192.423 261.600 C 210.745 261.600,221.096 261.453,222.323 261.175 C 226.785 260.166,227.966 259.770,230.856 258.316 C 236.076 255.689,240.707 249.898,242.144 244.200 C 242.689 242.039,242.677 228.980,242.128 227.114 C 240.041 220.022,233.647 213.677,226.806 211.910 C 221.385 210.510,219.191 210.416,191.700 210.408 L 164.400 210.400 164.400 236.000 " stroke="none" fill="#543c7c" fill-rule="evenodd"></path><path id="path1" d="M0.000 200.000 L 0.000 400.000 200.000 400.000 L 400.000 400.000 400.000 200.000 L 400.000 0.000 200.000 0.000 L 0.000 0.000 0.000 200.000 M301.433 57.213 C 307.979 58.357,311.094 59.314,316.000 61.688 C 326.455 66.749,334.969 75.669,339.395 86.200 C 339.765 87.080,340.232 88.113,340.434 88.495 C 340.635 88.877,340.800 89.541,340.800 89.971 C 340.800 90.401,340.960 90.852,341.156 90.973 C 341.351 91.094,341.615 91.779,341.741 92.496 C 341.867 93.213,342.194 94.970,342.469 96.400 C 343.198 100.197,343.198 299.803,342.469 303.600 C 342.194 305.030,341.867 306.787,341.741 307.504 C 341.615 308.221,341.351 308.906,341.156 309.027 C 340.960 309.148,340.800 309.599,340.800 310.029 C 340.800 310.459,340.641 311.123,340.447 311.505 C 340.252 311.887,339.870 312.740,339.597 313.400 C 334.817 324.971,324.971 334.817,313.400 339.597 C 312.740 339.870,311.887 340.252,311.505 340.447 C 311.123 340.641,310.459 340.800,310.029 340.800 C 309.599 340.800,309.148 340.960,309.027 341.156 C 308.906 341.351,308.221 341.615,307.504 341.741 C 306.787 341.867,305.030 342.194,303.600 342.469 C 299.803 343.198,100.197 343.198,96.400 342.469 C 94.970 342.194,93.213 341.867,92.496 341.741 C 91.779 341.615,91.094 341.351,90.973 341.156 C 90.852 340.960,90.401 340.800,89.971 340.800 C 89.541 340.800,88.877 340.635,88.495 340.434 C 88.113 340.232,87.080 339.765,86.200 339.395 C 75.669 334.969,66.749 326.455,61.688 316.000 C 59.314 311.094,58.357 307.979,57.213 301.433 C 56.639 298.145,56.639 101.855,57.213 98.567 C 57.912 94.565,58.441 92.300,59.258 89.800 C 60.123 87.156,63.199 80.678,63.690 80.467 C 63.860 80.393,64.000 80.166,64.000 79.962 C 64.000 77.501,77.486 64.000,79.945 64.000 C 80.158 64.000,80.393 63.860,80.467 63.690 C 80.678 63.199,87.156 60.123,89.800 59.258 C 92.228 58.464,94.559 57.908,98.200 57.254 C 101.126 56.728,298.430 56.689,301.433 57.213 M135.200 202.618 L 135.200 285.636 179.500 285.487 C 217.809 285.358,224.287 285.252,227.400 284.701 C 234.765 283.397,240.177 281.966,243.896 280.341 C 244.828 279.933,245.695 279.600,245.821 279.600 C 246.299 279.600,251.406 277.025,251.533 276.720 C 251.607 276.544,251.842 276.400,252.055 276.400 C 253.125 276.400,258.622 272.163,261.856 268.847 C 271.281 259.179,274.721 242.442,270.835 225.151 C 269.871 220.861,266.585 213.376,264.917 211.671 C 264.633 211.381,264.400 210.992,264.400 210.807 C 264.400 210.096,258.093 203.999,256.000 202.687 C 251.692 199.987,247.237 198.097,242.672 197.033 C 241.069 196.660,241.505 195.981,244.232 194.605 C 245.534 193.948,246.690 193.305,246.800 193.176 C 246.910 193.047,247.270 192.842,247.600 192.719 C 249.722 191.934,256.232 185.954,258.399 182.800 C 258.928 182.030,259.464 181.310,259.589 181.200 C 260.675 180.244,263.360 173.322,264.243 169.200 C 264.920 166.039,264.998 154.069,264.359 151.306 C 263.568 147.882,263.116 146.217,262.701 145.200 C 262.477 144.650,262.160 143.840,261.997 143.400 C 261.531 142.140,259.834 138.621,259.586 138.400 C 259.463 138.290,258.938 137.570,258.420 136.800 C 256.341 133.711,251.363 129.171,247.800 127.116 C 244.612 125.276,239.763 123.118,237.200 122.398 C 232.973 121.210,231.807 120.964,225.954 120.025 C 224.204 119.744,208.393 119.600,179.254 119.600 L 135.200 119.600 135.200 202.618 M219.200 143.492 C 231.024 145.719,235.991 152.199,235.991 165.400 C 235.991 173.501,234.506 177.812,230.200 182.212 C 227.142 185.337,223.678 187.105,217.354 188.767 C 216.254 189.056,207.115 189.200,189.854 189.200 L 164.000 189.200 164.000 165.994 L 164.000 142.789 190.500 142.933 C 206.440 143.020,217.877 143.243,219.200 143.492 M223.354 210.432 C 224.259 210.669,225.720 211.049,226.600 211.277 C 231.362 212.508,237.990 217.202,239.830 220.646 C 241.383 223.553,241.507 223.800,241.908 224.800 C 243.163 227.930,243.400 229.676,243.400 235.800 C 243.400 241.802,243.185 243.471,242.008 246.600 C 241.545 247.830,240.625 249.777,240.400 250.000 C 240.289 250.110,239.937 250.707,239.617 251.327 C 238.148 254.174,229.997 260.400,227.738 260.400 C 227.436 260.400,226.877 260.561,226.495 260.757 C 224.363 261.854,220.831 261.989,193.400 262.018 C 177.780 262.034,164.775 262.037,164.500 262.024 C 164.105 262.005,164.000 256.521,164.000 236.000 L 164.000 210.000 192.854 210.000 C 212.217 210.000,222.249 210.142,223.354 210.432 " stroke="none" fill="#fbfbfb" fill-rule="evenodd"></path><path id="path2" d="M220.305 119.483 C 220.802 119.579,221.522 119.575,221.905 119.475 C 222.287 119.375,221.880 119.296,221.000 119.301 C 220.120 119.305,219.807 119.387,220.305 119.483 M164.343 188.903 C 164.510 189.070,175.886 189.160,189.623 189.103 L 214.600 189.000 189.320 188.800 C 175.416 188.690,164.176 188.736,164.343 188.903 M178.129 210.300 C 185.790 210.361,198.210 210.361,205.729 210.300 C 213.248 210.239,206.980 210.189,191.800 210.189 C 176.620 210.189,170.468 210.239,178.129 210.300 M243.340 235.600 C 243.340 237.470,243.409 238.235,243.493 237.300 C 243.577 236.365,243.577 234.835,243.493 233.900 C 243.409 232.965,243.340 233.730,243.340 235.600 M218.100 285.876 C 218.485 285.976,219.115 285.976,219.500 285.876 C 219.885 285.775,219.570 285.693,218.800 285.693 C 218.030 285.693,217.715 285.775,218.100 285.876 " stroke="none" fill="#ac9cbc" fill-rule="evenodd"></path><path id="path3" d="M98.800 57.553 C 98.030 57.689,143.660 57.800,200.200 57.800 C 256.740 57.800,302.190 57.678,301.200 57.530 C 298.949 57.192,100.716 57.214,98.800 57.553 M94.000 58.400 C 93.196 58.657,93.157 58.723,93.800 58.732 C 94.240 58.738,94.960 58.589,95.400 58.400 C 96.419 57.962,95.368 57.962,94.000 58.400 M304.600 58.400 C 305.040 58.589,305.760 58.738,306.200 58.732 C 306.843 58.723,306.804 58.657,306.000 58.400 C 304.632 57.962,303.581 57.962,304.600 58.400 M317.200 62.820 C 318.587 63.761,319.378 64.035,318.400 63.236 C 317.850 62.786,317.220 62.417,317.000 62.415 C 316.780 62.413,316.870 62.596,317.200 62.820 M81.000 63.600 C 80.340 64.037,79.980 64.392,80.200 64.388 C 80.601 64.382,82.776 62.823,82.400 62.812 C 82.290 62.808,81.660 63.163,81.000 63.600 M78.122 65.429 L 77.000 66.458 78.300 65.554 C 79.015 65.057,79.600 64.593,79.600 64.525 C 79.600 64.209,79.158 64.480,78.122 65.429 M320.400 64.511 C 320.400 64.587,320.985 65.078,321.700 65.601 C 322.504 66.190,322.784 66.287,322.433 65.855 C 321.900 65.199,320.400 64.207,320.400 64.511 M75.185 67.629 L 73.800 68.858 75.300 67.781 C 76.626 66.830,77.057 66.400,76.685 66.400 C 76.622 66.400,75.947 66.953,75.185 67.629 M326.844 69.453 C 327.680 70.460,329.810 72.551,330.647 73.185 C 331.061 73.499,330.326 72.640,329.013 71.278 C 326.770 68.950,325.633 67.993,326.844 69.453 M71.002 71.198 C 70.603 71.639,70.407 72.000,70.567 72.000 C 70.988 72.000,72.128 70.795,71.912 70.579 C 71.811 70.478,71.402 70.756,71.002 71.198 M67.944 74.700 C 66.793 76.089,66.306 76.800,66.504 76.800 C 66.614 76.800,67.186 76.170,67.773 75.400 C 68.863 73.971,68.995 73.432,67.944 74.700 M65.523 77.900 C 64.818 78.721,64.290 79.600,64.501 79.600 C 64.583 79.600,65.049 79.060,65.537 78.400 C 66.501 77.096,66.492 76.772,65.523 77.900 M334.655 78.600 C 335.267 79.480,335.820 80.275,335.884 80.367 C 335.948 80.458,336.000 80.362,336.000 80.152 C 336.000 79.942,335.447 79.147,334.771 78.385 L 333.542 77.000 334.655 78.600 M63.453 81.300 L 62.733 82.600 63.558 81.600 C 64.289 80.713,64.614 80.000,64.286 80.000 C 64.224 80.000,63.849 80.585,63.453 81.300 M341.228 93.633 C 341.244 94.165,341.419 94.960,341.619 95.400 C 341.871 95.958,341.907 95.715,341.738 94.600 C 341.455 92.743,341.187 92.236,341.228 93.633 M58.250 94.450 C 57.917 96.117,58.240 96.440,58.600 94.800 C 58.752 94.109,58.793 93.459,58.691 93.358 C 58.589 93.256,58.391 93.747,58.250 94.450 M342.200 200.000 C 342.200 256.870,342.322 302.590,342.470 301.600 C 342.820 299.272,342.815 101.241,342.465 98.600 C 342.319 97.500,342.200 143.130,342.200 200.000 M57.454 99.456 C 57.112 101.951,57.186 298.911,57.530 301.200 C 57.678 302.190,57.800 256.785,57.800 200.300 C 57.800 143.815,57.779 97.600,57.754 97.600 C 57.729 97.600,57.594 98.435,57.454 99.456 M134.667 119.067 C 134.296 119.437,134.329 286.000,134.700 286.000 C 134.865 286.000,135.000 248.515,135.000 202.700 L 135.000 119.400 177.400 119.197 L 219.800 118.995 177.367 118.897 C 154.028 118.844,134.813 118.920,134.667 119.067 M223.300 119.487 C 223.905 119.578,224.895 119.578,225.500 119.487 C 226.105 119.395,225.610 119.320,224.400 119.320 C 223.190 119.320,222.695 119.395,223.300 119.487 M227.600 119.956 C 229.004 120.397,232.784 120.829,231.800 120.435 C 231.360 120.259,230.010 120.009,228.800 119.879 C 227.515 119.740,227.016 119.772,227.600 119.956 M235.200 121.354 C 235.200 121.469,235.785 121.737,236.500 121.951 C 237.215 122.164,238.418 122.530,239.173 122.763 C 239.928 122.996,240.378 123.046,240.173 122.875 C 239.832 122.590,238.436 122.087,236.100 121.408 C 235.605 121.264,235.200 121.240,235.200 121.354 M244.800 124.990 C 244.800 125.094,245.385 125.465,246.100 125.814 L 247.400 126.448 246.400 125.633 C 245.437 124.848,244.800 124.592,244.800 124.990 M248.833 127.316 C 248.925 127.380,249.720 127.933,250.600 128.545 L 252.200 129.658 250.815 128.429 C 250.053 127.753,249.258 127.200,249.048 127.200 C 248.838 127.200,248.742 127.252,248.833 127.316 M261.078 140.595 C 261.444 141.362,261.814 141.919,261.901 141.832 C 262.084 141.649,260.870 139.200,260.596 139.200 C 260.495 139.200,260.712 139.828,261.078 140.595 M164.184 143.700 C 164.078 143.975,164.041 154.190,164.100 166.400 L 164.207 188.600 164.303 166.103 L 164.400 143.606 190.300 143.500 L 216.200 143.394 190.287 143.297 C 169.854 143.221,164.334 143.306,164.184 143.700 M217.505 143.883 C 218.002 143.979,218.722 143.975,219.105 143.875 C 219.487 143.775,219.080 143.696,218.200 143.701 C 217.320 143.705,217.007 143.787,217.505 143.883 M220.400 144.382 C 220.730 144.605,221.345 144.791,221.767 144.794 C 222.790 144.802,222.471 144.573,221.000 144.244 C 220.124 144.048,219.962 144.085,220.400 144.382 M224.358 145.637 C 225.325 146.066,226.188 146.345,226.275 146.258 C 226.448 146.086,223.365 144.782,222.892 144.828 C 222.731 144.844,223.391 145.208,224.358 145.637 M227.600 147.083 C 228.150 147.477,229.410 148.513,230.400 149.384 L 232.200 150.969 230.707 149.375 C 229.886 148.498,228.626 147.462,227.907 147.073 C 226.644 146.389,226.634 146.390,227.600 147.083 M263.873 148.000 C 264.321 150.428,264.807 151.580,264.547 149.600 C 264.416 148.610,264.153 147.530,263.962 147.200 C 263.746 146.829,263.712 147.133,263.873 148.000 M264.893 153.200 C 264.893 153.970,264.975 154.285,265.076 153.900 C 265.176 153.515,265.176 152.885,265.076 152.500 C 264.975 152.115,264.893 152.430,264.893 153.200 M265.198 160.319 L 265.397 165.800 265.511 160.632 C 265.574 157.790,265.484 155.324,265.312 155.151 C 265.141 154.979,265.089 157.304,265.198 160.319 M234.434 156.400 C 234.446 156.730,234.611 157.360,234.800 157.800 L 235.144 158.600 235.166 157.800 C 235.178 157.360,235.013 156.730,234.800 156.400 C 234.455 155.867,234.415 155.867,234.434 156.400 M235.744 165.600 C 235.744 167.690,235.812 168.545,235.894 167.500 C 235.976 166.455,235.976 164.745,235.894 163.700 C 235.812 162.655,235.744 163.510,235.744 165.600 M264.893 167.200 C 264.893 167.970,264.975 168.285,265.076 167.900 C 265.176 167.515,265.176 166.885,265.076 166.500 C 264.975 166.115,264.893 166.430,264.893 167.200 M263.232 173.926 C 263.214 174.216,262.582 175.791,261.826 177.426 C 261.070 179.062,260.542 180.400,260.652 180.400 C 261.042 180.400,263.646 174.339,263.456 173.873 C 263.321 173.543,263.254 173.559,263.232 173.926 M256.900 185.174 C 255.965 186.260,255.200 187.278,255.200 187.436 C 255.200 187.761,256.834 185.963,258.050 184.300 C 259.290 182.604,258.779 182.993,256.900 185.174 M223.833 185.900 C 223.669 186.065,222.784 186.505,221.867 186.878 C 220.950 187.250,220.427 187.565,220.704 187.578 C 221.242 187.601,224.800 186.019,224.800 185.756 C 224.800 185.488,224.148 185.585,223.833 185.900 M253.371 188.903 L 252.200 190.197 253.400 189.199 C 254.060 188.649,254.675 188.155,254.767 188.100 C 254.858 188.045,254.845 187.912,254.738 187.804 C 254.630 187.696,254.015 188.191,253.371 188.903 M215.400 188.400 C 213.737 188.823,215.374 188.842,217.400 188.423 C 218.745 188.145,218.809 188.092,217.800 188.093 C 217.140 188.094,216.060 188.232,215.400 188.400 M249.026 192.038 C 247.500 193.117,246.385 194.000,246.548 194.000 C 246.961 194.000,251.495 190.893,251.799 190.402 C 252.150 189.834,252.107 189.859,249.026 192.038 M244.231 194.907 C 242.677 195.792,241.910 196.800,242.790 196.800 C 243.042 196.800,243.140 196.627,243.009 196.415 C 242.879 196.204,243.498 195.660,244.386 195.207 C 245.274 194.754,246.000 194.297,246.000 194.192 C 246.000 193.909,245.940 193.933,244.231 194.907 M256.000 202.159 C 256.000 202.261,256.585 202.756,257.300 203.257 C 258.222 203.904,258.435 203.964,258.033 203.463 C 257.460 202.750,256.000 201.813,256.000 202.159 M260.783 206.100 C 261.764 207.145,262.619 208.000,262.683 208.000 C 262.984 208.000,262.666 207.641,260.900 205.983 L 259.000 204.200 260.783 206.100 M164.196 236.000 L 164.200 261.800 191.600 261.804 L 219.000 261.808 191.703 261.701 L 164.406 261.594 164.298 235.897 L 164.191 210.200 164.196 236.000 M221.400 210.823 C 222.280 211.005,223.450 211.144,224.000 211.131 C 224.641 211.116,224.426 210.989,223.400 210.777 C 222.520 210.595,221.350 210.456,220.800 210.469 C 220.159 210.484,220.374 210.611,221.400 210.823 M266.185 213.002 C 267.987 215.996,268.430 216.374,266.994 213.693 C 266.373 212.534,265.625 211.387,265.332 211.144 C 265.039 210.900,265.422 211.737,266.185 213.002 M225.600 211.582 C 225.930 211.805,226.545 211.991,226.967 211.994 C 227.990 212.002,227.671 211.773,226.200 211.444 C 225.324 211.248,225.162 211.285,225.600 211.582 M231.600 213.701 C 231.600 213.955,234.696 216.000,235.080 216.000 C 235.244 216.000,235.023 215.758,234.589 215.461 C 232.681 214.159,231.600 213.522,231.600 213.701 M235.233 216.500 C 235.325 216.555,235.940 217.050,236.600 217.600 L 237.800 218.600 236.830 217.500 C 236.297 216.895,235.682 216.400,235.464 216.400 C 235.245 216.400,235.142 216.445,235.233 216.500 M238.000 218.928 C 238.000 219.175,239.874 222.022,240.277 222.390 C 240.404 222.505,240.277 222.150,239.995 221.600 C 239.409 220.460,238.000 218.573,238.000 218.928 M271.444 226.200 C 271.773 227.671,272.002 227.990,271.994 226.967 C 271.991 226.545,271.805 225.930,271.582 225.600 C 271.285 225.162,271.248 225.324,271.444 226.200 M272.281 230.800 C 272.406 232.010,272.574 233.075,272.654 233.167 C 272.935 233.487,272.717 230.591,272.387 229.600 C 272.171 228.954,272.134 229.380,272.281 230.800 M242.959 235.600 C 242.959 238.790,243.021 240.095,243.097 238.500 C 243.173 236.905,243.173 234.295,243.097 232.700 C 243.021 231.105,242.959 232.410,242.959 235.600 M272.914 239.400 C 272.917 240.500,272.995 240.903,273.087 240.295 C 273.179 239.686,273.177 238.786,273.082 238.295 C 272.987 237.803,272.911 238.300,272.914 239.400 M242.249 243.015 C 242.112 243.373,242.015 243.966,242.034 244.333 C 242.053 244.700,242.227 244.469,242.421 243.820 C 242.798 242.558,242.665 241.933,242.249 243.015 M272.459 245.800 C 272.420 246.460,272.296 247.450,272.183 248.000 L 271.977 249.000 272.408 248.014 C 272.644 247.472,272.768 246.482,272.683 245.814 L 272.528 244.600 272.459 245.800 M240.229 248.861 C 239.883 249.555,239.600 250.225,239.600 250.350 C 239.600 250.697,240.633 249.094,240.921 248.300 C 241.336 247.155,240.906 247.504,240.229 248.861 M271.429 251.029 C 271.281 251.615,271.251 252.184,271.361 252.294 C 271.471 252.404,271.681 252.015,271.829 251.429 C 271.976 250.842,272.006 250.273,271.896 250.163 C 271.786 250.053,271.576 250.442,271.429 251.029 M236.000 254.540 C 233.843 256.941,233.835 256.958,235.615 255.394 C 237.550 253.694,239.044 251.971,238.519 252.045 C 238.343 252.070,237.210 253.193,236.000 254.540 M230.283 258.582 C 228.093 259.632,227.283 260.253,228.911 259.634 C 230.440 259.052,232.400 258.017,232.400 257.790 C 232.400 257.552,232.546 257.497,230.283 258.582 M267.432 261.722 C 266.803 262.865,265.825 264.430,265.261 265.200 C 264.675 265.999,264.537 266.357,264.938 266.033 C 265.699 265.422,268.967 260.033,268.724 259.791 C 268.644 259.710,268.062 260.579,267.432 261.722 M222.000 261.200 C 221.208 261.454,221.167 261.520,221.800 261.520 C 222.240 261.520,223.050 261.376,223.600 261.200 C 224.392 260.946,224.433 260.880,223.800 260.880 C 223.360 260.880,222.550 261.024,222.000 261.200 M261.200 269.885 C 259.541 271.583,258.975 272.311,259.933 271.512 C 261.457 270.241,264.684 266.789,264.331 266.806 C 264.259 266.810,262.850 268.195,261.200 269.885 M252.200 276.800 C 251.540 277.237,251.180 277.592,251.400 277.588 C 251.801 277.582,253.976 276.023,253.600 276.012 C 253.490 276.008,252.860 276.363,252.200 276.800 M245.733 279.922 C 244.816 280.295,243.916 280.751,243.733 280.936 C 243.312 281.360,246.866 279.999,247.380 279.540 C 247.893 279.081,247.680 279.131,245.733 279.922 M232.800 284.000 C 231.996 284.257,231.957 284.323,232.600 284.332 C 233.040 284.338,233.760 284.189,234.200 284.000 C 235.219 283.562,234.168 283.562,232.800 284.000 M228.400 284.800 C 227.056 285.231,228.508 285.231,230.200 284.800 C 231.278 284.526,231.298 284.494,230.400 284.487 C 229.850 284.483,228.950 284.624,228.400 284.800 M221.400 285.600 C 219.073 286.017,221.540 286.033,224.200 285.618 C 226.099 285.323,226.119 285.307,224.600 285.310 C 223.720 285.312,222.280 285.442,221.400 285.600 M58.068 304.400 C 58.088 305.439,58.718 307.146,58.732 306.200 C 58.738 305.760,58.589 305.040,58.400 304.600 C 58.189 304.110,58.061 304.032,58.068 304.400 M340.649 308.215 C 340.512 308.573,340.415 309.166,340.434 309.533 C 340.453 309.900,340.627 309.669,340.821 309.020 C 341.198 307.758,341.065 307.133,340.649 308.215 M338.847 313.480 C 338.603 314.096,338.228 315.005,338.014 315.500 C 337.800 315.995,337.705 316.400,337.803 316.400 C 338.088 316.400,339.673 312.740,339.474 312.541 C 339.374 312.441,339.092 312.863,338.847 313.480 M62.415 317.000 C 62.417 317.220,62.786 317.850,63.236 318.400 C 63.779 319.064,63.915 319.131,63.640 318.600 C 62.966 317.295,62.412 316.572,62.415 317.000 M335.260 320.427 C 333.862 322.675,333.540 323.683,334.822 321.800 C 335.830 320.318,336.873 318.400,336.670 318.400 C 336.587 318.400,335.953 319.312,335.260 320.427 M64.764 321.133 C 64.980 321.536,65.471 322.121,65.855 322.433 C 66.287 322.784,66.190 322.504,65.601 321.700 C 64.551 320.265,64.157 319.998,64.764 321.133 M70.987 328.722 C 72.301 330.085,73.448 331.200,73.536 331.200 C 73.917 331.200,70.727 327.856,69.353 326.815 C 68.939 326.501,69.674 327.360,70.987 328.722 M328.587 328.900 L 326.200 331.400 328.700 329.013 C 330.075 327.699,331.200 326.574,331.200 326.513 C 331.200 326.217,330.805 326.578,328.587 328.900 M78.385 334.771 C 79.147 335.447,79.942 336.000,80.152 336.000 C 80.362 336.000,80.458 335.948,80.367 335.884 C 80.275 335.820,79.480 335.267,78.600 334.655 L 77.000 333.542 78.385 334.771 M320.457 335.208 C 318.287 336.634,317.821 337.101,319.400 336.270 C 321.117 335.366,323.071 334.000,322.600 334.034 C 322.380 334.049,321.416 334.578,320.457 335.208 M314.200 338.591 C 313.100 339.121,312.345 339.564,312.522 339.577 C 312.964 339.609,316.400 338.026,316.400 337.790 C 316.400 337.528,316.438 337.514,314.200 338.591 M308.000 340.818 C 307.562 341.115,307.724 341.152,308.600 340.956 C 310.071 340.627,310.390 340.398,309.367 340.406 C 308.945 340.409,308.330 340.595,308.000 340.818 M92.833 341.347 C 92.925 341.428,93.720 341.604,94.600 341.738 C 95.715 341.907,95.958 341.871,95.400 341.619 C 94.632 341.271,92.490 341.044,92.833 341.347 M304.800 341.606 C 304.378 341.882,304.615 341.923,305.600 341.742 C 307.325 341.425,307.651 341.198,306.367 341.206 C 305.835 341.209,305.130 341.389,304.800 341.606 M98.600 342.465 C 101.241 342.815,299.272 342.820,301.600 342.470 C 302.590 342.322,256.870 342.200,200.000 342.200 C 143.130 342.200,97.500 342.319,98.600 342.465 " stroke="none" fill="#a494b5" fill-rule="evenodd"></path><path id="path4" d="M149.900 57.100 C 177.455 57.157,222.545 57.157,250.100 57.100 C 277.655 57.043,255.110 56.997,200.000 56.997 C 144.890 56.997,122.345 57.043,149.900 57.100 M94.200 58.019 C 93.642 58.271,93.885 58.307,95.000 58.138 C 95.880 58.004,96.675 57.828,96.767 57.747 C 97.110 57.444,94.968 57.671,94.200 58.019 M303.233 57.747 C 303.325 57.828,304.120 58.004,305.000 58.138 C 306.115 58.307,306.358 58.271,305.800 58.019 C 305.032 57.671,302.890 57.444,303.233 57.747 M75.151 67.231 L 73.400 68.862 75.300 67.346 C 76.345 66.513,77.200 65.779,77.200 65.715 C 77.200 65.407,76.763 65.730,75.151 67.231 M322.800 65.946 C 322.800 66.166,323.145 66.455,323.566 66.589 C 324.429 66.863,330.799 72.951,332.785 75.400 C 333.499 76.280,333.865 76.570,333.598 76.045 C 332.526 73.935,322.800 64.838,322.800 65.946 M70.786 71.100 L 68.600 73.400 70.900 71.214 C 73.037 69.182,73.383 68.800,73.086 68.800 C 73.024 68.800,71.989 69.835,70.786 71.100 M67.241 75.014 C 66.559 75.792,66.005 76.647,66.012 76.914 C 66.019 77.181,66.223 77.040,66.466 76.600 C 66.708 76.160,67.367 75.305,67.928 74.700 C 68.490 74.095,68.845 73.600,68.716 73.600 C 68.588 73.600,67.924 74.236,67.241 75.014 M336.600 81.200 C 336.941 81.860,337.311 82.400,337.421 82.400 C 337.531 82.400,337.341 81.860,337.000 81.200 C 336.659 80.540,336.289 80.000,336.179 80.000 C 336.069 80.000,336.259 80.540,336.600 81.200 M57.856 94.484 C 57.721 94.988,57.627 95.760,57.646 96.200 C 57.665 96.640,57.845 96.298,58.046 95.440 C 58.436 93.778,58.270 92.940,57.856 94.484 M341.858 94.800 C 342.175 96.525,342.402 96.851,342.394 95.567 C 342.391 95.035,342.211 94.330,341.994 94.000 C 341.718 93.578,341.677 93.815,341.858 94.800 M342.600 200.000 C 342.600 256.084,342.722 301.662,342.872 301.285 C 343.021 300.908,343.144 255.330,343.144 200.000 C 343.144 144.670,343.021 99.092,342.872 98.715 C 342.722 98.338,342.600 143.916,342.600 200.000 M56.997 200.000 C 56.997 255.110,57.043 277.655,57.100 250.100 C 57.157 222.545,57.157 177.455,57.100 149.900 C 57.043 122.345,56.997 144.890,56.997 200.000 M134.985 119.700 C 134.880 119.975,134.841 157.460,134.897 203.000 L 135.000 285.800 176.200 285.803 L 217.400 285.806 176.300 285.701 L 135.200 285.596 135.200 202.600 L 135.200 119.604 177.500 119.500 L 219.800 119.396 177.487 119.298 C 143.933 119.220,135.136 119.303,134.985 119.700 M225.400 120.000 C 226.060 120.168,227.050 120.305,227.600 120.305 C 228.492 120.305,228.470 120.272,227.400 120.000 C 226.740 119.832,225.750 119.695,225.200 119.695 C 224.308 119.695,224.330 119.728,225.400 120.000 M230.600 120.800 C 231.040 120.989,231.760 121.138,232.200 121.132 C 232.843 121.123,232.804 121.057,232.000 120.800 C 230.632 120.362,229.581 120.362,230.600 120.800 M247.200 126.764 C 247.750 127.214,248.380 127.583,248.600 127.585 C 249.028 127.588,248.305 127.034,247.000 126.360 C 246.469 126.085,246.536 126.221,247.200 126.764 M249.600 128.146 C 249.600 128.256,250.140 128.730,250.800 129.200 C 251.460 129.670,252.000 129.964,252.000 129.854 C 252.000 129.744,251.460 129.270,250.800 128.800 C 250.140 128.330,249.600 128.036,249.600 128.146 M254.848 132.601 C 256.305 134.140,257.970 136.117,258.548 136.993 C 259.127 137.869,259.600 138.441,259.600 138.265 C 259.600 137.551,257.119 134.459,254.734 132.201 L 252.200 129.801 254.848 132.601 M171.200 143.089 C 189.849 143.361,217.480 143.372,217.062 143.106 C 216.808 142.944,204.720 142.850,190.200 142.897 C 175.680 142.943,167.130 143.030,171.200 143.089 M219.633 143.744 C 219.725 143.823,220.340 144.008,221.000 144.156 C 221.876 144.352,222.038 144.315,221.600 144.018 C 221.060 143.653,219.232 143.398,219.633 143.744 M231.999 150.700 C 232.522 151.415,233.013 152.000,233.089 152.000 C 233.393 152.000,232.401 150.500,231.745 149.967 C 231.313 149.616,231.410 149.896,231.999 150.700 M264.954 160.400 C 264.954 163.150,265.018 164.275,265.096 162.900 C 265.174 161.525,265.174 159.275,265.096 157.900 C 265.018 156.525,264.954 157.650,264.954 160.400 M235.287 158.200 C 235.291 158.640,235.432 159.540,235.600 160.200 C 235.874 161.278,235.906 161.298,235.913 160.400 C 235.917 159.850,235.776 158.950,235.600 158.400 C 235.349 157.616,235.281 157.573,235.287 158.200 M229.799 182.312 C 229.139 182.910,228.059 183.815,227.399 184.322 C 226.740 184.829,226.565 185.069,227.010 184.856 C 227.840 184.458,231.561 181.237,231.200 181.228 C 231.090 181.226,230.460 181.713,229.799 182.312 M254.615 187.188 L 252.231 189.800 254.797 187.315 C 256.208 185.948,257.281 184.772,257.181 184.702 C 257.082 184.633,255.927 185.751,254.615 187.188 M215.400 188.800 C 214.311 189.077,214.293 189.107,215.200 189.125 C 215.750 189.135,216.560 188.989,217.000 188.800 C 217.986 188.376,217.066 188.376,215.400 188.800 M241.992 195.810 C 241.714 196.145,241.566 196.500,241.664 196.598 C 241.762 196.696,242.146 196.421,242.517 195.988 C 242.889 195.555,243.036 195.200,242.845 195.200 C 242.654 195.200,242.270 195.474,241.992 195.810 M253.600 201.220 C 254.987 202.161,255.778 202.435,254.800 201.636 C 254.250 201.186,253.620 200.817,253.400 200.815 C 253.180 200.813,253.270 200.996,253.600 201.220 M260.600 206.400 C 261.459 207.280,262.252 208.000,262.362 208.000 C 262.472 208.000,261.859 207.280,261.000 206.400 C 260.141 205.520,259.348 204.800,259.238 204.800 C 259.128 204.800,259.741 205.520,260.600 206.400 M219.233 210.144 C 219.325 210.223,220.390 210.389,221.600 210.512 C 222.969 210.651,223.498 210.608,223.000 210.396 C 222.233 210.070,218.889 209.847,219.233 210.144 M266.760 214.600 C 267.434 215.905,267.988 216.628,267.985 216.200 C 267.983 215.980,267.614 215.350,267.164 214.800 C 266.621 214.136,266.485 214.069,266.760 214.600 M236.834 217.378 C 237.623 218.270,238.658 219.519,239.134 220.154 C 239.610 220.789,240.000 221.108,240.000 220.865 C 240.000 220.621,238.965 219.371,237.700 218.088 C 236.435 216.805,236.045 216.485,236.834 217.378 M242.644 228.200 C 242.973 229.671,243.202 229.990,243.194 228.967 C 243.191 228.545,243.005 227.930,242.782 227.600 C 242.485 227.162,242.448 227.324,242.644 228.200 M271.693 229.200 C 271.693 229.970,271.775 230.285,271.876 229.900 C 271.976 229.515,271.976 228.885,271.876 228.500 C 271.775 228.115,271.693 228.430,271.693 229.200 M272.558 239.000 C 272.558 242.080,272.621 243.287,272.697 241.682 C 272.773 240.078,272.773 237.558,272.696 236.082 C 272.619 234.607,272.557 235.920,272.558 239.000 M242.846 242.467 C 242.821 242.834,242.696 243.464,242.570 243.867 C 242.352 244.562,242.363 244.563,242.797 243.887 C 243.048 243.496,243.173 242.866,243.073 242.487 C 242.911 241.868,242.888 241.866,242.846 242.467 M271.800 247.600 C 271.646 248.510,271.604 249.338,271.707 249.440 C 271.810 249.543,272.013 248.877,272.160 247.960 C 272.307 247.043,272.348 246.215,272.253 246.120 C 272.158 246.024,271.954 246.690,271.800 247.600 M271.000 251.200 C 270.848 251.891,270.807 252.541,270.909 252.642 C 271.011 252.744,271.209 252.253,271.350 251.550 C 271.491 250.847,271.531 250.198,271.441 250.108 C 271.350 250.017,271.152 250.509,271.000 251.200 M220.300 261.882 C 220.795 261.978,221.605 261.978,222.100 261.882 C 222.595 261.787,222.190 261.709,221.200 261.709 C 220.210 261.709,219.805 261.787,220.300 261.882 M165.300 262.276 C 165.685 262.376,166.315 262.376,166.700 262.276 C 167.085 262.175,166.770 262.093,166.000 262.093 C 165.230 262.093,164.915 262.175,165.300 262.276 M265.469 264.300 C 264.539 265.725,264.362 266.144,265.005 265.400 C 265.974 264.278,267.375 262.000,267.095 262.000 C 267.026 262.000,266.294 263.035,265.469 264.300 M258.894 271.612 C 258.175 272.265,257.737 272.800,257.919 272.800 C 258.101 272.800,258.768 272.260,259.400 271.600 C 260.870 270.065,260.586 270.072,258.894 271.612 M234.800 283.200 C 233.976 283.464,233.941 283.526,234.600 283.554 C 235.040 283.573,235.670 283.413,236.000 283.200 C 236.701 282.747,236.214 282.747,234.800 283.200 M231.200 284.000 C 230.396 284.257,230.357 284.323,231.000 284.332 C 231.440 284.338,232.160 284.189,232.600 284.000 C 233.619 283.562,232.568 283.562,231.200 284.000 M226.000 284.800 C 224.643 285.086,224.637 285.095,225.800 285.107 C 226.460 285.115,227.450 284.976,228.000 284.800 C 229.312 284.380,227.996 284.380,226.000 284.800 M220.705 285.483 C 221.202 285.579,221.922 285.575,222.305 285.475 C 222.687 285.375,222.280 285.296,221.400 285.301 C 220.520 285.305,220.207 285.387,220.705 285.483 M57.628 304.033 C 57.644 304.565,57.819 305.360,58.019 305.800 C 58.271 306.358,58.307 306.115,58.138 305.000 C 57.855 303.143,57.587 302.636,57.628 304.033 M342.054 304.267 C 342.025 304.744,341.896 305.464,341.770 305.867 C 341.552 306.561,341.564 306.562,341.996 305.888 C 342.247 305.497,342.375 304.777,342.281 304.288 C 342.109 303.401,342.109 303.401,342.054 304.267 M334.585 322.100 C 333.968 323.035,333.720 323.589,334.032 323.331 C 334.633 322.834,336.164 320.400,335.876 320.400 C 335.783 320.400,335.202 321.165,334.585 322.100 M66.437 324.000 C 67.619 325.796,74.792 332.962,76.045 333.598 C 76.570 333.865,76.280 333.491,75.400 332.767 C 73.358 331.087,69.000 326.728,67.035 324.400 C 65.872 323.022,65.732 322.928,66.437 324.000 M328.764 328.900 C 327.314 330.385,326.240 331.600,326.376 331.600 C 326.725 331.600,331.794 326.446,331.578 326.311 C 331.480 326.250,330.214 327.415,328.764 328.900 M322.081 334.572 C 320.223 335.885,319.962 336.261,321.531 335.362 C 322.263 334.943,323.050 334.375,323.280 334.100 C 323.871 333.393,323.593 333.502,322.081 334.572 M80.000 336.179 C 80.000 336.289,80.540 336.659,81.200 337.000 C 81.860 337.341,82.400 337.531,82.400 337.421 C 82.400 337.311,81.860 336.941,81.200 336.600 C 80.540 336.259,80.000 336.069,80.000 336.179 M94.000 341.994 C 94.330 342.211,95.035 342.391,95.567 342.394 C 96.851 342.402,96.525 342.175,94.800 341.858 C 93.815 341.677,93.578 341.718,94.000 341.994 M304.400 342.000 L 303.400 342.320 304.400 342.354 C 304.950 342.373,305.670 342.213,306.000 342.000 C 306.764 341.506,305.942 341.506,304.400 342.000 M98.715 342.872 C 99.092 343.021,144.670 343.144,200.000 343.144 C 255.330 343.144,300.908 343.021,301.285 342.872 C 301.662 342.722,256.084 342.600,200.000 342.600 C 143.916 342.600,98.338 342.722,98.715 342.872 " stroke="none" fill="#b4acc4" fill-rule="evenodd"></path></g></svg>