<svg id="svg" version="1.1" xmlns="http://www.w3.org/2000/svg" xmlns:xlink="http://www.w3.org/1999/xlink" width="400" height="400" viewBox="0, 0, 400,400"><g id="svgg"><path id="path0" d="M49.561 67.417 C 26.227 92.191,10.154 120.665,1.360 152.806 L -0.000 157.778 0.040 173.306 C 0.079 188.650,0.085 188.772,0.516 183.667 C 4.241 139.527,22.106 98.206,51.424 65.917 C 55.477 61.453,54.240 62.449,49.561 67.417 M78.667 174.328 L 78.667 231.333 85.348 231.333 L 92.029 231.333 91.894 183.417 C 91.820 157.063,91.646 135.012,91.508 134.417 C 91.069 132.517,91.802 133.247,93.210 136.110 C 93.961 137.638,107.980 159.688,124.363 185.110 L 154.151 231.333 162.242 231.333 L 170.333 231.333 170.333 174.333 L 170.333 117.333 163.874 117.333 L 157.415 117.333 157.161 152.250 C 156.900 188.105,157.053 205.927,157.668 211.130 C 157.860 212.760,157.967 214.144,157.906 214.205 C 157.844 214.267,156.272 211.883,154.411 208.909 C 152.550 205.934,138.665 184.150,123.555 160.500 L 96.083 117.500 87.375 117.411 L 78.667 117.322 78.667 174.328 M200.000 174.335 L 200.000 231.337 230.250 231.252 L 260.500 231.167 260.500 225.000 L 260.500 218.833 237.083 218.748 L 213.667 218.662 213.667 198.998 L 213.667 179.333 234.167 179.333 L 254.667 179.333 254.667 173.333 L 254.667 167.333 234.167 167.333 L 213.667 167.333 213.667 148.333 L 213.667 129.333 235.667 129.333 L 257.667 129.333 257.667 123.333 L 257.667 117.333 228.833 117.333 L 200.000 117.333 200.000 174.335 M271.000 123.333 L 271.000 129.333 287.333 129.333 L 303.667 129.333 303.667 180.333 L 303.667 231.333 310.166 231.333 L 316.665 231.333 316.749 180.417 L 316.833 129.500 333.417 129.414 L 350.000 129.327 350.000 123.330 L 350.000 117.333 310.500 117.333 L 271.000 117.333 271.000 123.333 M0.041 232.167 L 0.002 253.167 1.179 257.667 C 18.893 325.424,74.450 380.980,142.333 398.816 L 146.833 399.998 168.000 399.939 C 179.642 399.906,188.417 399.831,187.500 399.770 C 87.945 393.234,8.855 315.647,0.514 216.336 C 0.104 211.453,0.078 212.331,0.041 232.167 M43.998 215.311 C 38.683 216.928,35.980 223.032,38.435 227.873 C 42.816 236.512,55.788 232.669,54.910 222.992 C 54.430 217.694,48.918 213.815,43.998 215.311 M146.796 257.994 C 118.973 261.933,115.556 304.850,142.560 311.200 C 147.564 312.377,156.792 311.494,161.763 309.364 L 163.333 308.690 163.333 305.863 L 163.333 303.035 161.250 304.010 C 144.743 311.734,129.391 301.566,130.511 283.649 C 131.534 267.258,147.302 258.028,161.737 265.371 C 162.417 265.717,163.060 266.000,163.166 266.000 C 163.272 266.000,163.315 264.627,163.263 262.949 L 163.167 259.899 161.833 259.432 C 158.031 258.103,150.870 257.418,146.796 257.994 M184.333 272.861 C 165.762 277.760,166.015 307.491,184.660 311.366 C 197.237 313.980,207.310 305.146,207.328 291.487 C 207.347 277.873,197.025 269.513,184.333 272.861 M252.599 273.293 C 236.619 278.546,236.022 305.536,251.770 310.823 C 256.544 312.425,263.421 311.813,268.298 309.351 L 270.333 308.324 270.333 305.662 C 270.333 304.198,270.277 303.000,270.207 303.000 C 270.138 303.000,269.218 303.519,268.164 304.154 C 263.471 306.980,256.682 307.502,252.700 305.344 C 249.349 303.527,247.321 300.209,246.812 295.712 L 246.581 293.667 259.899 293.667 L 273.217 293.667 273.078 289.917 C 272.771 281.578,270.053 276.563,264.393 273.892 C 261.507 272.531,255.801 272.241,252.599 273.293 M229.066 273.863 C 227.098 274.844,225.382 276.687,224.166 279.126 L 223.333 280.798 223.333 277.232 L 223.333 273.667 220.167 273.667 L 217.000 273.667 217.000 292.346 L 217.000 311.025 220.083 310.929 L 223.167 310.833 223.341 298.833 C 223.525 286.109,223.513 286.215,225.271 282.801 C 227.160 279.135,232.309 277.105,235.333 278.833 C 236.632 279.576,236.667 279.513,236.667 276.369 C 236.667 272.914,236.755 273.000,233.205 273.000 C 231.283 273.000,230.448 273.174,229.066 273.863 M193.682 278.308 C 203.957 282.213,204.001 302.826,193.740 306.126 C 182.756 309.658,174.324 300.263,177.186 287.680 C 178.956 279.901,186.537 275.593,193.682 278.308 M261.865 278.597 C 264.613 280.000,266.596 283.187,266.915 286.712 L 267.093 288.667 256.853 288.667 L 246.614 288.667 246.837 287.583 C 248.374 280.134,255.975 275.589,261.865 278.597 M334.667 348.044 C 303.015 377.446,258.896 396.434,214.833 399.616 C 211.764 399.838,214.483 399.916,226.527 399.953 L 242.220 400.000 246.527 398.825 C 280.135 389.653,314.019 370.097,335.982 347.198 C 337.719 345.387,337.096 345.788,334.667 348.044 " stroke="none" fill="#f8f7f9" fill-rule="evenodd"></path><path id="path1" d="M59.643 57.758 C 58.805 58.533,57.305 59.923,56.309 60.847 C 53.085 63.841,45.107 73.220,40.017 80.000 C -12.114 149.447,-13.398 244.972,36.851 315.667 C 105.977 412.921,243.837 428.528,333.167 349.213 C 338.427 344.542,338.695 344.283,341.301 341.366 L 343.769 338.603 290.135 284.968 L 236.501 231.333 218.250 231.333 L 200.000 231.333 200.000 213.082 L 200.000 194.830 185.333 180.167 L 170.667 165.503 170.667 198.424 L 170.667 231.345 162.262 231.256 L 153.857 231.167 124.420 185.500 C 93.817 138.025,93.796 137.992,92.462 135.000 L 91.645 133.167 91.819 136.667 C 92.075 141.815,92.074 141.555,92.036 188.250 L 92.000 231.333 85.333 231.333 L 78.667 231.333 78.667 174.333 L 78.667 117.333 87.421 117.333 L 96.175 117.333 119.004 153.074 C 138.705 183.918,155.054 209.580,157.099 212.870 L 157.698 213.833 157.489 212.333 C 157.374 211.508,157.210 197.558,157.125 181.333 L 156.969 151.833 109.235 104.083 C 82.981 77.821,61.426 56.337,61.334 56.341 C 61.242 56.345,60.481 56.983,59.643 57.758 M160.601 117.249 C 162.490 117.308,165.490 117.308,167.268 117.248 C 169.045 117.188,167.500 117.140,163.833 117.140 C 160.167 117.140,158.712 117.189,160.601 117.249 M214.442 117.250 C 222.476 117.300,235.526 117.300,243.442 117.250 C 251.357 117.200,244.783 117.159,228.833 117.159 C 212.883 117.159,206.407 117.200,214.442 117.250 M290.776 117.250 C 301.744 117.299,319.594 117.299,330.442 117.250 C 341.291 117.201,332.317 117.161,310.500 117.161 C 288.683 117.161,279.807 117.201,290.776 117.250 M224.583 129.583 C 230.679 129.634,240.654 129.634,246.750 129.583 C 252.846 129.532,247.858 129.491,235.667 129.491 C 223.475 129.491,218.487 129.532,224.583 129.583 M278.750 129.583 C 283.287 129.635,290.712 129.635,295.250 129.583 C 299.787 129.531,296.075 129.488,287.000 129.488 C 277.925 129.488,274.212 129.531,278.750 129.583 M325.273 129.583 C 329.915 129.635,337.415 129.635,341.940 129.583 C 346.465 129.531,342.667 129.488,333.500 129.488 C 324.333 129.488,320.631 129.531,325.273 129.583 M213.667 213.667 L 213.667 218.667 218.746 218.667 L 223.825 218.667 218.833 213.667 C 216.088 210.917,213.802 208.667,213.754 208.667 C 213.706 208.667,213.667 210.917,213.667 213.667 M50.050 215.786 C 55.719 218.542,56.956 225.754,52.522 230.188 C 45.759 236.951,34.758 230.009,37.851 220.932 C 39.497 216.103,45.496 213.572,50.050 215.786 M158.167 258.296 C 159.817 258.638,161.729 259.153,162.417 259.442 L 163.667 259.966 163.667 262.927 C 163.667 266.410,163.618 266.492,162.040 265.687 C 148.994 259.032,134.009 265.855,131.189 279.736 C 127.244 299.150,143.099 312.066,160.943 303.974 C 162.125 303.438,163.146 303.000,163.213 303.000 C 163.279 303.000,163.333 304.339,163.333 305.976 L 163.333 308.952 161.417 309.674 C 155.072 312.062,146.460 312.653,141.333 311.053 C 117.558 303.629,118.166 266.662,142.192 258.867 C 146.390 257.505,153.174 257.263,158.167 258.296 M193.833 272.504 C 213.021 276.550,211.963 308.142,192.522 311.644 C 180.054 313.890,170.464 305.327,170.520 292.000 C 170.579 278.293,180.791 269.753,193.833 272.504 M262.180 272.851 C 269.286 274.701,273.333 281.188,273.333 290.728 L 273.333 294.000 260.167 294.000 L 247.000 294.000 247.000 295.298 C 247.000 305.226,258.787 309.954,268.333 303.855 C 270.751 302.310,270.667 302.251,270.667 305.496 L 270.667 308.325 268.388 309.473 C 258.214 314.596,246.830 311.743,242.563 303.000 C 234.771 287.031,246.631 268.802,262.180 272.851 M235.625 272.875 L 236.667 273.083 236.667 276.384 L 236.667 279.684 235.702 279.185 C 231.754 277.144,227.130 279.151,224.993 283.833 C 223.481 287.148,223.333 288.602,223.333 300.183 L 223.333 311.000 220.167 311.000 L 217.000 311.000 217.000 292.167 L 217.000 273.333 220.167 273.333 L 223.333 273.333 223.337 276.750 L 223.341 280.167 224.120 278.805 C 226.947 273.861,230.752 271.900,235.625 272.875 M186.137 278.024 C 174.844 280.739,173.478 300.936,184.261 305.749 C 190.829 308.681,198.062 305.429,200.307 298.536 C 204.231 286.483,196.643 275.497,186.137 278.024 M254.588 278.332 C 251.236 279.341,247.730 283.631,247.104 287.488 L 246.913 288.667 256.977 288.667 L 267.041 288.667 266.834 287.083 C 265.926 280.156,260.769 276.471,254.588 278.332 " stroke="none" fill="#6c449c" fill-rule="evenodd"></path><path id="path2" d="M187.167 0.227 C 140.862 3.209,97.322 22.027,63.295 53.764 C 58.659 58.088,54.960 61.856,57.333 59.836 C 57.975 59.291,59.141 58.245,59.923 57.513 L 61.347 56.181 109.170 104.004 L 156.994 151.826 157.080 134.497 L 157.167 117.167 163.833 117.167 L 170.500 117.167 170.585 141.337 L 170.671 165.507 185.335 180.169 L 200.000 194.830 200.000 155.913 L 200.000 116.996 228.917 117.081 L 257.833 117.167 257.833 123.333 L 257.833 129.500 235.750 129.586 L 213.667 129.671 213.667 148.336 L 213.667 167.000 234.333 167.000 L 255.000 167.000 255.000 173.167 L 255.000 179.333 234.333 179.333 L 213.667 179.333 213.667 193.921 L 213.667 208.508 218.754 213.587 L 223.841 218.667 242.254 218.667 L 260.667 218.667 260.667 225.000 L 260.667 231.333 248.584 231.333 L 236.501 231.333 290.161 284.994 L 343.820 338.654 342.323 340.244 C 339.297 343.455,338.569 344.442,340.781 342.333 C 369.329 315.116,390.477 274.425,397.335 233.512 C 418.701 106.064,315.884 -8.061,187.167 0.227 M350.000 123.333 L 350.000 129.667 333.500 129.667 L 317.000 129.667 317.000 180.500 L 317.000 231.333 310.167 231.333 L 303.333 231.333 303.333 180.500 L 303.333 129.667 287.000 129.667 L 270.667 129.667 270.667 123.556 C 270.667 120.194,270.767 117.344,270.889 117.222 C 271.011 117.100,288.861 117.000,310.556 117.000 L 350.000 117.000 350.000 123.333 " stroke="none" fill="#5c2b94" fill-rule="evenodd"></path><path id="path3" d="M157.155 134.667 C 157.155 144.292,157.198 148.229,157.250 143.417 C 157.302 138.604,157.302 130.729,157.250 125.917 C 157.198 121.104,157.155 125.042,157.155 134.667 M270.805 123.333 C 270.805 126.725,270.855 128.112,270.915 126.417 C 270.976 124.721,270.976 121.946,270.915 120.250 C 270.855 118.554,270.805 119.942,270.805 123.333 M316.829 180.500 C 316.829 208.550,316.869 219.976,316.917 205.890 C 316.965 191.805,316.965 168.855,316.917 154.890 C 316.868 140.926,316.829 152.450,316.829 180.500 M91.744 138.667 C 91.744 139.308,91.813 139.571,91.896 139.250 C 91.980 138.929,91.980 138.404,91.896 138.083 C 91.813 137.762,91.744 138.025,91.744 138.667 M170.494 198.000 C 170.494 216.242,170.534 223.704,170.583 214.583 C 170.633 205.462,170.633 190.537,170.583 181.417 C 170.534 172.296,170.494 179.758,170.494 198.000 M157.103 204.167 C 157.105 205.267,157.167 205.676,157.242 205.077 C 157.316 204.478,157.314 203.578,157.238 203.077 C 157.162 202.576,157.101 203.067,157.103 204.167 M157.570 213.333 C 157.474 213.699,157.532 214.083,157.698 214.186 C 157.864 214.289,158.000 213.989,158.000 213.520 C 158.000 212.498,157.810 212.416,157.570 213.333 M55.077 224.000 C 55.077 224.642,55.146 224.904,55.230 224.583 C 55.314 224.262,55.314 223.737,55.230 223.417 C 55.146 223.096,55.077 223.358,55.077 224.000 M45.587 232.902 C 46.002 232.982,46.602 232.979,46.921 232.896 C 47.239 232.812,46.900 232.747,46.167 232.751 C 45.433 232.754,45.173 232.823,45.587 232.902 M153.750 257.896 C 154.071 257.980,154.596 257.980,154.917 257.896 C 155.237 257.813,154.975 257.744,154.333 257.744 C 153.692 257.744,153.429 257.813,153.750 257.896 M152.417 263.230 C 152.737 263.314,153.262 263.314,153.583 263.230 C 153.904 263.146,153.642 263.077,153.000 263.077 C 152.358 263.077,152.096 263.146,152.417 263.230 M188.750 272.239 C 189.254 272.315,190.079 272.315,190.583 272.239 C 191.088 272.162,190.675 272.100,189.667 272.100 C 188.658 272.100,188.246 272.162,188.750 272.239 M256.576 272.574 C 257.168 272.648,258.218 272.649,258.909 272.577 C 259.601 272.504,259.117 272.444,257.833 272.443 C 256.550 272.441,255.984 272.500,256.576 272.574 M232.417 272.905 C 232.921 272.982,233.746 272.982,234.250 272.905 C 234.754 272.829,234.342 272.767,233.333 272.767 C 232.325 272.767,231.912 272.829,232.417 272.905 M218.595 273.579 C 219.563 273.647,221.063 273.646,221.928 273.578 C 222.793 273.509,222.000 273.454,220.167 273.455 C 218.333 273.456,217.626 273.512,218.595 273.579 M256.923 277.908 C 257.522 277.982,258.422 277.981,258.923 277.905 C 259.424 277.829,258.933 277.768,257.833 277.770 C 256.733 277.772,256.324 277.834,256.923 277.908 M250.479 280.750 L 249.500 281.833 250.583 280.854 C 251.593 279.942,251.820 279.667,251.562 279.667 C 251.505 279.667,251.017 280.154,250.479 280.750 M130.411 284.333 C 130.411 284.975,130.479 285.237,130.563 284.917 C 130.647 284.596,130.647 284.071,130.563 283.750 C 130.479 283.429,130.411 283.692,130.411 284.333 M130.411 286.667 C 130.411 287.308,130.479 287.571,130.563 287.250 C 130.647 286.929,130.647 286.404,130.563 286.083 C 130.479 285.762,130.411 286.025,130.411 286.667 M273.116 289.667 C 273.116 291.225,273.174 291.862,273.244 291.083 C 273.314 290.304,273.314 289.029,273.244 288.250 C 273.174 287.471,273.116 288.108,273.116 289.667 M207.445 291.667 C 207.445 293.042,207.504 293.604,207.576 292.917 C 207.648 292.229,207.648 291.104,207.576 290.417 C 207.504 289.729,207.445 290.292,207.445 291.667 M170.443 292.167 C 170.444 293.450,170.504 293.934,170.577 293.243 C 170.649 292.551,170.648 291.501,170.574 290.909 C 170.500 290.317,170.441 290.883,170.443 292.167 M246.720 294.917 C 246.772 296.142,246.776 296.145,246.908 295.087 L 247.042 294.008 260.104 293.917 L 273.167 293.825 259.917 293.746 L 246.667 293.667 246.720 294.917 M270.260 304.749 C 270.418 308.292,270.564 308.633,270.617 305.583 C 270.644 303.979,270.554 302.666,270.417 302.666 C 270.279 302.666,270.209 303.603,270.260 304.749 M244.667 306.438 C 244.667 306.495,245.154 306.983,245.750 307.521 L 246.833 308.500 245.854 307.417 C 244.942 306.407,244.667 306.180,244.667 306.438 M188.583 306.902 C 188.996 306.981,189.671 306.981,190.083 306.902 C 190.496 306.822,190.158 306.757,189.333 306.757 C 188.508 306.757,188.171 306.822,188.583 306.902 M147.427 311.912 C 148.303 311.981,149.653 311.980,150.427 311.910 C 151.200 311.840,150.483 311.784,148.833 311.785 C 147.183 311.786,146.550 311.843,147.427 311.912 M187.576 311.907 C 188.168 311.981,189.218 311.982,189.909 311.910 C 190.601 311.838,190.117 311.778,188.833 311.776 C 187.550 311.775,186.984 311.834,187.576 311.907 M257.250 311.902 C 257.662 311.981,258.337 311.981,258.750 311.902 C 259.162 311.822,258.825 311.757,258.000 311.757 C 257.175 311.757,256.837 311.822,257.250 311.902 M58.333 341.500 C 59.329 342.508,60.219 343.333,60.311 343.333 C 60.402 343.333,59.662 342.508,58.667 341.500 C 57.671 340.492,56.781 339.667,56.689 339.667 C 56.598 339.667,57.338 340.492,58.333 341.500 " stroke="none" fill="#9677b5" fill-rule="evenodd"></path><path id="path4" d="M170.491 141.167 C 170.491 154.367,170.533 159.718,170.583 153.059 C 170.634 146.399,170.634 135.599,170.583 129.059 C 170.533 122.518,170.491 127.967,170.491 141.167 M257.805 123.333 C 257.805 126.725,257.855 128.112,257.915 126.417 C 257.976 124.721,257.976 121.946,257.915 120.250 C 257.855 118.554,257.805 119.942,257.805 123.333 M303.496 180.500 C 303.496 208.550,303.535 219.976,303.583 205.890 C 303.631 191.805,303.631 168.855,303.583 154.890 C 303.535 140.926,303.496 152.450,303.496 180.500 M234.076 167.249 L 254.651 167.338 254.754 173.086 L 254.856 178.833 254.845 173.000 L 254.833 167.167 234.167 167.163 L 213.500 167.159 234.076 167.249 M0.077 209.000 C 0.077 209.642,0.146 209.904,0.230 209.583 C 0.314 209.262,0.314 208.737,0.230 208.417 C 0.146 208.096,0.077 208.358,0.077 209.000 M163.331 263.068 C 163.241 264.847,163.285 266.184,163.430 266.038 C 163.575 265.892,163.649 264.436,163.595 262.803 L 163.495 259.833 163.331 263.068 M149.917 263.235 C 150.329 263.315,151.004 263.315,151.417 263.235 C 151.829 263.156,151.492 263.091,150.667 263.091 C 149.842 263.091,149.504 263.156,149.917 263.235 M176.767 292.333 C 176.767 293.342,176.829 293.754,176.905 293.250 C 176.982 292.746,176.982 291.921,176.905 291.417 C 176.829 290.912,176.767 291.325,176.767 292.333 M190.417 399.896 C 190.737 399.980,191.262 399.980,191.583 399.896 C 191.904 399.813,191.642 399.744,191.000 399.744 C 190.358 399.744,190.096 399.813,190.417 399.896 M208.417 399.896 C 208.737 399.980,209.262 399.980,209.583 399.896 C 209.904 399.813,209.642 399.744,209.000 399.744 C 208.358 399.744,208.096 399.813,208.417 399.896 " stroke="none" fill="#8c66b4" fill-rule="evenodd"></path></g></svg>