<svg id="svg" version="1.1" xmlns="http://www.w3.org/2000/svg" xmlns:xlink="http://www.w3.org/1999/xlink" width="400" height="400" viewBox="0, 0, 400,400"><g id="svgg"><path id="path0" d="M194.739 45.816 C 179.814 49.430,174.568 68.297,185.468 79.159 C 194.299 87.958,209.334 86.388,216.021 75.968 C 217.260 74.036,217.127 74.024,220.566 76.401 C 255.640 100.647,274.993 178.639,263.806 250.658 C 262.270 260.548,260.321 269.397,257.478 279.381 C 255.486 286.375,256.388 289.030,260.597 288.569 C 263.118 288.293,263.705 287.415,265.436 281.333 C 288.882 198.930,268.006 95.349,222.409 67.843 L 219.510 66.094 219.137 63.284 C 217.500 50.932,206.409 42.991,194.739 45.816 M203.339 54.164 C 208.103 55.789,211.223 60.575,210.939 65.824 C 210.295 77.730,194.231 80.842,188.935 70.086 C 184.408 60.889,193.521 50.815,203.339 54.164 M119.833 109.678 C 73.115 113.518,54.095 145.294,73.431 187.203 C 78.384 197.939,80.275 199.904,83.825 198.004 C 86.339 196.659,86.262 194.364,83.531 189.203 C 57.406 139.821,88.012 108.981,152.582 119.624 C 156.886 120.333,157.650 120.261,158.982 119.017 C 160.945 117.183,160.536 113.982,158.167 112.622 C 154.782 110.679,130.417 108.808,119.833 109.678 M270.000 109.876 C 267.197 111.045,266.657 114.810,269.009 116.789 C 269.854 117.501,270.414 117.626,273.570 117.808 C 289.364 118.716,300.042 121.546,308.555 127.078 C 332.798 142.836,329.217 176.245,299.380 212.667 C 296.213 216.533,296.009 218.797,298.667 220.601 C 301.316 222.398,302.635 221.668,307.337 215.796 C 338.793 176.519,341.191 138.955,313.424 120.478 C 303.976 114.191,290.109 110.287,275.601 109.829 C 272.796 109.741,270.275 109.762,270.000 109.876 M228.833 115.116 C 145.648 136.246,67.969 204.942,66.097 259.033 L 65.906 264.566 64.754 265.186 C 59.638 267.941,55.768 275.743,56.081 282.667 C 56.880 300.307,78.634 308.024,90.525 294.884 C 101.681 282.556,93.041 262.212,76.543 261.960 L 74.243 261.925 74.435 257.379 C 76.524 207.889,156.074 140.483,233.833 122.314 C 240.674 120.716,242.643 118.146,239.583 114.808 C 237.941 113.015,236.996 113.043,228.833 115.116 M194.410 195.126 C 182.738 199.565,181.929 216.123,193.128 221.364 C 206.278 227.518,219.196 212.873,211.340 200.717 C 207.810 195.256,200.456 192.827,194.410 195.126 M100.805 218.474 C 98.232 219.594,97.545 222.495,99.290 224.867 C 100.809 226.930,114.058 239.822,119.000 244.045 C 179.654 295.871,263.890 320.818,307.271 299.804 L 311.135 297.932 313.317 299.106 C 326.643 306.273,342.568 296.656,342.473 281.500 C 342.349 261.875,316.711 254.573,305.966 271.103 C 302.339 276.684,302.051 283.806,305.157 291.088 C 305.645 292.231,296.996 295.615,289.694 297.137 C 276.938 299.796,259.218 299.548,242.914 296.482 C 196.202 287.698,146.109 260.662,110.969 225.268 C 103.618 217.865,103.060 217.492,100.805 218.474 M80.812 271.200 C 87.814 274.629,89.546 283.733,84.290 289.484 C 76.296 298.231,61.636 290.563,64.451 279.109 C 66.249 271.794,74.187 267.956,80.812 271.200 M327.410 271.083 C 338.705 276.253,335.334 293.125,323.000 293.159 C 319.224 293.169,317.437 292.465,314.781 289.920 C 305.430 280.961,315.659 265.703,327.410 271.083 M139.815 288.016 C 136.911 288.879,136.416 291.224,138.155 295.875 C 162.335 360.532,209.630 375.419,243.386 329.000 C 249.929 320.002,250.625 317.626,247.363 315.427 C 244.894 313.763,243.019 314.672,240.431 318.784 C 211.489 364.784,169.773 354.611,147.005 296.000 C 143.931 288.086,143.013 287.066,139.815 288.016 " stroke="none" fill="#a2eafa" fill-rule="evenodd"></path><path id="path1" d="M187.167 0.227 C 75.590 7.412,-8.533 104.739,0.506 216.185 C 9.360 325.359,104.281 407.103,213.585 399.684 C 324.884 392.129,408.514 295.022,399.494 183.815 C 390.667 74.982,296.098 -6.787,187.167 0.227 M205.723 46.141 C 213.480 48.839,219.320 56.520,219.337 64.048 L 219.342 65.833 221.786 67.249 C 247.095 81.908,266.764 122.406,273.148 173.000 C 275.157 188.920,275.886 214.571,274.731 228.667 C 273.029 249.421,269.585 268.803,264.928 283.833 C 263.552 288.272,261.528 289.707,258.520 288.376 C 255.587 287.079,255.453 285.819,257.487 278.703 C 279.148 202.943,261.046 104.146,220.446 76.540 L 217.257 74.371 215.948 76.331 C 207.492 88.995,188.077 87.608,181.464 73.867 C 173.815 57.975,189.197 40.394,205.723 46.141 M195.767 54.267 C 185.312 58.000,185.470 72.825,195.998 76.022 C 207.315 79.460,215.699 65.919,207.656 57.194 C 204.831 54.129,199.695 52.865,195.767 54.267 M140.500 109.682 C 145.035 110.071,155.537 111.524,157.408 112.023 C 160.988 112.978,161.397 118.278,158.015 119.883 C 156.972 120.379,156.521 120.397,154.167 120.039 C 120.419 114.905,97.327 118.856,84.024 132.040 C 71.010 144.940,71.184 167.420,84.477 190.500 C 86.986 194.857,85.793 198.669,81.922 198.665 C 79.588 198.663,78.713 197.858,76.385 193.568 C 52.297 149.195,70.111 113.942,118.833 109.565 C 121.934 109.287,136.816 109.367,140.500 109.682 M281.833 110.028 C 330.987 114.900,347.008 152.885,319.342 198.965 C 314.716 206.670,305.205 219.528,303.123 220.893 C 301.253 222.118,298.183 221.299,297.150 219.300 C 295.955 216.991,296.308 216.227,301.705 209.443 C 326.625 178.119,331.335 147.266,313.646 131.220 C 305.028 123.403,291.788 118.876,275.361 118.129 C 269.027 117.842,267.336 116.901,267.336 113.667 C 267.336 109.505,269.948 108.850,281.833 110.028 M239.507 114.440 C 241.417 116.350,241.283 119.477,239.234 120.820 C 238.782 121.116,235.207 122.162,231.289 123.144 C 153.210 142.717,77.368 207.942,74.443 258.033 L 74.237 261.567 77.035 261.742 C 99.179 263.129,102.592 294.715,81.266 300.892 C 59.919 307.075,45.824 277.295,64.401 265.257 L 66.078 264.171 65.899 262.193 C 65.651 259.464,66.221 252.492,67.005 248.640 C 77.801 195.667,151.989 134.441,229.167 114.811 C 236.357 112.982,237.990 112.924,239.507 114.440 M202.833 194.454 C 211.775 196.846,216.316 206.259,212.524 214.541 C 206.951 226.715,189.235 225.396,185.494 212.529 C 182.442 202.030,192.390 191.660,202.833 194.454 M104.093 218.360 C 104.528 218.558,106.652 220.590,108.813 222.875 C 161.987 279.089,256.008 313.158,302.221 292.955 L 305.275 291.620 304.459 289.838 C 294.795 268.728,324.542 250.949,338.554 269.461 C 351.316 286.322,332.675 308.966,313.822 299.504 L 311.000 298.087 308.547 299.372 C 291.782 308.157,265.798 309.765,236.833 303.809 C 196.858 295.589,152.988 273.360,118.500 243.848 C 113.089 239.217,99.725 226.046,98.700 224.333 C 96.559 220.754,100.285 216.626,104.093 218.360 M71.833 270.842 C 59.932 275.256,63.158 293.088,75.852 293.053 C 87.832 293.020,91.549 276.916,80.849 271.410 C 78.753 270.332,74.015 270.033,71.833 270.842 M318.345 271.048 C 310.871 273.996,308.980 284.029,314.815 289.772 C 323.781 298.596,338.392 288.393,333.132 276.981 C 330.600 271.490,323.970 268.830,318.345 271.048 M143.273 288.343 C 144.481 289.080,144.560 289.237,147.529 296.833 C 169.752 353.685,210.505 364.105,239.225 320.277 C 242.419 315.402,243.194 314.666,245.128 314.668 C 249.547 314.672,250.664 318.221,247.722 322.912 C 221.143 365.308,182.272 367.436,154.476 328.017 C 148.068 318.928,139.081 300.937,136.969 292.968 C 135.977 289.223,139.943 286.313,143.273 288.343 " stroke="none" fill="#242c34" fill-rule="evenodd"></path><path id="path2" d="M271.583 109.574 C 272.179 109.648,273.154 109.648,273.750 109.574 C 274.346 109.501,273.858 109.440,272.667 109.440 C 271.475 109.440,270.987 109.501,271.583 109.574 M122.750 117.896 C 123.071 117.980,123.596 117.980,123.917 117.896 C 124.237 117.813,123.975 117.744,123.333 117.744 C 122.692 117.744,122.429 117.813,122.750 117.896 M133.750 117.896 C 134.071 117.980,134.596 117.980,134.917 117.896 C 135.237 117.813,134.975 117.744,134.333 117.744 C 133.692 117.744,133.429 117.813,133.750 117.896 M77.821 126.083 L 76.167 127.833 77.917 126.179 C 79.543 124.642,79.820 124.333,79.571 124.333 C 79.518 124.333,78.731 125.121,77.821 126.083 M117.479 185.417 L 116.500 186.500 117.583 185.521 C 118.593 184.608,118.820 184.333,118.562 184.333 C 118.505 184.333,118.017 184.821,117.479 185.417 M106.812 196.083 L 105.833 197.167 106.917 196.188 C 107.926 195.275,108.153 195.000,107.896 195.000 C 107.838 195.000,107.351 195.487,106.812 196.083 M275.084 198.833 C 275.088 199.567,275.156 199.827,275.236 199.413 C 275.315 198.998,275.312 198.398,275.229 198.079 C 275.146 197.761,275.080 198.100,275.084 198.833 M266.806 208.333 C 266.806 211.908,266.855 213.371,266.915 211.583 C 266.975 209.796,266.975 206.871,266.915 205.083 C 266.855 203.296,266.806 204.758,266.806 208.333 M275.084 218.500 C 275.088 219.233,275.156 219.494,275.236 219.079 C 275.315 218.665,275.312 218.065,275.229 217.746 C 275.146 217.427,275.080 217.767,275.084 218.500 M110.333 236.438 C 110.333 236.495,110.821 236.983,111.417 237.521 L 112.500 238.500 111.521 237.417 C 110.608 236.407,110.333 236.180,110.333 236.438 M65.751 260.167 C 65.754 260.900,65.823 261.161,65.902 260.746 C 65.982 260.331,65.979 259.731,65.896 259.413 C 65.812 259.094,65.747 259.433,65.751 260.167 M89.667 267.500 C 90.289 268.142,90.872 268.667,90.964 268.667 C 91.056 268.667,90.622 268.142,90.000 267.500 C 89.378 266.858,88.794 266.333,88.703 266.333 C 88.611 266.333,89.045 266.858,89.667 267.500 M75.254 270.236 C 75.669 270.315,76.269 270.312,76.587 270.229 C 76.906 270.146,76.567 270.080,75.833 270.084 C 75.100 270.088,74.839 270.156,75.254 270.236 M322.254 270.236 C 322.669 270.315,323.269 270.312,323.587 270.229 C 323.906 270.146,323.567 270.080,322.833 270.084 C 322.100 270.088,321.839 270.156,322.254 270.236 M336.649 295.917 L 335.500 297.167 336.750 296.018 C 337.913 294.949,338.153 294.667,337.899 294.667 C 337.843 294.667,337.281 295.229,336.649 295.917 M263.750 298.896 C 264.071 298.980,264.596 298.980,264.917 298.896 C 265.237 298.813,264.975 298.744,264.333 298.744 C 263.692 298.744,263.429 298.813,263.750 298.896 M228.154 334.083 L 226.500 335.833 228.250 334.179 C 229.213 333.269,230.000 332.482,230.000 332.429 C 230.000 332.180,229.691 332.457,228.154 334.083 M234.146 340.083 L 233.167 341.167 234.250 340.188 C 234.846 339.649,235.333 339.162,235.333 339.104 C 235.333 338.847,235.058 339.074,234.146 340.083 M198.083 356.243 C 198.771 356.315,199.896 356.315,200.583 356.243 C 201.271 356.171,200.708 356.112,199.333 356.112 C 197.958 356.112,197.396 356.171,198.083 356.243 " stroke="none" fill="#516f7c" fill-rule="evenodd"></path><path id="path3" d="M198.921 53.569 C 199.335 53.649,199.935 53.646,200.254 53.562 C 200.573 53.479,200.233 53.414,199.500 53.417 C 198.767 53.421,198.506 53.489,198.921 53.569 M179.424 65.000 C 179.424 65.825,179.489 66.162,179.569 65.750 C 179.648 65.337,179.648 64.662,179.569 64.250 C 179.489 63.837,179.424 64.175,179.424 65.000 M134.750 109.563 C 135.071 109.647,135.596 109.647,135.917 109.563 C 136.237 109.479,135.975 109.411,135.333 109.411 C 134.692 109.411,134.429 109.479,134.750 109.563 M271.750 117.896 C 272.071 117.980,272.596 117.980,272.917 117.896 C 273.237 117.813,272.975 117.744,272.333 117.744 C 271.692 117.744,271.429 117.813,271.750 117.896 M314.500 132.000 C 315.216 132.733,315.877 133.333,315.969 133.333 C 316.060 133.333,315.549 132.733,314.833 132.000 C 314.117 131.267,313.456 130.667,313.365 130.667 C 313.273 130.667,313.784 131.267,314.500 132.000 M74.077 154.667 C 74.077 155.308,74.146 155.571,74.230 155.250 C 74.314 154.929,74.314 154.404,74.230 154.083 C 74.146 153.762,74.077 154.025,74.077 154.667 M324.417 155.167 C 324.421 155.900,324.489 156.161,324.569 155.746 C 324.649 155.331,324.646 154.731,324.562 154.413 C 324.479 154.094,324.414 154.433,324.417 155.167 M65.773 156.667 C 65.773 157.858,65.834 158.346,65.908 157.750 C 65.982 157.154,65.982 156.179,65.908 155.583 C 65.834 154.987,65.773 155.475,65.773 156.667 M332.773 157.000 C 332.773 158.192,332.834 158.679,332.908 158.083 C 332.982 157.487,332.982 156.512,332.908 155.917 C 332.834 155.321,332.773 155.808,332.773 157.000 M324.417 158.500 C 324.421 159.233,324.489 159.494,324.569 159.079 C 324.649 158.665,324.646 158.065,324.562 157.746 C 324.479 157.427,324.414 157.767,324.417 158.500 M108.315 182.583 L 107.167 183.833 108.417 182.685 C 109.580 181.615,109.820 181.333,109.565 181.333 C 109.510 181.333,108.947 181.896,108.315 182.583 M104.491 186.417 L 102.167 188.833 104.583 186.509 C 106.828 184.350,107.152 184.000,106.908 184.000 C 106.857 184.000,105.769 185.088,104.491 186.417 M111.826 190.750 L 109.167 193.500 111.917 190.841 C 114.471 188.372,114.819 188.000,114.576 188.000 C 114.525 188.000,113.288 189.237,111.826 190.750 M198.921 194.236 C 199.335 194.315,199.935 194.312,200.254 194.229 C 200.573 194.146,200.233 194.080,199.500 194.084 C 198.767 194.088,198.506 194.156,198.921 194.236 M266.757 200.000 C 266.757 200.825,266.822 201.162,266.902 200.750 C 266.981 200.338,266.981 199.662,266.902 199.250 C 266.822 198.838,266.757 199.175,266.757 200.000 M275.116 203.333 C 275.116 204.892,275.174 205.529,275.244 204.750 C 275.314 203.971,275.314 202.696,275.244 201.917 C 275.174 201.137,275.116 201.775,275.116 203.333 M275.114 213.833 C 275.115 215.300,275.174 215.859,275.244 215.075 C 275.315 214.291,275.314 213.091,275.242 212.408 C 275.171 211.725,275.113 212.367,275.114 213.833 M266.767 217.333 C 266.767 218.342,266.829 218.754,266.905 218.250 C 266.982 217.746,266.982 216.921,266.905 216.417 C 266.829 215.912,266.767 216.325,266.767 217.333 M111.833 226.333 C 113.476 227.983,114.894 229.333,114.986 229.333 C 115.078 229.333,113.809 227.983,112.167 226.333 C 110.524 224.683,109.106 223.333,109.014 223.333 C 108.922 223.333,110.191 224.683,111.833 226.333 M105.833 232.000 C 107.844 234.017,109.564 235.667,109.655 235.667 C 109.747 235.667,108.177 234.017,106.167 232.000 C 104.156 229.983,102.436 228.333,102.345 228.333 C 102.253 228.333,103.823 229.983,105.833 232.000 M321.083 261.896 C 321.404 261.980,321.929 261.980,322.250 261.896 C 322.571 261.813,322.308 261.744,321.667 261.744 C 321.025 261.744,320.762 261.813,321.083 261.896 M64.091 281.667 C 64.091 282.492,64.156 282.829,64.235 282.417 C 64.315 282.004,64.315 281.329,64.235 280.917 C 64.156 280.504,64.091 280.842,64.091 281.667 M302.757 281.667 C 302.757 282.492,302.822 282.829,302.902 282.417 C 302.981 282.004,302.981 281.329,302.902 280.917 C 302.822 280.504,302.757 280.842,302.757 281.667 M263.254 307.236 C 263.669 307.315,264.269 307.312,264.587 307.229 C 264.906 307.146,264.567 307.080,263.833 307.084 C 263.100 307.088,262.839 307.156,263.254 307.236 M274.921 307.236 C 275.335 307.315,275.935 307.312,276.254 307.229 C 276.573 307.146,276.233 307.080,275.500 307.084 C 274.767 307.088,274.506 307.156,274.921 307.236 M169.986 333.750 C 170.803 334.621,171.516 335.333,171.569 335.333 C 171.820 335.333,171.555 335.034,170.083 333.653 L 168.500 332.167 169.986 333.750 M164.333 339.833 C 165.514 341.025,166.556 342.000,166.647 342.000 C 166.739 342.000,165.848 341.025,164.667 339.833 C 163.486 338.642,162.444 337.667,162.353 337.667 C 162.261 337.667,163.152 338.642,164.333 339.833 M198.755 347.906 C 199.261 347.982,200.011 347.980,200.421 347.901 C 200.831 347.822,200.417 347.760,199.500 347.762 C 198.583 347.765,198.248 347.829,198.755 347.906 " stroke="none" fill="#648c9c" fill-rule="evenodd"></path><path id="path4" d="M74.084 156.833 C 74.088 157.567,74.156 157.827,74.236 157.413 C 74.315 156.998,74.312 156.398,74.229 156.079 C 74.146 155.761,74.080 156.100,74.084 156.833 " stroke="none" fill="#648494" fill-rule="evenodd"></path></g></svg>