<svg id="svg" version="1.1" xmlns="http://www.w3.org/2000/svg" xmlns:xlink="http://www.w3.org/1999/xlink" width="400" height="275.22935779816515" viewBox="0, 0, 400,275.22935779816515"><g id="svgg"><path id="path0" d="M163.042 72.738 C 162.038 73.222,162.444 74.413,163.723 74.732 C 164.844 75.012,165.431 75.659,165.764 76.983 C 165.939 77.677,166.320 78.329,166.695 78.574 C 167.044 78.803,167.413 79.369,167.515 79.832 C 167.617 80.295,167.985 81.013,168.333 81.427 C 168.682 81.841,169.150 82.619,169.375 83.156 C 169.599 83.693,170.109 84.484,170.507 84.915 C 170.906 85.345,171.232 85.994,171.232 86.358 C 171.232 86.721,171.523 87.292,171.878 87.625 C 172.677 88.375,173.159 89.261,173.159 89.983 C 173.159 90.284,173.442 90.757,173.789 91.033 C 174.135 91.309,174.591 91.968,174.802 92.498 C 175.012 93.028,175.534 93.913,175.961 94.465 C 176.388 95.017,176.738 95.710,176.738 96.005 C 176.738 96.301,176.998 96.778,177.317 97.066 C 178.035 97.716,178.665 98.905,178.665 99.611 C 178.665 99.903,178.961 100.337,179.323 100.574 C 179.684 100.811,180.165 101.549,180.392 102.213 C 180.618 102.878,181.128 103.745,181.524 104.141 C 181.920 104.537,182.244 105.103,182.244 105.398 C 182.244 105.694,182.677 106.454,183.207 107.089 C 183.737 107.723,184.171 108.537,184.171 108.898 C 184.171 109.282,184.438 109.729,184.816 109.977 C 185.171 110.209,185.627 110.924,185.829 111.566 C 186.031 112.207,186.545 113.066,186.973 113.474 C 187.576 114.050,187.756 114.480,187.777 115.401 C 187.792 116.053,187.893 116.896,188.000 117.275 L 188.197 117.963 188.374 117.275 C 188.811 115.580,188.178 115.624,212.175 115.637 C 227.578 115.646,234.152 115.560,234.553 115.346 C 235.125 115.040,235.309 112.919,234.771 112.836 C 234.649 112.817,234.415 112.786,234.252 112.767 C 233.885 112.724,233.196 111.520,233.183 110.897 C 233.177 110.645,232.835 110.192,232.423 109.892 C 231.870 109.490,231.598 108.965,231.390 107.900 C 231.202 106.935,230.925 106.353,230.557 106.152 C 230.255 105.986,229.955 105.819,229.892 105.781 C 229.783 105.715,229.667 104.980,229.617 104.038 C 229.604 103.799,229.287 103.439,228.912 103.238 C 228.523 103.030,228.034 102.359,227.773 101.677 C 227.522 101.020,227.152 100.482,226.951 100.482 C 226.454 100.482,226.106 99.761,225.882 98.266 C 225.748 97.372,225.528 96.939,225.115 96.752 C 224.733 96.579,224.402 96.000,224.139 95.045 C 223.884 94.114,223.594 93.599,223.326 93.599 C 222.766 93.599,222.181 92.784,222.170 91.989 C 222.165 91.634,221.791 90.997,221.338 90.574 C 220.803 90.074,220.462 89.435,220.362 88.743 C 220.152 87.297,220.007 86.930,219.715 87.110 C 219.416 87.295,218.735 86.295,218.495 85.319 C 218.399 84.929,218.007 84.467,217.625 84.293 C 217.243 84.118,216.921 83.819,216.909 83.626 C 216.898 83.433,216.850 83.090,216.804 82.863 C 216.757 82.636,216.673 82.140,216.618 81.762 C 216.563 81.383,216.177 80.859,215.760 80.596 C 215.344 80.333,215.003 79.908,215.003 79.652 C 215.003 78.762,214.354 77.395,213.870 77.269 C 213.603 77.199,213.205 76.713,212.986 76.189 C 212.420 74.836,213.265 74.882,188.610 74.862 C 164.876 74.843,163.466 74.772,163.304 73.596 C 163.259 73.269,163.350 72.922,163.507 72.825 C 163.664 72.728,163.753 72.810,163.703 73.007 C 163.654 73.204,163.666 73.273,163.729 73.159 C 163.793 73.045,164.113 72.944,164.441 72.933 C 165.019 72.914,165.020 72.906,164.487 72.677 C 163.793 72.379,163.786 72.379,163.042 72.738 M226.566 95.664 C 226.566 96.215,226.703 96.352,227.254 96.352 C 228.070 96.352,228.129 96.056,227.439 95.432 C 226.751 94.809,226.566 94.858,226.566 95.664 M234.453 107.847 C 234.311 108.077,235.210 109.291,235.522 109.291 C 235.630 109.291,235.580 109.125,235.411 108.922 C 235.243 108.718,235.186 108.471,235.286 108.371 C 235.385 108.271,235.253 108.190,234.992 108.190 C 234.730 108.190,234.593 108.066,234.687 107.915 C 234.780 107.763,234.795 107.639,234.719 107.639 C 234.644 107.639,234.524 107.733,234.453 107.847 M137.511 113.691 C 137.416 113.845,137.439 113.973,137.561 113.975 C 137.684 113.978,137.598 114.100,137.371 114.246 C 137.144 114.393,137.098 114.515,137.268 114.517 C 137.733 114.524,138.277 113.778,137.954 113.578 C 137.806 113.487,137.606 113.537,137.511 113.691 M235.185 117.338 C 234.701 117.493,234.246 117.776,234.173 117.967 C 234.067 118.243,234.188 118.245,234.776 117.975 C 235.181 117.790,235.822 117.503,236.201 117.337 C 237.065 116.960,236.359 116.960,235.185 117.338 M186.870 122.770 C 186.382 123.260,186.265 123.515,186.526 123.515 C 186.745 123.515,186.924 123.411,186.924 123.285 C 186.924 123.159,187.062 123.087,187.230 123.125 C 187.399 123.162,187.584 122.915,187.641 122.574 C 187.699 122.233,187.716 121.971,187.679 121.990 C 187.642 122.009,187.278 122.360,186.870 122.770 M162.861 159.807 C 162.581 160.235,162.152 160.496,161.728 160.496 C 160.944 160.496,160.859 160.819,161.479 161.439 C 162.146 162.107,162.642 161.982,162.490 161.184 C 162.383 160.625,162.468 160.496,162.941 160.496 C 163.379 160.496,163.524 160.325,163.524 159.807 C 163.524 159.429,163.476 159.119,163.418 159.119 C 163.359 159.119,163.109 159.429,162.861 159.807 M188.622 159.670 C 165.868 159.803,165.119 159.824,164.745 160.335 C 164.516 160.648,164.456 160.985,164.598 161.161 C 164.729 161.325,164.925 161.870,165.032 162.372 C 165.139 162.875,165.433 163.363,165.683 163.456 C 166.386 163.720,166.768 164.378,166.960 165.657 C 167.057 166.301,167.253 166.827,167.395 166.827 C 168.004 166.827,168.754 167.970,168.754 168.899 C 168.754 169.665,168.891 169.921,169.404 170.116 C 169.787 170.262,170.231 170.805,170.485 171.441 C 170.722 172.034,171.218 172.716,171.587 172.958 C 172.093 173.290,172.294 173.719,172.406 174.714 C 172.487 175.439,172.673 176.071,172.818 176.119 C 173.591 176.377,174.038 177.019,174.180 178.077 C 174.303 178.991,174.487 179.315,174.995 179.508 C 175.355 179.645,175.721 179.976,175.807 180.244 C 176.286 181.732,176.556 182.204,176.993 182.318 C 177.331 182.406,177.591 182.953,177.849 184.113 C 178.131 185.388,178.369 185.850,178.856 186.072 C 179.207 186.232,179.465 186.458,179.429 186.574 C 179.278 187.066,180.338 189.096,180.826 189.251 C 181.204 189.371,181.411 189.776,181.543 190.654 C 181.675 191.532,181.922 192.016,182.397 192.327 C 182.773 192.574,183.212 193.264,183.401 193.905 C 183.586 194.532,184.065 195.378,184.467 195.785 C 184.868 196.193,185.268 196.881,185.354 197.316 C 185.452 197.805,185.782 198.229,186.218 198.428 C 186.606 198.605,186.933 198.969,186.945 199.237 C 186.956 199.505,187.014 199.911,187.072 200.138 C 187.131 200.365,187.221 200.764,187.273 201.024 C 187.324 201.285,187.463 201.595,187.581 201.713 C 187.699 201.831,198.532 201.994,211.654 202.077 C 224.776 202.159,235.822 202.318,236.201 202.429 C 236.806 202.606,236.817 202.599,236.291 202.365 C 235.519 202.021,234.274 200.188,234.274 199.395 C 234.274 199.057,234.026 198.648,233.723 198.486 C 233.160 198.184,232.347 196.577,232.347 195.765 C 232.347 195.516,232.076 195.191,231.746 195.041 C 231.386 194.878,230.972 194.263,230.714 193.505 C 230.476 192.809,229.942 191.839,229.525 191.350 C 229.109 190.861,228.768 190.269,228.768 190.036 C 228.768 189.803,228.403 189.195,227.956 188.686 C 227.509 188.178,227.062 187.325,226.962 186.792 C 226.862 186.259,226.622 185.822,226.429 185.822 C 226.059 185.822,225.358 184.539,225.047 183.290 C 224.945 182.882,224.587 182.368,224.251 182.148 C 223.916 181.928,223.495 181.261,223.316 180.664 C 223.138 180.068,222.748 179.359,222.449 179.089 C 222.151 178.819,221.760 178.149,221.580 177.599 C 221.401 177.050,220.972 176.337,220.629 176.015 C 220.285 175.692,219.877 174.970,219.722 174.409 C 219.567 173.848,219.132 173.104,218.755 172.754 C 218.378 172.405,217.933 171.614,217.767 170.997 C 217.601 170.380,217.240 169.716,216.964 169.521 C 216.688 169.327,216.289 168.678,216.077 168.079 C 215.865 167.481,215.410 166.685,215.066 166.311 C 214.721 165.937,214.362 165.312,214.267 164.922 C 214.172 164.531,213.744 163.807,213.314 163.312 C 212.527 162.405,212.323 161.870,212.187 160.358 L 212.113 159.532 188.622 159.670 M168.328 174.007 C 168.184 174.239,168.233 174.275,168.483 174.120 C 168.757 173.951,168.798 174.024,168.649 174.413 C 168.539 174.698,168.538 174.844,168.646 174.736 C 168.753 174.628,169.008 174.678,169.211 174.847 C 169.763 175.305,169.656 174.869,169.059 174.228 C 168.674 173.815,168.482 173.757,168.328 174.007 " stroke="none" fill="#bcac7c" fill-rule="evenodd"></path><path id="path1" d="M160.771 75.705 C 161.095 75.915,161.103 75.973,160.806 75.977 C 160.537 75.980,160.509 76.080,160.710 76.325 C 161.464 77.244,161.088 78.870,160.063 79.127 C 159.554 79.255,159.386 79.491,159.360 80.115 C 159.341 80.567,159.295 81.060,159.257 81.211 C 159.219 81.363,159.172 81.614,159.153 81.769 C 159.135 81.924,158.816 82.166,158.445 82.307 C 157.990 82.480,157.676 82.904,157.481 83.608 C 157.143 84.829,156.971 85.092,156.228 85.522 C 155.926 85.697,155.719 86.005,155.769 86.207 C 155.967 87.007,155.183 88.687,154.674 88.554 C 154.003 88.378,153.565 88.988,153.726 89.874 C 153.905 90.862,153.395 91.900,152.681 92.002 C 152.293 92.058,152.073 92.314,152.022 92.774 C 151.857 94.249,151.648 94.733,151.086 94.940 C 150.687 95.088,150.359 95.629,150.051 96.649 C 149.624 98.065,149.555 98.141,148.708 98.120 C 148.095 98.104,147.904 98.186,148.099 98.381 C 148.685 98.967,148.107 101.456,147.441 101.214 C 146.640 100.924,146.191 101.584,146.358 102.803 C 146.514 103.943,146.476 104.036,145.676 104.450 C 145.032 104.783,144.787 105.135,144.655 105.919 C 144.361 107.659,144.236 107.915,143.675 107.915 C 143.378 107.915,143.091 108.070,143.037 108.259 C 142.984 108.448,142.797 109.129,142.622 109.773 C 142.276 111.045,141.632 111.311,140.832 110.510 C 140.439 110.117,140.399 110.130,140.399 110.648 C 140.399 110.962,140.530 111.218,140.690 111.218 C 141.453 111.218,140.827 113.549,139.951 113.970 L 139.089 114.384 139.041 117.186 L 138.992 119.988 139.753 120.077 C 140.403 120.152,140.557 120.345,140.813 121.402 C 141.016 122.241,141.320 122.743,141.757 122.960 C 142.610 123.386,142.868 123.837,142.873 124.914 C 142.876 125.671,142.977 125.809,143.531 125.809 C 144.043 125.809,144.222 125.995,144.357 126.669 C 144.601 127.892,144.569 129.387,144.299 129.387 C 144.173 129.387,144.070 129.590,144.070 129.837 C 144.070 130.211,144.119 130.223,144.368 129.904 C 145.072 129.000,146.456 130.108,146.456 131.576 C 146.456 131.896,146.764 132.194,147.281 132.374 C 147.985 132.620,148.107 132.804,148.107 133.618 C 148.107 134.830,148.342 135.444,148.805 135.444 C 149.535 135.444,150.034 136.300,150.034 137.552 C 150.034 138.674,150.113 138.825,150.841 139.100 C 151.472 139.338,151.712 139.661,151.946 140.590 C 152.171 141.484,152.378 141.776,152.786 141.776 C 153.335 141.776,153.411 141.956,153.747 144.047 C 153.885 144.899,154.026 145.079,154.560 145.079 C 155.281 145.079,155.536 145.529,155.549 146.822 C 155.558 147.758,155.918 148.340,156.785 148.824 C 157.132 149.017,157.380 149.517,157.467 150.200 C 157.543 150.790,157.760 151.289,157.949 151.308 C 158.138 151.327,158.411 151.358,158.556 151.376 C 159.143 151.453,159.694 154.990,159.119 154.990 C 158.968 154.990,158.848 155.206,158.853 155.471 C 158.861 155.930,158.879 155.930,159.227 155.471 C 159.862 154.635,160.686 154.864,160.887 155.934 C 160.984 156.453,161.298 157.165,161.584 157.516 L 162.104 158.156 163.001 157.629 C 163.495 157.339,164.279 157.025,164.743 156.931 C 165.509 156.775,165.596 156.649,165.674 155.586 C 165.742 154.653,165.890 154.363,166.401 154.169 C 166.874 153.989,167.138 153.552,167.407 152.501 C 167.674 151.461,167.942 151.012,168.401 150.838 C 168.747 150.706,169.030 150.388,169.030 150.130 C 169.030 149.025,169.712 147.792,170.400 147.654 C 170.949 147.544,171.107 147.332,171.154 146.641 C 171.262 145.065,171.493 144.529,172.063 144.529 C 172.363 144.529,172.588 144.436,172.564 144.322 C 172.539 144.209,172.663 143.767,172.839 143.341 C 173.015 142.914,173.159 142.385,173.159 142.164 C 173.159 141.943,173.462 141.647,173.832 141.506 C 174.327 141.318,174.553 140.972,174.682 140.205 C 174.967 138.519,175.078 138.263,175.582 138.131 C 175.879 138.054,176.246 137.416,176.551 136.450 C 176.924 135.265,177.168 134.893,177.572 134.893 C 177.918 134.893,178.154 134.652,178.247 134.205 C 178.325 133.827,178.452 133.214,178.529 132.843 C 178.607 132.465,179.000 132.010,179.424 131.807 C 180.029 131.517,180.211 131.203,180.342 130.224 C 180.432 129.553,180.651 128.955,180.829 128.895 C 181.485 128.677,181.923 127.993,182.108 126.897 C 182.241 126.112,182.484 125.687,182.913 125.492 C 183.334 125.300,183.637 124.786,183.874 123.862 C 184.131 122.859,184.407 122.422,184.948 122.163 C 185.488 121.904,185.721 121.536,185.851 120.737 C 186.010 119.758,186.484 119.138,187.307 118.833 C 187.521 118.754,187.509 118.611,187.268 118.355 C 187.078 118.155,186.924 117.599,186.924 117.120 C 186.924 116.565,186.621 115.869,186.092 115.202 C 185.634 114.626,185.184 113.835,185.093 113.444 C 185.001 113.052,184.652 112.423,184.318 112.044 C 183.724 111.372,182.794 109.581,182.794 109.109 C 182.794 108.979,182.562 108.728,182.278 108.551 C 181.994 108.373,181.536 107.600,181.260 106.833 C 180.984 106.065,180.659 105.437,180.538 105.437 C 180.417 105.437,180.030 104.849,179.678 104.129 C 179.326 103.410,178.706 102.340,178.301 101.751 C 177.895 101.162,177.564 100.521,177.564 100.327 C 177.564 100.132,177.272 99.623,176.915 99.195 C 176.558 98.767,176.014 97.845,175.707 97.145 C 175.400 96.445,175.004 95.784,174.827 95.674 C 174.651 95.565,174.203 94.837,173.831 94.056 C 173.083 92.480,172.377 91.277,171.196 89.563 C 170.761 88.932,170.406 88.237,170.406 88.018 C 170.406 87.798,170.041 87.160,169.595 86.599 C 169.149 86.037,168.636 85.122,168.455 84.565 C 168.274 84.007,167.948 83.447,167.731 83.320 C 167.514 83.192,167.096 82.526,166.801 81.839 C 166.507 81.152,165.958 80.224,165.583 79.778 C 165.207 79.332,164.896 78.759,164.891 78.506 C 164.875 77.619,164.427 77.267,161.325 75.705 C 160.627 75.354,160.227 75.354,160.771 75.705 M145.503 100.500 C 145.612 100.676,145.481 100.759,145.176 100.707 C 144.810 100.644,144.691 100.763,144.753 101.129 C 144.812 101.472,144.731 101.570,144.504 101.430 C 144.290 101.298,144.239 101.337,144.365 101.540 C 144.473 101.715,144.423 101.858,144.253 101.858 C 144.084 101.858,144.028 101.991,144.128 102.154 C 144.240 102.335,144.479 102.202,144.747 101.810 C 144.987 101.458,145.346 101.071,145.544 100.950 C 145.977 100.686,146.022 100.206,145.613 100.206 C 145.453 100.206,145.404 100.339,145.503 100.500 M239.175 117.851 C 239.113 118.035,238.698 118.211,238.251 118.242 C 237.500 118.293,236.083 118.724,235.100 119.199 C 234.873 119.309,234.563 120.042,234.412 120.828 C 234.260 121.614,234.074 122.230,233.999 122.197 C 233.534 121.993,232.622 122.885,232.618 123.547 C 232.612 124.643,232.198 125.120,231.256 125.120 C 230.477 125.120,230.285 124.940,230.402 124.320 C 230.427 124.183,230.163 124.260,229.815 124.491 C 229.240 124.872,228.675 126.060,229.223 125.736 C 229.351 125.660,229.735 125.703,230.076 125.832 C 231.090 126.216,230.957 127.960,229.882 128.366 C 229.164 128.637,229.048 128.841,228.888 130.118 C 228.734 131.356,228.605 131.598,227.992 131.803 C 227.416 131.995,227.218 132.307,226.985 133.399 C 226.722 134.625,226.623 134.753,225.959 134.727 C 225.279 134.701,225.234 134.769,225.345 135.639 C 225.496 136.817,225.125 137.534,224.250 137.753 C 223.683 137.895,223.542 138.140,223.396 139.230 C 223.170 140.922,223.043 141.292,222.754 141.114 C 222.078 140.696,221.506 142.001,221.349 144.322 C 221.341 144.436,221.025 144.529,220.647 144.529 C 220.128 144.529,219.959 144.673,219.959 145.116 C 219.959 146.254,219.338 147.786,218.822 147.921 C 218.540 147.995,218.264 148.222,218.208 148.425 C 217.710 150.245,217.591 150.420,216.691 150.653 C 215.797 150.884,215.770 150.930,215.934 151.956 C 216.154 153.334,215.923 153.889,215.129 153.889 C 214.574 153.889,214.460 154.066,214.291 155.196 C 214.184 155.915,213.876 156.937,213.608 157.467 C 212.997 158.675,213.255 160.796,214.110 161.592 C 214.421 161.883,214.827 162.591,215.011 163.166 C 215.195 163.741,215.632 164.522,215.982 164.900 C 216.333 165.279,216.859 166.148,217.150 166.831 C 217.442 167.515,217.884 168.242,218.132 168.448 C 218.379 168.653,218.582 168.978,218.582 169.170 C 218.582 169.362,219.016 170.149,219.546 170.919 C 220.076 171.690,220.509 172.499,220.509 172.718 C 220.509 172.937,220.802 173.467,221.159 173.895 C 221.942 174.833,222.712 176.288,222.712 176.830 C 222.712 177.047,223.004 177.417,223.362 177.651 C 223.719 177.885,224.082 178.429,224.168 178.859 C 224.254 179.290,224.705 180.120,225.170 180.705 C 225.635 181.290,226.015 181.976,226.015 182.230 C 226.015 182.483,226.256 182.949,226.550 183.264 C 227.143 183.901,228.217 185.803,228.217 186.216 C 228.217 186.362,228.507 186.797,228.862 187.184 C 229.216 187.571,229.672 188.321,229.876 188.851 C 230.079 189.381,230.532 190.164,230.883 190.592 C 231.234 191.020,231.521 191.537,231.521 191.741 C 231.521 191.945,231.828 192.477,232.204 192.923 C 232.579 193.370,233.120 194.279,233.405 194.944 C 233.690 195.609,234.116 196.314,234.352 196.509 C 234.587 196.705,234.993 197.457,235.253 198.180 C 235.577 199.081,235.952 199.593,236.445 199.806 C 236.841 199.978,237.371 200.270,237.623 200.456 C 238.224 200.899,238.954 200.338,238.954 199.434 C 238.954 197.754,239.946 196.866,240.860 197.729 C 241.160 198.012,241.169 197.967,240.915 197.472 C 240.301 196.277,240.732 194.673,241.794 194.208 C 242.197 194.030,242.493 193.537,242.693 192.705 C 242.882 191.921,243.162 191.433,243.456 191.376 C 243.976 191.275,244.735 189.678,244.735 188.685 C 244.735 188.222,244.932 187.986,245.423 187.863 C 245.802 187.768,246.111 187.501,246.111 187.270 C 246.111 186.206,246.769 184.721,247.240 184.721 C 247.900 184.721,248.167 184.221,248.075 183.158 C 248.011 182.412,248.150 182.176,248.968 181.640 C 249.933 181.007,250.230 180.458,250.237 179.289 C 250.240 178.879,250.452 178.622,250.876 178.516 C 251.390 178.387,251.580 178.048,251.871 176.736 C 252.159 175.438,252.346 175.100,252.812 175.032 C 253.261 174.968,253.439 174.680,253.593 173.774 C 253.842 172.306,253.996 172.058,254.652 172.058 C 255.298 172.058,255.747 171.272,255.747 170.142 C 255.747 169.500,255.907 169.230,256.401 169.043 C 256.872 168.863,257.107 168.500,257.241 167.742 C 257.549 166.005,257.664 165.788,258.372 165.611 C 258.850 165.491,259.050 165.251,259.050 164.798 C 259.050 163.645,259.623 162.423,260.162 162.423 C 260.869 162.423,260.901 162.324,261.124 159.463 L 261.324 156.917 260.498 156.917 C 259.744 156.917,259.643 156.803,259.334 155.609 C 259.149 154.890,258.950 154.147,258.894 153.957 C 258.838 153.768,258.550 153.613,258.255 153.613 C 257.877 153.613,257.670 153.368,257.558 152.787 C 257.470 152.333,257.327 151.590,257.239 151.135 C 257.128 150.560,256.877 150.258,256.413 150.142 C 255.953 150.027,255.747 149.781,255.747 149.351 C 255.747 147.816,255.414 147.006,254.782 147.006 C 254.197 147.006,253.434 145.872,253.562 145.193 C 253.766 144.115,253.508 143.427,252.900 143.427 C 252.233 143.427,251.617 142.511,251.617 141.517 C 251.617 141.205,251.352 140.943,250.929 140.837 C 250.386 140.700,250.232 140.477,250.199 139.775 C 250.176 139.285,250.140 138.761,250.120 138.610 C 250.040 138.017,249.527 137.427,249.005 137.330 C 248.704 137.273,248.416 136.981,248.365 136.680 C 248.051 134.832,247.716 134.067,247.221 134.067 C 246.715 134.067,246.372 133.451,246.226 132.278 C 246.188 131.975,246.147 131.643,246.134 131.540 C 246.122 131.437,245.839 131.313,245.506 131.265 C 245.023 131.195,244.841 130.898,244.610 129.804 C 244.385 128.740,244.155 128.351,243.589 128.080 C 242.994 127.795,242.824 127.477,242.670 126.359 C 242.517 125.241,242.347 124.924,241.750 124.638 C 240.686 124.128,240.664 122.364,241.722 122.374 C 242.609 122.383,242.732 121.575,241.928 121.012 C 241.432 120.664,241.306 120.664,240.962 121.008 C 239.576 122.394,238.428 120.451,239.359 118.295 C 239.477 118.024,239.508 117.737,239.430 117.658 C 239.351 117.580,239.236 117.666,239.175 117.851 M140.863 126.188 C 140.761 126.454,140.826 126.602,141.028 126.562 C 141.212 126.526,141.340 126.626,141.313 126.784 C 141.286 126.942,141.533 127.084,141.864 127.100 C 142.194 127.116,142.308 127.069,142.118 126.996 C 141.928 126.923,141.854 126.730,141.954 126.569 C 142.058 126.400,142.007 126.354,141.835 126.460 C 141.670 126.562,141.421 126.444,141.283 126.197 C 141.054 125.789,141.017 125.788,140.863 126.188 M151.411 143.703 C 151.411 144.308,151.507 144.804,151.625 144.804 C 151.742 144.804,151.791 144.308,151.733 143.703 C 151.676 143.097,151.579 142.602,151.520 142.602 C 151.460 142.602,151.411 143.097,151.411 143.703 M151.686 145.630 C 152.220 145.975,152.512 145.975,152.512 145.630 C 152.512 145.478,152.233 145.356,151.893 145.359 C 151.392 145.362,151.352 145.414,151.686 145.630 M256.854 146.553 C 257.229 146.909,257.580 147.087,257.634 146.948 C 257.740 146.675,256.879 145.928,256.441 145.914 C 256.293 145.909,256.478 146.197,256.854 146.553 M173.191 146.607 C 173.173 146.917,173.010 147.320,172.829 147.502 C 172.572 147.759,172.574 147.832,172.837 147.832 C 173.265 147.832,173.520 147.191,173.352 146.541 C 173.241 146.111,173.218 146.120,173.191 146.607 M214.164 150.189 C 213.872 150.540,213.901 150.693,214.332 151.081 C 214.619 151.338,214.767 151.439,214.662 151.306 C 214.558 151.172,214.592 150.839,214.739 150.566 C 215.082 149.924,214.630 149.627,214.164 150.189 M260.754 153.508 C 261.010 153.585,261.278 153.918,261.350 154.250 C 261.459 154.754,261.473 154.741,261.435 154.167 C 261.405 153.701,261.213 153.463,260.840 153.425 C 260.443 153.385,260.419 153.408,260.754 153.508 M167.685 155.864 C 167.665 156.316,167.467 156.650,167.171 156.727 C 166.720 156.845,166.720 156.855,167.180 156.885 C 167.738 156.921,168.036 156.358,167.846 155.625 C 167.759 155.291,167.707 155.369,167.685 155.864 M261.528 155.531 C 261.528 155.870,262.503 156.400,262.723 156.180 C 263.024 155.880,262.621 155.561,262.162 155.737 C 261.862 155.852,261.779 155.802,261.912 155.587 C 262.021 155.410,261.980 155.265,261.819 155.265 C 261.659 155.265,261.528 155.384,261.528 155.531 M246.175 191.053 C 245.898 191.497,245.900 191.604,246.188 191.604 C 246.384 191.604,246.564 191.356,246.586 191.053 C 246.609 190.750,246.603 190.502,246.574 190.502 C 246.544 190.502,246.364 190.750,246.175 191.053 M238.825 203.978 C 238.723 204.142,238.534 204.210,238.403 204.129 C 238.273 204.049,238.092 204.102,238.002 204.248 C 237.909 204.398,238.096 204.464,238.433 204.399 C 239.119 204.267,239.389 204.059,239.165 203.836 C 239.079 203.750,238.926 203.814,238.825 203.978 " stroke="none" fill="#5c646c" fill-rule="evenodd"></path><path id="path2" d="M160.734 73.297 C 160.542 75.096,160.613 75.399,161.304 75.719 C 164.095 77.010,164.875 77.615,164.891 78.506 C 164.896 78.759,165.207 79.332,165.583 79.778 C 165.958 80.224,166.507 81.152,166.801 81.839 C 167.096 82.526,167.514 83.192,167.731 83.320 C 167.948 83.447,168.274 84.007,168.455 84.565 C 168.636 85.122,169.149 86.037,169.595 86.599 C 170.041 87.160,170.406 87.798,170.406 88.018 C 170.406 88.237,170.761 88.932,171.196 89.563 C 172.377 91.277,173.083 92.480,173.831 94.056 C 174.203 94.837,174.651 95.565,174.827 95.674 C 175.004 95.784,175.400 96.445,175.707 97.145 C 176.014 97.845,176.558 98.767,176.915 99.195 C 177.272 99.623,177.564 100.132,177.564 100.327 C 177.564 100.521,177.895 101.162,178.301 101.751 C 178.706 102.340,179.326 103.410,179.678 104.129 C 180.030 104.849,180.417 105.437,180.538 105.437 C 180.659 105.437,180.984 106.065,181.260 106.833 C 181.536 107.600,181.994 108.373,182.278 108.551 C 182.562 108.728,182.794 108.979,182.794 109.109 C 182.794 109.581,183.724 111.372,184.318 112.044 C 184.652 112.423,185.001 113.052,185.093 113.444 C 185.184 113.835,185.634 114.626,186.092 115.202 C 186.621 115.869,186.924 116.565,186.924 117.120 C 186.924 117.599,187.078 118.155,187.268 118.355 C 187.509 118.611,187.521 118.754,187.307 118.833 C 186.484 119.138,186.010 119.758,185.851 120.737 C 185.721 121.536,185.488 121.904,184.948 122.163 C 184.407 122.422,184.131 122.859,183.874 123.862 C 183.637 124.786,183.334 125.300,182.913 125.492 C 182.484 125.687,182.241 126.112,182.108 126.897 C 181.923 127.993,181.485 128.677,180.829 128.895 C 180.651 128.955,180.432 129.553,180.342 130.224 C 180.211 131.203,180.029 131.517,179.424 131.807 C 178.971 132.024,178.605 132.466,178.512 132.912 C 178.425 133.320,178.298 133.933,178.229 134.274 C 178.151 134.659,177.903 134.893,177.572 134.893 C 177.168 134.893,176.924 135.265,176.551 136.450 C 176.246 137.416,175.879 138.054,175.582 138.131 C 175.078 138.263,174.967 138.519,174.682 140.205 C 174.553 140.972,174.327 141.318,173.832 141.506 C 173.462 141.647,173.159 141.943,173.159 142.164 C 173.159 142.385,173.015 142.914,172.839 143.341 C 172.663 143.767,172.539 144.209,172.564 144.322 C 172.588 144.436,172.363 144.529,172.063 144.529 C 171.493 144.529,171.262 145.065,171.154 146.641 C 171.107 147.332,170.949 147.544,170.400 147.654 C 169.712 147.792,169.030 149.025,169.030 150.130 C 169.030 150.388,168.747 150.706,168.401 150.838 C 167.942 151.012,167.674 151.461,167.407 152.501 C 167.138 153.552,166.874 153.989,166.401 154.169 C 165.890 154.363,165.742 154.653,165.674 155.586 C 165.596 156.649,165.509 156.775,164.743 156.931 C 164.279 157.025,163.495 157.339,163.001 157.629 L 162.104 158.156 161.584 157.516 C 161.298 157.165,160.984 156.453,160.887 155.934 C 160.592 154.365,158.876 154.907,158.853 156.575 C 158.845 157.114,158.912 157.154,159.358 156.876 C 160.404 156.222,160.822 156.757,160.663 158.542 C 160.511 160.260,160.660 160.496,161.901 160.496 C 162.273 160.496,162.486 160.249,162.598 159.686 C 162.747 158.943,163.984 158.018,164.830 158.018 C 164.973 158.018,165.308 157.777,165.574 157.483 C 165.841 157.189,166.417 156.869,166.856 156.773 C 167.658 156.597,167.818 156.186,167.716 154.577 C 167.624 153.121,167.902 152.721,168.882 152.905 C 169.789 153.075,169.807 153.060,169.679 152.245 C 169.551 151.434,169.833 151.216,170.784 151.390 C 170.916 151.414,170.947 151.232,170.853 150.987 C 170.758 150.741,170.681 150.464,170.681 150.372 C 170.681 150.280,170.499 150.445,170.277 150.739 C 169.895 151.244,169.873 151.225,169.864 150.379 C 169.856 149.566,169.931 149.484,170.681 149.484 C 171.445 149.484,171.507 149.409,171.507 148.502 C 171.507 147.670,171.585 147.545,172.019 147.682 C 172.811 147.933,173.259 147.129,173.290 145.402 L 173.318 143.840 174.270 143.840 C 175.063 143.840,175.228 143.737,175.257 143.221 C 175.321 142.105,175.355 142.036,175.981 141.759 L 176.600 141.485 175.981 141.604 C 175.640 141.670,175.346 141.612,175.327 141.475 C 175.170 140.338,175.225 140.262,176.142 140.353 C 176.957 140.435,177.053 140.374,177.005 139.803 C 176.976 139.450,176.966 138.556,176.983 137.817 L 177.013 136.473 177.994 136.632 C 178.879 136.776,178.971 136.732,178.927 136.187 C 178.828 134.945,178.952 134.397,179.367 134.238 C 179.602 134.148,179.727 134.183,179.644 134.317 C 179.474 134.592,180.310 134.991,180.552 134.750 C 180.638 134.664,180.731 134.196,180.758 133.711 C 180.831 132.445,180.841 132.409,181.115 132.485 C 181.251 132.522,181.344 132.473,181.321 132.376 C 181.299 132.278,181.528 131.924,181.831 131.590 C 182.402 130.959,182.428 130.840,182.485 128.562 C 182.519 127.190,182.522 127.185,183.443 127.185 C 184.220 127.185,184.367 127.086,184.362 126.566 C 184.335 123.856,184.970 122.986,185.972 124.357 C 186.266 124.760,186.313 124.601,186.278 123.325 C 186.234 121.760,186.206 121.794,187.589 121.711 C 187.879 121.694,188.047 121.610,187.961 121.524 C 187.876 121.439,187.897 121.036,188.008 120.630 C 188.334 119.430,187.328 115.398,186.370 114.064 C 185.917 113.433,185.547 112.780,185.547 112.612 C 185.547 112.444,185.114 111.676,184.584 110.905 C 184.054 110.135,183.620 109.356,183.620 109.174 C 183.620 108.993,183.388 108.595,183.104 108.290 C 182.820 107.985,182.327 107.147,182.008 106.426 C 181.689 105.706,181.117 104.746,180.735 104.292 C 180.353 103.839,180.041 103.305,180.041 103.107 C 180.041 102.908,179.608 102.116,179.078 101.345 C 178.548 100.575,178.114 99.771,178.114 99.559 C 178.114 99.346,177.919 99.010,177.680 98.812 C 177.441 98.614,176.932 97.824,176.548 97.058 C 176.165 96.291,175.632 95.416,175.365 95.114 C 175.097 94.811,174.733 94.108,174.555 93.553 C 174.377 92.997,174.032 92.378,173.789 92.176 C 173.545 91.975,173.062 91.171,172.716 90.390 C 172.370 89.609,171.960 88.892,171.805 88.796 C 171.650 88.700,171.276 88.063,170.974 87.381 C 170.672 86.699,170.170 85.815,169.857 85.418 C 169.544 85.020,169.052 84.159,168.762 83.504 C 168.472 82.849,168.113 82.312,167.965 82.312 C 167.817 82.312,167.543 81.848,167.356 81.280 C 167.169 80.712,166.609 79.656,166.112 78.933 C 165.615 78.210,165.122 77.348,165.018 77.019 C 164.913 76.689,164.689 76.289,164.520 76.129 C 163.253 74.936,162.273 74.329,161.614 74.329 C 160.945 74.329,160.864 74.242,160.979 73.641 C 161.051 73.262,161.034 72.953,160.941 72.953 C 160.847 72.953,160.754 73.107,160.734 73.297 M159.021 76.861 C 158.928 77.209,158.850 78.063,158.848 78.757 C 158.843 80.253,158.717 80.428,157.875 80.108 C 157.078 79.805,156.917 80.161,156.917 82.227 L 156.917 83.749 155.985 83.640 C 155.075 83.534,155.053 83.555,155.090 84.505 C 155.121 85.305,155.038 85.463,154.625 85.393 C 153.701 85.235,153.338 85.861,153.338 87.609 C 153.338 89.209,153.318 89.255,152.667 89.131 C 151.602 88.927,151.383 89.262,151.374 91.108 L 151.366 92.833 150.563 92.673 C 150.121 92.584,149.747 92.602,149.732 92.712 C 149.717 92.821,149.671 93.221,149.629 93.599 C 149.588 93.978,149.519 94.412,149.475 94.563 C 149.432 94.714,149.491 95.055,149.607 95.320 C 149.983 96.179,149.594 96.636,148.648 96.447 C 147.813 96.280,147.794 96.298,147.881 97.209 C 148.045 98.928,149.476 98.559,150.052 96.649 C 150.359 95.629,150.687 95.088,151.086 94.940 C 151.648 94.733,151.857 94.249,152.022 92.774 C 152.073 92.314,152.293 92.058,152.681 92.002 C 153.395 91.900,153.905 90.862,153.726 89.874 C 153.565 88.988,154.003 88.378,154.674 88.554 C 155.183 88.687,155.967 87.007,155.769 86.207 C 155.719 86.005,155.926 85.697,156.228 85.522 C 156.971 85.092,157.143 84.829,157.481 83.608 C 157.676 82.904,157.990 82.480,158.445 82.307 C 158.816 82.166,159.135 81.924,159.153 81.769 C 159.172 81.614,159.219 81.363,159.257 81.211 C 159.295 81.060,159.341 80.573,159.360 80.129 C 159.385 79.551,159.570 79.266,160.013 79.125 C 161.540 78.640,161.561 76.460,160.040 76.310 C 159.351 76.242,159.159 76.346,159.021 76.861 M155.582 82.006 C 155.378 82.135,155.272 82.474,155.346 82.758 C 155.469 83.228,155.500 83.219,155.680 82.660 C 155.789 82.321,155.979 82.106,156.103 82.182 C 156.227 82.259,156.406 82.196,156.501 82.042 C 156.710 81.703,156.098 81.679,155.582 82.006 M154.990 86.751 C 154.990 87.097,154.793 87.268,154.396 87.268 C 153.816 87.268,153.815 87.255,154.312 86.705 C 154.679 86.300,154.710 86.172,154.424 86.247 C 154.205 86.305,154.120 86.299,154.234 86.236 C 154.349 86.172,154.356 85.975,154.250 85.799 C 154.145 85.623,154.268 85.648,154.524 85.856 C 154.780 86.064,154.990 86.467,154.990 86.751 M150.165 91.579 C 149.670 92.071,149.674 92.088,150.282 92.176 C 151.073 92.292,151.254 92.111,150.930 91.531 C 150.693 91.109,150.634 91.112,150.165 91.579 M146.068 99.424 C 145.965 100.069,145.706 100.788,145.492 101.021 C 145.279 101.254,144.862 101.714,144.564 102.042 C 144.267 102.370,144.086 102.700,144.161 102.775 C 144.236 102.851,144.152 103.184,143.975 103.516 C 143.741 103.953,143.735 104.203,143.952 104.420 C 144.751 105.219,144.190 105.875,142.808 105.759 C 142.395 105.725,142.326 105.972,142.326 107.505 L 142.326 109.291 141.484 109.291 C 140.993 109.291,140.713 109.176,140.812 109.016 C 140.906 108.864,141.181 108.741,141.425 108.741 C 141.668 108.741,141.786 108.659,141.686 108.559 C 141.587 108.460,141.646 108.209,141.817 108.002 C 142.307 107.412,141.918 107.298,141.257 107.839 C 140.060 108.819,140.421 110.943,141.784 110.943 C 142.162 110.943,142.391 110.624,142.622 109.773 C 142.797 109.129,142.984 108.448,143.037 108.259 C 143.091 108.070,143.378 107.915,143.675 107.915 C 144.236 107.915,144.361 107.659,144.655 105.919 C 144.787 105.135,145.032 104.783,145.676 104.450 C 146.476 104.036,146.514 103.943,146.358 102.803 C 146.190 101.578,146.640 100.925,147.450 101.218 C 147.850 101.362,148.454 99.892,148.336 99.063 C 148.145 97.712,146.294 98.006,146.068 99.424 M145.905 101.462 C 145.905 101.698,145.781 101.814,145.630 101.721 C 145.478 101.627,145.354 101.702,145.354 101.888 C 145.354 102.073,145.275 102.146,145.178 102.048 C 145.080 101.951,145.157 101.683,145.349 101.452 C 145.789 100.922,145.905 100.924,145.905 101.462 M142.759 104.218 C 142.521 104.456,142.341 104.858,142.358 105.113 C 142.387 105.524,142.404 105.522,142.516 105.093 C 142.585 104.828,142.743 104.611,142.868 104.611 C 142.992 104.611,143.164 104.425,143.252 104.198 C 143.455 103.669,143.302 103.675,142.759 104.218 M139.298 111.344 C 138.686 111.683,138.610 111.904,138.610 113.330 C 138.610 114.979,138.548 115.051,137.371 114.761 C 137.035 114.678,136.943 115.068,136.876 116.861 C 136.811 118.619,136.864 118.993,137.138 118.719 C 137.327 118.530,137.704 118.376,137.977 118.376 C 138.681 118.376,138.613 119.376,137.896 119.563 C 137.351 119.706,137.345 119.686,137.782 119.203 C 138.194 118.748,138.197 118.700,137.805 118.757 C 136.621 118.931,136.597 119.868,137.771 120.093 C 138.190 120.173,138.389 120.115,138.284 119.945 C 138.186 119.787,138.249 119.752,138.429 119.863 C 138.603 119.971,138.715 120.455,138.678 120.938 C 138.615 121.744,138.678 121.818,139.436 121.828 C 140.183 121.838,140.266 121.930,140.307 122.792 C 140.331 123.315,140.375 123.806,140.403 123.882 C 140.431 123.957,140.483 124.344,140.520 124.740 C 140.556 125.137,140.841 125.735,141.154 126.071 C 141.561 126.508,141.710 126.562,141.680 126.261 C 141.657 126.030,141.762 125.803,141.913 125.756 C 142.065 125.709,142.210 126.094,142.235 126.611 C 142.352 128.973,142.553 129.387,143.578 129.387 C 144.474 129.387,144.529 129.334,144.529 128.458 C 144.529 126.586,144.236 125.809,143.531 125.809 C 142.977 125.809,142.876 125.671,142.873 124.914 C 142.868 123.837,142.610 123.386,141.757 122.960 C 141.320 122.743,141.016 122.241,140.813 121.402 C 140.557 120.345,140.403 120.152,139.753 120.077 L 138.992 119.988 139.041 117.186 L 139.089 114.384 139.951 113.970 C 140.665 113.627,140.827 113.374,140.900 112.484 C 141.020 111.025,140.518 110.668,139.298 111.344 M236.814 117.419 C 236.318 117.768,235.446 118.133,234.875 118.230 C 233.880 118.398,233.842 118.444,233.948 119.354 C 234.054 120.259,234.019 120.303,233.187 120.303 C 232.675 120.303,232.385 120.189,232.485 120.028 C 232.578 119.876,232.532 119.752,232.382 119.752 C 232.232 119.752,232.117 120.093,232.126 120.509 C 232.156 121.995,232.076 122.160,231.246 122.326 C 229.954 122.585,229.963 125.120,231.256 125.120 C 232.198 125.120,232.612 124.643,232.618 123.547 C 232.622 122.858,233.161 122.305,233.861 122.271 C 234.012 122.264,234.260 121.614,234.412 120.828 C 234.563 120.042,234.873 119.309,235.100 119.199 C 236.057 118.737,237.491 118.294,238.198 118.243 C 239.086 118.180,239.211 118.084,239.351 117.356 C 239.504 116.564,237.973 116.602,236.814 117.419 M239.208 118.445 C 238.574 120.515,239.267 121.795,240.721 121.237 C 241.384 120.982,241.310 119.028,240.624 118.661 C 240.145 118.404,239.262 118.270,239.208 118.445 M241.707 122.213 C 240.682 122.480,240.712 124.140,241.750 124.638 C 242.347 124.924,242.517 125.241,242.670 126.359 C 242.824 127.477,242.994 127.795,243.589 128.080 C 244.155 128.351,244.385 128.740,244.610 129.804 C 244.841 130.898,245.023 131.195,245.506 131.265 C 245.839 131.313,246.122 131.437,246.134 131.540 C 246.147 131.643,246.188 131.975,246.226 132.278 C 246.372 133.451,246.715 134.067,247.221 134.067 C 247.716 134.067,248.051 134.832,248.365 136.680 C 248.416 136.981,248.704 137.273,249.005 137.330 C 249.527 137.427,250.040 138.017,250.120 138.610 C 250.140 138.761,250.176 139.285,250.199 139.775 C 250.232 140.477,250.386 140.700,250.929 140.837 C 251.352 140.943,251.617 141.205,251.617 141.517 C 251.617 142.511,252.233 143.427,252.900 143.427 C 253.508 143.427,253.766 144.115,253.562 145.193 C 253.434 145.872,254.197 147.006,254.782 147.006 C 255.414 147.006,255.747 147.816,255.747 149.351 C 255.747 149.781,255.953 150.027,256.413 150.142 C 256.877 150.258,257.128 150.560,257.239 151.135 C 257.327 151.590,257.470 152.333,257.558 152.787 C 257.670 153.368,257.877 153.613,258.255 153.613 C 258.550 153.613,258.838 153.768,258.894 153.957 C 258.950 154.147,259.149 154.890,259.334 155.609 C 259.643 156.803,259.744 156.917,260.498 156.917 L 261.324 156.917 261.124 159.463 C 260.901 162.324,260.869 162.423,260.162 162.423 C 259.623 162.423,259.050 163.645,259.050 164.798 C 259.050 165.251,258.850 165.491,258.372 165.611 C 257.664 165.788,257.549 166.005,257.241 167.742 C 257.107 168.500,256.872 168.863,256.401 169.043 C 255.907 169.230,255.747 169.500,255.747 170.142 C 255.747 171.272,255.298 172.058,254.652 172.058 C 253.996 172.058,253.842 172.306,253.593 173.774 C 253.439 174.680,253.261 174.968,252.812 175.032 C 252.346 175.100,252.159 175.438,251.871 176.736 C 251.580 178.048,251.390 178.387,250.876 178.516 C 250.452 178.622,250.240 178.879,250.237 179.289 C 250.230 180.458,249.933 181.007,248.968 181.640 C 248.150 182.176,248.011 182.412,248.075 183.158 C 248.167 184.221,247.900 184.721,247.240 184.721 C 246.769 184.721,246.111 186.206,246.111 187.270 C 246.111 187.501,245.802 187.768,245.423 187.863 C 244.932 187.986,244.735 188.222,244.735 188.685 C 244.735 189.678,243.976 191.275,243.456 191.376 C 243.162 191.433,242.882 191.921,242.693 192.705 C 242.493 193.537,242.197 194.030,241.794 194.208 C 241.149 194.491,240.606 195.436,240.606 196.274 C 240.606 197.029,240.904 197.679,241.173 197.512 C 241.302 197.432,241.327 197.154,241.228 196.894 C 241.062 196.454,241.084 196.455,241.535 196.903 C 242.542 197.901,243.083 197.221,243.083 194.958 C 243.083 193.215,243.093 193.193,243.781 193.325 C 244.487 193.460,245.216 192.727,244.795 192.305 C 244.687 192.198,244.839 191.933,245.132 191.719 C 245.426 191.504,245.519 191.328,245.338 191.328 C 244.772 191.328,244.957 190.030,245.545 189.876 C 246.258 189.690,246.429 189.910,246.080 190.562 C 245.921 190.858,245.860 191.169,245.944 191.252 C 246.188 191.496,246.662 190.001,246.662 188.988 C 246.662 188.148,246.745 188.051,247.531 187.973 C 248.373 187.890,249.075 186.648,248.280 186.648 C 248.112 186.648,248.031 186.865,248.100 187.130 C 248.279 187.812,246.988 187.792,246.771 187.109 C 246.568 186.468,246.643 186.404,247.709 186.323 C 248.507 186.262,248.589 186.171,248.589 185.351 C 248.589 184.497,248.782 184.320,249.601 184.421 C 250.222 184.497,250.409 183.951,250.474 181.868 C 250.516 180.544,250.525 180.531,251.342 180.651 C 252.118 180.765,252.168 180.717,252.168 179.856 C 252.168 179.144,252.283 178.940,252.685 178.940 C 252.969 178.940,253.356 178.754,253.544 178.527 C 253.751 178.278,253.774 178.114,253.601 178.114 C 253.444 178.114,253.266 178.260,253.207 178.439 C 253.008 179.036,252.168 178.431,252.168 177.692 C 252.168 177.074,252.271 176.988,252.925 177.064 C 253.351 177.113,253.652 177.301,253.613 177.495 C 253.575 177.684,253.678 177.839,253.841 177.839 C 254.013 177.839,254.106 177.405,254.062 176.799 C 253.981 175.678,254.251 174.980,254.667 175.237 C 255.071 175.487,255.834 174.560,255.928 173.703 C 255.974 173.277,256.386 172.519,256.843 172.019 C 257.662 171.122,257.793 170.577,257.678 168.522 C 257.628 167.617,257.643 167.604,258.621 167.736 C 259.724 167.885,259.624 168.165,259.590 165.005 C 259.580 164.072,259.624 164.020,260.285 164.186 C 261.089 164.388,261.708 163.413,261.187 162.767 C 260.979 162.509,261.086 162.423,261.612 162.423 C 262.876 162.423,263.180 161.797,263.180 159.191 C 263.180 157.890,263.104 156.901,263.011 156.993 C 262.706 157.299,261.578 155.672,261.386 154.649 C 261.232 153.830,261.050 153.613,260.399 153.469 C 259.757 153.328,259.601 153.148,259.601 152.545 C 259.601 152.133,259.446 151.629,259.257 151.426 C 258.981 151.129,258.982 151.094,259.258 151.250 C 259.487 151.379,259.577 151.277,259.526 150.946 C 259.435 150.346,258.925 150.275,258.918 150.860 C 258.915 151.087,258.624 151.314,258.271 151.364 C 257.737 151.440,257.645 151.347,257.721 150.814 C 257.771 150.461,257.956 150.172,258.133 150.172 C 258.309 150.172,258.557 150.069,258.683 149.943 C 258.809 149.816,258.789 149.738,258.637 149.769 C 257.953 149.907,257.737 149.690,257.602 148.727 C 257.522 148.159,257.413 147.509,257.359 147.282 C 257.238 146.775,256.516 146.183,256.232 146.359 C 255.999 146.503,255.971 146.406,255.904 145.217 C 255.862 144.469,255.774 144.396,254.976 144.443 C 254.122 144.493,254.094 144.460,254.060 143.342 C 253.980 140.735,253.924 140.606,252.868 140.606 C 252.262 140.606,252.168 140.486,252.168 139.711 C 252.168 138.382,251.859 137.084,251.584 137.254 C 251.451 137.336,251.342 137.265,251.342 137.096 C 251.342 136.926,251.232 136.856,251.098 136.939 C 250.828 137.105,250.197 136.465,250.264 136.092 C 250.383 135.426,250.173 135.200,249.484 135.250 C 248.745 135.305,248.725 135.267,248.642 133.664 C 248.547 131.804,248.307 131.383,247.272 131.262 C 246.586 131.182,246.550 131.101,246.610 129.800 C 246.669 128.517,246.423 127.657,246.012 127.712 C 245.111 127.833,244.831 127.686,244.878 127.116 C 244.962 126.089,244.751 125.854,243.868 125.993 C 243.061 126.121,243.040 126.095,243.087 125.072 C 243.202 122.628,242.857 121.914,241.707 122.213 M185.379 125.101 C 185.288 125.337,185.103 125.462,184.968 125.378 C 184.832 125.294,184.721 125.357,184.721 125.517 C 184.721 125.912,185.064 125.884,185.674 125.438 C 186.028 125.179,186.085 125.007,185.862 124.870 C 185.684 124.760,185.470 124.862,185.379 125.101 M228.768 126.072 C 229.046 126.259,229.068 126.352,228.837 126.355 C 228.599 126.358,228.493 126.883,228.493 128.047 L 228.493 129.735 227.567 129.585 C 226.827 129.464,226.641 129.526,226.641 129.893 C 226.641 131.028,226.523 131.266,225.877 131.428 C 225.147 131.611,225.142 131.624,225.068 133.468 C 225.020 134.670,224.584 135.236,223.907 134.976 C 223.704 134.898,223.538 134.979,223.538 135.155 C 223.538 135.332,223.445 135.419,223.331 135.349 C 223.217 135.279,223.103 135.488,223.076 135.814 C 223.049 136.141,222.987 136.965,222.938 137.646 C 222.854 138.819,222.805 138.885,222.026 138.885 C 221.269 138.885,221.201 138.963,221.197 139.849 C 221.192 140.675,221.107 140.800,220.599 140.730 C 219.841 140.625,219.577 141.070,219.515 142.560 C 219.460 143.866,219.279 144.160,218.445 144.299 C 217.723 144.419,217.524 144.914,217.500 146.646 C 217.490 147.432,217.357 148.151,217.206 148.245 C 217.054 148.339,216.930 148.310,216.930 148.182 C 216.930 147.904,215.842 147.782,215.800 148.056 C 215.783 148.160,215.735 148.679,215.692 149.209 C 215.569 150.715,215.559 150.744,215.312 150.354 C 215.004 149.867,213.902 151.605,213.902 152.579 C 213.902 153.126,213.730 153.303,213.076 153.434 C 212.576 153.534,212.251 153.771,212.251 154.035 C 212.251 154.430,212.307 154.431,212.862 154.042 C 213.729 153.435,213.902 153.501,213.902 154.439 C 213.902 155.165,213.807 155.265,213.111 155.265 C 212.319 155.265,211.697 156.519,212.136 157.230 C 212.223 157.371,212.411 158.318,212.554 159.335 C 212.736 160.634,213.047 161.511,213.596 162.285 C 214.027 162.891,214.466 163.665,214.573 164.007 C 214.679 164.348,215.049 164.968,215.396 165.383 C 215.742 165.799,216.173 166.594,216.354 167.149 C 216.535 167.705,216.883 168.324,217.126 168.526 C 217.369 168.727,217.828 169.449,218.144 170.131 C 218.461 170.812,218.999 171.760,219.339 172.238 C 219.680 172.716,219.959 173.221,219.959 173.361 C 219.959 173.501,220.347 174.201,220.821 174.918 C 221.659 176.182,221.980 176.741,223.637 179.818 C 224.070 180.622,224.643 181.528,224.911 181.831 C 225.179 182.134,225.562 182.846,225.762 183.414 C 225.962 183.981,226.232 184.446,226.361 184.446 C 226.490 184.446,226.892 185.116,227.254 185.935 C 227.617 186.754,228.044 187.504,228.204 187.603 C 228.363 187.702,228.755 188.364,229.074 189.074 C 229.393 189.784,229.878 190.613,230.152 190.915 C 230.427 191.218,230.866 192.007,231.129 192.668 C 231.391 193.329,231.897 194.183,232.252 194.566 C 232.607 194.949,232.897 195.475,232.897 195.735 C 232.897 195.995,233.252 196.655,233.686 197.201 C 234.120 197.746,234.640 198.600,234.841 199.097 C 235.184 199.942,236.068 200.964,236.458 200.964 C 236.553 200.964,236.771 201.335,236.943 201.789 C 237.178 202.414,237.428 202.615,237.966 202.615 C 238.358 202.615,238.679 202.764,238.679 202.946 C 238.679 203.176,238.766 203.189,238.967 202.987 C 239.269 202.686,239.420 201.812,239.473 200.069 C 239.501 199.160,239.587 199.036,240.193 199.036 C 241.031 199.036,241.068 199.400,240.307 200.161 C 239.685 200.783,239.768 201.133,240.474 200.862 C 240.717 200.768,240.839 200.567,240.744 200.415 C 240.650 200.262,240.679 200.138,240.808 200.138 C 241.175 200.138,241.215 198.201,240.858 197.770 C 240.046 196.791,238.954 197.746,238.954 199.434 C 238.954 200.338,238.224 200.899,237.623 200.456 C 237.371 200.270,236.841 199.978,236.445 199.806 C 235.952 199.593,235.577 199.081,235.253 198.180 C 234.993 197.457,234.587 196.705,234.352 196.509 C 234.116 196.314,233.690 195.609,233.405 194.944 C 233.120 194.279,232.579 193.370,232.204 192.923 C 231.828 192.477,231.521 191.945,231.521 191.741 C 231.521 191.537,231.234 191.020,230.883 190.592 C 230.532 190.164,230.079 189.381,229.876 188.851 C 229.672 188.321,229.216 187.571,228.862 187.184 C 228.507 186.797,228.217 186.362,228.217 186.216 C 228.217 185.803,227.143 183.901,226.550 183.264 C 226.256 182.949,226.015 182.483,226.015 182.230 C 226.015 181.976,225.635 181.290,225.170 180.705 C 224.705 180.120,224.254 179.290,224.168 178.859 C 224.082 178.429,223.719 177.885,223.362 177.651 C 223.004 177.417,222.712 177.047,222.712 176.830 C 222.712 176.288,221.942 174.833,221.159 173.895 C 220.802 173.467,220.509 172.937,220.509 172.718 C 220.509 172.499,220.076 171.690,219.546 170.919 C 219.016 170.149,218.582 169.362,218.582 169.170 C 218.582 168.978,218.379 168.653,218.132 168.448 C 217.884 168.242,217.442 167.515,217.150 166.831 C 216.859 166.148,216.333 165.279,215.982 164.900 C 215.632 164.522,215.195 163.741,215.011 163.166 C 214.827 162.591,214.421 161.883,214.110 161.592 C 213.255 160.796,212.997 158.675,213.608 157.467 C 213.876 156.937,214.184 155.915,214.291 155.196 C 214.460 154.066,214.574 153.889,215.129 153.889 C 215.923 153.889,216.154 153.334,215.934 151.956 C 215.770 150.930,215.797 150.884,216.691 150.653 C 217.591 150.420,217.710 150.245,218.208 148.425 C 218.264 148.222,218.540 147.995,218.822 147.921 C 219.338 147.786,219.959 146.254,219.959 145.116 C 219.959 144.673,220.128 144.529,220.647 144.529 C 221.025 144.529,221.341 144.436,221.349 144.322 C 221.506 142.001,222.078 140.696,222.754 141.114 C 223.043 141.292,223.170 140.922,223.396 139.230 C 223.542 138.140,223.683 137.895,224.250 137.753 C 225.125 137.534,225.496 136.817,225.345 135.639 C 225.234 134.769,225.279 134.701,225.959 134.727 C 226.623 134.753,226.722 134.625,226.985 133.399 C 227.218 132.307,227.416 131.995,227.992 131.803 C 228.605 131.598,228.734 131.356,228.888 130.118 C 229.049 128.833,229.161 128.638,229.900 128.359 C 231.314 127.825,230.985 125.976,229.456 125.870 C 228.641 125.813,228.462 125.866,228.768 126.072 M144.529 129.717 C 144.529 129.857,144.428 129.908,144.305 129.832 C 144.182 129.756,144.103 130.089,144.130 130.573 C 144.196 131.731,144.204 131.749,144.552 131.401 C 145.117 130.836,145.903 131.316,145.928 132.241 C 145.973 133.942,146.177 135.246,146.449 135.574 C 146.602 135.757,146.634 136.009,146.522 136.133 C 146.410 136.257,146.464 136.274,146.643 136.172 C 146.822 136.069,147.047 136.113,147.144 136.270 C 147.240 136.426,147.435 136.483,147.576 136.396 C 147.717 136.308,147.832 136.724,147.832 137.325 C 147.832 138.402,147.841 138.411,148.795 138.319 L 149.758 138.226 149.640 139.614 C 149.574 140.378,149.629 141.270,149.760 141.596 C 149.892 141.922,150.007 142.080,150.017 141.948 C 150.027 141.816,150.215 141.858,150.435 142.041 C 150.656 142.224,150.957 142.299,151.104 142.208 C 151.445 141.997,151.673 142.719,151.731 144.194 C 151.761 144.956,151.903 145.354,152.144 145.354 C 152.347 145.354,152.514 145.509,152.516 145.699 C 152.519 145.928,152.609 145.905,152.787 145.630 C 153.164 145.047,153.126 144.804,152.658 144.804 C 152.412 144.804,152.316 144.642,152.412 144.391 C 152.685 143.680,153.301 143.923,153.284 144.735 C 153.231 147.292,153.278 147.425,154.233 147.422 L 155.127 147.419 155.128 149.117 C 155.129 151.031,155.167 151.105,156.264 151.302 C 157.045 151.442,157.860 151.961,157.298 151.961 C 156.853 151.961,157.012 154.432,157.476 154.726 C 158.385 155.301,159.394 155.041,159.393 154.233 C 159.391 153.184,158.873 151.418,158.556 151.376 C 158.411 151.358,158.138 151.327,157.949 151.308 C 157.760 151.289,157.543 150.790,157.467 150.200 C 157.380 149.517,157.132 149.017,156.785 148.824 C 155.918 148.340,155.558 147.758,155.549 146.822 C 155.536 145.529,155.281 145.079,154.560 145.079 C 154.026 145.079,153.885 144.899,153.747 144.047 C 153.411 141.956,153.335 141.776,152.786 141.776 C 152.378 141.776,152.171 141.484,151.946 140.590 C 151.712 139.661,151.472 139.338,150.841 139.100 C 150.113 138.825,150.034 138.674,150.034 137.552 C 150.034 136.300,149.535 135.444,148.805 135.444 C 148.342 135.444,148.107 134.830,148.107 133.618 C 148.107 132.804,147.985 132.620,147.281 132.374 C 146.764 132.194,146.456 131.896,146.456 131.576 C 146.456 130.658,145.854 129.717,145.184 129.589 C 144.824 129.520,144.529 129.578,144.529 129.717 M181.597 131.543 C 181.347 131.821,181.234 132.150,181.348 132.276 C 181.462 132.401,181.401 132.415,181.211 132.306 C 180.617 131.964,180.799 131.039,181.460 131.039 C 182.018 131.039,182.026 131.070,181.597 131.543 M144.253 132.249 C 144.253 132.634,144.846 132.981,145.446 132.949 C 145.623 132.939,145.481 132.816,145.130 132.676 C 144.780 132.535,144.570 132.295,144.665 132.143 C 144.759 131.990,144.705 131.865,144.545 131.865 C 144.384 131.865,144.253 132.038,144.253 132.249 M147.832 135.290 C 147.832 135.508,147.708 135.763,147.557 135.857 C 147.405 135.950,147.281 135.888,147.281 135.719 C 147.281 135.550,147.158 135.488,147.006 135.582 C 146.700 135.771,146.626 135.365,146.914 135.077 C 147.244 134.747,147.832 134.884,147.832 135.290 M251.480 138.471 C 250.763 138.781,250.516 138.796,250.516 138.532 C 250.516 138.414,250.857 138.298,251.273 138.275 C 251.926 138.239,251.955 138.266,251.480 138.471 M221.156 141.922 C 220.951 142.456,219.775 142.452,219.775 141.918 C 219.775 141.628,219.873 141.590,220.110 141.787 C 220.346 141.983,220.495 141.936,220.613 141.628 C 220.705 141.387,220.900 141.264,221.046 141.354 C 221.192 141.444,221.241 141.700,221.156 141.922 M218.720 144.804 C 218.626 144.955,218.739 145.079,218.970 145.079 C 219.240 145.079,219.331 145.235,219.224 145.513 C 219.077 145.897,219.010 145.900,218.650 145.540 C 218.294 145.184,218.360 144.529,218.752 144.529 C 218.828 144.529,218.813 144.652,218.720 144.804 M256.966 147.588 C 256.732 147.968,256.022 147.875,256.022 147.465 C 256.022 147.263,256.104 147.016,256.203 146.917 C 256.452 146.668,257.154 147.285,256.966 147.588 M170.957 150.156 C 170.957 150.769,171.388 150.891,171.433 150.291 C 171.455 149.998,171.357 149.759,171.215 149.759 C 171.073 149.759,170.957 149.938,170.957 150.156 M158.289 153.682 C 158.291 153.493,158.432 153.338,158.602 153.338 C 158.817 153.338,158.807 153.463,158.571 153.748 C 158.206 154.188,157.740 154.064,157.747 153.528 C 157.749 153.331,157.858 153.365,158.018 153.613 C 158.196 153.889,158.286 153.911,158.289 153.682 M259.968 165.623 C 259.968 166.035,260.918 166.003,261.078 165.585 C 261.141 165.421,260.917 165.286,260.580 165.286 C 260.244 165.286,259.968 165.437,259.968 165.623 M256.672 171.920 C 256.585 172.147,256.403 172.333,256.268 172.333 C 256.133 172.333,256.022 172.147,256.022 171.920 C 256.022 171.693,256.204 171.507,256.426 171.507 C 256.673 171.507,256.769 171.669,256.672 171.920 " stroke="none" fill="#8c8f7d" fill-rule="evenodd"></path><path id="path3" d="M163.348 73.303 C 163.392 74.819,163.771 74.842,188.610 74.862 C 213.265 74.882,212.420 74.836,212.986 76.189 C 213.205 76.713,213.603 77.199,213.870 77.269 C 214.354 77.395,215.003 78.762,215.003 79.652 C 215.003 79.908,215.344 80.333,215.760 80.596 C 216.177 80.859,216.563 81.383,216.618 81.762 C 216.673 82.140,216.757 82.636,216.804 82.863 C 216.850 83.090,216.898 83.433,216.909 83.626 C 216.921 83.819,217.243 84.118,217.625 84.293 C 218.007 84.467,218.399 84.929,218.495 85.319 C 218.735 86.295,219.416 87.295,219.715 87.110 C 220.007 86.930,220.152 87.297,220.362 88.743 C 220.462 89.435,220.803 90.074,221.338 90.574 C 221.791 90.997,222.165 91.634,222.170 91.989 C 222.181 92.784,222.766 93.599,223.326 93.599 C 223.594 93.599,223.884 94.114,224.139 95.045 C 224.402 96.000,224.733 96.579,225.115 96.752 C 225.528 96.939,225.748 97.372,225.882 98.266 C 226.106 99.761,226.454 100.482,226.951 100.482 C 227.152 100.482,227.522 101.020,227.773 101.677 C 228.034 102.359,228.523 103.030,228.912 103.238 C 229.287 103.439,229.604 103.799,229.617 104.038 C 229.667 104.980,229.783 105.715,229.892 105.781 C 229.955 105.819,230.255 105.986,230.557 106.152 C 230.925 106.353,231.202 106.935,231.390 107.900 C 231.598 108.965,231.870 109.490,232.423 109.892 C 232.835 110.192,233.177 110.645,233.183 110.897 C 233.196 111.520,233.885 112.724,234.252 112.767 C 234.415 112.786,234.649 112.817,234.771 112.836 C 235.309 112.919,235.125 115.040,234.553 115.346 C 234.152 115.560,227.578 115.646,212.175 115.637 C 192.108 115.626,190.294 115.663,189.476 116.096 C 188.088 116.832,187.430 119.532,188.566 119.830 C 188.864 119.907,189.080 119.891,189.048 119.793 C 189.015 119.695,189.268 119.334,189.611 118.992 L 190.233 118.370 211.828 118.379 C 233.333 118.389,234.067 118.417,233.219 119.202 C 232.713 119.671,232.637 119.667,232.313 119.156 C 232.121 118.854,232.079 118.856,232.076 119.171 C 232.070 119.658,232.884 120.283,233.538 120.294 C 233.939 120.301,234.025 120.121,233.965 119.408 C 233.829 117.794,235.603 116.724,238.416 116.724 C 239.479 116.724,239.440 116.796,239.264 115.157 C 239.245 114.976,239.002 114.872,238.724 114.926 C 237.955 115.074,237.602 114.728,237.528 113.754 C 237.491 113.268,237.383 112.870,237.288 112.870 C 237.193 112.870,236.967 112.545,236.787 112.149 C 236.493 111.505,236.510 111.447,236.941 111.613 C 237.206 111.715,237.323 111.698,237.200 111.577 C 237.077 111.455,236.710 111.356,236.383 111.356 C 235.894 111.356,235.773 111.171,235.703 110.323 C 235.656 109.756,235.487 109.291,235.329 109.291 C 235.171 109.291,235.115 109.099,235.205 108.864 C 235.295 108.629,235.260 108.504,235.128 108.586 C 234.995 108.667,234.731 108.547,234.541 108.318 C 234.251 107.968,234.278 107.926,234.717 108.055 C 235.088 108.163,235.063 108.115,234.633 107.888 C 234.300 107.712,233.991 107.266,233.945 106.896 C 233.894 106.487,233.537 106.042,233.035 105.761 C 231.948 105.153,231.871 105.024,231.946 103.908 C 231.981 103.386,231.900 102.959,231.765 102.959 C 231.631 102.959,231.521 102.828,231.521 102.668 C 231.521 102.508,231.676 102.469,231.865 102.583 C 232.099 102.724,232.088 102.641,231.831 102.324 C 231.422 101.820,231.106 101.685,231.383 102.134 C 231.477 102.285,231.430 102.409,231.278 102.409 C 231.127 102.409,230.925 102.283,230.830 102.129 C 230.735 101.975,230.542 101.921,230.401 102.008 C 230.165 102.153,230.005 100.503,230.137 99.273 C 230.179 98.872,230.061 98.788,229.618 98.904 C 229.228 99.005,229.043 98.924,229.043 98.650 C 229.043 98.428,228.919 98.323,228.768 98.417 C 228.617 98.511,228.483 98.487,228.472 98.364 C 228.330 96.869,228.020 96.352,227.263 96.352 C 226.594 96.352,226.566 96.286,226.566 94.684 C 226.566 93.725,226.457 93.084,226.309 93.175 C 226.169 93.262,225.975 93.207,225.880 93.053 C 225.785 92.899,225.467 92.774,225.173 92.774 C 224.649 92.774,224.435 91.600,224.596 89.608 C 224.632 89.154,224.592 89.130,224.368 89.470 C 224.187 89.746,224.095 89.769,224.092 89.539 C 224.090 89.350,223.995 89.209,223.882 89.227 C 223.255 89.326,223.027 89.094,222.836 88.162 C 222.719 87.595,222.594 86.987,222.558 86.812 C 222.522 86.637,222.350 86.265,222.176 85.986 C 221.898 85.540,221.879 85.561,222.023 86.167 C 222.163 86.752,222.142 86.782,221.882 86.367 C 221.714 86.099,221.487 85.935,221.377 86.003 C 221.267 86.071,221.150 85.804,221.117 85.409 C 221.035 84.410,220.302 83.380,219.740 83.473 C 219.416 83.527,219.248 83.338,219.198 82.863 C 218.932 80.334,218.798 79.760,218.563 80.132 C 218.374 80.431,218.314 80.438,218.311 80.163 C 218.309 79.964,218.197 79.870,218.063 79.953 C 217.613 80.231,217.223 79.398,217.323 78.372 C 217.377 77.814,217.297 77.357,217.146 77.357 C 216.995 77.357,216.945 77.165,217.036 76.930 C 217.130 76.685,217.083 76.574,216.927 76.671 C 216.778 76.763,216.655 76.708,216.655 76.548 C 216.655 76.387,216.407 76.256,216.105 76.256 C 215.710 76.256,215.544 76.061,215.520 75.568 C 215.469 74.553,215.435 74.394,215.229 74.187 C 215.126 74.084,215.103 73.839,215.179 73.642 C 215.254 73.445,215.165 73.190,214.980 73.075 C 214.751 72.934,214.707 72.991,214.844 73.254 C 214.954 73.467,214.844 73.393,214.599 73.090 C 214.161 72.548,213.788 72.539,189.045 72.484 C 174.379 72.452,164.166 72.529,164.487 72.671 C 165.021 72.906,165.020 72.914,164.441 72.933 C 164.113 72.944,163.793 73.045,163.729 73.159 C 163.666 73.273,163.650 73.215,163.694 73.030 C 163.739 72.846,163.673 72.632,163.549 72.555 C 163.425 72.478,163.335 72.815,163.348 73.303 M157.330 78.458 C 157.236 78.610,157.248 78.877,157.356 79.051 C 157.478 79.248,157.431 79.295,157.235 79.173 C 157.043 79.054,156.917 79.159,156.917 79.435 C 156.917 79.730,157.064 79.837,157.330 79.735 C 157.557 79.648,157.743 79.697,157.743 79.843 C 157.743 79.990,157.990 80.110,158.293 80.110 C 158.743 80.110,158.844 79.927,158.844 79.104 L 158.844 78.098 158.229 78.622 C 157.729 79.049,157.684 79.057,157.988 78.665 C 158.307 78.252,158.299 78.183,157.930 78.183 C 157.693 78.183,157.423 78.307,157.330 78.458 M155.990 82.922 C 156.063 83.041,155.972 83.138,155.786 83.138 C 155.281 83.138,155.748 83.507,156.373 83.603 C 156.742 83.659,156.917 83.528,156.917 83.196 C 156.917 82.895,156.711 82.706,156.386 82.706 C 156.095 82.706,155.916 82.803,155.990 82.922 M152.722 87.838 C 151.753 88.403,151.657 89.062,152.537 89.098 C 153.244 89.127,153.338 89.037,153.338 88.337 C 153.338 87.900,153.307 87.547,153.269 87.551 C 153.231 87.556,152.985 87.685,152.722 87.838 M150.483 92.441 C 150.409 92.561,150.587 92.677,150.879 92.699 C 151.172 92.721,151.411 92.623,151.411 92.481 C 151.411 92.168,150.671 92.136,150.483 92.441 M148.504 95.931 C 148.210 96.153,148.117 96.339,148.298 96.344 C 148.478 96.348,148.710 96.215,148.814 96.048 C 148.945 95.835,149.074 95.856,149.239 96.117 C 149.423 96.407,149.476 96.384,149.480 96.008 C 149.485 95.420,149.208 95.398,148.504 95.931 M144.880 100.826 C 144.411 101.432,144.196 102.016,144.646 101.462 C 144.884 101.168,145.234 100.829,145.423 100.709 C 145.648 100.566,145.660 100.489,145.457 100.486 C 145.286 100.484,145.027 100.637,144.880 100.826 M143.065 104.555 C 142.405 105.285,142.491 105.712,143.298 105.712 C 144.133 105.712,144.486 105.001,143.928 104.444 C 143.578 104.094,143.470 104.108,143.065 104.555 M138.201 113.076 C 138.199 113.266,138.228 113.469,138.266 113.529 C 138.304 113.589,138.098 113.899,137.810 114.217 C 137.293 114.789,137.294 114.797,137.847 114.797 C 138.465 114.797,138.835 113.725,138.435 113.094 C 138.260 112.819,138.204 112.815,138.201 113.076 M136.987 113.581 C 136.896 113.820,136.820 114.068,136.820 114.131 C 136.820 114.367,137.620 114.236,137.782 113.974 C 137.883 113.811,137.752 113.776,137.454 113.888 C 137.018 114.052,137.004 114.018,137.336 113.610 C 137.544 113.354,137.588 113.145,137.434 113.145 C 137.280 113.145,137.079 113.341,136.987 113.581 M139.160 122.230 C 139.067 122.381,139.129 122.505,139.298 122.505 C 139.467 122.505,139.529 122.630,139.434 122.782 C 139.340 122.935,139.467 123.138,139.717 123.234 C 140.083 123.374,140.099 123.457,139.803 123.666 C 139.511 123.871,139.520 123.901,139.849 123.813 C 140.530 123.629,140.560 121.955,139.882 121.955 C 139.579 121.955,139.254 122.078,139.160 122.230 M186.373 122.476 C 186.373 123.091,187.009 123.410,187.419 123.001 C 187.829 122.591,187.509 121.955,186.894 121.955 C 186.566 121.955,186.373 122.148,186.373 122.476 M243.083 124.967 C 243.083 125.751,243.152 125.809,244.081 125.809 C 244.983 125.809,245.042 125.764,244.700 125.343 C 244.374 124.941,244.379 124.909,244.735 125.108 C 245.050 125.284,245.075 125.259,244.840 125.004 C 244.670 124.820,244.361 124.643,244.152 124.612 C 243.943 124.580,243.617 124.458,243.427 124.339 C 243.180 124.185,243.083 124.362,243.083 124.967 M140.674 126.003 C 140.674 126.461,141.500 127.218,141.798 127.034 C 141.937 126.948,142.051 126.815,142.051 126.740 C 142.051 126.664,141.936 126.673,141.794 126.761 C 141.653 126.848,141.344 126.642,141.106 126.303 C 140.869 125.964,140.674 125.829,140.674 126.003 M182.519 128.442 L 182.519 129.442 183.463 128.658 C 184.655 127.667,184.656 127.587,183.482 127.508 C 182.546 127.445,182.519 127.472,182.519 128.442 M227.139 128.328 C 227.409 128.833,227.390 128.895,227.011 128.750 C 226.741 128.646,226.566 128.720,226.566 128.937 C 226.566 129.134,226.721 129.301,226.910 129.307 C 227.099 129.313,227.378 129.348,227.529 129.385 C 228.216 129.554,228.493 129.330,228.493 128.607 C 228.493 128.108,228.349 127.827,228.092 127.827 C 227.871 127.827,227.755 127.931,227.833 128.057 C 227.911 128.183,227.843 128.286,227.683 128.286 C 227.523 128.286,227.392 128.162,227.392 128.011 C 227.392 127.860,227.263 127.736,227.107 127.736 C 226.920 127.736,226.931 127.940,227.139 128.328 M183.494 128.818 C 183.306 129.122,183.740 129.451,183.995 129.196 C 184.256 128.935,184.208 128.562,183.912 128.562 C 183.769 128.562,183.581 128.677,183.494 128.818 M182.108 131.584 C 181.965 132.033,181.837 132.099,181.557 131.866 C 181.289 131.644,181.137 131.651,180.987 131.894 C 180.862 132.097,180.898 132.154,181.081 132.041 C 181.245 131.939,181.453 131.974,181.542 132.119 C 181.632 132.264,181.485 132.521,181.217 132.690 C 180.935 132.868,180.897 132.955,181.126 132.896 C 181.616 132.770,182.680 131.383,182.457 131.161 C 182.367 131.071,182.210 131.261,182.108 131.584 M248.589 134.243 C 248.589 135.046,248.666 135.130,249.389 135.109 C 250.569 135.075,250.528 133.386,249.346 133.366 C 248.674 133.355,248.589 133.453,248.589 134.243 M179.084 134.841 C 178.851 135.074,178.919 136.545,179.163 136.545 C 179.523 136.545,180.227 135.894,180.396 135.403 C 180.548 134.963,179.438 134.487,179.084 134.841 M177.013 137.242 C 177.013 137.817,177.837 138.092,178.138 137.618 C 178.530 136.998,178.433 136.820,177.701 136.820 C 177.267 136.820,177.013 136.976,177.013 137.242 M221.696 137.164 C 221.191 137.841,221.624 138.747,222.453 138.747 C 223.012 138.747,223.089 138.469,222.813 137.440 C 222.631 136.759,222.097 136.627,221.696 137.164 M148.074 139.078 C 148.557 140.385,149.412 140.448,149.639 139.194 C 149.760 138.528,149.696 138.472,148.810 138.472 C 147.936 138.472,147.870 138.527,148.074 139.078 M254.095 143.378 C 254.095 144.101,254.202 144.205,255.036 144.303 L 255.976 144.413 255.636 143.576 C 255.153 142.387,254.095 142.252,254.095 143.378 M173.778 143.908 C 173.581 143.975,173.444 144.454,173.456 145.033 C 173.468 145.588,173.536 145.901,173.607 145.728 C 173.678 145.555,173.964 145.472,174.242 145.545 C 174.521 145.618,174.832 145.543,174.934 145.378 C 175.035 145.214,174.987 145.079,174.827 145.079 C 174.667 145.079,174.535 144.948,174.535 144.788 C 174.535 144.627,174.659 144.573,174.811 144.666 C 174.962 144.760,175.086 144.658,175.086 144.439 C 175.086 144.016,174.348 143.716,173.778 143.908 M216.262 146.613 C 215.562 147.313,215.730 147.832,216.655 147.832 C 217.389 147.832,217.481 147.740,217.481 147.006 C 217.481 146.081,216.962 145.913,216.262 146.613 M153.471 148.121 C 153.373 148.431,153.442 148.864,153.624 149.084 C 154.030 149.573,154.552 149.618,154.265 149.140 C 154.100 148.865,154.144 148.865,154.480 149.137 C 155.019 149.573,155.265 149.322,155.265 148.337 C 155.265 147.338,153.777 147.159,153.471 148.121 M167.928 153.850 C 167.928 154.324,168.104 154.723,168.356 154.819 C 168.646 154.931,168.717 154.874,168.578 154.642 C 168.443 154.417,168.531 154.429,168.839 154.679 C 169.143 154.925,169.305 154.949,169.305 154.748 C 169.305 154.227,169.350 154.043,169.588 153.599 C 169.771 153.257,169.630 153.160,168.872 153.109 C 167.998 153.050,167.928 153.105,167.928 153.850 M262.033 155.782 C 262.235 155.910,262.381 156.122,262.357 156.252 C 262.332 156.383,262.446 156.534,262.608 156.589 C 262.771 156.643,262.904 156.578,262.904 156.444 C 262.904 156.107,262.305 155.539,261.955 155.544 C 261.796 155.547,261.831 155.654,262.033 155.782 M159.027 157.309 C 158.940 157.538,159.166 157.890,159.573 158.157 C 160.376 158.683,160.389 158.677,160.641 157.673 C 160.854 156.824,159.344 156.484,159.027 157.309 M165.789 157.578 C 165.615 157.960,165.074 158.375,164.506 158.562 C 163.678 158.836,163.524 159.013,163.524 159.691 C 163.524 160.302,163.396 160.496,162.993 160.496 C 162.521 160.496,162.464 160.694,162.483 162.276 C 162.494 163.255,162.609 163.991,162.739 163.912 C 162.868 163.832,162.973 164.019,162.973 164.327 C 162.973 164.635,163.283 165.090,163.661 165.338 C 164.108 165.631,164.350 166.045,164.350 166.517 C 164.350 167.255,165.244 168.089,165.720 167.795 C 165.855 167.711,166.050 168.205,166.153 168.892 C 166.286 169.775,166.553 170.308,167.066 170.709 C 167.725 171.226,168.058 172.001,168.305 173.598 C 168.438 174.458,168.725 174.805,169.165 174.636 C 169.430 174.534,169.611 174.739,169.723 175.267 C 169.983 176.498,170.271 176.869,171.034 176.961 C 171.701 177.041,171.737 177.122,171.627 178.293 C 171.515 179.498,171.863 180.443,172.471 180.580 C 173.185 180.740,173.450 181.110,173.477 181.983 C 173.532 183.804,173.665 184.093,174.525 184.265 C 175.352 184.430,175.364 184.452,175.800 186.591 C 175.871 186.939,176.203 187.325,176.540 187.450 C 177.002 187.622,177.151 187.898,177.151 188.589 C 177.151 189.388,177.263 189.531,178.045 189.735 C 178.538 189.863,178.956 190.119,178.976 190.304 C 178.996 190.489,179.031 190.975,179.054 191.383 C 179.077 191.792,179.185 192.215,179.293 192.324 C 179.610 192.640,179.521 193.031,179.180 192.820 C 178.995 192.706,178.918 192.775,178.989 192.990 C 179.055 193.188,179.472 193.399,179.915 193.459 C 180.925 193.594,180.876 193.528,180.907 194.799 C 180.938 196.044,181.512 197.109,182.153 197.109 C 182.488 197.109,182.418 196.941,181.871 196.434 C 180.899 195.533,180.938 195.248,181.922 196.056 C 182.546 196.568,182.698 196.910,182.679 197.766 C 182.658 198.747,182.723 198.843,183.444 198.921 C 184.450 199.029,184.396 198.941,184.497 200.625 C 184.545 201.417,184.708 202.067,184.859 202.069 C 185.010 202.071,184.948 202.193,184.721 202.340 C 184.294 202.616,184.262 202.605,185.765 202.728 C 186.218 202.766,186.663 203.471,186.450 203.815 C 186.361 203.959,186.431 203.988,186.606 203.880 C 186.792 203.765,186.924 203.856,186.924 204.100 C 186.924 204.594,235.808 204.783,237.094 204.294 C 237.530 204.128,237.879 204.128,238.045 204.294 C 238.210 204.459,238.492 204.350,238.812 203.997 C 240.353 202.294,237.317 202.083,211.012 202.069 C 188.421 202.056,187.469 202.018,187.287 201.123 C 187.239 200.884,187.146 200.471,187.082 200.206 C 187.018 199.942,186.956 199.505,186.945 199.237 C 186.933 198.969,186.606 198.605,186.218 198.428 C 185.782 198.229,185.452 197.805,185.354 197.316 C 185.268 196.881,184.868 196.193,184.467 195.785 C 184.065 195.378,183.586 194.532,183.401 193.905 C 183.212 193.264,182.773 192.574,182.397 192.327 C 181.922 192.016,181.675 191.532,181.543 190.654 C 181.411 189.776,181.204 189.371,180.826 189.251 C 180.338 189.096,179.278 187.066,179.429 186.574 C 179.465 186.458,179.207 186.232,178.856 186.072 C 178.369 185.850,178.131 185.388,177.849 184.113 C 177.591 182.953,177.331 182.406,176.993 182.318 C 176.556 182.204,176.286 181.732,175.807 180.244 C 175.721 179.976,175.355 179.645,174.995 179.508 C 174.487 179.315,174.303 178.991,174.180 178.077 C 174.038 177.019,173.591 176.377,172.818 176.119 C 172.673 176.071,172.487 175.439,172.406 174.714 C 172.294 173.719,172.093 173.290,171.587 172.958 C 171.218 172.716,170.722 172.034,170.485 171.441 C 170.231 170.805,169.787 170.262,169.404 170.116 C 168.891 169.921,168.754 169.665,168.754 168.899 C 168.754 167.970,168.004 166.827,167.395 166.827 C 167.253 166.827,167.057 166.301,166.960 165.657 C 166.768 164.378,166.386 163.720,165.683 163.456 C 165.433 163.363,165.139 162.875,165.032 162.372 C 164.925 161.870,164.729 161.325,164.598 161.161 C 164.456 160.985,164.516 160.648,164.745 160.335 C 165.119 159.824,165.868 159.803,188.622 159.670 L 212.113 159.532 212.205 158.885 C 212.255 158.529,212.222 157.940,212.130 157.577 L 211.965 156.917 189.027 156.917 L 166.090 156.917 165.789 157.578 M257.674 168.571 C 257.674 169.454,257.962 169.664,258.395 169.094 C 258.739 168.642,258.758 168.642,258.766 169.098 C 258.771 169.363,258.912 169.580,259.080 169.580 C 259.247 169.580,259.316 169.402,259.233 169.185 C 259.149 168.968,259.220 168.744,259.390 168.687 C 259.970 168.494,259.295 167.928,258.483 167.928 C 257.819 167.928,257.674 168.043,257.674 168.571 M256.022 171.920 C 256.022 172.147,256.146 172.333,256.297 172.333 C 256.449 172.333,256.573 172.189,256.573 172.012 C 256.573 171.835,256.637 171.756,256.717 171.835 C 256.951 172.069,256.537 172.894,256.268 172.728 C 256.133 172.644,256.022 172.707,256.022 172.867 C 256.022 173.315,256.402 173.215,256.898 172.637 C 257.223 172.256,257.262 172.032,257.041 171.811 C 256.605 171.374,256.022 171.437,256.022 171.920 M252.168 177.288 C 252.168 177.440,252.307 177.564,252.477 177.564 C 252.699 177.564,252.695 177.673,252.464 177.952 C 252.134 178.349,252.209 178.447,253.077 178.757 C 253.372 178.862,253.505 178.824,253.405 178.662 C 253.312 178.512,253.051 178.390,252.824 178.390 C 252.597 178.390,252.489 178.264,252.584 178.110 C 252.679 177.956,252.875 177.903,253.020 177.993 C 253.164 178.082,253.249 177.991,253.207 177.791 C 253.165 177.590,253.296 177.460,253.496 177.502 C 253.697 177.543,253.782 177.450,253.686 177.295 C 253.462 176.932,252.168 176.926,252.168 177.288 M250.516 181.372 C 250.516 181.834,250.629 182.281,250.767 182.366 C 251.115 182.581,251.893 182.248,251.893 181.884 C 251.893 181.683,251.783 181.692,251.562 181.913 C 251.017 182.458,250.761 182.286,251.256 181.707 C 251.509 181.412,251.817 181.234,251.942 181.310 C 252.066 181.387,252.168 181.319,252.168 181.159 C 252.168 180.998,251.992 180.867,251.778 180.867 C 251.563 180.867,251.191 180.792,250.952 180.700 C 250.613 180.570,250.516 180.720,250.516 181.372 M248.589 185.134 C 248.589 185.950,248.885 186.009,249.510 185.319 C 250.133 184.631,250.084 184.446,249.277 184.446 C 248.727 184.446,248.589 184.584,248.589 185.134 M245.010 190.640 C 245.010 191.460,245.428 191.540,245.827 190.796 C 246.223 190.056,246.190 189.952,245.561 189.952 C 245.157 189.952,245.010 190.135,245.010 190.640 M243.087 194.563 C 243.090 195.131,243.183 195.471,243.294 195.320 C 243.405 195.169,243.744 195.045,244.047 195.045 C 244.457 195.045,244.604 194.852,244.625 194.288 C 244.649 193.632,244.548 193.531,243.868 193.531 C 243.144 193.531,243.084 193.610,243.087 194.563 " stroke="none" fill="#c8bc90" fill-rule="evenodd"></path><path id="path4" d="M161.341 73.090 C 160.710 73.919,160.790 74.329,161.584 74.329 C 162.276 74.329,163.228 74.913,164.520 76.129 C 164.689 76.289,164.913 76.689,165.018 77.019 C 165.122 77.348,165.615 78.210,166.112 78.933 C 166.609 79.656,167.169 80.712,167.356 81.280 C 167.543 81.848,167.817 82.312,167.965 82.312 C 168.113 82.312,168.472 82.849,168.762 83.504 C 169.052 84.159,169.544 85.020,169.857 85.418 C 170.170 85.815,170.672 86.699,170.974 87.381 C 171.276 88.063,171.650 88.700,171.805 88.796 C 171.960 88.892,172.370 89.609,172.716 90.390 C 173.062 91.171,173.545 91.975,173.789 92.176 C 174.032 92.378,174.377 92.997,174.555 93.553 C 174.733 94.108,175.097 94.811,175.365 95.114 C 175.632 95.416,176.165 96.291,176.548 97.058 C 176.932 97.824,177.441 98.614,177.680 98.812 C 177.919 99.010,178.114 99.346,178.114 99.559 C 178.114 99.771,178.548 100.575,179.078 101.345 C 179.608 102.116,180.041 102.908,180.041 103.107 C 180.041 103.305,180.353 103.839,180.735 104.292 C 181.117 104.746,181.689 105.706,182.008 106.426 C 182.327 107.147,182.820 107.985,183.104 108.290 C 183.388 108.595,183.620 108.993,183.620 109.174 C 183.620 109.356,184.054 110.135,184.584 110.905 C 185.114 111.676,185.547 112.452,185.547 112.631 C 185.547 112.809,185.887 113.401,186.302 113.945 C 186.718 114.489,187.279 115.740,187.549 116.724 C 188.027 118.464,188.037 118.476,187.895 117.167 C 187.815 116.427,187.749 115.460,187.749 115.018 C 187.749 114.496,187.478 113.956,186.973 113.474 C 186.545 113.066,186.031 112.207,185.829 111.566 C 185.627 110.924,185.171 110.209,184.816 109.977 C 184.438 109.729,184.171 109.282,184.171 108.898 C 184.171 108.537,183.737 107.723,183.207 107.089 C 182.677 106.454,182.244 105.694,182.244 105.398 C 182.244 105.103,181.920 104.537,181.524 104.141 C 181.128 103.745,180.618 102.878,180.392 102.213 C 180.165 101.549,179.684 100.811,179.323 100.574 C 178.961 100.337,178.665 99.903,178.665 99.611 C 178.665 98.905,178.035 97.716,177.317 97.066 C 176.998 96.778,176.738 96.301,176.738 96.005 C 176.738 95.710,176.388 95.017,175.961 94.465 C 175.534 93.913,175.012 93.028,174.802 92.498 C 174.591 91.968,174.135 91.309,173.789 91.033 C 173.442 90.757,173.159 90.284,173.159 89.983 C 173.159 89.261,172.677 88.375,171.878 87.625 C 171.523 87.292,171.232 86.721,171.232 86.358 C 171.232 85.994,170.906 85.345,170.507 84.915 C 170.109 84.484,169.599 83.693,169.375 83.156 C 169.150 82.619,168.682 81.841,168.333 81.427 C 167.985 81.013,167.617 80.295,167.515 79.832 C 167.413 79.369,167.044 78.803,166.695 78.574 C 166.320 78.329,165.939 77.677,165.764 76.983 C 165.430 75.654,164.844 75.012,163.708 74.728 C 162.780 74.496,162.102 73.321,162.687 72.959 C 162.934 72.806,162.807 72.744,162.304 72.773 C 161.890 72.796,161.457 72.939,161.341 73.090 M155.989 82.645 C 156.063 82.765,155.972 82.863,155.786 82.863 C 155.600 82.863,155.523 82.938,155.614 83.029 C 155.705 83.120,156.054 83.002,156.390 82.767 C 156.987 82.349,156.988 82.341,156.426 82.384 C 156.111 82.407,155.914 82.525,155.989 82.645 M154.250 85.799 C 154.356 85.975,154.349 86.172,154.234 86.236 C 154.120 86.299,154.205 86.305,154.424 86.247 C 154.710 86.172,154.679 86.300,154.312 86.705 C 153.815 87.255,153.816 87.268,154.396 87.268 C 155.125 87.268,155.203 86.407,154.524 85.856 C 154.268 85.648,154.145 85.623,154.250 85.799 M148.727 95.271 C 148.386 95.402,148.107 95.633,148.107 95.784 C 148.107 95.936,148.298 95.987,148.532 95.897 C 148.802 95.793,148.927 95.872,148.876 96.112 C 148.832 96.320,148.980 96.490,149.205 96.490 C 149.664 96.490,149.937 95.586,149.578 95.251 C 149.451 95.131,149.067 95.140,148.727 95.271 M141.811 108.006 C 141.603 108.259,141.541 108.473,141.673 108.483 C 141.805 108.492,141.604 108.639,141.225 108.810 L 140.537 109.119 141.319 109.226 C 142.287 109.358,142.390 109.259,142.278 108.307 C 142.197 107.620,142.152 107.591,141.811 108.006 M138.494 114.155 C 138.482 114.483,138.317 114.814,138.128 114.890 C 137.858 114.999,137.860 115.034,138.137 115.051 C 138.555 115.076,138.858 114.412,138.657 113.911 C 138.579 113.717,138.506 113.827,138.494 114.155 M235.994 117.397 C 234.281 118.122,233.810 118.499,234.963 118.222 C 235.983 117.976,237.210 117.371,237.439 117.001 C 237.533 116.849,237.572 116.738,237.525 116.755 C 237.478 116.772,236.789 117.061,235.994 117.397 M137.242 118.637 C 137.153 118.781,137.345 118.847,137.673 118.784 C 138.238 118.675,138.244 118.693,137.793 119.192 C 137.342 119.690,137.347 119.707,137.896 119.563 C 138.641 119.369,138.676 118.376,137.938 118.376 C 137.644 118.376,137.331 118.493,137.242 118.637 M184.446 124.708 C 184.446 125.591,184.863 125.700,185.498 124.983 C 185.823 124.616,185.841 124.616,185.665 124.983 C 185.517 125.290,185.550 125.319,185.791 125.098 C 186.282 124.647,185.850 123.882,185.105 123.882 C 184.556 123.882,184.446 124.020,184.446 124.708 M182.863 127.375 C 183.128 127.444,183.562 127.444,183.827 127.375 C 184.092 127.306,183.875 127.249,183.345 127.249 C 182.815 127.249,182.598 127.306,182.863 127.375 M144.828 131.515 C 144.368 131.601,144.272 131.706,144.514 131.856 C 144.931 132.114,145.905 131.904,145.905 131.558 C 145.905 131.424,145.812 131.331,145.699 131.352 C 145.585 131.373,145.193 131.446,144.828 131.515 M144.691 132.457 C 144.854 132.719,145.905 132.636,145.905 132.360 C 145.905 132.243,145.604 132.171,145.237 132.202 C 144.869 132.232,144.624 132.347,144.691 132.457 M146.842 135.211 C 146.721 135.408,146.767 135.454,146.964 135.333 C 147.158 135.213,147.281 135.324,147.281 135.620 C 147.281 135.976,147.363 136.023,147.588 135.798 C 147.906 135.481,147.707 134.893,147.281 134.893 C 147.148 134.893,146.950 135.036,146.842 135.211 M177.753 136.742 C 178.097 136.806,178.412 137.112,178.486 137.456 C 178.596 137.959,178.610 137.945,178.572 137.371 C 178.538 136.840,178.369 136.677,177.839 136.656 C 177.275 136.634,177.260 136.650,177.753 136.742 M250.516 138.532 C 250.516 138.796,250.763 138.781,251.480 138.471 C 251.955 138.266,251.926 138.239,251.273 138.275 C 250.857 138.298,250.516 138.414,250.516 138.532 M175.340 140.176 C 175.130 141.026,175.191 141.225,175.661 141.225 C 175.950 141.225,176.187 141.094,176.187 140.934 C 176.187 140.773,176.342 140.731,176.531 140.840 C 176.731 140.955,176.779 140.933,176.646 140.787 C 176.520 140.650,176.334 140.535,176.233 140.533 C 176.132 140.530,175.895 140.430,175.705 140.310 C 175.516 140.190,175.352 140.130,175.340 140.176 M220.896 141.458 C 221.071 141.742,220.742 141.899,220.165 141.808 C 220.052 141.790,219.959 141.900,219.959 142.051 C 219.959 142.202,220.193 142.326,220.480 142.326 C 221.081 142.326,221.459 141.609,221.005 141.329 C 220.820 141.215,220.777 141.265,220.896 141.458 M152.412 144.391 C 152.313 144.650,152.415 144.804,152.688 144.804 C 152.967 144.804,153.063 144.956,152.958 145.231 C 152.867 145.466,152.901 145.592,153.031 145.511 C 153.162 145.431,153.269 145.053,153.269 144.671 C 153.269 143.918,152.669 143.722,152.412 144.391 M218.428 144.830 C 218.326 144.996,218.425 145.316,218.650 145.540 C 219.010 145.900,219.077 145.897,219.224 145.513 C 219.331 145.235,219.240 145.079,218.970 145.079 C 218.739 145.079,218.626 144.955,218.720 144.804 C 218.813 144.652,218.828 144.529,218.752 144.529 C 218.677 144.529,218.531 144.664,218.428 144.830 M256.162 147.002 C 255.959 147.330,256.217 147.832,256.589 147.832 C 256.924 147.832,256.926 147.087,256.592 146.880 C 256.451 146.793,256.258 146.848,256.162 147.002 M169.916 150.326 C 169.931 150.850,170.021 151.037,170.155 150.821 C 170.273 150.630,170.314 150.383,170.246 150.273 C 170.178 150.163,170.267 149.983,170.444 149.873 C 170.621 149.764,170.694 149.792,170.604 149.936 C 170.515 150.080,170.541 150.359,170.663 150.555 C 170.816 150.803,170.924 150.694,171.019 150.197 C 171.134 149.597,171.055 149.484,170.524 149.484 C 169.998 149.484,169.896 149.624,169.916 150.326 M257.798 150.278 C 257.369 150.706,257.720 151.463,258.279 151.317 C 258.612 151.230,259.067 151.308,259.290 151.491 C 259.593 151.739,259.579 151.643,259.235 151.114 C 258.981 150.723,258.849 150.327,258.943 150.234 C 259.036 150.140,258.845 150.084,258.517 150.109 C 258.190 150.133,257.866 150.209,257.798 150.278 M157.747 153.528 C 157.740 154.064,158.206 154.188,158.571 153.748 C 158.807 153.463,158.817 153.338,158.602 153.338 C 158.432 153.338,158.291 153.493,158.289 153.682 C 158.286 153.911,158.196 153.889,158.018 153.613 C 157.858 153.365,157.749 153.331,157.747 153.528 M212.635 154.560 C 212.366 155.129,212.409 155.186,213.121 155.206 C 213.654 155.221,213.902 155.092,213.902 154.800 C 213.902 154.448,213.828 154.433,213.483 154.720 C 213.135 155.008,213.092 154.995,213.227 154.644 C 213.491 153.955,212.957 153.879,212.635 154.560 M165.451 157.605 C 165.262 157.832,164.987 158.018,164.839 158.018 C 164.037 158.018,162.744 158.940,162.617 159.602 L 162.479 160.325 162.995 159.653 C 163.279 159.284,163.514 158.908,163.518 158.819 C 163.521 158.729,164.006 158.511,164.596 158.334 C 165.186 158.157,165.740 157.828,165.827 157.602 C 166.028 157.079,165.887 157.080,165.451 157.605 M212.284 159.757 C 212.249 161.719,212.461 162.382,213.488 163.524 C 213.828 163.902,214.182 164.531,214.273 164.922 C 214.365 165.312,214.721 165.937,215.066 166.311 C 215.410 166.685,215.865 167.481,216.077 168.079 C 216.289 168.678,216.688 169.327,216.964 169.521 C 217.240 169.716,217.601 170.380,217.767 170.997 C 217.933 171.614,218.378 172.405,218.755 172.754 C 219.132 173.104,219.567 173.848,219.722 174.409 C 219.877 174.970,220.285 175.692,220.629 176.015 C 220.972 176.337,221.401 177.050,221.580 177.599 C 221.760 178.149,222.151 178.819,222.449 179.089 C 222.748 179.359,223.138 180.068,223.316 180.664 C 223.495 181.261,223.916 181.928,224.251 182.148 C 224.587 182.368,224.945 182.882,225.047 183.290 C 225.358 184.539,226.059 185.822,226.429 185.822 C 226.622 185.822,226.862 186.259,226.962 186.792 C 227.062 187.325,227.509 188.178,227.956 188.686 C 228.403 189.195,228.768 189.803,228.768 190.036 C 228.768 190.269,229.109 190.861,229.525 191.350 C 229.942 191.839,230.476 192.809,230.714 193.505 C 230.972 194.263,231.386 194.878,231.746 195.041 C 232.076 195.191,232.347 195.516,232.347 195.765 C 232.347 196.577,233.160 198.184,233.723 198.486 C 234.030 198.650,234.274 199.062,234.274 199.418 C 234.274 200.084,235.745 202.340,236.180 202.340 C 236.318 202.340,236.620 202.413,236.852 202.501 C 237.213 202.640,237.227 202.544,236.952 201.813 C 236.775 201.346,236.553 200.964,236.458 200.964 C 236.068 200.964,235.184 199.942,234.841 199.097 C 234.640 198.600,234.120 197.746,233.686 197.201 C 233.252 196.655,232.897 195.995,232.897 195.735 C 232.897 195.475,232.607 194.949,232.252 194.566 C 231.897 194.183,231.391 193.329,231.129 192.668 C 230.866 192.007,230.427 191.218,230.152 190.915 C 229.878 190.613,229.393 189.784,229.074 189.074 C 228.755 188.364,228.363 187.702,228.204 187.603 C 228.044 187.504,227.617 186.754,227.254 185.935 C 226.892 185.116,226.490 184.446,226.361 184.446 C 226.232 184.446,225.962 183.981,225.762 183.414 C 225.562 182.846,225.179 182.134,224.911 181.831 C 224.643 181.528,224.070 180.622,223.637 179.818 C 221.980 176.741,221.659 176.182,220.821 174.918 C 220.347 174.201,219.959 173.501,219.959 173.361 C 219.959 173.221,219.680 172.716,219.339 172.238 C 218.999 171.760,218.461 170.812,218.144 170.131 C 217.828 169.449,217.369 168.727,217.126 168.526 C 216.883 168.324,216.535 167.705,216.354 167.149 C 216.173 166.594,215.742 165.799,215.396 165.383 C 215.049 164.968,214.679 164.348,214.573 164.007 C 214.466 163.665,214.023 162.887,213.588 162.278 C 213.063 161.544,212.716 160.616,212.557 159.525 L 212.318 157.880 212.284 159.757 M259.601 164.746 C 259.601 165.458,259.941 165.845,260.274 165.512 C 260.383 165.403,260.586 165.298,260.725 165.279 C 260.864 165.260,261.038 165.229,261.112 165.210 C 261.383 165.141,260.294 164.074,259.953 164.074 C 259.759 164.074,259.601 164.377,259.601 164.746 M253.236 177.449 C 253.219 177.588,253.226 177.815,253.252 177.954 C 253.279 178.094,253.104 178.045,252.865 177.846 C 252.626 177.648,252.350 177.565,252.253 177.662 C 252.156 177.759,252.228 177.839,252.414 177.839 C 252.599 177.839,252.674 177.963,252.581 178.114 C 252.487 178.266,252.608 178.390,252.849 178.390 C 253.310 178.390,253.733 177.661,253.441 177.368 C 253.346 177.274,253.254 177.310,253.236 177.449 M247.419 186.313 C 246.645 186.412,246.545 186.573,246.818 187.284 C 247.005 187.771,248.039 187.575,248.039 187.052 C 248.039 186.855,248.187 186.645,248.369 186.584 C 248.913 186.403,248.233 186.208,247.419 186.313 M239.566 199.810 C 239.550 200.375,239.676 200.570,240.055 200.570 C 240.336 200.570,240.560 200.504,240.553 200.423 C 240.506 199.880,240.645 199.579,240.878 199.723 C 241.027 199.815,241.086 199.725,241.009 199.523 C 240.717 198.762,239.590 198.985,239.566 199.810 " stroke="none" fill="#9e9676" fill-rule="evenodd"></path></g></svg>