<svg id="svg" version="1.1" xmlns="http://www.w3.org/2000/svg" xmlns:xlink="http://www.w3.org/1999/xlink" width="400" height="419.04761904761904" viewBox="0, 0, 400,419.04761904761904"><g id="svgg"><path id="path0" d="M191.200 19.475 C 120.249 22.772,52.768 68.680,26.377 131.604 C 17.100 153.723,13.606 166.756,10.828 189.600 C 7.623 215.964,11.515 248.060,21.065 274.000 C 22.673 278.367,25.173 284.718,25.631 285.600 C 25.803 285.930,27.143 288.720,28.609 291.800 C 31.282 297.414,35.687 305.483,38.328 309.600 C 40.602 313.146,45.254 320.115,46.070 321.200 C 74.883 359.475,111.502 383.680,157.200 394.653 C 162.616 395.954,164.461 396.291,174.400 397.796 C 184.913 399.389,205.954 399.916,216.600 398.855 C 222.805 398.236,234.723 396.515,237.800 395.793 C 239.120 395.484,241.820 394.861,243.800 394.410 C 287.216 384.511,324.944 359.432,353.930 321.200 C 355.499 319.130,361.729 309.701,363.136 307.266 C 363.941 305.873,365.196 303.713,365.925 302.466 C 389.736 261.751,396.515 207.708,383.770 160.200 C 381.429 151.475,376.296 136.752,374.356 133.203 C 374.175 132.871,372.885 130.169,371.489 127.198 C 352.365 86.487,314.342 50.321,273.431 33.931 C 245.869 22.888,219.082 18.179,191.200 19.475 M333.600 208.767 C 333.600 281.789,333.491 341.819,333.357 342.167 C 333.136 342.742,321.014 342.800,200.004 342.800 L 66.893 342.800 66.652 341.900 C 66.320 340.661,66.335 76.599,66.667 76.267 C 66.813 76.120,126.933 76.000,200.267 76.000 L 333.600 76.000 333.600 208.767 " stroke="none" fill="#747474" fill-rule="evenodd"></path><path id="path1" d="M194.700 19.099 C 197.175 19.169,201.225 19.169,203.700 19.099 C 206.175 19.028,204.150 18.971,199.200 18.971 C 194.250 18.971,192.225 19.028,194.700 19.099 M184.700 19.489 C 185.415 19.578,186.585 19.578,187.300 19.489 C 188.015 19.401,187.430 19.328,186.000 19.328 C 184.570 19.328,183.985 19.401,184.700 19.489 M211.907 19.490 C 212.626 19.579,213.706 19.577,214.307 19.486 C 214.908 19.395,214.320 19.322,213.000 19.324 C 211.680 19.326,211.188 19.401,211.907 19.490 M217.305 19.887 C 217.914 19.979,218.814 19.977,219.305 19.882 C 219.797 19.787,219.300 19.711,218.200 19.714 C 217.100 19.717,216.697 19.795,217.305 19.887 M166.800 21.600 C 165.456 22.031,166.908 22.031,168.600 21.600 C 169.678 21.326,169.698 21.294,168.800 21.287 C 168.250 21.283,167.350 21.424,166.800 21.600 M146.200 26.400 C 145.696 26.617,145.622 26.744,146.000 26.744 C 146.330 26.744,146.960 26.589,147.400 26.400 C 147.904 26.183,147.978 26.056,147.600 26.056 C 147.270 26.056,146.640 26.211,146.200 26.400 M137.000 29.386 C 135.455 30.093,136.174 30.103,138.000 29.400 C 138.770 29.103,139.130 28.855,138.800 28.848 C 138.470 28.842,137.660 29.083,137.000 29.386 M267.200 31.133 C 267.530 31.336,268.250 31.624,268.800 31.771 C 269.495 31.957,269.617 31.925,269.200 31.667 C 268.870 31.464,268.150 31.176,267.600 31.029 C 266.905 30.843,266.783 30.875,267.200 31.133 M118.800 36.800 C 118.030 37.222,117.580 37.566,117.800 37.566 C 118.020 37.566,118.830 37.222,119.600 36.800 C 120.370 36.378,120.820 36.034,120.600 36.034 C 120.380 36.034,119.570 36.378,118.800 36.800 M115.200 38.600 C 114.210 39.130,113.542 39.572,113.716 39.582 C 114.141 39.606,117.200 38.034,117.200 37.792 C 117.200 37.527,117.217 37.520,115.200 38.600 M110.300 41.026 C 109.255 41.570,108.400 42.105,108.400 42.214 C 108.400 42.324,109.300 41.957,110.400 41.400 C 111.500 40.843,112.400 40.300,112.400 40.193 C 112.400 39.929,112.436 39.914,110.300 41.026 M105.700 43.596 C 104.985 44.032,104.400 44.475,104.400 44.581 C 104.400 44.686,105.030 44.401,105.800 43.947 C 106.570 43.493,107.200 43.049,107.200 42.960 C 107.200 42.705,107.074 42.758,105.700 43.596 M305.200 50.524 C 305.200 50.617,305.965 51.198,306.900 51.815 C 307.835 52.432,308.389 52.680,308.131 52.368 C 307.634 51.767,305.200 50.236,305.200 50.524 M311.600 54.925 C 311.600 55.024,312.261 55.609,313.068 56.225 C 313.876 56.841,314.411 57.141,314.256 56.891 C 313.940 56.379,311.600 54.647,311.600 54.925 M83.185 58.829 L 81.800 60.058 83.300 58.981 C 84.626 58.030,85.057 57.600,84.685 57.600 C 84.622 57.600,83.947 58.153,83.185 58.829 M316.000 58.118 C 316.000 58.220,316.847 58.997,317.881 59.845 C 318.916 60.693,319.634 61.178,319.476 60.923 C 319.140 60.379,316.000 57.845,316.000 58.118 M322.400 63.325 C 322.400 63.394,322.985 63.979,323.700 64.625 L 325.000 65.800 323.825 64.500 C 322.730 63.288,322.400 63.016,322.400 63.325 M72.985 67.300 L 71.000 69.400 73.100 67.415 C 75.051 65.571,75.383 65.200,75.085 65.200 C 75.022 65.200,74.077 66.145,72.985 67.300 M326.000 66.451 C 326.330 66.781,330.020 70.363,334.200 74.412 C 341.409 81.395,341.502 81.469,336.000 75.859 C 332.810 72.606,329.120 69.024,327.800 67.898 C 326.480 66.773,325.670 66.122,326.000 66.451 M64.793 75.100 L 60.200 79.800 64.900 75.207 C 67.485 72.680,69.600 70.565,69.600 70.507 C 69.600 70.218,69.060 70.734,64.793 75.100 M67.198 76.299 C 67.114 86.909,67.248 341.781,67.337 341.871 C 67.510 342.043,332.489 342.044,332.662 341.871 C 332.735 341.799,332.798 281.993,332.803 208.970 L 332.812 76.200 200.006 76.099 C 126.963 76.044,67.199 76.134,67.198 76.299 M332.780 76.900 C 332.745 77.752,200.543 341.752,200.072 341.909 C 199.668 342.044,67.200 77.740,67.200 76.800 C 67.200 76.534,111.680 76.400,200.000 76.400 C 305.984 76.400,332.796 76.501,332.780 76.900 M57.571 82.700 C 55.762 84.610,53.690 87.120,54.846 86.000 C 56.160 84.728,59.707 80.800,59.543 80.800 C 59.448 80.800,58.560 81.655,57.571 82.700 M345.200 86.200 C 345.946 86.970,346.647 87.600,346.757 87.600 C 346.867 87.600,346.346 86.970,345.600 86.200 C 344.854 85.430,344.153 84.800,344.043 84.800 C 343.933 84.800,344.454 85.430,345.200 86.200 M348.155 89.719 C 349.003 90.753,349.780 91.600,349.882 91.600 C 350.155 91.600,347.621 88.460,347.077 88.124 C 346.822 87.966,347.307 88.684,348.155 89.719 M350.975 93.332 C 351.591 94.139,352.176 94.800,352.275 94.800 C 352.553 94.800,350.821 92.460,350.309 92.144 C 350.059 91.989,350.359 92.524,350.975 93.332 M364.600 113.600 C 364.941 114.260,365.311 114.800,365.421 114.800 C 365.531 114.800,365.341 114.260,365.000 113.600 C 364.659 112.940,364.289 112.400,364.179 112.400 C 364.069 112.400,364.259 112.940,364.600 113.600 M34.502 114.500 C 33.936 115.215,33.140 116.800,33.346 116.800 C 33.442 116.800,33.893 116.170,34.347 115.400 C 35.173 114.001,35.249 113.557,34.502 114.500 M31.200 120.400 C 30.751 121.280,30.474 122.000,30.584 122.000 C 30.694 122.000,31.151 121.280,31.600 120.400 C 32.049 119.520,32.326 118.800,32.216 118.800 C 32.106 118.800,31.649 119.520,31.200 120.400 M28.600 125.600 C 28.259 126.260,28.069 126.800,28.179 126.800 C 28.289 126.800,28.659 126.260,29.000 125.600 C 29.341 124.940,29.531 124.400,29.421 124.400 C 29.311 124.400,28.941 124.940,28.600 125.600 M375.228 134.600 C 375.228 134.820,375.486 135.450,375.800 136.000 C 376.114 136.550,376.372 136.820,376.372 136.600 C 376.372 136.380,376.114 135.750,375.800 135.200 C 375.486 134.650,375.228 134.380,375.228 134.600 M381.090 150.329 C 381.452 151.460,381.823 152.311,381.914 152.219 C 382.130 152.004,381.204 149.109,380.768 148.636 C 380.584 148.437,380.729 149.198,381.090 150.329 M16.229 157.829 C 16.081 158.415,16.038 158.972,16.132 159.066 C 16.227 159.160,16.424 158.758,16.571 158.171 C 16.719 157.585,16.762 157.028,16.668 156.934 C 16.573 156.840,16.376 157.242,16.229 157.829 M385.268 164.800 C 385.288 165.839,385.918 167.546,385.932 166.600 C 385.938 166.160,385.789 165.440,385.600 165.000 C 385.389 164.510,385.261 164.432,385.268 164.800 M11.385 180.185 C 11.230 181.423,11.190 182.523,11.295 182.629 C 11.401 182.734,11.607 181.801,11.754 180.554 C 11.900 179.307,11.941 178.207,11.843 178.110 C 11.746 178.012,11.539 178.946,11.385 180.185 M10.101 191.800 C 10.105 192.680,10.187 192.993,10.283 192.495 C 10.379 191.998,10.375 191.278,10.275 190.895 C 10.175 190.513,10.096 190.920,10.101 191.800 M389.701 192.200 C 389.705 193.080,389.787 193.393,389.883 192.895 C 389.979 192.398,389.975 191.678,389.875 191.295 C 389.775 190.913,389.696 191.320,389.701 192.200 M9.724 197.000 C 9.726 198.320,9.801 198.812,9.890 198.093 C 9.979 197.374,9.977 196.294,9.886 195.693 C 9.795 195.092,9.722 195.680,9.724 197.000 M390.109 197.600 C 390.109 198.590,390.187 198.995,390.282 198.500 C 390.378 198.005,390.378 197.195,390.282 196.700 C 390.187 196.205,390.109 196.610,390.109 197.600 M9.340 206.400 C 9.340 208.270,9.409 209.035,9.493 208.100 C 9.577 207.165,9.577 205.635,9.493 204.700 C 9.409 203.765,9.340 204.530,9.340 206.400 M390.555 212.600 C 390.556 215.460,390.620 216.578,390.697 215.083 C 390.774 213.589,390.774 211.249,390.696 209.883 C 390.618 208.518,390.555 209.740,390.555 212.600 M9.701 220.600 C 9.705 221.480,9.787 221.793,9.883 221.295 C 9.979 220.798,9.975 220.078,9.875 219.695 C 9.775 219.313,9.696 219.720,9.701 220.600 M390.128 222.400 C 390.128 223.830,390.201 224.415,390.289 223.700 C 390.378 222.985,390.378 221.815,390.289 221.100 C 390.201 220.385,390.128 220.970,390.128 222.400 M10.093 226.400 C 10.093 227.170,10.175 227.485,10.276 227.100 C 10.376 226.715,10.376 226.085,10.276 225.700 C 10.175 225.315,10.093 225.630,10.093 226.400 M389.693 227.200 C 389.693 227.970,389.775 228.285,389.876 227.900 C 389.976 227.515,389.976 226.885,389.876 226.500 C 389.775 226.115,389.693 226.430,389.693 227.200 M388.493 237.600 C 388.493 238.370,388.575 238.685,388.676 238.300 C 388.776 237.915,388.776 237.285,388.676 236.900 C 388.575 236.515,388.493 236.830,388.493 237.600 M14.068 252.200 C 14.062 252.640,14.211 253.360,14.400 253.800 C 14.838 254.819,14.838 253.768,14.400 252.400 C 14.143 251.596,14.077 251.557,14.068 252.200 M383.029 262.229 C 382.881 262.815,382.838 263.372,382.932 263.466 C 383.027 263.560,383.224 263.158,383.371 262.571 C 383.519 261.985,383.562 261.428,383.468 261.334 C 383.373 261.240,383.176 261.642,383.029 262.229 M18.147 267.282 C 18.503 268.767,19.141 270.400,19.366 270.400 C 19.575 270.400,18.394 266.711,18.086 266.400 C 17.977 266.290,18.004 266.687,18.147 267.282 M23.628 282.200 C 23.628 282.420,23.886 283.050,24.200 283.600 C 24.514 284.150,24.772 284.420,24.772 284.200 C 24.772 283.980,24.514 283.350,24.200 282.800 C 23.886 282.250,23.628 281.980,23.628 282.200 M25.628 286.600 C 25.628 286.820,25.886 287.450,26.200 288.000 C 26.514 288.550,26.772 288.820,26.772 288.600 C 26.772 288.380,26.514 287.750,26.200 287.200 C 25.886 286.650,25.628 286.380,25.628 286.600 M373.072 289.019 C 372.132 290.989,372.264 291.324,373.247 289.462 C 373.693 288.616,373.987 287.854,373.901 287.767 C 373.814 287.681,373.441 288.244,373.072 289.019 M368.000 299.200 C 367.551 300.080,367.274 300.800,367.384 300.800 C 367.494 300.800,367.951 300.080,368.400 299.200 C 368.849 298.320,369.126 297.600,369.016 297.600 C 368.906 297.600,368.449 298.320,368.000 299.200 M365.639 303.424 C 365.177 304.207,364.980 304.736,365.202 304.599 C 365.636 304.331,366.934 302.000,366.650 302.000 C 366.556 302.000,366.101 302.641,365.639 303.424 M45.991 321.988 C 46.457 322.641,47.042 323.302,47.291 323.456 C 47.541 323.611,47.241 323.076,46.625 322.268 C 45.288 320.515,44.784 320.292,45.991 321.988 M48.391 325.188 C 48.857 325.841,49.442 326.502,49.691 326.656 C 49.941 326.811,49.641 326.276,49.025 325.468 C 47.688 323.715,47.184 323.492,48.391 325.188 M51.196 328.794 C 51.890 329.671,52.667 330.518,52.923 330.676 C 53.178 330.834,52.693 330.116,51.845 329.081 C 50.997 328.047,50.220 327.200,50.118 327.200 C 50.016 327.200,50.501 327.918,51.196 328.794 M54.400 332.600 C 55.146 333.370,55.847 334.000,55.957 334.000 C 56.067 334.000,55.546 333.370,54.800 332.600 C 54.054 331.830,53.353 331.200,53.243 331.200 C 53.133 331.200,53.654 331.830,54.400 332.600 M342.400 335.800 C 341.428 336.790,340.723 337.600,340.833 337.600 C 340.943 337.600,341.828 336.790,342.800 335.800 C 343.772 334.810,344.477 334.000,344.367 334.000 C 344.257 334.000,343.372 334.810,342.400 335.800 M58.301 337.000 C 58.985 337.880,62.298 341.300,65.663 344.600 L 71.780 350.600 64.804 343.400 C 60.967 339.440,57.654 336.020,57.443 335.800 C 57.231 335.580,57.617 336.120,58.301 337.000 M336.611 341.989 C 335.089 343.522,333.924 344.831,334.022 344.897 C 334.120 344.963,335.447 343.708,336.971 342.108 C 340.501 338.403,340.252 338.320,336.611 341.989 M331.600 347.000 C 330.628 347.990,329.923 348.800,330.033 348.800 C 330.143 348.800,331.028 347.990,332.000 347.000 C 332.972 346.010,333.677 345.200,333.567 345.200 C 333.457 345.200,332.572 346.010,331.600 347.000 M326.181 352.100 L 324.600 353.800 326.300 352.219 C 327.235 351.349,328.000 350.584,328.000 350.519 C 328.000 350.216,327.652 350.519,326.181 352.100 M75.200 353.325 C 75.200 353.394,75.785 353.979,76.500 354.625 L 77.800 355.800 76.625 354.500 C 75.530 353.288,75.200 353.016,75.200 353.325 M85.744 361.909 C 86.060 362.421,88.400 364.153,88.400 363.875 C 88.400 363.776,87.739 363.191,86.932 362.575 C 86.124 361.959,85.589 361.659,85.744 361.909 M91.869 366.432 C 92.366 367.033,94.800 368.564,94.800 368.276 C 94.800 368.183,94.035 367.602,93.100 366.985 C 92.165 366.368,91.611 366.120,91.869 366.432 M303.281 369.372 C 301.423 370.685,301.162 371.061,302.731 370.162 C 303.463 369.743,304.250 369.175,304.480 368.900 C 305.071 368.193,304.793 368.302,303.281 369.372 M294.900 374.446 C 293.537 375.319,293.095 375.906,294.300 375.243 C 295.218 374.739,296.656 373.627,296.400 373.619 C 296.290 373.616,295.615 373.988,294.900 374.446 M290.300 377.029 C 288.805 377.840,288.896 378.178,290.400 377.400 C 291.060 377.059,291.600 376.694,291.600 376.590 C 291.600 376.332,291.557 376.347,290.300 377.029 M112.400 378.579 C 112.400 378.689,112.940 379.059,113.600 379.400 C 114.260 379.741,114.800 379.931,114.800 379.821 C 114.800 379.711,114.260 379.341,113.600 379.000 C 112.940 378.659,112.400 378.469,112.400 378.579 M130.800 387.133 C 131.130 387.336,131.850 387.624,132.400 387.771 C 133.095 387.957,133.217 387.925,132.800 387.667 C 132.470 387.464,131.750 387.176,131.200 387.029 C 130.505 386.843,130.383 386.875,130.800 387.133 M254.800 391.800 C 254.030 392.097,253.670 392.345,254.000 392.352 C 254.330 392.358,255.140 392.117,255.800 391.814 C 257.345 391.107,256.626 391.097,254.800 391.800 M228.100 397.876 C 228.485 397.976,229.115 397.976,229.500 397.876 C 229.885 397.775,229.570 397.693,228.800 397.693 C 228.030 397.693,227.715 397.775,228.100 397.876 M180.505 399.087 C 181.114 399.179,182.014 399.177,182.505 399.082 C 182.997 398.987,182.500 398.911,181.400 398.914 C 180.300 398.917,179.897 398.995,180.505 399.087 M185.700 399.487 C 186.305 399.578,187.295 399.578,187.900 399.487 C 188.505 399.395,188.010 399.320,186.800 399.320 C 185.590 399.320,185.095 399.395,185.700 399.487 M213.300 399.487 C 213.905 399.578,214.895 399.578,215.500 399.487 C 216.105 399.395,215.610 399.320,214.400 399.320 C 213.190 399.320,212.695 399.395,213.300 399.487 M194.500 399.899 C 197.305 399.968,201.895 399.968,204.700 399.899 C 207.505 399.830,205.210 399.774,199.600 399.774 C 193.990 399.774,191.695 399.830,194.500 399.899 " stroke="none" fill="#bcbcbc" fill-rule="evenodd"></path><path id="path2" d="M0.000 209.400 L 0.000 418.800 200.000 418.800 L 400.000 418.800 400.000 209.400 L 400.000 0.000 200.000 0.000 L 0.000 0.000 0.000 209.400 M215.400 19.433 C 226.446 20.344,240.755 22.720,247.767 24.809 C 249.105 25.208,251.910 26.013,254.000 26.600 C 256.090 27.186,259.330 28.220,261.200 28.897 C 263.070 29.574,265.590 30.444,266.800 30.831 C 269.350 31.646,273.878 33.510,277.600 35.277 C 279.030 35.956,281.640 37.195,283.400 38.032 C 286.497 39.504,293.109 42.983,296.800 45.083 C 298.697 46.163,303.770 49.411,307.800 52.127 C 326.057 64.431,345.920 84.322,357.635 102.031 C 362.107 108.791,364.997 113.571,367.412 118.200 C 368.904 121.060,370.260 123.580,370.427 123.800 C 371.653 125.423,377.976 140.234,379.478 145.000 C 380.032 146.760,380.635 148.384,380.816 148.609 C 380.998 148.834,381.494 150.274,381.918 151.809 C 382.343 153.344,383.415 157.210,384.301 160.400 C 385.187 163.590,386.113 167.190,386.359 168.400 C 387.398 173.513,389.151 184.007,389.400 186.600 C 389.547 188.140,389.740 189.850,389.828 190.400 C 390.244 193.006,390.826 213.568,390.609 218.000 C 389.531 240.055,383.617 266.139,375.781 283.400 C 375.482 284.060,374.854 285.590,374.386 286.800 C 373.356 289.466,366.518 302.835,365.167 304.825 C 364.635 305.608,363.570 307.363,362.800 308.724 C 354.287 323.770,336.343 344.284,320.560 357.013 C 317.942 359.124,315.518 361.080,315.173 361.360 C 295.163 377.560,264.671 391.053,235.200 396.749 C 214.277 400.793,184.562 400.989,167.400 397.197 C 166.520 397.003,163.717 396.477,161.171 396.029 C 158.626 395.581,153.676 394.381,150.171 393.364 C 146.667 392.346,143.191 391.366,142.446 391.187 C 139.063 390.370,127.985 386.116,122.400 383.488 C 120.090 382.401,117.474 381.195,116.587 380.807 C 109.376 377.659,95.196 369.062,86.200 362.384 C 76.757 355.375,62.411 342.210,57.228 335.800 C 56.695 335.140,55.286 333.520,54.097 332.200 C 51.758 329.602,45.126 320.873,42.549 317.000 C 36.672 308.168,35.837 306.791,32.597 300.600 C 31.100 297.740,29.740 295.220,29.575 295.000 C 28.344 293.361,22.019 278.488,20.390 273.400 C 19.897 271.860,19.344 270.410,19.162 270.177 C 18.979 269.944,18.571 268.774,18.254 267.577 C 17.937 266.380,16.867 262.520,15.878 259.000 C 13.875 251.876,13.696 251.061,12.007 241.400 C 9.165 225.144,8.625 203.849,10.618 186.663 C 11.193 181.710,13.790 167.064,14.215 166.375 C 14.300 166.238,14.755 164.347,15.226 162.173 C 17.802 150.283,30.328 119.358,34.576 114.400 C 34.859 114.070,36.038 112.180,37.196 110.200 C 46.842 93.711,63.609 74.545,79.825 61.473 C 85.568 56.843,85.033 57.256,88.000 55.166 C 94.462 50.617,97.300 48.727,100.568 46.796 C 102.499 45.656,104.672 44.320,105.397 43.828 C 107.206 42.600,118.809 36.720,122.000 35.414 C 123.430 34.829,125.140 34.110,125.800 33.816 C 128.169 32.761,138.413 28.800,138.772 28.800 C 138.973 28.800,140.727 28.253,142.669 27.584 C 162.465 20.767,191.758 17.484,215.400 19.433 M67.200 76.800 C 67.200 77.740,199.668 342.044,200.072 341.909 C 200.543 341.752,332.745 77.752,332.780 76.900 C 332.796 76.501,305.984 76.400,200.000 76.400 C 111.680 76.400,67.200 76.534,67.200 76.800 " stroke="none" fill="#f7f7f7" fill-rule="evenodd"></path><path id="path3" d="M190.307 19.490 C 191.026 19.579,192.106 19.577,192.707 19.486 C 193.308 19.395,192.720 19.322,191.400 19.324 C 190.080 19.326,189.588 19.401,190.307 19.490 M207.705 19.487 C 208.314 19.579,209.214 19.577,209.705 19.482 C 210.197 19.387,209.700 19.311,208.600 19.314 C 207.500 19.317,207.097 19.395,207.705 19.487 M183.905 19.883 C 184.402 19.979,185.122 19.975,185.505 19.875 C 185.887 19.775,185.480 19.696,184.600 19.701 C 183.720 19.705,183.407 19.787,183.905 19.883 M219.300 20.276 C 219.685 20.376,220.315 20.376,220.700 20.276 C 221.085 20.175,220.770 20.093,220.000 20.093 C 219.230 20.093,218.915 20.175,219.300 20.276 M176.100 20.676 C 176.485 20.776,177.115 20.776,177.500 20.676 C 177.885 20.575,177.570 20.493,176.800 20.493 C 176.030 20.493,175.715 20.575,176.100 20.676 M222.900 20.676 C 223.285 20.776,223.915 20.776,224.300 20.676 C 224.685 20.575,224.370 20.493,223.600 20.493 C 222.830 20.493,222.515 20.575,222.900 20.676 M120.400 36.400 C 119.630 36.822,119.180 37.166,119.400 37.166 C 119.620 37.166,120.430 36.822,121.200 36.400 C 121.970 35.978,122.420 35.634,122.200 35.634 C 121.980 35.634,121.170 35.978,120.400 36.400 M279.200 36.600 C 279.750 36.914,280.380 37.172,280.600 37.172 C 280.820 37.172,280.550 36.914,280.000 36.600 C 279.450 36.286,278.820 36.028,278.600 36.028 C 278.380 36.028,278.650 36.286,279.200 36.600 M105.900 43.829 C 104.405 44.640,104.496 44.978,106.000 44.200 C 106.660 43.859,107.200 43.494,107.200 43.390 C 107.200 43.132,107.157 43.147,105.900 43.829 M322.000 63.325 C 322.000 63.394,322.585 63.979,323.300 64.625 L 324.600 65.800 323.425 64.500 C 322.330 63.288,322.000 63.016,322.000 63.325 M73.200 67.400 C 72.228 68.390,71.523 69.200,71.633 69.200 C 71.743 69.200,72.628 68.390,73.600 67.400 C 74.572 66.410,75.277 65.600,75.167 65.600 C 75.057 65.600,74.172 66.410,73.200 67.400 M334.200 74.800 C 337.715 78.320,340.681 81.200,340.791 81.200 C 340.901 81.200,338.115 78.320,334.600 74.800 C 331.085 71.280,328.119 68.400,328.009 68.400 C 327.899 68.400,330.685 71.280,334.200 74.800 M65.194 75.100 L 60.200 80.200 65.300 75.206 C 70.037 70.567,70.581 70.000,70.294 70.000 C 70.236 70.000,67.941 72.295,65.194 75.100 M333.299 208.467 C 333.245 281.434,333.091 341.419,332.957 341.767 C 332.736 342.342,320.645 342.400,199.957 342.400 L 67.200 342.400 67.177 210.900 C 67.164 138.575,67.005 78.680,66.823 77.800 C 66.641 76.920,66.474 135.780,66.451 208.600 C 66.429 281.420,66.519 341.405,66.652 341.900 L 66.893 342.800 200.039 342.800 L 333.185 342.800 333.402 341.900 C 333.521 341.405,333.569 281.330,333.509 208.400 L 333.399 75.800 333.299 208.467 M57.600 83.000 C 56.628 83.990,55.923 84.800,56.033 84.800 C 56.143 84.800,57.028 83.990,58.000 83.000 C 58.972 82.010,59.677 81.200,59.567 81.200 C 59.457 81.200,58.572 82.010,57.600 83.000 M344.000 85.325 C 344.000 85.394,344.585 85.979,345.300 86.625 L 346.600 87.800 345.425 86.500 C 344.330 85.288,344.000 85.016,344.000 85.325 M356.400 101.200 C 356.870 101.860,357.344 102.400,357.454 102.400 C 357.564 102.400,357.270 101.860,356.800 101.200 C 356.330 100.540,355.856 100.000,355.746 100.000 C 355.636 100.000,355.930 100.540,356.400 101.200 M357.949 103.400 C 358.165 103.840,358.634 104.560,358.993 105.000 L 359.644 105.800 359.251 105.000 C 359.035 104.560,358.566 103.840,358.207 103.400 L 357.556 102.600 357.949 103.400 M32.600 118.400 C 32.259 119.060,32.069 119.600,32.179 119.600 C 32.289 119.600,32.659 119.060,33.000 118.400 C 33.341 117.740,33.531 117.200,33.421 117.200 C 33.311 117.200,32.941 117.740,32.600 118.400 M388.901 186.600 C 388.905 187.480,388.987 187.793,389.083 187.295 C 389.179 186.798,389.175 186.078,389.075 185.695 C 388.975 185.313,388.896 185.720,388.901 186.600 M10.893 187.200 C 10.893 187.970,10.975 188.285,11.076 187.900 C 11.176 187.515,11.176 186.885,11.076 186.500 C 10.975 186.115,10.893 186.430,10.893 187.200 M389.301 190.200 C 389.305 191.080,389.387 191.393,389.483 190.895 C 389.579 190.398,389.575 189.678,389.475 189.295 C 389.375 188.913,389.296 189.320,389.301 190.200 M10.101 195.000 C 10.105 195.880,10.187 196.193,10.283 195.695 C 10.379 195.198,10.375 194.478,10.275 194.095 C 10.175 193.713,10.096 194.120,10.101 195.000 M9.720 201.600 C 9.720 202.810,9.795 203.305,9.887 202.700 C 9.978 202.095,9.978 201.105,9.887 200.500 C 9.795 199.895,9.720 200.390,9.720 201.600 M390.114 201.400 C 390.117 202.500,390.195 202.903,390.287 202.295 C 390.379 201.686,390.377 200.786,390.282 200.295 C 390.187 199.803,390.111 200.300,390.114 201.400 M390.124 217.400 C 390.126 218.720,390.201 219.212,390.290 218.493 C 390.379 217.774,390.377 216.694,390.286 216.093 C 390.195 215.492,390.122 216.080,390.124 217.400 M9.709 217.200 C 9.709 218.190,9.787 218.595,9.882 218.100 C 9.978 217.605,9.978 216.795,9.882 216.300 C 9.787 215.805,9.709 216.210,9.709 217.200 M10.101 223.400 C 10.105 224.280,10.187 224.593,10.283 224.095 C 10.379 223.598,10.375 222.878,10.275 222.495 C 10.175 222.113,10.096 222.520,10.101 223.400 M389.701 224.200 C 389.705 225.080,389.787 225.393,389.883 224.895 C 389.979 224.398,389.975 223.678,389.875 223.295 C 389.775 222.913,389.696 223.320,389.701 224.200 M10.509 228.400 C 10.509 229.390,10.587 229.795,10.682 229.300 C 10.778 228.805,10.778 227.995,10.682 227.500 C 10.587 227.005,10.509 227.410,10.509 228.400 M10.893 232.000 C 10.893 232.770,10.975 233.085,11.076 232.700 C 11.176 232.315,11.176 231.685,11.076 231.300 C 10.975 230.915,10.893 231.230,10.893 232.000 M366.600 301.200 C 366.259 301.860,366.069 302.400,366.179 302.400 C 366.289 302.400,366.659 301.860,367.000 301.200 C 367.341 300.540,367.531 300.000,367.421 300.000 C 367.311 300.000,366.941 300.540,366.600 301.200 M40.749 313.800 C 40.965 314.240,41.434 314.960,41.793 315.400 L 42.444 316.200 42.051 315.400 C 41.835 314.960,41.366 314.240,41.007 313.800 L 40.356 313.000 40.749 313.800 M54.800 332.600 C 55.546 333.370,56.247 334.000,56.357 334.000 C 56.467 334.000,55.946 333.370,55.200 332.600 C 54.454 331.830,53.753 331.200,53.643 331.200 C 53.533 331.200,54.054 331.830,54.800 332.600 M342.181 335.700 L 340.600 337.400 342.300 335.819 C 343.235 334.949,344.000 334.184,344.000 334.119 C 344.000 333.816,343.652 334.119,342.181 335.700 M65.200 343.800 C 68.605 347.210,71.480 350.000,71.590 350.000 C 71.700 350.000,69.005 347.210,65.600 343.800 C 62.195 340.390,59.320 337.600,59.210 337.600 C 59.100 337.600,61.795 340.390,65.200 343.800 M337.588 340.700 L 335.000 343.400 337.700 340.812 C 339.185 339.388,340.400 338.173,340.400 338.112 C 340.400 337.817,339.993 338.192,337.588 340.700 M331.389 346.900 L 328.600 349.800 331.500 347.011 C 334.194 344.420,334.583 344.000,334.289 344.000 C 334.228 344.000,332.923 345.305,331.389 346.900 M325.578 352.300 L 324.200 353.800 325.700 352.422 C 327.096 351.138,327.384 350.800,327.078 350.800 C 327.012 350.800,326.337 351.475,325.578 352.300 M75.600 353.325 C 75.600 353.394,76.185 353.979,76.900 354.625 L 78.200 355.800 77.025 354.500 C 75.930 353.288,75.600 353.016,75.600 353.325 M301.700 370.046 C 300.337 370.919,299.895 371.506,301.100 370.843 C 302.018 370.339,303.456 369.227,303.200 369.219 C 303.090 369.216,302.415 369.588,301.700 370.046 M120.000 382.200 C 120.550 382.514,121.180 382.772,121.400 382.772 C 121.620 382.772,121.350 382.514,120.800 382.200 C 120.250 381.886,119.620 381.628,119.400 381.628 C 119.180 381.628,119.450 381.886,120.000 382.200 M228.500 397.476 C 228.885 397.576,229.515 397.576,229.900 397.476 C 230.285 397.375,229.970 397.293,229.200 397.293 C 228.430 397.293,228.115 397.375,228.500 397.476 M184.100 399.076 C 184.485 399.176,185.115 399.176,185.500 399.076 C 185.885 398.975,185.570 398.893,184.800 398.893 C 184.030 398.893,183.715 398.975,184.100 399.076 M214.900 399.076 C 215.285 399.176,215.915 399.176,216.300 399.076 C 216.685 398.975,216.370 398.893,215.600 398.893 C 214.830 398.893,214.515 398.975,214.900 399.076 M190.105 399.487 C 190.714 399.579,191.614 399.577,192.105 399.482 C 192.597 399.387,192.100 399.311,191.000 399.314 C 189.900 399.317,189.497 399.395,190.105 399.487 M207.907 399.490 C 208.626 399.579,209.706 399.577,210.307 399.486 C 210.908 399.395,210.320 399.322,209.000 399.324 C 207.680 399.326,207.188 399.401,207.907 399.490 " stroke="none" fill="#acacac" fill-rule="evenodd"></path><path id="path4" d="M332.998 209.800 C 332.998 282.400,333.044 312.160,333.100 275.932 C 333.156 239.705,333.156 180.305,333.100 143.932 C 333.044 107.560,332.998 137.200,332.998 209.800 M100.100 342.300 C 118.305 342.358,148.095 342.358,166.300 342.300 C 184.505 342.242,169.610 342.195,133.200 342.195 C 96.790 342.195,81.895 342.242,100.100 342.300 M233.700 342.300 C 251.905 342.358,281.695 342.358,299.900 342.300 C 318.105 342.242,303.210 342.195,266.800 342.195 C 230.390 342.195,215.495 342.242,233.700 342.300 " stroke="none" fill="#b4b4b4" fill-rule="evenodd"></path></g></svg>