<svg id="svg" version="1.1" xmlns="http://www.w3.org/2000/svg" xmlns:xlink="http://www.w3.org/1999/xlink" width="400" height="393.33333333333337" viewBox="0, 0, 400,393.33333333333337"><g id="svgg"><path id="path0" d="M12.598 0.394 C 12.598 0.610,12.076 0.787,11.437 0.787 C 10.798 0.787,10.134 1.009,9.961 1.280 C 9.472 2.044,7.187 3.543,6.512 3.543 C 6.178 3.543,5.906 3.809,5.906 4.134 C 5.906 4.459,5.640 4.724,5.315 4.724 C 4.990 4.724,4.724 4.981,4.724 5.295 C 4.724 5.609,4.460 6.014,4.136 6.195 C 3.813 6.376,3.509 7.005,3.460 7.593 C 3.400 8.322,3.149 8.661,2.670 8.661 C 2.052 8.661,1.739 9.516,1.917 10.714 C 1.940 10.869,1.730 10.908,1.451 10.800 C 1.093 10.663,0.914 11.103,0.845 12.291 C 0.792 13.218,0.580 14.035,0.374 14.108 C -0.165 14.297,-0.122 31.783,0.417 31.963 C 0.647 32.040,0.845 32.852,0.857 33.768 C 0.873 34.911,1.051 35.433,1.424 35.433 C 1.768 35.433,1.969 35.873,1.969 36.627 C 1.969 37.394,2.215 37.922,2.657 38.103 C 3.036 38.259,3.364 38.607,3.386 38.878 C 3.407 39.149,3.452 39.636,3.484 39.961 C 3.517 40.285,3.809 40.551,4.134 40.551 C 4.525 40.551,4.724 40.943,4.724 41.713 C 4.724 42.352,4.959 43.016,5.246 43.189 C 5.533 43.362,5.883 43.816,6.023 44.197 C 6.163 44.578,6.504 44.843,6.780 44.787 C 7.088 44.725,7.331 45.182,7.407 45.965 C 7.478 46.700,7.751 47.244,8.050 47.244 C 8.336 47.244,8.662 47.598,8.775 48.031 C 8.889 48.465,9.283 48.819,9.651 48.819 C 10.084 48.819,10.241 49.027,10.094 49.409 C 9.940 49.811,10.115 50.000,10.642 50.000 C 11.226 50.000,11.417 50.268,11.417 51.086 C 11.417 51.753,11.727 52.366,12.220 52.674 C 12.661 52.950,12.917 53.347,12.787 53.556 C 12.658 53.766,12.917 53.937,13.363 53.937 C 13.911 53.937,14.173 54.192,14.173 54.724 C 14.173 55.162,14.436 55.512,14.764 55.512 C 15.089 55.512,15.354 55.778,15.354 56.102 C 15.354 56.427,15.620 56.693,15.945 56.693 C 16.273 56.693,16.535 57.043,16.535 57.480 C 16.535 57.913,16.890 58.622,17.323 59.055 C 17.756 59.488,18.110 60.020,18.110 60.236 C 18.110 60.453,18.355 60.630,18.655 60.630 C 18.954 60.630,19.292 60.984,19.405 61.417 C 19.519 61.850,19.894 62.205,20.239 62.205 C 20.673 62.205,20.866 62.568,20.866 63.386 C 20.866 64.173,21.063 64.567,21.457 64.567 C 21.785 64.567,22.047 64.917,22.047 65.354 C 22.047 65.792,22.310 66.142,22.638 66.142 C 22.963 66.142,23.228 66.407,23.228 66.732 C 23.228 67.060,23.578 67.323,24.016 67.323 C 24.653 67.323,24.803 67.585,24.803 68.701 C 24.803 69.663,24.981 70.079,25.394 70.079 C 25.719 70.079,25.984 70.324,25.984 70.623 C 25.984 70.923,26.339 71.261,26.772 71.374 C 27.345 71.524,27.559 71.911,27.559 72.798 C 27.559 73.618,27.752 74.016,28.150 74.016 C 28.474 74.016,28.740 74.287,28.740 74.619 C 28.740 74.950,29.006 75.324,29.331 75.448 C 29.667 75.577,29.921 76.165,29.921 76.814 C 29.921 77.690,30.103 77.953,30.709 77.953 C 31.391 77.953,31.496 78.215,31.496 79.921 C 31.496 81.409,31.640 81.890,32.087 81.890 C 32.527 81.890,32.677 82.355,32.677 83.716 C 32.677 84.981,32.883 85.694,33.346 86.032 C 33.795 86.360,34.040 87.154,34.089 88.438 C 34.199 91.311,34.207 91.339,34.843 91.339 C 35.289 91.339,35.433 91.820,35.433 93.307 C 35.433 94.710,35.588 95.276,35.972 95.276 C 36.307 95.276,36.594 95.902,36.733 96.935 C 36.855 97.848,37.233 98.797,37.572 99.045 C 37.911 99.293,38.189 100.053,38.189 100.732 C 38.189 101.569,38.380 101.969,38.780 101.969 C 39.226 101.969,39.370 102.450,39.370 103.937 C 39.370 105.553,39.494 105.906,40.062 105.906 C 40.637 105.906,40.745 106.237,40.700 107.863 C 40.656 109.460,40.783 109.863,41.386 110.055 C 41.965 110.238,42.126 110.673,42.126 112.047 C 42.126 113.246,42.314 113.876,42.717 114.031 C 43.043 114.156,43.307 114.740,43.307 115.335 C 43.307 115.928,43.655 116.729,44.081 117.114 C 44.507 117.499,44.833 118.102,44.806 118.454 C 44.687 120.013,44.922 120.866,45.472 120.866 C 45.868 120.866,46.063 121.261,46.063 122.060 C 46.063 122.757,46.308 123.347,46.654 123.480 C 46.990 123.609,47.244 124.196,47.244 124.845 C 47.244 125.472,47.598 126.339,48.031 126.772 C 48.465 127.205,48.819 128.008,48.819 128.556 C 48.819 129.104,49.085 129.654,49.409 129.779 C 49.734 129.904,50.000 130.326,50.000 130.719 C 50.000 131.877,50.437 132.677,51.068 132.677 C 51.411 132.677,51.571 132.907,51.449 133.225 C 51.333 133.526,51.580 134.138,51.997 134.586 C 52.415 135.034,52.756 135.673,52.756 136.007 C 52.756 136.341,53.022 136.614,53.346 136.614 C 53.759 136.614,53.937 137.030,53.937 137.992 C 53.937 139.108,54.087 139.370,54.724 139.370 C 55.339 139.370,55.512 139.633,55.512 140.564 C 55.512 141.261,55.757 141.851,56.102 141.984 C 56.427 142.108,56.693 142.457,56.693 142.759 C 56.693 143.060,56.959 143.307,57.283 143.307 C 57.608 143.307,57.896 143.573,57.923 143.898 C 57.950 144.222,58.017 144.665,58.071 144.882 C 58.125 145.098,58.191 145.453,58.219 145.669 C 58.246 145.886,58.513 146.063,58.812 146.063 C 59.112 146.063,59.454 146.435,59.573 146.890 C 59.692 147.345,59.978 147.600,60.210 147.457 C 60.456 147.305,60.630 147.534,60.630 148.008 C 60.630 148.556,60.885 148.819,61.417 148.819 C 61.855 148.819,62.205 149.081,62.205 149.409 C 62.205 149.734,62.470 150.000,62.795 150.000 C 63.123 150.000,63.386 150.350,63.386 150.787 C 63.386 151.225,63.648 151.575,63.976 151.575 C 64.301 151.575,64.567 151.841,64.567 152.165 C 64.567 152.493,64.917 152.756,65.354 152.756 C 66.047 152.756,66.142 153.018,66.142 154.939 C 66.142 156.799,66.040 157.104,65.453 157.005 C 64.928 156.917,64.733 157.208,64.636 158.227 C 64.566 158.962,64.256 159.816,63.947 160.125 C 63.599 160.473,63.386 161.498,63.386 162.823 C 63.386 164.461,63.248 164.961,62.795 164.961 C 62.344 164.961,62.205 165.458,62.205 167.077 C 62.205 169.849,61.826 171.654,61.245 171.654 C 60.963 171.654,60.739 172.396,60.680 173.521 C 60.622 174.654,60.360 175.513,60.016 175.706 C 59.622 175.926,59.449 176.733,59.449 178.346 C 59.449 180.098,59.289 180.759,58.798 181.034 C 58.358 181.280,58.115 182.019,58.047 183.317 C 57.992 184.373,57.931 185.546,57.910 185.925 C 57.890 186.304,57.653 186.570,57.382 186.516 C 57.022 186.444,56.857 187.425,56.770 190.157 C 56.683 192.842,56.489 194.021,56.081 194.335 C 55.208 195.005,55.230 231.019,56.102 231.354 C 56.570 231.533,56.693 232.358,56.693 235.315 C 56.693 238.560,56.785 239.074,57.391 239.233 C 57.965 239.383,58.079 239.814,58.035 241.656 C 57.972 244.252,58.141 244.882,58.900 244.882 C 59.309 244.882,59.449 245.489,59.449 247.256 C 59.449 249.004,59.605 249.691,60.039 249.858 C 60.439 250.011,60.630 250.638,60.630 251.800 C 60.630 253.113,60.815 253.615,61.417 253.937 C 61.928 254.210,62.205 254.761,62.205 255.506 C 62.205 256.137,62.462 256.798,62.777 256.974 C 63.091 257.150,63.393 257.951,63.447 258.754 C 63.501 259.556,63.775 260.301,64.056 260.409 C 64.337 260.517,64.567 260.986,64.567 261.451 C 64.567 262.103,64.747 262.249,65.354 262.091 C 65.787 261.977,66.142 262.033,66.142 262.214 C 66.142 262.395,65.743 262.622,65.256 262.718 L 64.370 262.892 65.256 263.185 C 65.905 263.399,66.142 263.784,66.142 264.625 C 66.142 265.282,66.394 265.870,66.732 265.999 C 67.057 266.124,67.323 266.561,67.323 266.971 C 67.323 267.446,67.600 267.717,68.084 267.717 C 68.688 267.717,68.807 267.927,68.661 268.734 C 68.520 269.514,68.663 269.800,69.278 269.961 C 69.726 270.078,70.079 270.497,70.079 270.912 C 70.079 271.320,70.344 271.654,70.669 271.654 C 71.181 271.654,71.465 272.708,71.161 273.479 C 71.107 273.616,71.462 273.876,71.949 274.056 C 72.436 274.237,72.835 274.656,72.835 274.987 C 72.835 275.319,73.100 275.591,73.425 275.591 C 73.750 275.591,74.016 275.856,74.016 276.181 C 74.016 276.506,74.270 276.772,74.580 276.772 C 74.890 276.772,75.256 277.126,75.394 277.559 C 75.531 277.992,75.897 278.346,76.208 278.346 C 76.518 278.346,76.772 278.612,76.772 278.937 C 76.772 279.262,77.017 279.528,77.316 279.528 C 77.616 279.528,77.954 279.882,78.067 280.315 C 78.180 280.748,78.555 281.102,78.900 281.102 C 79.245 281.102,79.528 281.347,79.528 281.647 C 79.528 281.947,79.900 282.289,80.355 282.408 C 80.810 282.527,81.065 282.813,80.922 283.044 C 80.756 283.312,81.171 283.465,82.063 283.465 C 83.202 283.465,83.465 283.612,83.465 284.252 C 83.465 284.889,83.727 285.039,84.843 285.039 C 85.805 285.039,86.220 285.217,86.220 285.630 C 86.220 286.129,87.139 286.220,92.126 286.220 C 97.113 286.220,98.031 286.129,98.031 285.630 C 98.031 285.232,98.429 285.039,99.249 285.039 C 100.136 285.039,100.523 284.825,100.673 284.252 C 100.819 283.694,101.210 283.465,102.014 283.465 C 102.761 283.465,103.150 283.262,103.150 282.874 C 103.150 282.546,103.500 282.283,103.937 282.283 C 104.469 282.283,104.724 282.021,104.724 281.473 C 104.724 280.999,104.899 280.770,105.145 280.922 C 105.376 281.065,105.662 280.810,105.781 280.355 C 105.900 279.900,106.234 279.528,106.524 279.528 C 106.814 279.528,107.167 278.909,107.309 278.150 C 107.457 277.360,107.802 276.772,108.115 276.772 C 108.507 276.772,108.661 276.227,108.661 274.845 C 108.661 273.496,108.838 272.851,109.252 272.692 C 109.709 272.517,109.843 271.751,109.843 269.304 C 109.843 266.756,109.957 266.142,110.433 266.142 C 110.758 266.142,111.054 265.832,111.091 265.453 C 111.128 265.074,111.198 264.498,111.246 264.173 C 111.294 263.848,111.352 261.767,111.375 259.547 C 111.410 256.241,111.524 255.512,112.008 255.512 C 112.486 255.512,112.598 254.878,112.598 252.165 C 112.598 249.526,112.717 248.819,113.162 248.819 C 113.471 248.819,113.802 248.420,113.895 247.933 L 114.066 247.047 114.120 247.933 C 114.150 248.434,114.430 248.819,114.764 248.819 C 115.176 248.819,115.354 249.234,115.354 250.197 C 115.354 251.159,115.532 251.575,115.945 251.575 C 116.546 251.575,116.596 251.689,116.683 253.243 C 116.710 253.730,117.030 254.180,117.398 254.251 C 117.823 254.333,118.108 254.833,118.186 255.635 C 118.258 256.382,118.506 256.850,118.799 256.791 C 119.108 256.730,119.291 257.146,119.291 257.911 C 119.291 258.798,119.505 259.185,120.079 259.335 C 120.663 259.488,120.866 259.872,120.866 260.824 C 120.866 261.531,121.132 262.329,121.457 262.598 C 121.781 262.868,122.047 263.510,122.047 264.025 C 122.047 264.594,122.278 264.961,122.638 264.961 C 123.035 264.961,123.228 265.358,123.228 266.179 C 123.228 267.065,123.442 267.453,124.016 267.602 C 124.529 267.737,124.803 268.139,124.803 268.759 C 124.803 269.282,125.069 269.812,125.394 269.936 C 125.719 270.061,125.984 270.498,125.984 270.908 C 125.984 271.398,126.262 271.654,126.795 271.654 C 127.269 271.654,127.498 271.828,127.346 272.074 C 127.203 272.305,127.458 272.591,127.913 272.710 C 128.392 272.835,128.740 273.245,128.740 273.684 C 128.740 274.635,130.290 276.772,130.980 276.772 C 131.264 276.772,131.496 277.126,131.496 277.559 C 131.496 277.997,131.759 278.346,132.087 278.346 C 132.411 278.346,132.677 278.612,132.677 278.937 C 132.677 279.265,133.027 279.528,133.465 279.528 C 134.003 279.528,134.252 279.790,134.252 280.357 C 134.252 280.933,134.433 281.117,134.843 280.960 C 135.244 280.806,135.433 280.981,135.433 281.508 C 135.433 281.935,135.699 282.283,136.024 282.283 C 136.348 282.283,136.614 282.549,136.614 282.874 C 136.614 283.202,136.964 283.465,137.402 283.465 C 137.927 283.465,138.189 283.727,138.189 284.252 C 138.189 284.689,138.451 285.039,138.780 285.039 C 139.104 285.039,139.370 285.305,139.370 285.630 C 139.370 285.955,139.539 286.220,139.746 286.220 C 140.234 286.220,142.126 288.112,142.126 288.601 C 142.126 288.807,142.392 288.976,142.717 288.976 C 143.041 288.976,143.307 289.242,143.307 289.567 C 143.307 289.892,143.656 290.157,144.082 290.157 C 144.622 290.157,144.786 290.343,144.622 290.772 C 144.464 291.182,144.664 291.458,145.224 291.605 C 145.686 291.725,146.063 292.069,146.063 292.369 C 146.063 292.668,146.329 292.913,146.654 292.913 C 146.978 292.913,147.244 293.179,147.244 293.504 C 147.244 293.832,147.594 294.094,148.031 294.094 C 148.556 294.094,148.819 294.357,148.819 294.882 C 148.819 295.319,149.081 295.669,149.409 295.669 C 149.734 295.669,150.000 295.935,150.000 296.260 C 150.000 296.588,150.350 296.850,150.787 296.850 C 151.220 296.850,151.575 297.102,151.575 297.410 C 151.575 297.717,152.106 298.086,152.756 298.228 C 153.406 298.371,153.937 298.739,153.937 299.047 C 153.937 299.355,154.291 299.606,154.724 299.606 C 155.162 299.606,155.512 299.869,155.512 300.197 C 155.512 300.522,155.778 300.787,156.102 300.787 C 156.430 300.787,156.693 301.137,156.693 301.575 C 156.693 302.085,156.955 302.362,157.438 302.362 C 157.848 302.362,158.285 302.628,158.410 302.953 C 158.535 303.278,159.085 303.543,159.633 303.543 C 160.236 303.543,160.630 303.766,160.630 304.107 C 160.630 304.418,160.984 304.784,161.417 304.921 C 161.850 305.059,162.205 305.425,162.205 305.735 C 162.205 306.045,162.470 306.299,162.795 306.299 C 163.120 306.299,163.386 306.565,163.386 306.890 C 163.386 307.215,163.652 307.480,163.976 307.480 C 164.304 307.480,164.567 307.830,164.567 308.268 C 164.567 308.793,164.829 309.055,165.354 309.055 C 165.792 309.055,166.142 309.318,166.142 309.646 C 166.142 309.970,166.407 310.236,166.732 310.236 C 167.057 310.236,167.323 310.519,167.323 310.864 C 167.323 311.209,167.675 311.583,168.106 311.696 C 168.536 311.808,168.784 312.069,168.657 312.276 C 168.529 312.482,168.797 312.749,169.252 312.868 C 169.707 312.987,170.079 313.329,170.079 313.629 C 170.079 313.928,170.344 314.173,170.669 314.173 C 170.994 314.173,171.260 314.456,171.260 314.801 C 171.260 315.146,171.614 315.521,172.047 315.634 C 172.480 315.747,172.835 316.074,172.835 316.360 C 172.835 316.658,173.379 316.932,174.114 317.003 C 174.880 317.076,175.354 317.324,175.295 317.618 C 175.240 317.896,175.585 318.110,176.086 318.110 C 176.576 318.110,177.197 318.465,177.468 318.898 C 178.027 319.793,180.247 319.989,181.024 319.213 C 181.594 318.643,181.658 316.142,181.102 316.142 C 180.886 316.142,180.709 315.872,180.709 315.541 C 180.709 314.893,178.904 314.026,178.313 314.390 C 178.115 314.513,177.953 314.249,177.953 313.803 C 177.953 313.345,177.696 312.992,177.362 312.992 C 177.037 312.992,176.772 312.726,176.772 312.402 C 176.772 312.073,176.422 311.811,175.984 311.811 C 175.452 311.811,175.197 311.549,175.197 311.000 C 175.197 310.526,175.022 310.298,174.777 310.449 C 174.545 310.592,174.259 310.338,174.140 309.882 C 174.017 309.411,173.605 309.055,173.182 309.055 C 172.775 309.055,172.441 308.808,172.441 308.507 C 172.441 308.205,172.175 307.856,171.850 307.732 C 171.526 307.607,171.260 307.234,171.260 306.902 C 171.260 306.571,170.994 306.299,170.669 306.299 C 170.344 306.299,170.079 306.033,170.079 305.709 C 170.079 305.381,169.729 305.118,169.291 305.118 C 168.766 305.118,168.504 304.856,168.504 304.331 C 168.504 303.893,168.241 303.543,167.913 303.543 C 167.589 303.543,167.323 303.278,167.323 302.953 C 167.323 302.628,167.078 302.362,166.778 302.362 C 166.479 302.362,166.141 302.007,166.027 301.573 C 165.890 301.047,165.612 300.864,165.194 301.025 C 164.743 301.198,164.567 301.033,164.567 300.436 C 164.567 299.961,164.314 299.606,163.976 299.606 C 163.609 299.606,163.386 299.235,163.386 298.625 C 163.386 298.071,163.044 297.431,162.598 297.153 C 162.165 296.882,161.811 296.438,161.811 296.165 C 161.811 295.892,161.545 295.669,161.220 295.669 C 160.896 295.669,160.630 295.398,160.630 295.066 C 160.630 294.735,160.364 294.361,160.039 294.237 C 159.715 294.112,159.449 293.676,159.449 293.268 C 159.449 292.860,159.094 292.305,158.661 292.035 C 158.228 291.764,157.874 291.221,157.874 290.827 C 157.874 290.420,157.693 290.223,157.454 290.371 C 157.223 290.514,156.939 290.271,156.824 289.831 C 156.709 289.391,156.367 288.936,156.064 288.819 C 155.760 288.703,155.512 288.249,155.512 287.811 C 155.512 287.373,155.157 286.793,154.724 286.523 C 154.291 286.252,153.937 285.808,153.937 285.535 C 153.937 285.263,153.671 285.039,153.346 285.039 C 152.949 285.039,152.756 284.642,152.756 283.821 C 152.756 282.935,152.542 282.547,151.969 282.398 C 151.535 282.284,151.181 281.947,151.181 281.647 C 151.181 281.347,150.915 281.102,150.591 281.102 C 150.178 281.102,150.000 280.687,150.000 279.724 C 150.000 278.814,149.815 278.346,149.455 278.346 C 149.156 278.346,148.817 277.987,148.702 277.548 C 148.587 277.108,148.256 276.798,147.967 276.859 C 147.631 276.929,147.396 276.505,147.318 275.689 C 147.241 274.896,146.979 274.409,146.629 274.409 C 146.318 274.409,146.063 274.055,146.063 273.622 C 146.063 273.189,145.739 272.511,145.344 272.116 C 144.948 271.720,144.511 271.100,144.372 270.738 C 144.233 270.375,143.936 270.079,143.713 270.079 C 143.490 270.079,143.307 269.547,143.307 268.898 C 143.307 268.110,143.110 267.717,142.717 267.717 C 142.388 267.717,142.126 267.367,142.126 266.929 C 142.126 266.496,141.772 265.787,141.339 265.354 C 140.906 264.921,140.551 264.390,140.551 264.173 C 140.551 263.957,140.285 263.780,139.961 263.780 C 139.548 263.780,139.370 263.364,139.370 262.402 C 139.370 261.488,139.186 261.024,138.823 261.024 C 138.510 261.024,138.166 260.435,138.018 259.646 C 137.863 258.821,137.530 258.268,137.187 258.268 C 136.837 258.268,136.614 257.881,136.614 257.271 C 136.614 256.723,136.348 256.173,136.024 256.048 C 135.699 255.923,135.433 255.486,135.433 255.076 C 135.433 254.593,135.156 254.331,134.646 254.331 C 134.008 254.331,133.858 254.068,133.858 252.953 C 133.858 251.990,133.680 251.575,133.268 251.575 C 132.873 251.575,132.677 251.180,132.677 250.381 C 132.677 249.684,132.432 249.094,132.087 248.961 C 131.762 248.837,131.496 248.317,131.496 247.806 C 131.496 247.281,131.154 246.695,130.709 246.457 C 130.193 246.181,129.921 245.632,129.921 244.868 C 129.921 244.093,129.723 243.701,129.331 243.701 C 128.918 243.701,128.740 243.285,128.740 242.323 C 128.740 241.207,128.590 240.945,127.953 240.945 C 127.207 240.945,126.939 240.201,127.136 238.681 C 127.171 238.410,126.938 238.189,126.617 238.189 C 126.247 238.189,125.989 237.721,125.911 236.909 C 125.837 236.143,125.590 235.669,125.295 235.728 C 124.977 235.792,124.803 235.341,124.803 234.449 C 124.803 233.333,124.653 233.071,124.016 233.071 C 123.336 233.071,123.228 232.808,123.228 231.144 C 123.228 229.795,123.051 229.150,122.638 228.991 C 122.293 228.859,122.047 228.269,122.047 227.571 C 122.047 226.640,121.874 226.378,121.260 226.378 C 120.588 226.378,120.472 226.115,120.472 224.594 C 120.472 223.371,120.287 222.739,119.882 222.583 C 119.518 222.443,119.291 221.845,119.291 221.021 C 119.291 220.096,119.110 219.685,118.701 219.685 C 118.199 219.685,117.889 218.541,118.048 217.271 C 118.065 217.135,117.732 216.709,117.307 216.324 C 116.742 215.813,116.535 215.113,116.535 213.706 C 116.535 212.363,116.358 211.718,115.945 211.560 C 115.608 211.431,115.354 210.843,115.354 210.194 L 115.354 209.055 112.556 209.055 C 110.231 209.055,109.797 209.155,109.985 209.646 C 110.139 210.047,109.964 210.236,109.436 210.236 C 108.813 210.236,108.661 210.506,108.661 211.614 C 108.661 212.577,108.483 212.992,108.071 212.992 C 107.746 212.992,107.480 213.258,107.480 213.583 C 107.480 213.911,107.130 214.173,106.693 214.173 C 106.248 214.173,105.906 214.436,105.906 214.776 C 105.906 215.108,105.640 215.481,105.315 215.606 C 104.990 215.730,104.724 216.079,104.724 216.381 C 104.724 216.682,104.440 216.929,104.092 216.929 C 103.701 216.929,103.543 217.147,103.678 217.500 C 103.811 217.847,103.590 218.167,103.113 218.319 C 102.657 218.464,102.234 219.047,102.100 219.717 C 101.974 220.349,101.626 220.866,101.329 220.866 C 101.031 220.866,100.787 221.220,100.787 221.654 C 100.787 222.091,100.525 222.441,100.197 222.441 C 99.633 222.441,99.445 222.875,99.570 223.888 C 99.602 224.142,99.284 224.591,98.864 224.885 C 98.444 225.179,98.041 225.945,97.967 226.588 C 97.891 227.262,97.626 227.714,97.343 227.657 C 97.004 227.590,96.850 228.144,96.850 229.433 C 96.850 230.880,96.671 231.419,96.063 231.798 C 95.488 232.158,95.276 232.717,95.276 233.874 C 95.276 234.919,95.075 235.535,94.685 235.684 C 94.232 235.858,94.094 236.604,94.094 238.877 C 94.094 241.220,93.953 241.946,93.421 242.334 C 92.936 242.690,92.730 243.468,92.681 245.134 C 92.644 246.403,92.593 247.915,92.567 248.496 C 92.541 249.076,92.254 249.816,91.929 250.141 C 91.456 250.613,91.339 251.915,91.339 256.665 C 91.339 261.202,91.223 262.575,90.846 262.500 C 90.500 262.431,90.320 263.190,90.238 265.059 L 90.122 267.717 88.762 267.717 C 87.664 267.717,87.402 267.565,87.402 266.929 C 87.402 266.404,87.139 266.142,86.614 266.142 C 86.177 266.142,85.827 265.879,85.827 265.551 C 85.827 265.226,85.561 264.961,85.236 264.961 C 84.911 264.961,84.646 264.695,84.646 264.370 C 84.646 264.045,84.380 263.780,84.055 263.780 C 83.727 263.780,83.465 263.430,83.465 262.992 C 83.465 262.476,83.202 262.205,82.702 262.205 C 82.130 262.205,81.909 261.886,81.816 260.925 C 81.742 260.159,81.495 259.685,81.201 259.744 C 80.882 259.808,80.709 259.357,80.709 258.465 C 80.709 257.502,80.531 257.087,80.118 257.087 C 79.720 257.087,79.528 256.689,79.528 255.869 C 79.528 254.982,79.314 254.595,78.740 254.445 C 78.088 254.274,77.953 253.908,77.953 252.316 C 77.953 250.870,77.807 250.394,77.362 250.394 C 76.965 250.394,76.772 249.996,76.772 249.176 C 76.772 248.289,76.558 247.902,75.984 247.752 C 75.332 247.581,75.197 247.215,75.197 245.623 C 75.197 244.204,75.047 243.701,74.624 243.701 C 74.191 243.701,74.023 243.053,73.935 241.043 C 73.853 239.175,73.673 238.415,73.327 238.484 C 72.998 238.550,72.827 238.029,72.811 236.909 C 72.763 233.447,72.538 232.147,71.907 231.686 C 71.369 231.292,71.260 230.417,71.260 226.481 C 71.260 222.756,71.134 221.646,70.669 221.260 C 69.788 220.529,69.788 201.518,70.669 200.787 C 71.129 200.406,71.260 199.334,71.260 195.947 C 71.260 192.491,71.391 191.453,71.897 190.893 C 72.303 190.444,72.598 189.221,72.709 187.524 C 72.805 186.058,73.081 184.737,73.324 184.587 C 73.566 184.437,73.842 183.237,73.937 181.921 C 74.063 180.178,74.265 179.528,74.678 179.528 C 74.991 179.528,75.215 179.218,75.176 178.839 C 74.965 176.763,75.227 175.675,75.984 175.476 C 76.550 175.329,76.772 174.939,76.772 174.095 C 76.772 173.413,77.020 172.824,77.362 172.692 C 77.767 172.537,77.953 171.904,77.953 170.682 C 77.953 169.358,78.105 168.898,78.543 168.898 C 78.868 168.898,79.141 168.765,79.149 168.602 C 79.236 166.862,79.697 165.074,80.150 164.720 C 80.486 164.457,80.709 163.572,80.709 162.499 C 80.709 161.276,80.894 160.643,81.299 160.488 C 82.182 160.149,82.182 147.638,81.299 147.638 C 80.902 147.638,80.709 147.240,80.709 146.420 C 80.709 145.535,80.494 145.146,79.926 144.997 C 79.495 144.885,79.236 144.641,79.350 144.456 C 79.465 144.271,79.197 143.895,78.755 143.619 C 78.314 143.343,77.953 142.895,77.953 142.622 C 77.953 142.349,77.687 142.126,77.362 142.126 C 77.037 142.126,76.772 141.860,76.772 141.535 C 76.772 141.207,76.422 140.945,75.984 140.945 C 75.459 140.945,75.197 140.682,75.197 140.157 C 75.197 139.720,74.934 139.370,74.606 139.370 C 74.281 139.370,74.016 139.104,74.016 138.780 C 74.016 138.455,73.848 138.189,73.642 138.189 C 73.100 138.189,71.260 136.406,71.260 135.880 C 71.260 135.634,71.005 135.433,70.694 135.433 C 70.344 135.433,70.082 134.946,70.005 134.154 C 69.914 133.210,69.708 132.903,69.219 132.984 C 68.728 133.065,68.523 132.757,68.431 131.803 C 68.357 131.028,68.110 130.551,67.815 130.610 C 67.526 130.668,67.323 130.302,67.323 129.724 C 67.323 129.131,67.098 128.740,66.757 128.740 C 66.407 128.740,66.145 128.253,66.068 127.461 C 65.978 126.525,65.760 126.196,65.256 126.236 C 64.725 126.278,64.567 125.985,64.567 124.956 C 64.567 124.033,64.385 123.622,63.976 123.622 C 63.564 123.622,63.386 123.206,63.386 122.244 C 63.386 121.129,63.236 120.866,62.598 120.866 C 61.961 120.866,61.811 120.604,61.811 119.488 C 61.811 118.526,61.633 118.110,61.220 118.110 C 60.797 118.110,60.630 117.678,60.630 116.584 C 60.630 115.707,60.379 114.848,60.039 114.567 C 59.715 114.297,59.449 113.550,59.449 112.907 C 59.449 112.068,59.226 111.679,58.661 111.531 C 58.013 111.362,57.874 110.994,57.874 109.445 C 57.874 108.137,57.694 107.496,57.283 107.338 C 56.879 107.183,56.693 106.550,56.693 105.327 C 56.693 104.004,56.540 103.543,56.102 103.543 C 55.663 103.543,55.512 103.080,55.512 101.735 C 55.512 100.257,55.368 99.889,54.724 99.720 C 54.062 99.547,53.937 99.183,53.937 97.423 C 53.937 96.089,53.723 95.118,53.346 94.741 C 53.022 94.416,52.756 93.532,52.756 92.777 C 52.756 91.016,52.420 90.157,51.730 90.157 C 51.334 90.157,51.181 89.609,51.181 88.189 C 51.181 86.702,51.037 86.220,50.591 86.220 C 50.154 86.220,50.000 85.763,50.000 84.468 C 50.000 83.376,49.792 82.598,49.447 82.401 C 49.143 82.228,48.786 81.402,48.654 80.564 C 48.371 78.764,48.153 78.346,47.497 78.346 C 47.171 78.346,47.062 77.889,47.169 76.969 C 47.294 75.898,47.189 75.591,46.697 75.591 C 46.235 75.591,46.063 75.217,46.063 74.213 C 46.063 73.097,45.913 72.835,45.276 72.835 C 44.638 72.835,44.488 72.572,44.488 71.457 C 44.488 70.494,44.310 70.079,43.898 70.079 C 43.485 70.079,43.307 69.663,43.307 68.701 C 43.307 67.738,43.129 67.323,42.717 67.323 C 42.351 67.323,42.126 66.953,42.126 66.352 C 42.126 65.785,41.799 65.207,41.339 64.961 C 40.906 64.729,40.551 64.280,40.551 63.963 C 40.551 63.645,40.285 63.386,39.961 63.386 C 39.568 63.386,39.370 62.994,39.370 62.219 C 39.370 61.438,39.098 60.906,38.549 60.612 C 38.097 60.370,37.830 60.070,37.956 59.944 C 38.081 59.819,37.831 59.469,37.399 59.167 C 36.967 58.864,36.614 58.184,36.614 57.655 C 36.614 57.062,36.387 56.693,36.024 56.693 C 35.699 56.693,35.433 56.427,35.433 56.102 C 35.433 55.774,35.083 55.512,34.646 55.512 C 34.031 55.512,33.858 55.249,33.858 54.318 C 33.858 53.621,33.613 53.031,33.268 52.898 C 32.943 52.774,32.677 52.425,32.677 52.123 C 32.677 51.822,32.432 51.575,32.133 51.575 C 31.833 51.575,31.495 51.220,31.382 50.787 C 31.269 50.354,30.894 50.000,30.549 50.000 C 30.113 50.000,29.921 49.636,29.921 48.807 C 29.921 48.109,29.676 47.519,29.331 47.386 C 29.006 47.262,28.740 46.913,28.740 46.611 C 28.740 46.310,28.386 46.063,27.953 46.063 C 27.515 46.063,27.165 45.801,27.165 45.472 C 27.165 45.148,26.900 44.882,26.575 44.882 C 26.221 44.882,25.984 44.519,25.984 43.975 C 25.984 43.476,25.364 42.390,24.606 41.563 C 23.848 40.735,23.228 39.904,23.228 39.714 C 23.228 39.525,22.963 39.370,22.638 39.370 C 22.313 39.370,22.047 39.104,22.047 38.780 C 22.047 38.451,21.697 38.189,21.260 38.189 C 20.622 38.189,20.472 37.927,20.472 36.811 C 20.472 35.849,20.294 35.433,19.882 35.433 C 19.557 35.433,19.291 35.162,19.291 34.830 C 19.291 34.499,19.026 34.125,18.701 34.001 C 18.364 33.871,18.110 33.284,18.110 32.635 C 18.110 31.759,17.929 31.496,17.323 31.496 C 16.685 31.496,16.535 31.234,16.535 30.118 C 16.535 29.156,16.357 28.740,15.945 28.740 C 15.507 28.740,15.354 28.279,15.354 26.956 C 15.354 25.734,15.168 25.101,14.764 24.946 C 14.349 24.787,14.173 24.140,14.173 22.780 C 14.173 21.420,14.349 20.774,14.764 20.615 C 15.100 20.486,15.354 19.898,15.354 19.249 C 15.354 18.499,15.556 18.110,15.945 18.110 C 16.273 18.110,16.535 17.760,16.535 17.323 C 16.535 16.640,16.798 16.535,18.504 16.535 C 19.991 16.535,20.472 16.391,20.472 15.945 C 20.472 15.177,21.895 15.177,22.190 15.945 C 22.365 16.402,23.131 16.535,25.578 16.535 C 28.478 16.535,28.740 16.601,28.740 17.323 C 28.740 17.939,29.003 18.110,29.949 18.110 C 30.614 18.110,31.424 18.376,31.749 18.701 C 32.074 19.026,33.015 19.291,33.840 19.291 C 35.010 19.291,35.387 19.465,35.547 20.079 C 35.697 20.652,36.084 20.866,36.971 20.866 C 37.791 20.866,38.189 21.059,38.189 21.457 C 38.189 21.866,38.600 22.047,39.525 22.047 C 40.349 22.047,40.947 22.273,41.087 22.638 C 41.236 23.025,41.850 23.228,42.874 23.228 C 44.089 23.228,44.490 23.403,44.685 24.016 C 44.860 24.567,45.281 24.803,46.090 24.803 C 46.853 24.803,47.244 25.003,47.244 25.394 C 47.244 25.806,47.660 25.984,48.622 25.984 C 49.584 25.984,50.000 26.162,50.000 26.575 C 50.000 26.987,50.416 27.165,51.378 27.165 C 52.493 27.165,52.756 27.315,52.756 27.953 C 52.756 28.463,53.018 28.740,53.501 28.740 C 53.911 28.740,54.348 29.006,54.473 29.331 C 54.598 29.656,55.128 29.921,55.650 29.921 C 56.270 29.921,56.673 30.195,56.807 30.709 C 56.957 31.282,57.344 31.496,58.231 31.496 C 59.051 31.496,59.449 31.689,59.449 32.087 C 59.449 32.411,59.715 32.677,60.039 32.677 C 60.364 32.677,60.630 32.943,60.630 33.268 C 60.630 33.593,60.964 33.858,61.371 33.858 C 61.782 33.858,62.205 34.210,62.319 34.646 C 62.458 35.178,62.856 35.433,63.546 35.433 C 64.191 35.433,64.567 35.650,64.567 36.024 C 64.567 36.352,64.917 36.614,65.354 36.614 C 65.879 36.614,66.142 36.877,66.142 37.402 C 66.142 37.839,66.404 38.189,66.732 38.189 C 67.057 38.189,67.323 38.455,67.323 38.780 C 67.323 39.104,67.570 39.370,67.871 39.370 C 68.173 39.370,68.522 39.636,68.646 39.961 C 68.776 40.299,69.364 40.551,70.020 40.551 C 70.837 40.551,71.227 40.778,71.374 41.339 C 71.565 42.068,71.911 42.126,76.102 42.126 C 79.759 42.126,80.668 42.239,80.851 42.717 C 81.044 43.218,82.470 43.307,90.342 43.307 C 98.314 43.307,99.606 43.389,99.606 43.898 C 99.606 44.228,99.997 44.518,100.492 44.556 C 102.873 44.737,103.843 44.798,105.020 44.838 C 105.816 44.865,106.262 45.068,106.201 45.374 C 106.135 45.701,106.739 45.907,107.993 45.987 C 109.190 46.063,109.965 46.317,110.102 46.676 C 110.251 47.064,110.931 47.244,112.247 47.244 C 113.911 47.244,114.173 47.351,114.173 48.031 C 114.173 48.637,114.436 48.819,115.312 48.819 C 115.961 48.819,116.549 49.073,116.678 49.409 C 116.809 49.752,117.398 50.000,118.078 50.000 C 118.734 50.000,119.404 50.272,119.597 50.616 C 119.805 50.987,120.555 51.261,121.487 51.305 C 122.540 51.355,123.121 51.597,123.314 52.067 C 123.496 52.509,124.024 52.756,124.790 52.756 C 125.589 52.756,125.984 52.951,125.984 53.346 C 125.984 53.759,126.400 53.937,127.362 53.937 C 128.478 53.937,128.740 54.087,128.740 54.724 C 128.740 55.362,129.003 55.512,130.118 55.512 C 131.053 55.512,131.496 55.693,131.496 56.077 C 131.496 56.428,131.983 56.690,132.776 56.766 C 133.542 56.840,134.016 57.087,133.957 57.382 C 133.903 57.653,134.192 57.874,134.600 57.874 C 135.010 57.874,135.433 58.226,135.547 58.661 C 135.697 59.235,136.084 59.449,136.971 59.449 C 137.791 59.449,138.189 59.642,138.189 60.039 C 138.189 60.437,138.587 60.630,139.407 60.630 C 140.294 60.630,140.681 60.844,140.831 61.417 C 140.944 61.850,141.263 62.205,141.539 62.205 C 141.816 62.205,142.144 62.470,142.268 62.795 C 142.393 63.120,142.949 63.386,143.504 63.386 C 144.059 63.386,144.615 63.652,144.740 63.976 C 144.869 64.313,145.456 64.567,146.105 64.567 C 146.982 64.567,147.244 64.748,147.244 65.354 C 147.244 65.879,147.507 66.142,148.031 66.142 C 148.465 66.142,148.819 66.396,148.819 66.707 C 148.819 67.058,149.306 67.320,150.098 67.396 C 150.915 67.475,151.338 67.710,151.268 68.046 C 151.208 68.335,151.518 68.666,151.957 68.781 C 152.396 68.895,152.756 69.235,152.756 69.534 C 152.756 69.845,153.157 70.079,153.692 70.079 C 154.207 70.079,154.849 70.344,155.118 70.669 C 155.388 70.994,155.852 71.260,156.151 71.260 C 156.449 71.260,156.693 71.614,156.693 72.047 C 156.693 72.480,156.940 72.835,157.241 72.835 C 157.543 72.835,157.892 73.100,158.016 73.425 C 158.149 73.770,158.739 74.016,159.436 74.016 C 160.210 74.016,160.630 74.214,160.630 74.580 C 160.630 74.890,160.984 75.256,161.417 75.394 C 161.850 75.531,162.205 75.897,162.205 76.208 C 162.205 76.518,162.470 76.772,162.795 76.772 C 163.120 76.772,163.386 77.037,163.386 77.362 C 163.386 77.690,163.736 77.953,164.173 77.953 C 164.606 77.953,164.961 78.204,164.961 78.512 C 164.961 78.820,165.492 79.188,166.142 79.331 C 166.791 79.473,167.323 79.842,167.323 80.149 C 167.323 80.457,167.672 80.709,168.098 80.709 C 168.625 80.709,168.800 80.898,168.646 81.299 C 168.489 81.709,168.674 81.890,169.249 81.890 C 169.816 81.890,170.079 82.139,170.079 82.677 C 170.079 83.110,170.326 83.465,170.627 83.465 C 170.929 83.465,171.278 83.730,171.402 84.055 C 171.527 84.380,171.989 84.646,172.429 84.646 C 172.868 84.646,173.184 84.858,173.130 85.119 C 173.076 85.379,173.578 85.777,174.246 86.004 C 174.929 86.237,175.388 86.633,175.296 86.909 C 175.199 87.198,175.470 87.402,175.951 87.402 C 176.418 87.402,176.772 87.656,176.772 87.992 C 176.772 88.317,177.037 88.583,177.362 88.583 C 177.690 88.583,177.953 88.933,177.953 89.370 C 177.953 89.895,178.215 90.157,178.740 90.157 C 179.178 90.157,179.528 90.420,179.528 90.748 C 179.528 91.073,179.793 91.339,180.118 91.339 C 180.443 91.339,180.709 91.610,180.709 91.941 C 180.709 92.273,180.974 92.646,181.299 92.771 C 181.624 92.896,181.890 93.244,181.890 93.546 C 181.890 93.848,182.244 94.094,182.677 94.094 C 183.115 94.094,183.465 94.357,183.465 94.685 C 183.465 95.010,183.730 95.276,184.055 95.276 C 184.383 95.276,184.646 95.626,184.646 96.063 C 184.646 96.496,184.892 96.850,185.194 96.850 C 185.496 96.850,185.845 97.116,185.969 97.441 C 186.094 97.766,186.446 98.031,186.753 98.031 C 187.059 98.031,187.407 98.404,187.526 98.859 C 187.645 99.314,187.931 99.569,188.162 99.426 C 188.408 99.274,188.583 99.503,188.583 99.977 C 188.583 100.525,188.838 100.787,189.370 100.787 C 189.808 100.787,190.157 101.050,190.157 101.378 C 190.157 101.703,190.423 101.969,190.748 101.969 C 191.073 101.969,191.339 102.302,191.339 102.710 C 191.339 103.132,191.695 103.545,192.166 103.668 C 192.621 103.787,192.876 104.073,192.733 104.304 C 192.581 104.550,192.810 104.724,193.284 104.724 C 193.742 104.724,194.094 104.981,194.094 105.315 C 194.094 105.640,194.360 105.906,194.685 105.906 C 195.010 105.906,195.276 106.245,195.276 106.661 C 195.276 107.834,195.700 108.661,196.302 108.661 C 196.604 108.661,196.850 108.908,196.850 109.210 C 196.850 109.511,197.116 109.860,197.441 109.985 C 197.766 110.110,198.031 110.462,198.031 110.768 C 198.031 111.075,198.404 111.423,198.859 111.542 C 199.314 111.661,199.569 111.947,199.426 112.178 C 199.274 112.424,199.503 112.598,199.977 112.598 C 200.525 112.598,200.787 112.853,200.787 113.386 C 200.787 113.823,201.050 114.173,201.378 114.173 C 201.703 114.173,201.969 114.427,201.969 114.737 C 201.969 115.047,202.319 115.413,202.748 115.549 C 203.177 115.685,203.510 115.918,203.489 116.067 C 203.333 117.160,203.633 118.110,204.134 118.110 C 204.459 118.110,204.724 118.376,204.724 118.701 C 204.724 119.026,204.990 119.291,205.315 119.291 C 205.643 119.291,205.906 119.641,205.906 120.079 C 205.906 120.604,206.168 120.866,206.693 120.866 C 207.305 120.866,207.480 121.129,207.480 122.047 C 207.480 122.835,207.677 123.228,208.071 123.228 C 208.396 123.228,208.661 123.562,208.661 123.970 C 208.661 124.392,209.018 124.804,209.488 124.928 C 209.944 125.047,210.199 125.333,210.056 125.564 C 209.904 125.810,210.132 125.984,210.607 125.984 C 211.271 125.984,211.417 126.234,211.417 127.362 C 211.417 128.273,211.602 128.740,211.962 128.740 C 212.262 128.740,212.605 129.117,212.726 129.579 C 212.872 130.139,213.149 130.339,213.559 130.182 C 214.043 129.996,214.173 130.236,214.173 131.312 C 214.173 132.263,214.352 132.677,214.764 132.677 C 215.089 132.677,215.354 133.011,215.354 133.419 C 215.354 133.840,215.710 134.253,216.177 134.375 C 216.810 134.541,216.938 134.785,216.732 135.433 C 216.526 136.081,216.655 136.325,217.288 136.491 C 217.755 136.613,218.110 137.027,218.110 137.447 C 218.110 137.855,218.376 138.189,218.701 138.189 C 219.026 138.189,219.291 138.529,219.291 138.944 C 219.291 140.118,219.716 140.945,220.318 140.945 C 220.665 140.945,220.866 141.379,220.866 142.126 C 220.866 142.913,221.063 143.307,221.457 143.307 C 221.785 143.307,222.047 143.657,222.047 144.094 C 222.047 144.532,222.310 144.882,222.638 144.882 C 223.031 144.882,223.228 145.276,223.228 146.063 C 223.228 147.119,223.563 147.440,224.508 147.291 C 224.670 147.265,224.803 147.864,224.803 148.622 C 224.803 149.584,224.981 150.000,225.394 150.000 C 225.791 150.000,225.984 150.398,225.984 151.218 C 225.984 152.116,226.197 152.492,226.794 152.648 C 227.269 152.772,227.519 153.079,227.399 153.392 C 227.287 153.685,227.542 154.111,227.967 154.339 C 228.462 154.603,228.740 155.162,228.740 155.891 C 228.740 156.518,228.984 157.275,229.283 157.573 C 229.581 157.871,229.950 158.681,230.101 159.373 C 230.254 160.067,230.628 160.630,230.937 160.630 C 231.313 160.630,231.496 161.080,231.496 162.008 C 231.496 162.970,231.674 163.386,232.087 163.386 C 232.533 163.386,232.677 163.867,232.677 165.354 C 232.677 166.842,232.822 167.323,233.268 167.323 C 233.593 167.323,233.881 167.544,233.909 167.815 C 233.936 168.086,234.001 168.710,234.052 169.201 C 234.103 169.693,234.435 170.416,234.789 170.807 C 235.143 171.199,235.433 172.081,235.433 172.767 C 235.433 173.615,235.623 174.016,236.024 174.016 C 236.436 174.016,236.614 174.431,236.614 175.394 C 236.614 176.509,236.764 176.772,237.402 176.772 C 238.034 176.772,238.189 177.034,238.189 178.107 C 238.189 178.932,238.415 179.530,238.780 179.670 C 239.143 179.809,239.370 180.407,239.370 181.226 C 239.370 182.055,239.666 182.823,240.157 183.268 C 240.591 183.660,240.945 184.401,240.945 184.916 C 240.945 185.430,241.211 185.953,241.535 186.078 C 241.865 186.205,242.126 186.790,242.126 187.402 C 242.126 188.013,242.387 188.599,242.717 188.725 C 243.062 188.858,243.307 189.447,243.307 190.145 C 243.307 191.088,243.477 191.339,244.119 191.339 C 244.657 191.339,244.908 191.571,244.861 192.028 C 244.715 193.464,244.901 194.094,245.472 194.094 C 245.885 194.094,246.063 194.510,246.063 195.472 C 246.063 196.435,246.241 196.850,246.654 196.850 C 247.051 196.850,247.244 197.248,247.244 198.068 C 247.244 198.955,247.458 199.342,248.031 199.492 C 248.617 199.645,248.819 200.029,248.819 200.988 C 248.819 201.771,249.051 202.367,249.409 202.505 C 249.734 202.629,250.000 203.156,250.000 203.675 C 250.000 204.194,250.358 205.074,250.796 205.630 C 251.234 206.187,251.567 206.786,251.537 206.963 C 251.372 207.923,251.645 208.661,252.165 208.661 C 252.578 208.661,252.756 209.077,252.756 210.039 C 252.756 211.002,252.934 211.417,253.346 211.417 C 253.857 211.417,254.177 212.653,253.984 213.878 C 253.958 214.040,254.291 214.173,254.724 214.173 C 255.362 214.173,255.512 214.436,255.512 215.551 C 255.512 216.514,255.690 216.929,256.102 216.929 C 256.520 216.929,256.693 217.352,256.693 218.375 C 256.693 219.169,256.983 220.140,257.337 220.531 C 257.691 220.923,258.023 221.645,258.074 222.137 C 258.225 223.590,258.242 223.622,258.858 223.622 C 259.247 223.622,259.449 224.011,259.449 224.761 C 259.449 225.410,259.703 225.997,260.039 226.127 C 260.364 226.251,260.630 226.762,260.630 227.262 C 260.630 227.762,260.984 228.475,261.417 228.846 C 261.850 229.216,262.205 229.964,262.205 230.508 C 262.205 231.124,262.427 231.496,262.795 231.496 C 263.204 231.496,263.386 231.907,263.386 232.832 C 263.386 233.656,263.612 234.255,263.976 234.394 C 264.301 234.519,264.567 235.086,264.567 235.654 C 264.567 236.357,264.819 236.754,265.354 236.894 C 265.912 237.040,266.142 237.431,266.142 238.235 C 266.142 238.981,266.344 239.370,266.732 239.370 C 267.141 239.370,267.323 239.781,267.323 240.702 C 267.323 241.647,267.526 242.087,268.022 242.217 C 268.414 242.320,268.752 242.811,268.792 243.338 C 268.831 243.854,269.136 244.476,269.471 244.721 C 269.805 244.965,270.079 245.367,270.079 245.614 C 270.079 245.861,270.344 246.063,270.669 246.063 C 271.067 246.063,271.260 246.461,271.260 247.281 C 271.260 248.148,271.476 248.555,272.011 248.695 C 272.424 248.803,272.855 249.247,272.969 249.682 C 273.082 250.117,273.364 250.356,273.596 250.213 C 273.841 250.061,274.016 250.290,274.016 250.764 C 274.016 251.230,274.272 251.575,274.619 251.575 C 274.950 251.575,275.324 251.841,275.448 252.165 C 275.573 252.490,275.922 252.756,276.223 252.756 C 276.525 252.756,276.772 253.110,276.772 253.543 C 276.772 253.981,277.034 254.331,277.362 254.331 C 277.687 254.331,277.953 254.596,277.953 254.921 C 277.953 255.330,278.363 255.512,279.285 255.512 C 280.302 255.512,280.667 255.705,280.830 256.329 C 280.960 256.823,281.328 257.116,281.762 257.071 C 283.061 256.935,283.465 257.079,283.465 257.677 C 283.465 258.123,283.946 258.268,285.433 258.268 C 286.920 258.268,287.402 258.412,287.402 258.858 C 287.402 259.303,287.878 259.449,289.324 259.449 C 290.946 259.449,291.281 259.578,291.463 260.276 C 291.591 260.765,291.862 260.990,292.126 260.827 C 292.372 260.675,292.475 260.293,292.354 259.979 C 292.224 259.640,292.304 259.512,292.551 259.665 C 292.780 259.806,292.872 260.170,292.756 260.473 C 292.599 260.880,292.904 261.024,293.922 261.024 C 294.784 261.024,295.385 261.245,295.527 261.614 C 295.686 262.028,296.331 262.205,297.680 262.205 C 299.130 262.205,299.606 262.351,299.606 262.795 C 299.606 263.241,300.087 263.386,301.575 263.386 C 303.281 263.386,303.543 263.491,303.543 264.173 C 303.543 264.856,303.806 264.961,305.512 264.961 C 306.999 264.961,307.480 265.105,307.480 265.551 C 307.480 265.964,307.896 266.142,308.858 266.142 C 309.769 266.142,310.236 266.326,310.236 266.686 C 310.236 267.283,311.405 267.703,313.091 267.711 C 313.788 267.715,314.173 267.927,314.173 268.307 C 314.173 268.753,314.654 268.898,316.142 268.898 C 317.629 268.898,318.110 269.042,318.110 269.488 C 318.110 269.901,318.526 270.079,319.488 270.079 C 320.604 270.079,320.866 270.229,320.866 270.866 C 320.866 271.311,321.129 271.654,321.469 271.654 C 321.801 271.654,322.174 271.919,322.299 272.244 C 322.425 272.573,323.010 272.835,323.618 272.835 C 324.380 272.835,324.774 273.073,324.917 273.622 C 325.068 274.199,325.454 274.409,326.364 274.409 C 327.144 274.409,327.509 274.566,327.346 274.830 C 327.203 275.061,327.458 275.347,327.913 275.466 C 328.368 275.585,328.740 275.927,328.740 276.227 C 328.740 276.587,329.207 276.772,330.118 276.772 C 331.234 276.772,331.496 276.922,331.496 277.559 C 331.496 277.997,331.759 278.346,332.087 278.346 C 332.411 278.346,332.677 278.612,332.677 278.937 C 332.677 279.262,332.943 279.528,333.268 279.528 C 333.593 279.528,334.213 279.882,334.646 280.315 C 335.079 280.748,335.699 281.102,336.024 281.102 C 336.348 281.102,336.614 281.368,336.614 281.693 C 336.614 282.018,336.950 282.283,337.359 282.283 C 337.769 282.283,338.207 282.549,338.331 282.874 C 338.464 283.219,339.054 283.465,339.751 283.465 C 340.408 283.465,340.924 283.597,340.898 283.760 C 340.770 284.572,341.003 285.039,341.535 285.039 C 341.860 285.039,342.126 285.305,342.126 285.630 C 342.126 286.061,342.577 286.222,343.799 286.227 C 344.719 286.230,345.260 286.367,345.001 286.532 C 344.718 286.712,344.661 287.044,344.859 287.364 C 345.040 287.657,345.385 287.774,345.625 287.626 C 345.892 287.461,346.063 287.671,346.063 288.166 C 346.063 288.714,346.318 288.976,346.850 288.976 C 347.288 288.976,347.638 289.239,347.638 289.567 C 347.638 289.961,348.031 290.157,348.819 290.157 C 349.617 290.157,350.000 290.353,350.000 290.760 C 350.000 291.092,350.310 291.481,350.689 291.624 C 351.068 291.768,351.612 292.116,351.898 292.399 C 352.184 292.682,352.760 292.913,353.178 292.913 C 353.595 292.913,353.937 293.179,353.937 293.504 C 353.937 293.916,354.353 294.094,355.315 294.094 C 356.430 294.094,356.693 294.244,356.693 294.882 C 356.693 295.407,356.955 295.669,357.480 295.669 C 357.913 295.669,358.223 295.891,358.169 296.161 C 358.111 296.453,358.575 296.703,359.310 296.774 C 360.145 296.855,360.615 297.144,360.750 297.660 C 360.860 298.081,361.232 298.425,361.577 298.425 C 361.922 298.425,362.205 298.691,362.205 299.016 C 362.205 299.341,362.470 299.606,362.795 299.606 C 363.120 299.606,363.386 299.872,363.386 300.197 C 363.386 300.522,363.631 300.787,363.930 300.787 C 364.230 300.787,364.568 301.142,364.681 301.575 C 364.883 302.347,364.693 302.362,354.510 302.362 C 345.900 302.362,344.080 302.458,343.817 302.928 C 343.580 303.351,342.519 303.513,339.599 303.572 C 335.098 303.663,334.252 303.821,334.252 304.573 C 334.252 304.985,333.580 305.118,331.496 305.118 C 329.309 305.118,328.740 305.240,328.740 305.709 C 328.740 306.173,328.195 306.299,326.195 306.299 C 324.108 306.299,323.579 306.432,323.254 307.039 C 322.951 307.606,322.492 307.753,321.285 307.671 C 320.031 307.586,319.663 307.716,319.475 308.310 C 319.285 308.908,318.856 309.055,317.296 309.055 C 315.833 309.055,315.354 309.201,315.354 309.646 C 315.354 310.166,313.491 310.521,312.072 310.272 C 311.891 310.240,311.649 310.573,311.534 311.012 C 311.360 311.677,311.003 311.811,309.403 311.811 C 307.956 311.811,307.480 311.957,307.480 312.402 C 307.480 312.814,307.065 312.992,306.102 312.992 C 305.187 312.992,304.724 313.176,304.724 313.541 C 304.724 313.842,304.440 314.198,304.093 314.331 C 303.733 314.470,303.558 314.826,303.687 315.161 C 303.811 315.484,303.784 315.748,303.628 315.748 C 303.395 315.748,303.338 317.965,303.508 320.374 C 303.528 320.645,303.809 320.866,304.134 320.866 C 304.546 320.866,304.724 321.282,304.724 322.244 C 304.724 323.206,304.903 323.622,305.315 323.622 C 305.725 323.622,305.906 324.034,305.906 324.968 C 305.906 326.702,306.245 327.559,306.932 327.559 C 307.234 327.559,307.480 327.913,307.480 328.346 C 307.480 328.784,307.743 329.134,308.071 329.134 C 308.465 329.134,308.661 329.528,308.661 330.315 C 308.661 331.254,308.832 331.496,309.491 331.496 C 310.088 331.496,310.253 331.672,310.080 332.123 C 309.919 332.541,310.102 332.819,310.628 332.956 C 311.188 333.103,311.417 333.493,311.417 334.298 C 311.417 335.002,311.624 335.433,311.962 335.433 C 312.262 335.433,312.599 335.787,312.712 336.220 C 312.826 336.654,313.201 337.008,313.546 337.008 C 313.891 337.008,314.173 337.274,314.173 337.598 C 314.173 337.923,314.439 338.189,314.764 338.189 C 315.092 338.189,315.354 338.539,315.354 338.976 C 315.354 339.515,315.617 339.764,316.184 339.764 C 316.759 339.764,316.944 339.945,316.787 340.354 C 316.633 340.756,316.808 340.945,317.335 340.945 C 317.762 340.945,318.110 341.210,318.110 341.535 C 318.110 341.860,318.376 342.126,318.701 342.126 C 319.029 342.126,319.291 342.476,319.291 342.913 C 319.291 343.438,319.554 343.701,320.079 343.701 C 320.516 343.701,320.866 343.963,320.866 344.291 C 320.866 344.616,321.111 344.882,321.411 344.882 C 321.710 344.882,322.048 345.236,322.161 345.669 C 322.311 346.243,322.698 346.457,323.585 346.457 C 324.405 346.457,324.803 346.650,324.803 347.047 C 324.803 347.372,325.069 347.638,325.394 347.638 C 325.719 347.638,325.984 347.883,325.984 348.182 C 325.984 348.482,326.339 348.820,326.772 348.933 C 327.205 349.046,327.559 349.421,327.559 349.766 C 327.559 350.201,327.922 350.394,328.740 350.394 C 329.528 350.394,329.921 350.591,329.921 350.984 C 329.921 351.309,330.255 351.575,330.663 351.575 C 331.085 351.575,331.497 351.931,331.620 352.402 C 331.739 352.857,332.006 353.124,332.212 352.997 C 332.419 352.869,332.680 353.117,332.792 353.548 C 332.941 354.116,333.331 354.331,334.215 354.331 C 334.990 354.331,335.433 354.529,335.433 354.875 C 335.433 355.175,335.792 355.514,336.232 355.629 C 336.671 355.744,336.981 356.074,336.921 356.364 C 336.851 356.699,337.274 356.934,338.091 357.013 C 338.883 357.090,339.370 357.352,339.370 357.702 C 339.370 358.013,339.724 358.268,340.157 358.268 C 340.591 358.268,340.945 358.519,340.945 358.827 C 340.945 359.135,341.462 359.500,342.093 359.638 C 342.725 359.777,343.339 360.146,343.459 360.457 C 343.582 360.778,344.194 361.024,344.870 361.024 C 345.668 361.024,346.063 361.219,346.063 361.614 C 346.063 362.023,346.473 362.205,347.395 362.205 C 348.402 362.205,348.778 362.399,348.936 363.003 C 349.051 363.443,349.293 363.776,349.474 363.744 C 350.559 363.553,351.575 363.856,351.575 364.370 C 351.575 364.783,351.990 364.961,352.953 364.961 C 353.896 364.961,354.331 365.141,354.331 365.533 C 354.331 366.168,356.754 366.787,357.481 366.338 C 357.744 366.176,358.016 366.402,358.143 366.890 C 358.297 367.479,358.673 367.717,359.453 367.717 C 360.061 367.717,360.646 367.978,360.772 368.307 C 360.902 368.645,361.490 368.898,362.146 368.898 C 362.963 368.898,363.353 369.125,363.500 369.685 C 363.650 370.258,364.037 370.472,364.924 370.472 C 365.744 370.472,366.142 370.665,366.142 371.063 C 366.142 371.474,366.556 371.654,367.507 371.654 C 368.559 371.654,368.821 371.789,368.646 372.244 C 368.489 372.654,368.674 372.835,369.249 372.835 C 369.705 372.835,370.079 373.081,370.079 373.383 C 370.079 373.985,370.906 374.409,372.079 374.409 C 372.495 374.409,372.835 374.675,372.835 375.000 C 372.835 375.391,373.225 375.591,373.989 375.591 C 374.798 375.591,375.219 375.826,375.394 376.378 C 375.531 376.811,375.897 377.165,376.208 377.165 C 376.518 377.165,376.772 377.452,376.772 377.802 C 376.772 378.269,377.034 378.388,377.759 378.249 C 378.498 378.108,378.648 378.180,378.353 378.535 C 377.819 379.179,378.255 379.528,379.593 379.528 C 380.587 379.528,380.903 379.875,380.755 380.807 C 380.730 380.969,380.974 381.102,381.299 381.102 C 381.624 381.102,381.890 381.368,381.890 381.693 C 381.890 382.021,382.240 382.283,382.677 382.283 C 383.110 382.283,383.465 382.535,383.465 382.843 C 383.465 383.150,383.981 383.515,384.613 383.654 C 385.244 383.793,385.859 384.161,385.978 384.473 C 386.098 384.784,386.467 385.039,386.799 385.039 C 387.130 385.039,387.402 385.305,387.402 385.630 C 387.402 386.042,387.817 386.220,388.780 386.220 C 389.895 386.220,390.157 386.370,390.157 387.008 C 390.157 387.445,390.420 387.795,390.748 387.795 C 391.073 387.795,391.339 388.040,391.339 388.340 C 391.339 388.639,391.698 388.979,392.137 389.093 C 392.577 389.208,392.887 389.539,392.826 389.828 C 392.765 390.123,393.020 390.330,393.406 390.300 C 393.838 390.265,394.094 390.522,394.094 390.989 C 394.094 391.398,394.341 391.732,394.643 391.732 C 394.945 391.732,395.293 391.998,395.418 392.323 C 395.543 392.648,395.916 392.913,396.247 392.913 C 396.579 392.913,396.850 393.091,396.850 393.307 C 396.850 393.524,397.559 393.701,398.425 393.701 L 400.000 393.701 400.000 391.732 C 400.000 390.423,399.835 389.762,399.508 389.758 C 399.180 389.754,399.213 389.625,399.606 389.370 C 400.000 389.116,400.033 388.986,399.705 388.982 C 399.377 388.978,399.213 388.317,399.213 387.008 C 399.213 385.643,399.062 385.070,398.720 385.138 C 398.443 385.193,398.174 384.760,398.103 384.144 C 397.980 383.073,396.392 381.102,395.651 381.102 C 395.445 381.102,395.276 380.934,395.276 380.729 C 395.276 380.187,393.492 378.346,392.967 378.346 C 392.721 378.346,392.520 378.081,392.520 377.756 C 392.520 377.431,392.254 377.165,391.929 377.165 C 391.604 377.165,391.339 376.912,391.339 376.601 C 391.339 376.291,390.984 375.925,390.551 375.787 C 390.118 375.650,389.764 375.284,389.764 374.973 C 389.764 374.663,389.498 374.409,389.173 374.409 C 388.848 374.409,388.583 374.144,388.583 373.819 C 388.583 373.494,388.317 373.228,387.992 373.228 C 387.664 373.228,387.402 372.878,387.402 372.441 C 387.402 371.916,387.139 371.654,386.614 371.654 C 386.177 371.654,385.827 371.391,385.827 371.063 C 385.827 370.738,385.561 370.472,385.236 370.472 C 384.911 370.472,384.646 370.131,384.646 369.713 C 384.646 369.296,384.414 368.720,384.132 368.434 C 383.849 368.147,383.500 367.603,383.356 367.224 C 383.213 366.845,382.824 366.535,382.493 366.535 C 382.152 366.535,381.890 366.193,381.890 365.748 C 381.890 365.311,381.627 364.961,381.299 364.961 C 380.974 364.961,380.709 364.695,380.709 364.370 C 380.709 364.042,380.359 363.780,379.921 363.780 C 379.488 363.780,379.155 363.647,379.180 363.484 C 379.313 362.643,379.072 362.253,378.543 362.456 C 378.134 362.613,377.953 362.429,377.953 361.853 C 377.953 361.378,377.700 361.024,377.362 361.024 C 377.037 361.024,376.772 360.758,376.772 360.433 C 376.772 360.105,376.422 359.843,375.984 359.843 C 375.459 359.843,375.197 359.580,375.197 359.055 C 375.197 358.618,374.934 358.268,374.606 358.268 C 374.281 358.268,374.016 358.002,374.016 357.677 C 374.016 357.352,373.781 357.087,373.494 357.087 C 373.206 357.087,372.455 356.467,371.823 355.709 C 371.019 354.745,370.347 354.331,369.589 354.331 C 368.887 354.331,368.504 354.122,368.504 353.740 C 368.504 353.415,368.238 353.150,367.913 353.150 C 367.585 353.150,367.323 352.800,367.323 352.362 C 367.323 351.929,367.076 351.575,366.774 351.575 C 366.473 351.575,366.124 351.309,365.999 350.984 C 365.875 350.659,365.501 350.394,365.170 350.394 C 364.838 350.394,364.567 350.128,364.567 349.803 C 364.567 349.249,363.875 349.026,362.666 349.190 C 362.379 349.229,362.048 348.896,361.931 348.449 C 361.815 348.003,361.474 347.638,361.175 347.638 C 360.875 347.638,360.630 347.372,360.630 347.047 C 360.630 346.722,360.407 346.457,360.134 346.457 C 359.861 346.457,359.417 346.102,359.146 345.669 C 358.868 345.224,358.228 344.882,357.674 344.882 C 357.064 344.882,356.693 344.658,356.693 344.291 C 356.693 343.879,356.277 343.701,355.315 343.701 C 354.353 343.701,353.937 343.523,353.937 343.110 C 353.937 342.785,353.677 342.520,353.360 342.520 C 353.043 342.520,352.594 342.165,352.362 341.732 C 352.116 341.272,351.538 340.945,350.970 340.945 C 350.370 340.945,350.000 340.720,350.000 340.354 C 350.000 339.942,349.584 339.764,348.622 339.764 C 347.493 339.764,347.244 339.617,347.244 338.953 C 347.244 338.507,347.080 338.244,346.880 338.368 C 346.438 338.641,344.488 337.802,344.488 337.338 C 344.488 337.157,344.222 337.008,343.898 337.008 C 343.573 337.008,343.307 336.742,343.307 336.417 C 343.307 336.005,342.892 335.827,341.929 335.827 C 340.814 335.827,340.551 335.677,340.551 335.039 C 340.551 334.602,340.289 334.252,339.961 334.252 C 339.636 334.252,339.370 333.986,339.370 333.661 C 339.370 333.337,339.104 333.071,338.780 333.071 C 338.455 333.071,337.821 332.703,337.371 332.253 C 336.921 331.803,336.301 331.532,335.993 331.650 C 335.626 331.791,335.433 331.598,335.433 331.090 C 335.433 330.577,335.166 330.315,334.646 330.315 C 334.208 330.315,333.858 330.052,333.858 329.724 C 333.858 329.400,333.593 329.134,333.268 329.134 C 332.940 329.134,332.677 328.784,332.677 328.346 C 332.677 327.913,332.425 327.559,332.118 327.559 C 331.810 327.559,331.444 327.038,331.304 326.402 C 331.165 325.765,330.752 325.166,330.387 325.070 C 330.023 324.973,330.306 324.874,331.016 324.849 C 331.768 324.822,332.403 324.556,332.535 324.213 C 332.704 323.772,333.406 323.622,335.291 323.622 C 337.176 323.622,337.878 323.472,338.047 323.031 C 338.205 322.620,338.847 322.441,340.167 322.441 C 342.431 322.441,343.307 322.154,343.307 321.415 C 343.307 321.019,343.855 320.866,345.276 320.866 C 346.763 320.866,347.244 320.722,347.244 320.276 C 347.244 319.790,347.939 319.685,351.135 319.685 C 354.695 319.685,355.044 319.618,355.232 318.898 C 355.426 318.156,355.769 318.110,361.196 318.110 C 365.951 318.110,366.993 318.007,367.180 317.520 C 367.356 317.063,368.117 316.929,370.527 316.929 C 372.937 316.929,373.698 316.795,373.873 316.339 C 374.032 315.925,374.677 315.748,376.026 315.748 C 377.690 315.748,377.953 315.641,377.953 314.961 C 377.953 314.255,378.215 314.173,380.492 314.173 C 382.285 314.173,383.124 314.008,383.347 313.610 C 383.527 313.288,384.419 312.993,385.433 312.921 L 387.205 312.795 387.319 309.547 C 387.426 306.503,387.383 306.299,386.630 306.299 C 386.178 306.299,385.827 306.041,385.827 305.709 C 385.827 305.384,385.561 305.118,385.236 305.118 C 384.841 305.118,384.646 304.723,384.646 303.925 C 384.646 303.227,384.400 302.637,384.055 302.505 C 383.730 302.380,383.465 302.043,383.465 301.756 C 383.465 301.469,383.110 301.122,382.677 300.984 C 382.244 300.847,381.890 300.481,381.890 300.170 C 381.890 299.860,381.624 299.606,381.299 299.606 C 380.974 299.606,380.709 299.360,380.709 299.058 C 380.709 298.756,380.468 298.417,380.174 298.304 C 379.880 298.191,379.530 297.552,379.397 296.884 C 379.253 296.164,378.909 295.669,378.553 295.669 C 378.223 295.669,377.953 295.404,377.953 295.079 C 377.953 294.754,377.687 294.488,377.362 294.488 C 377.034 294.488,376.772 294.138,376.772 293.701 C 376.772 293.176,376.509 292.913,375.984 292.913 C 375.547 292.913,375.197 292.651,375.197 292.323 C 375.197 291.998,374.931 291.732,374.606 291.732 C 374.273 291.732,374.016 291.380,374.016 290.922 C 374.016 290.476,373.847 290.215,373.642 290.342 C 373.436 290.469,373.076 290.214,372.841 289.775 C 372.606 289.336,372.154 288.976,371.837 288.976 C 371.519 288.976,371.260 288.711,371.260 288.386 C 371.260 288.061,371.033 287.795,370.757 287.795 C 370.480 287.795,369.950 287.441,369.580 287.008 C 369.209 286.575,368.549 286.220,368.114 286.220 C 367.673 286.220,367.323 285.959,367.323 285.630 C 367.323 285.305,367.078 285.039,366.778 285.039 C 366.479 285.039,366.136 284.667,366.017 284.212 C 365.890 283.724,365.618 283.498,365.354 283.661 C 365.090 283.825,364.819 283.599,364.691 283.110 C 364.572 282.656,364.249 282.283,363.973 282.283 C 363.696 282.283,363.368 282.018,363.243 281.693 C 363.111 281.348,362.521 281.102,361.823 281.102 C 360.892 281.102,360.630 280.929,360.630 280.315 C 360.630 279.878,360.367 279.528,360.039 279.528 C 359.715 279.528,359.449 279.262,359.449 278.937 C 359.449 278.609,359.099 278.346,358.661 278.346 C 358.228 278.346,357.871 278.125,357.867 277.854 C 357.856 277.007,356.039 275.591,354.964 275.591 C 354.314 275.591,353.937 275.374,353.937 275.000 C 353.937 274.675,353.692 274.409,353.392 274.409 C 353.093 274.409,352.755 274.055,352.642 273.622 C 352.529 273.189,352.154 272.835,351.809 272.835 C 351.463 272.835,351.181 272.569,351.181 272.244 C 351.181 271.850,350.787 271.654,350.000 271.654 C 349.213 271.654,348.819 271.457,348.819 271.063 C 348.819 270.530,348.351 270.298,347.539 270.426 C 347.377 270.451,347.244 270.118,347.244 269.685 C 347.244 269.175,346.982 268.898,346.499 268.898 C 346.089 268.898,345.652 268.632,345.527 268.307 C 345.402 267.982,344.852 267.717,344.304 267.717 C 343.570 267.717,343.307 267.509,343.307 266.929 C 343.307 266.496,343.117 266.142,342.885 266.142 C 342.653 266.142,342.198 265.876,341.873 265.551 C 341.548 265.226,340.852 264.961,340.326 264.961 C 339.739 264.961,339.370 264.733,339.370 264.370 C 339.370 264.045,339.099 263.780,338.767 263.780 C 338.435 263.780,338.028 263.412,337.862 262.963 C 337.695 262.514,337.435 262.159,337.284 262.176 C 336.056 262.306,335.433 262.117,335.433 261.614 C 335.433 261.289,335.099 261.024,334.692 261.024 C 334.271 261.024,333.857 260.668,333.735 260.201 C 333.575 259.587,333.319 259.442,332.729 259.629 C 332.169 259.807,331.812 259.645,331.506 259.074 C 331.269 258.631,330.834 258.268,330.540 258.268 C 330.246 258.268,329.904 258.002,329.779 257.677 C 329.646 257.332,329.056 257.087,328.359 257.087 C 327.428 257.087,327.165 256.913,327.165 256.299 C 327.165 255.687,326.903 255.512,325.984 255.512 C 325.197 255.512,324.803 255.315,324.803 254.921 C 324.803 254.513,324.393 254.331,323.471 254.331 C 322.496 254.331,322.087 254.131,321.945 253.587 C 321.798 253.027,321.448 252.870,320.521 252.949 C 319.543 253.032,319.291 252.902,319.291 252.314 C 319.291 251.732,318.999 251.575,317.913 251.575 C 316.951 251.575,316.535 251.397,316.535 250.984 C 316.535 250.576,316.125 250.394,315.203 250.394 C 314.260 250.394,313.818 250.190,313.689 249.697 C 313.577 249.268,313.074 248.965,312.378 248.907 C 311.757 248.856,311.101 248.549,310.920 248.226 C 310.715 247.859,310.006 247.638,309.036 247.638 C 307.969 247.638,307.480 247.466,307.480 247.089 C 307.480 246.435,306.522 246.002,305.739 246.303 C 305.414 246.427,304.986 246.158,304.720 245.661 C 304.361 244.990,303.983 244.836,302.977 244.954 C 301.872 245.083,301.721 244.999,301.891 244.349 C 302.062 243.694,301.918 243.619,300.814 243.781 C 299.750 243.937,299.481 243.815,299.189 243.047 C 298.893 242.269,298.562 242.126,297.057 242.126 C 295.736 242.126,295.276 241.973,295.276 241.535 C 295.276 241.123,294.860 240.945,293.898 240.945 C 292.964 240.945,292.520 240.763,292.520 240.380 C 292.520 240.063,292.061 239.762,291.470 239.692 C 290.667 239.596,290.311 239.242,289.958 238.189 C 289.704 237.431,289.335 236.866,289.138 236.933 C 288.941 237.000,288.691 236.679,288.583 236.220 C 288.474 235.762,288.209 235.441,287.992 235.508 C 287.776 235.575,287.540 235.123,287.470 234.502 C 287.388 233.789,287.062 233.302,286.584 233.177 C 286.025 233.031,285.827 232.630,285.827 231.647 C 285.827 230.725,285.645 230.315,285.236 230.315 C 284.841 230.315,284.646 229.920,284.646 229.122 C 284.646 228.424,284.400 227.834,284.055 227.701 C 283.730 227.577,283.465 227.154,283.465 226.762 C 283.465 225.628,283.032 224.803,282.438 224.803 C 282.090 224.803,281.890 224.367,281.890 223.610 C 281.890 222.912,281.644 222.322,281.299 222.190 C 280.963 222.060,280.709 221.473,280.709 220.824 C 280.709 220.074,280.507 219.685,280.118 219.685 C 279.720 219.685,279.528 219.287,279.528 218.467 C 279.528 217.580,279.314 217.193,278.740 217.043 C 278.148 216.888,277.953 216.506,277.953 215.505 C 277.953 214.584,277.771 214.173,277.362 214.173 C 276.965 214.173,276.772 213.775,276.772 212.955 C 276.772 212.068,276.558 211.681,275.984 211.531 C 275.427 211.386,275.197 210.994,275.197 210.190 C 275.197 209.444,274.995 209.055,274.606 209.055 C 274.194 209.055,274.016 208.640,274.016 207.677 C 274.016 206.715,273.838 206.299,273.425 206.299 C 273.100 206.299,272.835 205.959,272.835 205.544 C 272.835 204.371,272.410 203.543,271.808 203.543 C 271.444 203.543,271.260 203.081,271.260 202.165 C 271.260 201.203,271.082 200.787,270.669 200.787 C 270.276 200.787,270.079 200.394,270.079 199.606 C 270.079 198.540,269.736 198.221,268.770 198.388 C 268.591 198.419,268.559 198.260,268.699 198.035 C 268.838 197.809,269.161 197.730,269.417 197.857 C 269.673 197.985,269.572 197.836,269.193 197.525 C 268.814 197.215,268.504 196.670,268.504 196.315 C 268.504 195.960,268.238 195.669,267.913 195.669 C 267.573 195.669,267.309 195.294,267.290 194.783 C 267.216 192.775,267.025 191.961,266.595 191.818 C 266.346 191.735,266.142 191.342,266.142 190.944 C 266.142 189.802,265.711 188.976,265.115 188.976 C 264.751 188.976,264.567 188.514,264.567 187.598 C 264.567 186.636,264.389 186.220,263.976 186.220 C 263.579 186.220,263.386 185.823,263.386 185.003 C 263.386 184.116,263.172 183.729,262.598 183.579 C 262.007 183.424,261.811 183.042,261.811 182.041 C 261.811 181.185,261.635 180.744,261.319 180.807 C 260.997 180.871,260.783 180.291,260.701 179.134 C 260.629 178.120,260.334 177.228,260.012 177.048 C 259.702 176.874,259.449 176.300,259.449 175.771 C 259.449 175.236,259.100 174.592,258.661 174.318 C 258.183 174.019,257.874 173.400,257.874 172.740 C 257.874 172.037,257.666 171.654,257.283 171.654 C 256.878 171.654,256.693 171.247,256.693 170.354 C 256.693 169.640,256.480 168.843,256.220 168.583 C 255.961 168.323,255.916 168.108,256.122 168.104 C 256.328 168.101,256.263 167.950,255.978 167.770 C 255.501 167.467,255.224 166.695,255.148 165.453 C 255.132 165.182,254.852 164.961,254.528 164.961 C 254.115 164.961,253.937 164.545,253.937 163.583 C 253.937 162.620,253.759 162.205,253.346 162.205 C 252.907 162.205,252.756 161.741,252.756 160.396 C 252.756 158.919,252.612 158.550,251.969 158.382 C 251.377 158.227,251.181 157.845,251.181 156.844 C 251.181 155.922,250.999 155.512,250.591 155.512 C 250.152 155.512,250.000 155.051,250.000 153.728 C 250.000 152.505,249.814 151.872,249.409 151.717 C 249.085 151.593,248.819 151.170,248.819 150.777 C 248.819 149.644,248.387 148.819,247.793 148.819 C 247.428 148.819,247.244 148.356,247.244 147.441 C 247.244 146.479,247.066 146.063,246.654 146.063 C 246.263 146.063,246.063 145.672,246.063 144.908 C 246.063 144.100,245.827 143.679,245.276 143.504 C 244.724 143.329,244.488 142.908,244.488 142.099 C 244.488 141.336,244.288 140.945,243.898 140.945 C 243.503 140.945,243.307 140.550,243.307 139.751 C 243.307 139.054,243.062 138.464,242.717 138.331 C 242.392 138.207,242.126 137.879,242.126 137.602 C 242.126 137.326,241.772 137.007,241.339 136.894 C 240.765 136.744,240.551 136.357,240.551 135.470 C 240.551 134.650,240.358 134.252,239.961 134.252 C 239.636 134.252,239.370 133.917,239.370 133.507 C 239.370 133.097,239.104 132.659,238.780 132.535 C 238.455 132.410,238.189 131.932,238.189 131.472 C 238.189 130.966,237.877 130.553,237.402 130.429 C 236.901 130.298,236.614 129.892,236.614 129.313 C 236.614 128.812,236.383 128.169,236.100 127.882 C 235.817 127.596,235.470 127.055,235.328 126.680 C 235.171 126.267,234.830 126.089,234.464 126.230 C 234.019 126.401,233.858 126.202,233.858 125.484 C 233.858 124.946,233.593 124.285,233.268 124.016 C 232.943 123.746,232.677 123.193,232.677 122.786 C 232.677 122.380,232.411 122.047,232.087 122.047 C 231.762 122.047,231.496 121.781,231.496 121.457 C 231.496 121.129,231.146 120.866,230.709 120.866 C 230.071 120.866,229.921 120.604,229.921 119.488 C 229.921 118.526,229.743 118.110,229.331 118.110 C 229.006 118.110,228.740 117.844,228.740 117.520 C 228.740 117.192,228.390 116.929,227.953 116.929 C 227.339 116.929,227.165 116.667,227.165 115.736 C 227.165 115.038,226.920 114.448,226.575 114.316 C 226.250 114.191,225.984 113.842,225.984 113.541 C 225.984 113.239,225.719 112.992,225.394 112.992 C 225.069 112.992,224.803 112.710,224.803 112.365 C 224.803 112.020,224.449 111.645,224.016 111.531 C 223.503 111.397,223.228 110.994,223.228 110.375 C 223.228 109.852,222.963 109.322,222.638 109.197 C 222.313 109.073,222.047 108.635,222.047 108.226 C 222.047 107.743,221.770 107.480,221.260 107.480 C 220.822 107.480,220.472 107.218,220.472 106.890 C 220.472 106.565,220.207 106.299,219.882 106.299 C 219.554 106.299,219.291 105.949,219.291 105.512 C 219.291 105.074,219.029 104.724,218.701 104.724 C 218.376 104.724,218.110 104.486,218.110 104.195 C 218.110 103.904,217.756 103.345,217.323 102.953 C 216.890 102.561,216.535 101.913,216.535 101.514 C 216.535 101.114,216.270 100.787,215.945 100.787 C 215.620 100.787,215.354 100.542,215.354 100.243 C 215.354 99.943,214.982 99.601,214.527 99.482 C 214.039 99.354,213.813 99.083,213.976 98.819 C 214.140 98.555,213.914 98.284,213.425 98.156 C 212.971 98.037,212.598 97.695,212.598 97.395 C 212.598 97.095,212.333 96.850,212.008 96.850 C 211.683 96.850,211.417 96.585,211.417 96.260 C 211.417 95.727,210.950 95.494,210.138 95.623 C 209.975 95.648,209.843 95.315,209.843 94.882 C 209.843 94.449,209.616 94.094,209.338 94.094 C 209.061 94.094,208.611 93.607,208.339 93.012 C 207.331 90.811,206.888 90.157,206.403 90.157 C 206.129 90.157,205.906 89.892,205.906 89.567 C 205.906 89.242,205.660 88.976,205.361 88.976 C 205.061 88.976,204.724 88.622,204.610 88.189 C 204.497 87.756,204.122 87.402,203.777 87.402 C 203.432 87.402,203.150 87.136,203.150 86.811 C 203.150 86.486,202.884 86.220,202.559 86.220 C 202.234 86.220,201.969 86.051,201.969 85.845 C 201.969 85.471,200.128 83.465,199.785 83.465 C 199.444 83.465,198.167 82.023,197.906 81.343 C 197.761 80.966,197.453 80.776,197.220 80.920 C 196.986 81.065,196.701 80.814,196.581 80.355 C 196.462 79.900,196.114 79.528,195.808 79.528 C 195.502 79.528,195.155 79.278,195.038 78.973 C 194.921 78.668,194.307 78.204,193.672 77.941 C 193.038 77.678,192.520 77.308,192.520 77.118 C 192.520 76.927,192.254 76.772,191.929 76.772 C 191.604 76.772,191.339 76.506,191.339 76.181 C 191.339 75.856,191.093 75.591,190.794 75.591 C 190.494 75.591,190.157 75.236,190.043 74.803 C 189.930 74.370,189.555 74.016,189.210 74.016 C 188.865 74.016,188.583 73.750,188.583 73.425 C 188.583 73.100,188.338 72.835,188.038 72.835 C 187.738 72.835,187.401 72.480,187.287 72.046 C 187.149 71.519,186.872 71.337,186.454 71.497 C 186.002 71.670,185.827 71.505,185.827 70.908 C 185.827 70.452,185.580 70.079,185.278 70.079 C 184.977 70.079,184.628 69.813,184.503 69.488 C 184.371 69.143,183.781 68.898,183.083 68.898 C 182.152 68.898,181.890 68.724,181.890 68.110 C 181.890 67.673,181.627 67.323,181.299 67.323 C 180.974 67.323,180.709 67.057,180.709 66.732 C 180.709 66.407,180.526 66.142,180.303 66.142 C 180.080 66.142,179.328 65.522,178.632 64.764 C 177.773 63.828,177.019 63.386,176.282 63.386 C 175.580 63.386,175.197 63.177,175.197 62.795 C 175.197 62.470,174.931 62.205,174.606 62.205 C 174.278 62.205,174.016 61.855,174.016 61.417 C 174.016 60.892,173.753 60.630,173.228 60.630 C 172.791 60.630,172.441 60.367,172.441 60.039 C 172.441 59.646,172.047 59.449,171.260 59.449 C 170.497 59.449,170.079 59.249,170.079 58.885 C 170.079 58.575,169.724 58.208,169.291 58.071 C 168.858 57.933,168.504 57.567,168.504 57.257 C 168.504 56.947,168.257 56.693,167.956 56.693 C 167.654 56.693,167.305 56.427,167.180 56.102 C 167.048 55.757,166.458 55.512,165.760 55.512 C 164.829 55.512,164.567 55.339,164.567 54.724 C 164.567 54.291,164.320 53.937,164.018 53.937 C 163.717 53.937,163.368 53.671,163.243 53.346 C 163.111 53.001,162.521 52.756,161.823 52.756 C 161.025 52.756,160.630 52.560,160.630 52.165 C 160.630 51.841,160.385 51.575,160.085 51.575 C 159.786 51.575,159.447 51.215,159.332 50.776 C 159.217 50.337,158.975 50.003,158.794 50.035 C 157.709 50.226,156.693 49.923,156.693 49.409 C 156.693 49.085,156.433 48.819,156.116 48.819 C 155.799 48.819,155.345 48.456,155.108 48.013 C 154.802 47.442,154.445 47.280,153.885 47.457 C 153.295 47.645,153.040 47.499,152.879 46.886 C 152.757 46.419,152.344 46.063,151.923 46.063 C 151.515 46.063,151.181 45.797,151.181 45.472 C 151.181 45.084,150.793 44.882,150.046 44.882 C 149.242 44.882,148.851 44.652,148.705 44.094 C 148.565 43.559,148.168 43.307,147.465 43.307 C 146.897 43.307,146.330 43.041,146.205 42.717 C 146.081 42.392,145.560 42.126,145.049 42.126 C 144.384 42.126,144.184 41.958,144.346 41.535 C 144.567 40.960,144.289 40.834,142.815 40.840 C 142.436 40.841,142.126 40.595,142.126 40.293 C 142.126 39.991,141.700 39.582,141.180 39.385 C 140.660 39.187,140.118 38.837,139.976 38.607 C 139.834 38.377,139.357 38.189,138.916 38.189 C 138.435 38.189,138.029 37.861,137.900 37.366 C 137.735 36.737,137.455 36.587,136.707 36.730 C 135.985 36.868,135.679 36.723,135.535 36.175 C 135.393 35.633,134.983 35.433,134.009 35.433 C 133.048 35.433,132.677 35.257,132.677 34.800 C 132.677 34.406,132.460 34.251,132.099 34.390 C 131.781 34.511,131.409 34.430,131.272 34.208 C 131.135 33.986,130.806 33.888,130.542 33.989 C 130.278 34.090,129.851 33.837,129.594 33.425 C 129.262 32.893,128.673 32.677,127.556 32.677 C 126.421 32.677,125.984 32.513,125.984 32.087 C 125.984 31.649,125.525 31.496,124.213 31.496 C 122.966 31.496,122.208 31.263,121.654 30.709 C 121.057 30.112,120.341 29.921,118.701 29.921 C 117.038 29.921,116.535 29.784,116.535 29.331 C 116.535 28.867,115.993 28.740,114.018 28.740 C 112.247 28.740,111.440 28.580,111.294 28.199 C 111.160 27.850,110.221 27.596,108.649 27.482 C 106.965 27.360,106.104 27.112,105.861 26.678 C 105.562 26.144,104.475 26.043,98.530 26.002 C 92.853 25.963,91.489 25.846,91.228 25.378 C 90.792 24.600,89.402 24.652,88.486 25.481 C 87.895 26.016,87.764 26.037,87.865 25.580 C 87.968 25.108,87.319 24.979,84.393 24.887 C 81.277 24.790,80.767 24.677,80.603 24.047 C 80.459 23.496,80.156 23.368,79.356 23.521 C 78.517 23.681,78.254 23.550,78.080 22.885 C 77.960 22.424,77.616 22.047,77.316 22.047 C 77.017 22.047,76.772 21.781,76.772 21.457 C 76.772 21.129,76.422 20.866,75.984 20.866 C 75.459 20.866,75.197 20.604,75.197 20.079 C 75.197 19.641,74.934 19.291,74.606 19.291 C 74.281 19.291,74.016 19.026,74.016 18.701 C 74.016 18.376,73.861 18.110,73.672 18.110 C 73.482 18.110,72.650 17.490,71.823 16.732 C 70.996 15.974,69.910 15.354,69.411 15.354 C 68.867 15.354,68.504 15.118,68.504 14.764 C 68.504 14.370,68.110 14.173,67.323 14.173 C 66.505 14.173,66.142 13.980,66.142 13.546 C 66.142 13.201,65.787 12.826,65.354 12.712 C 64.921 12.599,64.567 12.262,64.567 11.962 C 64.567 11.602,64.100 11.417,63.189 11.417 C 62.274 11.417,61.811 11.233,61.811 10.869 C 61.811 10.264,60.754 9.719,60.220 10.049 C 60.034 10.164,59.690 9.899,59.455 9.460 C 59.173 8.933,58.630 8.661,57.860 8.661 C 57.085 8.661,56.693 8.463,56.693 8.071 C 56.693 7.662,56.282 7.480,55.361 7.480 C 54.360 7.480,53.978 7.285,53.823 6.693 C 53.675 6.127,53.286 5.906,52.441 5.906 C 51.759 5.906,51.170 5.657,51.039 5.315 C 50.914 4.990,50.333 4.724,49.748 4.724 C 49.163 4.724,48.378 4.447,48.004 4.109 C 47.629 3.770,46.686 3.460,45.907 3.420 C 44.850 3.365,44.491 3.172,44.490 2.657 C 44.489 2.279,44.355 1.989,44.193 2.015 C 42.650 2.259,40.551 1.891,40.551 1.378 C 40.551 0.914,40.004 0.787,37.992 0.787 C 36.549 0.787,35.433 0.616,35.433 0.394 C 35.433 -0.232,14.696 -0.135,14.403 0.492 C 14.219 0.886,14.127 0.886,13.944 0.492 C 13.671 -0.093,12.598 -0.171,12.598 0.394 M31.890 1.969 C 31.890 2.185,31.525 2.362,31.079 2.362 C 30.633 2.362,30.378 2.185,30.512 1.969 C 30.646 1.752,31.010 1.575,31.322 1.575 C 31.634 1.575,31.890 1.752,31.890 1.969 M37.701 3.420 C 37.325 3.519,36.616 3.522,36.127 3.428 C 35.637 3.334,35.945 3.253,36.811 3.249 C 37.677 3.245,38.078 3.322,37.701 3.420 M2.362 17.585 C 2.362 18.739,2.292 18.724,1.614 17.421 C 1.232 16.687,1.257 16.535,1.758 16.535 C 2.150 16.535,2.362 16.904,2.362 17.585 M2.356 28.248 C 2.352 29.036,2.255 29.180,1.999 28.776 C 1.806 28.471,1.739 27.983,1.850 27.693 C 2.170 26.861,2.363 27.072,2.356 28.248 M94.291 28.740 C 94.605 29.248,92.518 29.248,91.732 28.740 C 91.292 28.456,91.512 28.357,92.595 28.352 C 93.394 28.349,94.158 28.524,94.291 28.740 M106.890 29.921 C 107.034 30.155,106.604 30.304,105.830 30.287 C 104.745 30.264,104.659 30.203,105.315 29.921 C 106.383 29.462,106.606 29.462,106.890 29.921 M112.992 31.538 C 112.992 32.001,111.528 31.993,111.241 31.530 C 110.975 31.098,111.808 30.751,112.500 31.006 C 112.771 31.105,112.992 31.345,112.992 31.538 M81.693 39.370 C 81.827 39.587,81.571 39.764,81.126 39.764 C 80.680 39.764,80.315 39.587,80.315 39.370 C 80.315 39.154,80.570 38.976,80.882 38.976 C 81.194 38.976,81.559 39.154,81.693 39.370 M97.539 40.844 C 95.645 40.916,92.544 40.916,90.650 40.844 C 88.755 40.772,90.305 40.713,94.094 40.713 C 97.884 40.713,99.434 40.772,97.539 40.844 M106.102 42.126 C 105.969 42.343,105.515 42.520,105.095 42.520 C 104.675 42.520,104.331 42.343,104.331 42.126 C 104.331 41.909,104.784 41.732,105.338 41.732 C 105.910 41.732,106.240 41.903,106.102 42.126 M80.103 66.560 C 79.961 66.790,79.410 67.143,78.879 67.345 C 77.986 67.684,77.790 69.024,78.322 71.161 C 78.335 71.216,78.612 71.260,78.937 71.260 C 79.262 71.260,79.528 71.526,79.528 71.850 C 79.528 72.175,79.793 72.441,80.118 72.441 C 80.446 72.441,80.709 72.791,80.709 73.228 C 80.709 73.661,80.954 74.016,81.253 74.016 C 81.553 74.016,81.891 74.370,82.004 74.803 C 82.117 75.236,82.492 75.591,82.837 75.591 C 83.182 75.591,83.465 75.856,83.465 76.181 C 83.465 76.506,83.716 76.772,84.024 76.772 C 84.331 76.772,84.697 77.288,84.835 77.920 C 84.974 78.551,85.342 79.166,85.654 79.285 C 85.966 79.405,86.220 79.774,86.220 80.106 C 86.220 80.437,86.486 80.709,86.811 80.709 C 87.136 80.709,87.402 80.974,87.402 81.299 C 87.402 81.624,87.667 81.890,87.992 81.890 C 88.405 81.890,88.583 82.305,88.583 83.268 C 88.583 84.383,88.733 84.646,89.370 84.646 C 90.003 84.646,90.157 84.908,90.157 85.982 C 90.157 86.806,90.384 87.404,90.748 87.544 C 91.089 87.675,91.339 88.263,91.339 88.936 C 91.339 89.577,91.635 90.398,91.998 90.761 C 92.586 91.349,92.770 91.940,92.881 93.602 C 92.899 93.873,93.179 94.094,93.504 94.094 C 93.829 94.094,94.094 94.360,94.094 94.685 C 94.094 95.079,94.488 95.276,95.276 95.276 C 96.063 95.276,96.457 95.079,96.457 94.685 C 96.457 94.357,96.807 94.094,97.244 94.094 C 97.682 94.094,98.031 93.832,98.031 93.504 C 98.031 93.179,98.297 92.913,98.622 92.913 C 98.950 92.913,99.213 92.563,99.213 92.126 C 99.213 91.601,99.475 91.339,100.000 91.339 C 100.445 91.339,100.787 91.076,100.787 90.736 C 100.787 90.404,101.053 90.031,101.378 89.906 C 101.780 89.752,101.969 89.123,101.969 87.938 C 101.969 86.729,102.155 86.124,102.577 85.962 C 103.417 85.640,103.356 77.613,102.512 77.289 C 102.213 77.175,101.969 76.746,101.969 76.336 C 101.969 75.926,101.703 75.591,101.378 75.591 C 100.966 75.591,100.787 75.175,100.787 74.213 C 100.787 73.097,100.637 72.835,100.000 72.835 C 99.462 72.835,99.213 72.572,99.213 72.005 C 99.213 71.430,99.032 71.245,98.622 71.402 C 98.228 71.553,98.031 71.386,98.031 70.900 C 98.031 70.490,97.669 70.076,97.204 69.954 C 96.749 69.835,96.494 69.549,96.637 69.318 C 96.787 69.075,96.574 68.898,96.132 68.898 C 95.699 68.898,95.278 68.557,95.162 68.110 C 95.012 67.537,94.625 67.323,93.738 67.323 C 92.917 67.323,92.520 67.130,92.520 66.732 C 92.520 66.002,80.551 65.835,80.103 66.560 M90.995 69.005 C 90.816 69.184,89.802 69.164,88.741 68.961 C 86.865 68.602,86.852 68.591,88.287 68.548 C 89.099 68.524,89.764 68.325,89.764 68.107 C 89.764 67.870,90.077 67.906,90.541 68.195 C 90.969 68.463,91.173 68.827,90.995 69.005 M82.602 69.980 C 82.442 70.810,81.744 70.758,81.566 69.903 C 81.491 69.546,81.708 69.291,82.087 69.291 C 82.492 69.291,82.685 69.549,82.602 69.980 M101.309 80.473 C 101.531 81.053,101.277 81.496,100.722 81.496 C 100.541 81.496,100.394 81.142,100.394 80.709 C 100.394 79.806,100.993 79.652,101.309 80.473 M99.484 86.516 C 99.385 86.895,99.304 86.585,99.304 85.827 C 99.304 85.069,99.385 84.759,99.484 85.138 C 99.583 85.517,99.583 86.137,99.484 86.516 M37.008 87.283 C 37.008 88.015,36.881 88.220,36.601 87.940 C 36.378 87.716,36.308 87.238,36.447 86.877 C 36.811 85.927,37.008 86.069,37.008 87.283 M96.063 90.968 C 96.063 91.388,95.797 91.732,95.472 91.732 C 94.837 91.732,94.743 91.372,95.120 90.389 C 95.427 89.587,96.063 89.978,96.063 90.968 M40.945 98.622 C 40.945 99.163,40.792 99.606,40.606 99.606 C 40.419 99.606,40.351 99.163,40.455 98.622 C 40.558 98.081,40.711 97.638,40.794 97.638 C 40.877 97.638,40.945 98.081,40.945 98.622 M53.144 102.264 C 53.126 103.127,52.374 103.700,52.368 102.854 C 52.365 102.367,52.539 101.969,52.756 101.969 C 52.972 101.969,53.147 102.101,53.144 102.264 M78.473 161.138 C 78.352 161.332,78.084 161.312,77.864 161.092 C 77.647 160.876,77.601 160.487,77.761 160.228 C 77.981 159.871,78.128 159.882,78.370 160.274 C 78.545 160.557,78.591 160.946,78.473 161.138 M66.019 165.256 C 65.920 165.635,65.839 165.325,65.839 164.567 C 65.839 163.809,65.920 163.499,66.019 163.878 C 66.118 164.257,66.118 164.877,66.019 165.256 M64.949 171.161 C 64.938 172.090,64.879 172.146,64.534 171.552 C 64.312 171.171,64.239 170.684,64.372 170.469 C 64.779 169.811,64.961 170.029,64.949 171.161 M61.024 185.850 C 61.024 186.553,60.860 186.953,60.630 186.811 C 60.413 186.677,60.236 186.135,60.236 185.607 C 60.236 185.078,60.413 184.646,60.630 184.646 C 60.846 184.646,61.024 185.188,61.024 185.850 M69.072 192.117 C 68.699 193.547,68.101 191.957,68.408 190.351 L 68.626 189.214 68.979 190.169 C 69.173 190.694,69.215 191.570,69.072 192.117 M59.843 193.701 C 59.843 194.325,59.665 194.945,59.449 195.079 C 59.211 195.226,59.055 194.681,59.055 193.701 C 59.055 192.720,59.211 192.176,59.449 192.323 C 59.665 192.457,59.843 193.077,59.843 193.701 M58.168 218.012 C 58.102 221.206,58.048 218.593,58.048 212.205 C 58.048 205.817,58.102 203.204,58.168 206.398 C 58.235 209.592,58.235 214.818,58.168 218.012 M67.979 211.417 C 67.993 217.774,67.770 220.403,67.283 219.634 C 66.865 218.975,66.811 203.008,67.224 202.587 C 67.676 202.130,67.967 205.535,67.979 211.417 M113.601 211.053 C 113.910 211.554,112.297 213.386,111.546 213.386 C 110.893 213.386,110.893 213.374,111.643 211.872 C 112.266 210.623,113.115 210.268,113.601 211.053 M69.082 231.450 C 69.014 231.800,68.932 232.352,68.900 232.677 C 68.859 233.094,68.755 233.044,68.545 232.507 C 68.167 231.544,68.484 229.646,68.908 230.332 C 69.072 230.597,69.150 231.100,69.082 231.450 M59.843 232.044 C 59.843 232.537,59.729 233.053,59.591 233.191 C 59.092 233.690,58.796 233.082,58.968 231.911 C 59.166 230.565,59.843 230.668,59.843 232.044 M61.024 240.157 C 61.024 240.807,60.867 241.339,60.676 241.339 C 60.127 241.339,59.888 239.875,60.361 239.403 C 60.974 238.790,61.024 238.846,61.024 240.157 M73.287 239.567 C 73.287 239.773,73.097 240.004,72.864 240.082 C 72.631 240.160,72.441 239.928,72.441 239.567 C 72.441 239.206,72.631 238.974,72.864 239.052 C 73.097 239.129,73.287 239.361,73.287 239.567 M96.811 240.846 C 96.776 242.164,96.738 242.217,96.457 241.339 C 96.006 239.931,96.006 239.370,96.457 239.370 C 96.673 239.370,96.833 240.034,96.811 240.846 M72.041 242.028 C 72.025 242.814,71.369 243.371,71.145 242.788 C 71.021 242.466,71.026 242.097,71.156 241.968 C 71.487 241.637,72.048 241.675,72.041 242.028 M62.319 245.669 C 62.447 246.161,62.331 246.457,62.008 246.457 C 61.685 246.457,61.568 246.161,61.697 245.669 C 61.810 245.236,61.950 244.882,62.008 244.882 C 62.066 244.882,62.206 245.236,62.319 245.669 M95.727 249.034 C 95.490 249.918,95.346 250.040,95.066 249.591 C 94.483 248.655,94.436 247.520,94.966 247.192 C 95.683 246.749,96.080 247.712,95.727 249.034 M110.120 251.280 C 110.027 251.767,109.950 251.368,109.950 250.394 C 109.950 249.419,110.027 249.021,110.120 249.508 C 110.214 249.995,110.214 250.792,110.120 251.280 M92.823 252.165 C 92.778 252.707,92.584 253.150,92.392 253.150 C 92.199 253.150,92.149 252.869,92.281 252.527 C 92.412 252.184,92.520 251.741,92.520 251.543 C 92.520 251.344,92.606 251.181,92.712 251.181 C 92.818 251.181,92.868 251.624,92.823 252.165 M109.055 255.906 C 109.055 256.339,108.878 256.693,108.661 256.693 C 108.445 256.693,108.268 256.339,108.268 255.906 C 108.268 255.472,108.445 255.118,108.661 255.118 C 108.878 255.118,109.055 255.472,109.055 255.906 M94.488 260.827 C 94.488 262.258,93.851 263.058,93.622 261.914 C 93.403 260.822,93.752 259.041,94.139 259.279 C 94.331 259.398,94.488 260.094,94.488 260.827 M300.176 259.859 C 299.317 260.171,298.700 259.959,299.010 259.459 C 299.122 259.277,299.602 259.231,300.078 259.355 C 300.900 259.570,300.905 259.595,300.176 259.859 M107.874 266.929 C 107.874 267.553,107.697 268.173,107.480 268.307 C 107.242 268.454,107.087 267.910,107.087 266.929 C 107.087 265.949,107.242 265.404,107.480 265.551 C 107.697 265.685,107.874 266.305,107.874 266.929 M94.291 283.661 C 94.291 284.099,91.179 284.426,90.284 284.083 C 89.971 283.962,89.830 283.677,89.971 283.448 C 90.293 282.926,94.291 283.124,94.291 283.661 M160.783 299.311 C 161.456 300.015,162.140 300.546,162.302 300.492 C 162.465 300.438,162.598 300.953,162.598 301.636 C 162.598 302.814,162.561 302.845,161.878 302.226 C 161.482 301.868,161.015 301.575,160.839 301.575 C 160.452 301.575,159.640 300.575,158.840 299.114 C 157.965 297.515,159.185 297.639,160.783 299.311 M165.851 305.380 C 166.152 305.561,166.512 306.019,166.651 306.398 C 166.790 306.777,167.176 307.087,167.507 307.087 C 167.839 307.087,168.110 307.365,168.110 307.706 C 168.110 308.084,167.842 308.274,167.421 308.193 C 167.042 308.120,166.732 307.852,166.732 307.598 C 166.732 307.344,166.191 306.637,165.529 306.029 C 164.737 305.300,164.384 304.652,164.497 304.134 C 164.662 303.373,164.679 303.375,164.986 304.199 C 165.161 304.667,165.550 305.199,165.851 305.380 M343.307 306.102 C 344.265 306.650,344.241 306.665,342.421 306.679 C 340.665 306.692,339.942 306.217,341.043 305.773 C 341.848 305.448,342.270 305.510,343.307 306.102 M333.661 307.480 C 334.318 307.762,334.232 307.823,333.146 307.846 C 332.372 307.863,331.942 307.714,332.087 307.480 C 332.370 307.021,332.593 307.021,333.661 307.480 M169.439 308.582 C 169.877 309.290,168.989 310.015,168.341 309.477 C 168.003 309.196,167.822 308.809,167.941 308.617 C 168.209 308.182,169.178 308.160,169.439 308.582 M385.337 309.283 C 385.499 310.501,384.903 311.094,383.891 310.719 C 383.094 310.424,383.067 310.336,383.627 309.871 C 383.971 309.586,384.252 309.094,384.252 308.777 C 384.252 307.940,385.218 308.390,385.337 309.283 M170.472 310.456 C 170.472 310.768,170.816 311.024,171.237 311.024 C 172.189 311.024,172.621 311.652,171.955 312.068 C 171.086 312.611,170.472 312.549,170.472 311.918 C 170.472 311.582,170.180 311.093,169.822 310.831 C 169.464 310.570,169.299 310.149,169.455 309.896 C 169.808 309.325,170.472 309.691,170.472 310.456 M375.591 312.908 C 375.591 313.355,374.074 313.405,373.803 312.967 C 373.678 312.764,374.029 312.598,374.583 312.598 C 375.137 312.598,375.591 312.738,375.591 312.908 M175.733 314.370 C 175.576 314.780,175.760 314.961,176.336 314.961 C 177.147 314.961,177.494 315.892,176.834 316.300 C 176.429 316.550,174.749 314.359,175.087 314.021 C 175.547 313.560,175.958 313.783,175.733 314.370 M312.557 314.394 C 312.652 314.489,312.070 314.567,311.263 314.567 C 310.456 314.567,309.898 314.402,310.023 314.200 C 310.233 313.859,312.170 314.007,312.557 314.394 M369.078 314.146 C 369.445 314.741,368.678 314.976,367.283 314.697 C 366.179 314.476,366.098 314.391,366.751 314.136 C 367.834 313.712,368.812 313.716,369.078 314.146 M307.817 316.014 C 307.238 316.711,306.576 316.118,306.923 315.213 C 307.123 314.693,307.299 314.647,307.728 315.003 C 308.153 315.355,308.173 315.585,307.817 316.014 M356.791 315.632 C 356.304 315.726,355.507 315.726,355.020 315.632 C 354.532 315.538,354.931 315.462,355.906 315.462 C 356.880 315.462,357.279 315.538,356.791 315.632 M306.621 317.588 C 306.439 319.120,305.512 319.256,305.512 317.749 C 305.512 316.910,305.702 316.535,306.129 316.535 C 306.566 316.535,306.709 316.842,306.621 317.588 M350.318 316.959 C 350.241 317.191,350.009 317.382,349.803 317.382 C 349.597 317.382,349.366 317.191,349.288 316.959 C 349.210 316.726,349.442 316.535,349.803 316.535 C 350.164 316.535,350.396 316.726,350.318 316.959 M344.685 318.504 C 344.551 318.720,344.108 318.898,343.701 318.898 C 343.293 318.898,342.850 318.720,342.717 318.504 C 342.574 318.274,342.983 318.110,343.701 318.110 C 344.419 318.110,344.827 318.274,344.685 318.504 M339.370 319.661 C 339.370 319.864,339.016 320.003,338.583 319.970 C 338.150 319.938,337.795 319.772,337.795 319.601 C 337.795 319.431,338.150 319.291,338.583 319.291 C 339.016 319.291,339.370 319.457,339.370 319.661 M339.764 354.265 C 339.764 354.778,339.296 355.119,338.915 354.883 C 338.508 354.632,338.859 353.937,339.393 353.937 C 339.597 353.937,339.764 354.085,339.764 354.265 M397.244 389.384 C 397.244 390.084,396.070 390.558,396.058 389.862 C 396.055 389.700,395.940 389.148,395.803 388.636 C 395.575 387.785,395.626 387.744,396.399 388.158 C 396.864 388.407,397.244 388.958,397.244 389.384 " stroke="none" fill="#04546c" fill-rule="evenodd"></path><path id="path1" d="M30.512 1.969 C 30.378 2.185,30.633 2.362,31.079 2.362 C 31.525 2.362,31.890 2.185,31.890 1.969 C 31.890 1.752,31.634 1.575,31.322 1.575 C 31.010 1.575,30.646 1.752,30.512 1.969 M36.127 3.428 C 36.616 3.522,37.325 3.519,37.701 3.420 C 38.078 3.322,37.677 3.245,36.811 3.249 C 35.945 3.253,35.637 3.334,36.127 3.428 M1.614 17.421 C 2.292 18.724,2.362 18.739,2.362 17.585 C 2.362 16.904,2.150 16.535,1.758 16.535 C 1.257 16.535,1.232 16.687,1.614 17.421 M1.850 27.693 C 1.739 27.983,1.806 28.471,1.999 28.776 C 2.255 29.180,2.352 29.036,2.356 28.248 C 2.363 27.072,2.170 26.861,1.850 27.693 M91.732 28.740 C 92.518 29.248,94.605 29.248,94.291 28.740 C 94.158 28.524,93.394 28.349,92.595 28.352 C 91.512 28.357,91.292 28.456,91.732 28.740 M105.315 29.921 C 104.659 30.203,104.745 30.264,105.830 30.287 C 106.604 30.304,107.034 30.155,106.890 29.921 C 106.606 29.462,106.383 29.462,105.315 29.921 M111.513 30.997 C 111.241 31.092,111.119 31.332,111.241 31.530 C 111.528 31.993,112.992 32.001,112.992 31.538 C 112.992 31.084,112.149 30.776,111.513 30.997 M80.315 39.370 C 80.315 39.587,80.680 39.764,81.126 39.764 C 81.571 39.764,81.827 39.587,81.693 39.370 C 81.559 39.154,81.194 38.976,80.882 38.976 C 80.570 38.976,80.315 39.154,80.315 39.370 M90.650 40.844 C 92.544 40.916,95.645 40.916,97.539 40.844 C 99.434 40.772,97.884 40.713,94.094 40.713 C 90.305 40.713,88.755 40.772,90.650 40.844 M104.331 42.126 C 104.331 42.343,104.675 42.520,105.095 42.520 C 105.515 42.520,105.969 42.343,106.102 42.126 C 106.240 41.903,105.910 41.732,105.338 41.732 C 104.784 41.732,104.331 41.909,104.331 42.126 M89.764 68.107 C 89.764 68.325,89.099 68.524,88.287 68.548 C 86.852 68.591,86.865 68.602,88.741 68.961 C 90.844 69.363,91.776 68.967,90.541 68.195 C 90.077 67.906,89.764 67.870,89.764 68.107 M81.566 69.903 C 81.744 70.758,82.442 70.810,82.602 69.980 C 82.685 69.549,82.492 69.291,82.087 69.291 C 81.708 69.291,81.491 69.546,81.566 69.903 M100.394 80.732 C 100.394 81.178,100.571 81.433,100.787 81.299 C 101.004 81.165,101.181 80.801,101.181 80.489 C 101.181 80.177,101.004 79.921,100.787 79.921 C 100.571 79.921,100.394 80.286,100.394 80.732 M99.304 85.827 C 99.304 86.585,99.385 86.895,99.484 86.516 C 99.583 86.137,99.583 85.517,99.484 85.138 C 99.385 84.759,99.304 85.069,99.304 85.827 M36.447 86.877 C 36.308 87.238,36.378 87.716,36.601 87.940 C 36.881 88.220,37.008 88.015,37.008 87.283 C 37.008 86.069,36.811 85.927,36.447 86.877 M95.120 90.389 C 94.743 91.372,94.837 91.732,95.472 91.732 C 95.797 91.732,96.063 91.388,96.063 90.968 C 96.063 89.978,95.427 89.587,95.120 90.389 M40.455 98.622 C 40.351 99.163,40.419 99.606,40.606 99.606 C 40.792 99.606,40.945 99.163,40.945 98.622 C 40.945 98.081,40.877 97.638,40.794 97.638 C 40.711 97.638,40.558 98.081,40.455 98.622 M52.368 102.854 C 52.373 103.571,52.447 103.627,52.756 103.150 C 53.249 102.386,53.249 101.969,52.756 101.969 C 52.539 101.969,52.365 102.367,52.368 102.854 M77.761 160.228 C 77.601 160.487,77.647 160.876,77.864 161.092 C 78.377 161.605,78.785 160.945,78.370 160.274 C 78.128 159.882,77.981 159.871,77.761 160.228 M65.839 164.567 C 65.839 165.325,65.920 165.635,66.019 165.256 C 66.118 164.877,66.118 164.257,66.019 163.878 C 65.920 163.499,65.839 163.809,65.839 164.567 M64.443 170.374 C 64.349 170.536,64.414 171.024,64.589 171.457 C 64.865 172.144,64.909 172.107,64.933 171.161 C 64.960 170.093,64.776 169.798,64.443 170.374 M60.236 185.607 C 60.236 186.135,60.413 186.677,60.630 186.811 C 60.860 186.953,61.024 186.553,61.024 185.850 C 61.024 185.188,60.846 184.646,60.630 184.646 C 60.413 184.646,60.236 185.078,60.236 185.607 M68.408 190.351 C 68.101 191.957,68.699 193.547,69.072 192.117 C 69.215 191.570,69.173 190.694,68.979 190.169 L 68.626 189.214 68.408 190.351 M59.055 193.701 C 59.055 194.681,59.211 195.226,59.449 195.079 C 59.665 194.945,59.843 194.325,59.843 193.701 C 59.843 193.077,59.665 192.457,59.449 192.323 C 59.211 192.176,59.055 192.720,59.055 193.701 M58.048 212.205 C 58.048 218.593,58.102 221.206,58.168 218.012 C 58.235 214.818,58.235 209.592,58.168 206.398 C 58.102 203.204,58.048 205.817,58.048 212.205 M67.224 202.587 C 66.811 203.008,66.865 218.975,67.283 219.634 C 67.770 220.403,67.993 217.774,67.979 211.417 C 67.967 205.535,67.676 202.130,67.224 202.587 M111.643 211.872 C 110.893 213.374,110.893 213.386,111.546 213.386 C 112.297 213.386,113.910 211.554,113.601 211.053 C 113.115 210.268,112.266 210.623,111.643 211.872 M68.421 230.834 C 68.325 231.336,68.381 232.089,68.545 232.507 C 68.755 233.045,68.850 232.778,68.870 231.594 C 68.900 229.758,68.694 229.408,68.421 230.834 M58.968 231.911 C 58.796 233.082,59.092 233.690,59.591 233.191 C 59.966 232.816,59.895 231.181,59.493 230.933 C 59.301 230.814,59.064 231.254,58.968 231.911 M60.361 239.403 C 59.888 239.875,60.127 241.339,60.676 241.339 C 60.867 241.339,61.024 240.807,61.024 240.157 C 61.024 238.846,60.974 238.790,60.361 239.403 M96.102 239.862 C 96.235 241.527,96.773 242.274,96.811 240.846 C 96.833 240.034,96.673 239.370,96.457 239.370 C 96.240 239.370,96.081 239.592,96.102 239.862 M71.156 241.968 C 71.026 242.097,71.021 242.466,71.145 242.788 C 71.328 243.265,71.431 243.276,71.702 242.848 C 72.283 241.933,71.864 241.259,71.156 241.968 M61.697 245.669 C 61.568 246.161,61.685 246.457,62.008 246.457 C 62.331 246.457,62.447 246.161,62.319 245.669 C 62.206 245.236,62.066 244.882,62.008 244.882 C 61.950 244.882,61.810 245.236,61.697 245.669 M94.966 247.192 C 94.436 247.520,94.483 248.655,95.066 249.591 C 95.346 250.040,95.490 249.918,95.727 249.034 C 96.080 247.712,95.683 246.749,94.966 247.192 M109.950 250.394 C 109.950 251.368,110.027 251.767,110.120 251.280 C 110.214 250.792,110.214 249.995,110.120 249.508 C 110.027 249.021,109.950 249.419,109.950 250.394 M108.268 255.906 C 108.268 256.339,108.445 256.693,108.661 256.693 C 108.878 256.693,109.055 256.339,109.055 255.906 C 109.055 255.472,108.878 255.118,108.661 255.118 C 108.445 255.118,108.268 255.472,108.268 255.906 M93.701 260.827 C 93.701 261.939,93.854 262.550,94.094 262.402 C 94.311 262.268,94.488 261.559,94.488 260.827 C 94.488 260.094,94.311 259.386,94.094 259.252 C 93.854 259.103,93.701 259.715,93.701 260.827 M299.010 259.459 C 298.700 259.959,299.317 260.171,300.176 259.859 C 300.905 259.595,300.900 259.570,300.078 259.355 C 299.602 259.231,299.122 259.277,299.010 259.459 M107.087 266.929 C 107.087 267.910,107.242 268.454,107.480 268.307 C 107.697 268.173,107.874 267.553,107.874 266.929 C 107.874 266.305,107.697 265.685,107.480 265.551 C 107.242 265.404,107.087 265.949,107.087 266.929 M89.971 283.448 C 89.830 283.677,89.971 283.962,90.284 284.083 C 91.179 284.426,94.291 284.099,94.291 283.661 C 94.291 283.124,90.293 282.926,89.971 283.448 M158.706 298.917 C 159.336 300.113,160.630 301.758,160.630 301.362 C 160.630 301.187,161.073 301.460,161.614 301.969 L 162.598 302.893 162.598 301.643 C 162.598 300.956,162.465 300.438,162.302 300.492 C 162.140 300.546,161.456 300.015,160.783 299.311 C 159.311 297.770,157.969 297.516,158.706 298.917 M164.592 304.035 C 164.558 304.965,164.705 305.335,165.059 305.217 C 165.221 305.162,165.354 305.283,165.354 305.484 C 165.354 305.685,165.664 306.159,166.043 306.538 C 166.422 306.917,166.732 307.415,166.732 307.644 C 166.732 307.873,167.042 308.120,167.421 308.193 C 167.842 308.274,168.110 308.084,168.110 307.706 C 168.110 307.365,167.839 307.087,167.507 307.087 C 167.176 307.087,166.790 306.777,166.651 306.398 C 166.512 306.019,166.152 305.561,165.851 305.380 C 165.550 305.199,165.149 304.667,164.960 304.199 C 164.688 303.523,164.612 303.490,164.592 304.035 M341.043 305.773 C 339.942 306.217,340.665 306.692,342.421 306.679 C 344.241 306.665,344.265 306.650,343.307 306.102 C 342.270 305.510,341.848 305.448,341.043 305.773 M332.229 307.523 C 331.864 307.753,332.103 307.864,332.972 307.868 C 333.676 307.871,334.252 307.806,334.252 307.723 C 334.252 307.365,332.717 307.213,332.229 307.523 M167.912 308.664 C 167.613 309.148,168.696 309.620,169.279 309.260 C 169.509 309.117,169.596 308.836,169.471 308.634 C 169.171 308.148,168.219 308.166,167.912 308.664 M384.252 308.777 C 384.252 309.094,383.971 309.586,383.627 309.871 C 383.067 310.336,383.094 310.424,383.891 310.719 C 384.903 311.094,385.499 310.501,385.337 309.283 C 385.218 308.390,384.252 307.940,384.252 308.777 M169.536 310.057 C 169.405 310.399,169.557 310.757,169.889 310.884 C 170.210 311.007,170.472 311.428,170.472 311.818 C 170.472 312.590,171.376 312.639,172.108 311.908 C 172.441 311.574,172.290 311.394,171.514 311.200 C 170.941 311.056,170.472 310.702,170.472 310.414 C 170.472 309.624,169.800 309.368,169.536 310.057 M373.803 312.967 C 374.074 313.405,375.591 313.355,375.591 312.908 C 375.591 312.738,375.137 312.598,374.583 312.598 C 374.029 312.598,373.678 312.764,373.803 312.967 M310.427 314.207 C 309.832 314.439,309.997 314.518,311.122 314.539 C 311.934 314.554,312.598 314.499,312.598 314.416 C 312.598 314.065,311.147 313.925,310.427 314.207 M366.751 314.136 C 366.098 314.391,366.179 314.476,367.283 314.697 C 368.678 314.976,369.445 314.741,369.078 314.146 C 368.812 313.716,367.834 313.712,366.751 314.136 M306.923 315.213 C 306.576 316.118,307.238 316.711,307.817 316.014 C 308.173 315.585,308.153 315.355,307.728 315.003 C 307.299 314.647,307.123 314.693,306.923 315.213 M175.984 315.551 C 175.984 315.876,176.250 316.142,176.575 316.142 C 176.900 316.142,177.165 315.876,177.165 315.551 C 177.165 315.226,176.900 314.961,176.575 314.961 C 176.250 314.961,175.984 315.226,175.984 315.551 M355.020 315.632 C 355.507 315.726,356.304 315.726,356.791 315.632 C 357.279 315.538,356.880 315.462,355.906 315.462 C 354.931 315.462,354.532 315.538,355.020 315.632 M305.584 317.532 C 305.653 318.080,305.886 318.528,306.102 318.528 C 306.319 318.528,306.552 318.080,306.621 317.532 C 306.709 316.822,306.561 316.535,306.102 316.535 C 305.644 316.535,305.495 316.822,305.584 317.532 M349.288 316.959 C 349.366 317.191,349.597 317.382,349.803 317.382 C 350.009 317.382,350.241 317.191,350.318 316.959 C 350.396 316.726,350.164 316.535,349.803 316.535 C 349.442 316.535,349.210 316.726,349.288 316.959 M342.717 318.504 C 342.850 318.720,343.293 318.898,343.701 318.898 C 344.108 318.898,344.551 318.720,344.685 318.504 C 344.827 318.274,344.419 318.110,343.701 318.110 C 342.983 318.110,342.574 318.274,342.717 318.504 M337.795 319.601 C 337.795 319.772,338.150 319.938,338.583 319.970 C 339.016 320.003,339.370 319.864,339.370 319.661 C 339.370 319.457,339.016 319.291,338.583 319.291 C 338.150 319.291,337.795 319.431,337.795 319.601 M338.796 354.304 C 338.527 354.739,339.148 355.208,339.512 354.845 C 339.886 354.471,339.817 353.937,339.393 353.937 C 339.190 353.937,338.921 354.102,338.796 354.304 M395.803 388.636 C 395.940 389.148,396.055 389.700,396.058 389.862 C 396.061 390.025,396.329 390.157,396.654 390.157 C 397.549 390.157,397.360 388.672,396.399 388.158 C 395.626 387.744,395.575 387.785,395.803 388.636 " stroke="none" fill="#045c73" fill-rule="evenodd"></path><path id="path2" d="" stroke="none" fill="#08546c" fill-rule="evenodd"></path><path id="path3" d="M72.441 239.567 C 72.441 239.928,72.631 240.160,72.864 240.082 C 73.097 240.004,73.287 239.773,73.287 239.567 C 73.287 239.361,73.097 239.129,72.864 239.052 C 72.631 238.974,72.441 239.206,72.441 239.567 " stroke="none" fill="#045474" fill-rule="evenodd"></path><path id="path4" d="" stroke="none" fill="#08546c" fill-rule="evenodd"></path></g></svg>