<svg id="svg" version="1.1" xmlns="http://www.w3.org/2000/svg" xmlns:xlink="http://www.w3.org/1999/xlink" width="400" height="400" viewBox="0, 0, 400,400"><g id="svgg"><path id="path0" d="M0.000 136.748 L 0.000 148.295 1.500 148.543 C 3.469 148.869,397.123 148.875,398.750 148.550 L 400.000 148.300 400.000 136.750 L 400.000 125.200 200.000 125.200 L 0.000 125.200 0.000 136.748 M233.071 159.062 C 232.485 159.648,232.760 238.669,233.351 239.159 C 233.735 239.478,236.533 239.583,242.651 239.508 L 251.400 239.400 251.600 210.520 C 251.812 179.936,251.867 179.110,253.535 181.572 C 254.541 183.058,256.341 187.927,256.640 189.973 C 256.787 190.978,257.221 192.610,257.605 193.600 C 257.989 194.590,258.436 196.548,258.597 197.951 C 258.758 199.355,259.209 201.245,259.599 202.151 C 259.988 203.058,260.427 204.773,260.575 205.963 C 260.723 207.152,261.080 208.592,261.369 209.163 C 261.658 209.733,262.568 212.990,263.393 216.400 C 264.217 219.810,265.223 223.680,265.627 225.000 C 266.031 226.320,266.566 228.565,266.815 229.990 C 267.064 231.414,267.440 232.901,267.650 233.294 C 267.861 233.688,268.253 235.222,268.521 236.705 L 269.010 239.400 276.805 239.513 C 287.170 239.664,287.054 239.723,287.992 233.853 C 288.216 232.448,288.670 230.652,289.000 229.862 C 289.330 229.072,289.600 228.054,289.600 227.600 C 289.600 227.146,289.969 225.679,290.421 224.339 C 290.872 222.999,291.491 220.620,291.796 219.052 C 292.566 215.093,293.692 210.446,294.912 206.200 C 295.480 204.220,296.069 201.970,296.221 201.200 C 296.372 200.430,296.744 199.316,297.046 198.724 C 297.349 198.131,297.781 196.345,298.006 194.754 C 298.232 193.164,298.600 191.641,298.824 191.371 C 299.048 191.101,299.414 189.737,299.636 188.340 C 300.025 185.898,302.144 180.800,302.769 180.800 C 303.892 180.800,304.000 183.436,304.000 210.739 C 304.000 231.906,304.116 238.756,304.480 239.120 C 304.987 239.627,320.908 239.841,322.167 239.357 C 322.738 239.138,322.800 235.206,322.800 198.957 L 322.800 158.800 307.300 158.806 C 290.026 158.813,290.986 158.664,290.586 161.400 C 290.425 162.500,289.979 164.210,289.595 165.200 C 289.211 166.190,288.771 167.990,288.617 169.200 C 288.463 170.410,288.010 172.480,287.610 173.800 C 287.211 175.120,286.604 177.370,286.261 178.800 C 285.919 180.230,284.638 185.180,283.414 189.800 C 280.658 200.202,280.544 200.655,280.226 202.488 C 279.974 203.941,278.297 206.400,277.558 206.400 C 276.668 206.400,273.504 195.718,271.796 186.948 C 271.491 185.380,270.872 183.001,270.421 181.661 C 269.969 180.321,269.600 178.808,269.600 178.299 C 269.600 177.789,269.240 176.348,268.800 175.096 C 268.360 173.844,268.000 172.362,268.000 171.802 C 268.000 171.243,267.570 169.555,267.045 168.052 C 266.520 166.549,265.970 164.604,265.822 163.728 C 265.674 162.853,265.310 161.431,265.014 160.568 L 264.475 159.000 248.909 158.895 C 240.347 158.838,233.220 158.913,233.071 159.062 M330.800 199.200 L 330.800 239.600 341.900 239.594 C 348.005 239.591,353.223 239.446,353.495 239.273 C 353.869 239.036,354.015 235.521,354.095 224.823 L 354.200 210.686 355.328 209.843 C 356.370 209.064,357.162 208.979,365.728 208.722 C 376.591 208.396,379.172 208.089,383.142 206.652 C 393.991 202.724,399.058 193.770,398.222 180.000 C 397.965 175.752,397.932 175.641,395.292 170.028 C 393.305 165.803,386.429 160.400,383.040 160.400 C 382.484 160.400,381.116 160.040,380.000 159.600 C 378.052 158.832,377.027 158.800,354.385 158.800 L 330.800 158.800 330.800 199.200 M30.540 165.379 C 29.847 165.681,27.912 166.232,26.239 166.604 C 24.566 166.976,23.105 167.430,22.993 167.611 C 22.881 167.793,22.116 168.158,21.294 168.422 C 19.010 169.157,12.617 175.000,10.197 178.566 C 3.686 188.161,1.935 205.924,6.230 218.800 C 7.153 221.566,8.472 224.772,9.128 225.844 C 12.184 230.836,17.274 235.641,21.747 237.758 C 22.961 238.332,24.052 238.960,24.172 239.155 C 24.292 239.349,25.190 239.628,26.166 239.774 C 27.143 239.921,28.941 240.391,30.161 240.820 C 33.550 242.011,39.708 241.912,43.400 240.607 C 44.940 240.062,46.560 239.611,47.000 239.603 C 51.570 239.522,60.715 231.335,64.252 224.157 C 67.446 217.674,67.532 217.438,68.305 212.947 C 71.317 195.436,65.665 177.788,54.704 170.482 C 53.811 169.887,52.882 169.267,52.640 169.105 C 51.500 168.342,47.587 166.845,45.694 166.448 C 44.536 166.205,42.939 165.735,42.146 165.403 C 40.249 164.611,32.344 164.594,30.540 165.379 M43.400 172.244 C 44.060 172.595,45.294 173.133,46.142 173.438 C 50.867 175.141,57.722 183.278,58.629 188.261 C 58.783 189.107,59.279 190.700,59.732 191.800 C 60.968 194.808,60.975 212.442,59.741 215.200 C 59.298 216.190,58.811 217.540,58.660 218.200 C 57.878 221.603,54.417 226.757,51.132 229.408 C 50.179 230.177,49.186 230.981,48.925 231.195 C 42.351 236.587,29.316 235.845,21.898 229.656 C 6.023 216.411,8.875 180.339,26.330 173.600 C 27.185 173.270,28.136 172.791,28.442 172.535 C 29.735 171.458,41.494 171.229,43.400 172.244 M367.460 174.158 C 373.756 175.834,377.027 182.067,374.529 187.630 C 373.766 189.328,371.416 191.994,370.678 191.998 C 370.501 191.999,369.511 192.398,368.478 192.885 C 365.390 194.340,356.981 194.461,355.367 193.074 L 354.200 192.071 354.093 184.335 C 353.978 175.997,354.155 175.051,356.008 174.114 C 357.354 173.433,364.844 173.462,367.460 174.158 M94.677 182.276 C 92.935 183.205,91.133 184.620,89.677 186.202 C 85.831 190.382,84.400 190.393,84.400 186.241 C 84.400 183.565,83.349 182.400,80.936 182.400 C 77.802 182.400,78.041 179.589,77.817 219.022 C 77.706 238.370,77.602 256.000,77.586 258.200 C 77.550 263.058,78.117 271.138,78.562 272.100 C 79.011 273.071,83.580 273.094,85.048 272.132 L 86.068 271.464 85.785 252.632 L 85.503 233.800 86.366 232.718 L 87.230 231.636 89.915 234.318 C 94.666 239.063,100.707 241.000,104.533 239.004 C 105.157 238.679,106.417 238.212,107.333 237.967 C 110.160 237.210,116.588 232.102,118.085 229.425 C 118.461 228.751,119.049 227.570,119.392 226.800 C 119.734 226.030,120.281 224.860,120.606 224.200 C 123.307 218.728,123.200 199.700,120.443 195.177 C 119.981 194.420,119.598 193.530,119.593 193.200 C 119.587 192.870,119.230 192.150,118.800 191.600 C 118.370 191.050,118.014 190.346,118.009 190.035 C 117.984 188.476,110.672 182.758,108.000 182.209 C 107.230 182.051,106.201 181.669,105.714 181.361 C 103.773 180.132,97.762 180.630,94.677 182.276 M148.115 181.245 C 147.870 181.490,146.826 181.848,145.795 182.041 C 139.683 183.182,131.388 192.194,130.373 198.794 C 130.187 200.007,129.765 201.720,129.435 202.600 C 128.464 205.189,128.568 215.989,129.595 219.264 C 130.032 220.659,130.392 222.070,130.395 222.400 C 130.438 227.409,140.319 237.402,145.931 238.113 C 146.883 238.234,147.977 238.617,148.363 238.966 C 149.488 239.984,157.511 239.866,159.600 238.800 C 160.462 238.360,161.562 238.000,162.044 238.000 C 166.148 238.000,173.206 231.189,175.641 224.880 C 176.176 223.492,174.532 222.000,172.467 222.000 C 171.560 222.000,170.688 221.747,170.400 221.400 C 169.571 220.401,168.917 220.710,167.731 222.664 C 164.325 228.278,160.271 230.542,153.600 230.558 C 150.072 230.566,148.720 230.416,147.800 229.912 C 147.140 229.551,146.023 228.985,145.317 228.655 C 141.177 226.719,136.800 218.957,136.800 213.550 C 136.800 211.637,137.140 211.603,156.474 211.560 C 166.443 211.538,175.050 211.392,175.600 211.235 C 178.011 210.548,176.084 197.423,172.776 192.000 C 172.575 191.670,172.128 190.896,171.784 190.279 C 170.122 187.305,163.403 182.415,160.532 182.091 C 159.586 181.985,158.608 181.650,158.357 181.349 C 157.777 180.650,148.801 180.559,148.115 181.245 M203.424 181.413 C 202.996 181.736,202.259 182.000,201.784 182.000 C 200.893 182.000,198.519 183.446,196.528 185.200 C 191.596 189.546,190.422 189.539,190.405 185.162 C 190.396 182.641,187.202 181.402,184.889 183.023 L 184.000 183.645 184.000 211.415 L 184.000 239.185 184.908 239.413 C 185.408 239.538,187.073 239.587,188.608 239.520 L 191.400 239.400 191.618 220.400 C 191.871 198.287,191.957 197.708,195.523 194.039 C 199.354 190.099,207.186 188.121,210.800 190.182 C 211.350 190.495,212.362 191.014,213.050 191.335 C 217.785 193.542,218.150 195.441,218.393 219.200 L 218.600 239.400 221.392 239.520 C 222.927 239.587,224.592 239.538,225.092 239.413 L 226.000 239.185 226.000 218.247 C 226.000 196.183,225.898 194.669,224.130 190.400 C 222.393 186.207,218.792 182.722,215.601 182.146 C 214.830 182.007,213.714 181.647,213.120 181.347 C 211.588 180.571,204.472 180.620,203.424 181.413 M105.984 190.823 C 111.428 193.657,113.949 197.764,115.005 205.521 C 116.980 220.032,110.648 230.458,99.802 230.553 C 94.802 230.597,88.000 227.146,88.000 224.566 C 88.000 224.308,87.741 223.883,87.424 223.620 C 85.577 222.087,83.758 213.785,84.133 208.600 C 85.153 194.487,96.026 185.641,105.984 190.823 M159.800 190.591 C 160.900 191.132,161.998 191.581,162.239 191.587 C 164.968 191.665,169.653 200.187,167.920 201.920 C 166.986 202.854,138.687 202.580,137.825 201.628 C 136.187 199.818,140.235 192.902,143.682 191.623 C 144.407 191.353,145.354 190.942,145.787 190.709 C 148.577 189.204,156.840 189.135,159.800 190.591 M370.131 235.229 C 369.804 235.556,369.833 235.956,370.240 236.737 C 370.546 237.322,370.796 238.115,370.798 238.500 C 370.799 238.885,370.980 239.200,371.200 239.200 C 371.420 239.200,371.600 238.761,371.600 238.224 C 371.600 236.383,374.099 236.346,374.559 238.179 C 374.820 239.220,376.509 239.809,378.448 239.535 C 379.235 239.423,379.422 239.133,379.527 237.858 C 379.707 235.665,379.427 235.134,378.314 235.553 C 377.784 235.753,376.980 235.739,376.400 235.521 C 374.807 234.920,370.635 234.725,370.131 235.229 M-0.000 251.375 L -0.000 254.351 1.700 254.594 C 3.954 254.916,68.660 254.674,68.991 254.342 C 69.133 254.200,69.356 253.048,69.487 251.782 C 69.866 248.107,72.926 248.400,34.124 248.400 L 0.000 248.400 -0.000 251.375 M95.619 248.780 C 94.483 249.498,94.875 253.636,96.160 254.494 C 96.693 254.850,396.973 254.905,398.750 254.550 L 400.000 254.300 400.000 251.350 L 400.000 248.400 248.100 248.406 C 156.487 248.410,95.969 248.558,95.619 248.780 " stroke="none" fill="#0c7881" fill-rule="evenodd"></path><path id="path1" d="M0.876 123.940 C 0.368 124.083,89.957 124.200,199.961 124.200 C 309.966 124.200,399.662 124.078,399.285 123.928 C 398.409 123.580,2.111 123.592,0.876 123.940 M99.900 149.900 C 154.955 149.956,245.045 149.956,300.100 149.900 C 355.155 149.844,310.110 149.798,200.000 149.798 C 89.890 149.798,44.845 149.844,99.900 149.900 M264.291 158.445 C 265.262 158.726,265.674 159.138,265.955 160.109 C 266.314 161.352,266.329 161.360,266.364 160.323 C 266.404 159.117,265.132 157.977,263.811 158.036 C 263.280 158.060,263.446 158.201,264.291 158.445 M290.480 158.480 C 290.216 158.744,290.013 159.239,290.028 159.580 C 290.048 160.014,290.149 159.963,290.365 159.409 C 290.535 158.974,291.107 158.497,291.637 158.349 C 292.473 158.115,292.492 158.074,291.780 158.040 C 291.329 158.018,290.744 158.216,290.480 158.480 M322.400 158.358 L 323.400 158.636 323.502 198.775 C 323.576 228.101,323.482 239.060,323.153 239.457 C 322.539 240.197,304.416 240.256,303.680 239.520 C 303.317 239.157,303.194 232.832,303.177 213.620 C 303.164 199.639,303.029 187.507,302.877 186.661 L 302.600 185.121 301.500 186.141 C 300.895 186.703,300.403 187.485,300.406 187.881 C 300.411 188.435,300.491 188.476,300.755 188.059 C 301.023 187.636,301.285 187.618,301.949 187.973 L 302.800 188.428 302.800 213.870 C 302.800 237.631,302.846 239.347,303.500 239.843 C 304.381 240.512,322.005 240.639,323.226 239.986 C 323.983 239.581,324.000 238.706,324.000 199.266 C 324.000 156.795,324.050 157.951,322.220 158.040 C 321.533 158.073,321.562 158.125,322.400 158.358 M330.014 158.774 C 329.735 159.296,329.631 172.412,329.696 199.074 L 329.792 238.600 329.996 198.685 C 330.174 163.791,330.275 158.723,330.800 158.391 C 331.175 158.155,331.218 158.010,330.914 158.006 C 330.647 158.003,330.242 158.348,330.014 158.774 M377.600 158.230 C 378.150 158.334,379.651 158.698,380.936 159.040 C 382.221 159.382,383.363 159.571,383.473 159.460 C 383.783 159.150,380.835 158.392,378.600 158.207 C 377.500 158.116,377.050 158.127,377.600 158.230 M231.698 199.038 C 231.604 237.387,231.631 239.104,232.331 239.738 C 233.395 240.701,250.944 240.735,252.311 239.777 L 253.200 239.155 253.200 214.837 C 253.200 198.158,253.338 190.122,253.641 189.255 L 254.082 187.991 254.860 189.495 C 255.288 190.323,255.898 192.100,256.215 193.444 C 256.796 195.906,258.249 199.636,257.834 197.600 C 256.716 192.110,254.519 186.318,253.621 186.491 C 253.070 186.597,252.978 189.567,252.800 212.920 C 252.627 235.723,252.520 239.280,252.000 239.609 C 250.996 240.243,232.987 240.108,232.451 239.461 C 232.130 239.074,231.975 227.678,231.900 198.961 L 231.796 159.000 231.698 199.038 M384.800 160.070 C 385.350 160.299,386.307 160.754,386.928 161.082 C 387.548 161.410,388.142 161.591,388.249 161.485 C 388.508 161.226,385.101 159.593,384.374 159.627 C 384.058 159.642,384.250 159.841,384.800 160.070 M266.432 162.064 C 266.414 162.430,266.758 163.870,267.195 165.264 C 267.632 166.659,268.013 168.160,268.041 168.600 C 268.085 169.286,268.119 169.299,268.277 168.692 C 268.379 168.303,268.073 166.683,267.599 165.092 C 266.459 161.274,266.468 161.298,266.432 162.064 M390.692 163.189 C 393.902 165.745,396.687 169.859,398.011 174.000 C 398.299 174.899,398.335 174.914,398.366 174.146 C 398.418 172.841,395.418 167.199,393.715 165.400 C 391.913 163.497,389.595 161.600,389.071 161.600 C 388.864 161.600,389.594 162.315,390.692 163.189 M288.846 163.239 C 288.601 163.943,288.409 164.808,288.419 165.160 C 288.430 165.512,288.712 165.018,289.047 164.061 C 289.382 163.105,289.574 162.241,289.474 162.141 C 289.374 162.041,289.092 162.535,288.846 163.239 M28.600 164.411 C 22.773 166.171,18.000 168.370,18.000 169.296 C 18.000 169.531,18.315 169.447,18.700 169.109 C 19.815 168.128,22.520 166.881,25.470 165.986 C 26.972 165.531,28.740 164.951,29.400 164.696 C 33.677 163.049,49.914 165.196,51.404 167.606 C 51.538 167.823,51.827 168.000,52.047 168.000 C 53.824 168.000,47.646 165.321,43.342 164.226 C 39.875 163.343,31.802 163.445,28.600 164.411 M52.800 168.161 C 52.800 168.250,53.760 168.960,54.934 169.739 C 59.601 172.836,64.086 178.526,66.662 184.615 C 67.217 185.927,67.817 187.540,67.995 188.200 C 68.268 189.214,68.324 189.256,68.359 188.474 C 68.382 187.965,67.950 186.565,67.400 185.363 C 66.850 184.160,66.400 183.067,66.400 182.933 C 66.400 180.907,59.102 172.011,55.655 169.835 C 54.782 169.283,53.951 168.645,53.810 168.416 C 53.564 168.018,52.800 167.825,52.800 168.161 M287.069 170.674 C 286.732 171.733,286.337 173.230,286.191 174.000 C 286.045 174.770,285.421 177.110,284.805 179.200 C 283.466 183.739,282.363 188.148,282.154 189.800 C 281.986 191.135,282.880 188.099,285.040 180.000 C 285.833 177.030,286.847 173.379,287.295 171.888 C 287.742 170.396,288.012 169.079,287.895 168.962 C 287.778 168.844,287.406 169.615,287.069 170.674 M13.470 172.900 C 10.253 176.084,9.588 176.976,8.175 180.000 C 7.815 180.770,7.301 181.670,7.034 182.000 C 2.435 187.668,0.992 208.661,4.542 218.243 C 5.815 221.681,6.851 224.109,7.479 225.128 C 10.875 230.640,13.890 234.201,16.880 236.232 C 17.826 236.874,18.838 237.625,19.129 237.900 C 19.419 238.175,19.860 238.400,20.109 238.400 C 20.357 238.400,19.400 237.556,17.982 236.524 C 14.937 234.309,11.035 230.370,9.933 228.400 C 9.502 227.630,8.689 226.190,8.126 225.200 C -1.616 208.074,2.390 181.704,16.404 170.704 C 17.172 170.102,17.576 169.607,17.302 169.604 C 17.028 169.602,15.304 171.085,13.470 172.900 M31.800 172.391 C 31.360 172.576,29.879 173.124,28.509 173.609 C 25.651 174.621,20.129 178.494,19.073 180.227 C 18.438 181.271,18.505 181.242,19.679 179.964 C 22.115 177.315,28.155 173.614,30.087 173.587 C 30.589 173.580,31.349 173.310,31.776 172.987 C 33.269 171.858,39.499 172.197,43.154 173.606 C 49.742 176.147,53.421 179.581,56.566 186.125 C 57.181 187.404,57.778 188.355,57.895 188.239 C 58.197 187.936,55.807 183.389,54.180 181.173 C 49.991 175.466,43.243 171.980,36.478 172.027 C 34.345 172.042,32.240 172.206,31.800 172.391 M268.847 172.200 C 268.836 172.420,269.184 173.770,269.620 175.200 C 270.295 177.419,270.380 177.547,270.197 176.076 C 269.999 174.482,268.889 171.295,268.847 172.200 M355.823 175.689 C 354.634 177.387,354.929 190.965,356.182 192.218 C 357.370 193.406,362.387 193.602,365.800 192.594 C 367.673 192.040,367.698 192.016,366.200 192.213 C 360.491 192.965,357.821 192.910,356.700 192.017 L 355.600 191.142 355.600 183.971 C 355.600 174.901,355.407 175.198,361.300 175.205 C 368.756 175.213,372.160 176.770,373.469 180.767 C 374.587 184.179,373.845 187.460,371.407 189.899 C 370.471 190.834,369.825 191.600,369.971 191.600 C 370.118 191.600,370.895 190.925,371.699 190.100 C 376.386 185.290,374.841 177.880,368.685 175.642 C 365.165 174.362,356.730 174.393,355.823 175.689 M399.000 183.021 C 399.000 187.398,399.114 188.654,399.500 188.506 C 399.863 188.367,400.000 186.948,400.000 183.329 C 400.000 179.873,399.847 178.189,399.500 177.843 C 399.100 177.443,399.000 178.478,399.000 183.021 M270.453 178.800 C 270.467 179.750,271.937 183.491,271.947 182.600 C 271.951 182.160,271.615 180.990,271.200 180.000 C 270.785 179.010,270.449 178.470,270.453 178.800 M99.907 179.890 C 100.626 179.979,101.706 179.977,102.307 179.886 C 102.908 179.795,102.320 179.722,101.000 179.724 C 99.680 179.726,99.188 179.801,99.907 179.890 M150.900 179.894 C 151.945 179.976,153.655 179.976,154.700 179.894 C 155.745 179.812,154.890 179.744,152.800 179.744 C 150.710 179.744,149.855 179.812,150.900 179.894 M206.900 179.891 C 207.725 179.978,209.075 179.978,209.900 179.891 C 210.725 179.805,210.050 179.734,208.400 179.734 C 206.750 179.734,206.075 179.805,206.900 179.891 M95.289 180.665 C 94.568 181.020,94.057 181.390,94.154 181.488 C 94.252 181.585,94.752 181.439,95.266 181.163 C 95.780 180.887,96.740 180.531,97.400 180.371 C 98.491 180.108,98.509 180.079,97.600 180.050 C 97.050 180.033,96.010 180.309,95.289 180.665 M104.600 180.270 C 105.040 180.368,106.079 180.707,106.908 181.024 C 109.125 181.871,109.704 181.683,107.600 180.800 C 106.610 180.385,105.350 180.056,104.800 180.069 C 104.011 180.088,103.969 180.130,104.600 180.270 M212.200 180.276 C 212.640 180.377,213.952 180.806,215.115 181.230 C 218.194 182.351,218.657 182.137,215.651 180.980 C 214.250 180.441,212.720 180.021,212.251 180.046 C 211.447 180.090,211.444 180.103,212.200 180.276 M144.475 181.073 C 141.928 181.974,142.652 182.087,145.417 181.220 C 146.728 180.809,147.440 180.471,147.000 180.468 C 146.560 180.465,145.424 180.738,144.475 181.073 M159.200 180.757 C 159.530 180.940,160.430 181.192,161.200 181.317 L 162.600 181.544 161.400 180.990 C 160.064 180.373,158.141 180.170,159.200 180.757 M200.600 181.229 C 199.720 181.652,199.450 181.886,200.000 181.750 C 201.505 181.375,203.484 180.466,202.800 180.462 C 202.470 180.461,201.480 180.806,200.600 181.229 M17.689 182.100 C 9.863 191.671,11.349 218.295,20.200 227.086 C 21.945 228.819,25.597 231.600,26.129 231.600 C 26.380 231.600,25.869 231.126,24.993 230.547 C 13.299 222.816,9.029 200.589,16.354 185.575 C 18.287 181.614,18.465 181.151,17.689 182.100 M79.491 181.889 C 80.201 181.977,81.461 181.979,82.291 181.892 C 83.121 181.805,82.540 181.733,81.000 181.731 C 79.460 181.729,78.781 181.800,79.491 181.889 M91.355 182.821 C 90.500 183.493,89.216 184.708,88.502 185.521 C 86.989 187.246,86.304 186.862,85.852 184.035 C 85.629 182.639,84.647 181.619,84.076 182.191 C 83.961 182.306,84.055 182.400,84.285 182.400 C 84.789 182.400,85.524 184.164,85.684 185.760 C 85.899 187.909,87.037 188.032,88.664 186.081 C 89.453 185.135,90.912 183.740,91.907 182.981 C 92.901 182.221,93.534 181.600,93.313 181.600 C 93.091 181.600,92.210 182.150,91.355 182.821 M110.688 182.253 C 112.271 183.034,116.189 186.425,117.690 188.314 C 118.301 189.082,118.800 189.499,118.800 189.241 C 118.800 187.980,111.436 181.588,110.007 181.609 C 109.673 181.614,109.980 181.904,110.688 182.253 M185.700 181.891 C 186.525 181.978,187.875 181.978,188.700 181.891 C 189.525 181.805,188.850 181.734,187.200 181.734 C 185.550 181.734,184.875 181.805,185.700 181.891 M76.834 182.737 C 76.266 183.797,76.174 270.640,76.739 272.076 C 77.558 274.159,84.317 274.966,86.456 273.236 C 87.696 272.232,88.101 259.208,87.022 255.000 C 86.429 252.687,86.417 252.673,86.703 254.600 C 86.866 255.700,87.000 260.059,87.000 264.286 C 87.000 273.628,87.150 273.334,82.276 273.537 C 77.218 273.748,77.061 273.547,76.804 266.538 C 76.309 253.087,76.974 182.786,77.600 182.391 C 77.975 182.155,78.018 182.010,77.714 182.006 C 77.447 182.003,77.051 182.332,76.834 182.737 M139.832 183.405 C 134.966 186.772,129.580 194.150,129.617 197.400 C 129.622 197.840,129.944 197.281,130.332 196.159 C 132.062 191.154,135.908 186.482,141.247 182.900 C 141.985 182.405,142.411 182.010,142.194 182.022 C 141.977 182.034,140.915 182.657,139.832 183.405 M164.000 182.195 C 164.000 182.302,164.765 182.862,165.700 183.440 C 166.635 184.017,168.474 185.504,169.786 186.745 C 171.099 187.985,171.819 188.559,171.386 188.020 C 169.132 185.212,164.000 181.165,164.000 182.195 M182.814 182.774 C 182.540 183.286,182.400 192.950,182.400 211.351 L 182.400 239.155 183.289 239.777 C 184.440 240.584,191.277 240.671,191.927 239.887 C 192.209 239.549,192.401 233.480,192.494 221.987 C 192.669 200.334,192.911 198.841,196.965 194.456 C 199.046 192.205,199.163 192.006,197.769 193.090 C 192.759 196.985,192.301 199.275,192.023 221.800 L 191.800 239.800 188.102 239.915 C 182.141 240.100,182.800 243.634,182.800 211.475 C 182.800 187.054,182.874 183.673,183.423 182.889 C 183.765 182.400,183.861 182.000,183.637 182.000 C 183.412 182.000,183.042 182.348,182.814 182.774 M190.714 182.492 C 190.996 182.835,191.361 183.897,191.524 184.854 C 191.706 185.919,192.056 186.638,192.428 186.710 C 192.923 186.805,196.969 183.930,198.600 182.323 C 199.437 181.499,196.036 183.675,195.031 184.607 C 194.450 185.145,193.617 185.777,193.181 186.010 C 192.311 186.476,192.343 186.524,191.747 183.830 C 191.556 182.967,191.130 182.173,190.800 182.065 C 190.301 181.903,190.286 181.974,190.714 182.492 M219.593 183.119 C 222.967 185.736,225.657 190.081,226.389 194.095 L 226.774 196.200 226.594 194.004 C 226.267 189.996,220.905 181.921,218.636 182.019 C 218.396 182.029,218.827 182.524,219.593 183.119 M272.041 183.947 C 271.945 185.224,276.821 203.755,277.406 204.338 C 277.756 204.688,279.600 202.517,279.600 201.755 C 279.600 201.366,279.261 201.550,278.634 202.278 C 277.473 203.626,277.257 203.462,276.583 200.718 C 276.044 198.521,272.985 186.707,272.409 184.600 C 272.229 183.940,272.063 183.646,272.041 183.947 M172.505 190.000 C 173.705 191.728,176.039 196.535,176.386 197.998 C 176.664 199.168,176.726 199.230,176.760 198.371 C 176.809 197.113,173.614 190.430,172.567 189.600 C 171.831 189.017,171.830 189.029,172.505 190.000 M299.249 192.482 C 298.727 194.360,298.397 196.145,298.518 196.448 C 298.654 196.791,298.749 196.683,298.768 196.163 C 298.786 195.702,299.166 194.262,299.614 192.963 C 300.061 191.663,300.376 190.255,300.314 189.834 C 300.251 189.412,299.772 190.604,299.249 192.482 M119.164 190.600 C 119.858 191.957,120.387 192.622,120.394 192.144 C 120.397 191.894,120.030 191.264,119.577 190.744 C 118.931 190.002,118.842 189.971,119.164 190.600 M152.500 190.276 C 152.885 190.376,153.515 190.376,153.900 190.276 C 154.285 190.175,153.970 190.093,153.200 190.093 C 152.430 190.093,152.115 190.175,152.500 190.276 M94.600 191.477 C 92.639 192.496,88.000 196.880,88.000 197.714 C 88.000 197.947,87.743 198.422,87.428 198.769 C 87.113 199.117,86.483 201.229,86.028 203.464 C 82.945 218.593,89.032 230.177,99.936 229.931 L 103.000 229.862 99.600 229.626 C 89.062 228.895,83.738 218.931,86.228 204.600 C 87.378 197.985,90.514 193.725,96.104 191.187 C 97.037 190.764,97.530 190.422,97.200 190.427 C 96.870 190.433,95.700 190.905,94.600 191.477 M105.118 191.675 C 111.882 195.055,114.785 202.645,113.645 213.966 C 112.863 221.721,110.464 225.621,104.683 228.536 C 103.849 228.956,103.246 229.380,103.344 229.477 C 104.386 230.519,110.570 225.132,112.141 221.815 C 114.833 216.129,115.002 203.329,112.448 198.600 C 110.270 194.567,105.487 190.370,103.113 190.408 C 102.831 190.413,103.733 190.983,105.118 191.675 M146.197 191.345 C 142.874 192.764,138.400 196.872,138.400 198.504 C 138.400 198.742,138.946 198.113,139.613 197.106 C 141.135 194.808,143.720 192.676,145.800 192.004 C 147.331 191.509,149.401 190.351,148.589 190.445 C 148.375 190.469,147.299 190.874,146.197 191.345 M157.800 191.044 C 160.388 192.028,161.136 192.124,159.256 191.229 C 158.297 190.773,157.217 190.408,156.856 190.418 C 156.495 190.427,156.920 190.709,157.800 191.044 M200.806 191.223 C 200.040 191.650,199.685 192.000,200.017 192.000 C 200.350 192.000,200.977 191.752,201.411 191.448 C 201.845 191.145,202.560 190.805,203.000 190.694 L 203.800 190.493 203.000 190.469 C 202.560 190.456,201.573 190.796,200.806 191.223 M210.606 191.240 C 216.578 194.387,216.580 194.396,216.709 218.600 C 216.838 242.635,216.288 240.400,222.071 240.400 C 227.807 240.400,227.215 243.045,227.104 217.886 L 227.007 196.200 226.900 217.563 C 226.776 242.349,227.270 240.069,222.050 239.914 C 216.782 239.757,217.213 241.637,217.206 218.787 C 217.199 197.863,217.109 196.916,214.859 194.075 C 213.668 192.571,210.476 190.400,209.456 190.400 C 209.212 190.400,209.729 190.778,210.606 191.240 M58.448 191.800 C 58.464 192.777,59.529 195.642,59.564 194.800 C 59.577 194.470,59.329 193.480,59.012 192.600 C 58.695 191.720,58.441 191.360,58.448 191.800 M68.973 192.800 C 70.224 198.286,70.256 208.892,69.034 213.200 C 68.690 214.410,68.422 215.760,68.437 216.200 C 68.452 216.640,68.826 215.650,69.269 214.000 C 70.741 208.513,70.672 194.781,69.160 192.442 C 68.831 191.933,68.792 192.008,68.973 192.800 M163.324 194.000 C 166.229 196.655,168.338 200.952,166.917 201.321 C 166.234 201.498,166.234 201.509,166.913 201.554 C 168.206 201.638,168.180 200.345,166.836 197.752 C 165.598 195.365,162.522 192.000,161.577 192.000 C 161.334 192.000,162.120 192.900,163.324 194.000 M398.046 192.456 C 397.661 197.902,389.991 205.211,381.600 208.128 C 381.142 208.288,381.171 208.344,381.722 208.368 C 386.872 208.594,399.357 196.614,398.273 192.487 C 398.115 191.886,398.087 191.882,398.046 192.456 M120.416 193.220 C 120.407 193.561,120.596 194.036,120.836 194.276 C 124.303 197.743,124.384 218.629,120.957 225.280 C 120.223 226.704,120.245 227.199,120.995 226.129 C 121.571 225.305,122.242 223.167,123.479 218.200 C 124.475 214.204,124.007 201.917,122.709 197.984 C 121.623 194.692,120.441 192.238,120.416 193.220 M280.836 194.836 C 280.566 195.739,280.418 196.552,280.508 196.642 C 280.598 196.732,280.893 196.066,281.164 195.164 C 281.434 194.261,281.582 193.448,281.492 193.358 C 281.402 193.268,281.107 193.934,280.836 194.836 M59.720 197.600 C 59.720 198.810,59.795 199.305,59.887 198.700 C 59.978 198.095,59.978 197.105,59.887 196.500 C 59.795 195.895,59.720 196.390,59.720 197.600 M279.840 198.840 C 279.693 199.757,279.652 200.585,279.747 200.680 C 279.842 200.776,280.046 200.110,280.200 199.200 C 280.354 198.290,280.396 197.462,280.293 197.360 C 280.190 197.257,279.987 197.923,279.840 198.840 M128.831 199.862 C 128.183 202.197,128.371 202.875,129.052 200.658 C 129.380 199.590,129.561 198.628,129.454 198.520 C 129.346 198.413,129.066 199.017,128.831 199.862 M138.040 200.220 C 137.955 201.970,138.253 202.005,152.580 201.908 L 166.200 201.816 152.418 201.608 L 138.636 201.400 138.358 200.400 C 138.125 199.562,138.073 199.533,138.040 200.220 M176.860 200.200 C 176.854 200.640,177.088 202.260,177.380 203.800 C 177.825 206.148,177.916 206.342,177.947 205.000 C 177.968 204.120,177.734 202.500,177.428 201.400 C 177.122 200.300,176.867 199.760,176.860 200.200 M296.995 201.759 C 296.636 202.994,296.424 204.318,296.525 204.702 C 296.664 205.233,296.718 205.188,296.754 204.514 C 296.779 204.027,297.083 202.795,297.429 201.776 C 297.775 200.758,297.965 199.832,297.852 199.719 C 297.740 199.606,297.354 200.524,296.995 201.759 M60.134 203.200 C 60.134 204.850,60.205 205.525,60.291 204.700 C 60.378 203.875,60.378 202.525,60.291 201.700 C 60.205 200.875,60.134 201.550,60.134 203.200 M258.430 202.054 C 258.414 202.414,258.663 203.314,258.984 204.054 C 259.717 205.741,259.730 204.695,259.000 202.800 C 258.703 202.030,258.447 201.694,258.430 202.054 M128.124 205.000 C 128.126 206.320,128.201 206.812,128.290 206.093 C 128.379 205.374,128.377 204.294,128.286 203.693 C 128.195 203.092,128.122 203.680,128.124 205.000 M295.149 209.109 C 293.933 213.146,292.391 219.258,292.148 221.000 C 291.883 222.905,293.543 217.648,294.013 215.094 C 294.247 213.825,294.887 211.411,295.436 209.729 C 295.985 208.047,296.381 206.435,296.317 206.145 C 296.253 205.855,295.727 207.189,295.149 209.109 M59.720 208.800 C 59.720 210.010,59.795 210.505,59.887 209.900 C 59.978 209.295,59.978 208.305,59.887 207.700 C 59.795 207.095,59.720 207.590,59.720 208.800 M178.120 208.800 C 178.120 210.010,178.195 210.505,178.287 209.900 C 178.378 209.295,178.378 208.305,178.287 207.700 C 178.195 207.095,178.120 207.590,178.120 208.800 M260.046 208.274 C 260.021 208.755,260.205 209.655,260.455 210.274 C 260.705 210.893,261.140 212.300,261.421 213.400 C 261.702 214.500,261.947 214.996,261.966 214.502 C 261.985 214.007,261.652 212.567,261.227 211.302 C 260.802 210.036,260.373 208.640,260.273 208.200 C 260.107 207.463,260.089 207.468,260.046 208.274 M376.600 209.024 C 375.017 209.381,371.367 209.571,365.880 209.583 C 359.291 209.596,357.319 209.725,356.399 210.200 L 355.238 210.801 355.119 225.015 C 355.018 237.126,354.911 239.286,354.400 239.609 C 353.441 240.214,331.087 240.113,330.399 239.500 C 329.922 239.075,329.918 239.104,330.368 239.700 C 331.128 240.704,353.287 240.775,354.711 239.777 L 355.600 239.155 355.600 225.454 C 355.600 214.260,355.704 211.611,356.167 210.976 C 356.693 210.256,357.467 210.181,366.867 209.937 C 374.158 209.747,377.561 209.502,379.000 209.064 C 381.497 208.303,379.912 208.276,376.600 209.024 M58.700 214.081 C 57.770 217.603,57.845 218.409,58.823 215.400 C 59.252 214.080,59.558 212.647,59.502 212.215 C 59.446 211.784,59.085 212.624,58.700 214.081 M138.447 212.363 C 137.908 212.704,137.708 216.641,138.204 217.138 C 138.323 217.256,138.387 216.412,138.346 215.261 C 138.240 212.253,137.172 212.419,157.416 212.300 L 175.800 212.192 157.400 212.102 C 147.280 212.053,138.751 212.170,138.447 212.363 M128.128 216.000 C 128.128 217.430,128.201 218.015,128.289 217.300 C 128.378 216.585,128.378 215.415,128.289 214.700 C 128.201 213.985,128.128 214.570,128.128 216.000 M262.107 216.400 C 263.090 220.940,264.827 228.021,265.196 228.991 C 265.445 229.646,265.908 231.411,266.224 232.914 C 266.540 234.417,267.079 236.131,267.422 236.723 C 268.148 237.977,268.257 238.504,266.367 231.600 C 265.734 229.290,264.579 224.801,263.800 221.625 C 263.021 218.449,262.272 215.749,262.137 215.625 C 262.001 215.501,261.988 215.850,262.107 216.400 M67.705 218.750 C 64.696 228.503,57.015 236.832,48.000 240.118 C 47.578 240.272,47.637 240.341,48.200 240.350 C 48.640 240.356,50.080 239.744,51.400 238.989 C 52.720 238.233,54.430 237.269,55.200 236.846 C 59.835 234.300,68.992 220.969,68.323 217.741 C 68.255 217.414,67.977 217.868,67.705 218.750 M55.889 221.344 C 53.712 225.253,51.061 228.334,48.236 230.236 C 47.122 230.986,46.406 231.600,46.645 231.600 C 48.982 231.600,59.205 219.472,57.937 218.204 C 57.831 218.098,56.910 219.511,55.889 221.344 M138.434 218.551 C 138.292 221.659,147.833 231.100,149.466 229.468 C 149.544 229.389,148.841 228.989,147.904 228.578 C 143.865 226.808,140.014 222.678,138.785 218.800 C 138.549 218.054,138.460 217.991,138.434 218.551 M128.455 219.600 C 128.440 220.150,128.704 221.050,129.042 221.600 C 129.449 222.264,129.562 222.331,129.378 221.800 C 129.226 221.360,128.962 220.460,128.791 219.800 C 128.508 218.702,128.480 218.685,128.455 219.600 M167.764 220.709 C 167.304 221.089,166.537 222.053,166.061 222.851 C 164.831 224.913,162.036 227.369,159.794 228.361 C 158.739 228.828,157.963 229.297,158.069 229.403 C 158.926 230.260,164.366 226.239,166.214 223.383 C 168.286 220.179,168.353 220.151,171.923 220.974 C 176.234 221.967,176.948 222.480,176.604 224.334 C 175.856 228.372,170.558 235.037,166.310 237.284 C 165.150 237.898,164.470 238.398,164.800 238.396 C 169.232 238.369,179.329 224.718,176.772 222.212 C 175.297 220.766,168.972 219.711,167.764 220.709 M291.100 224.758 C 290.161 227.987,290.236 228.733,291.225 226.000 C 291.662 224.790,291.971 223.474,291.910 223.076 C 291.850 222.677,291.485 223.434,291.100 224.758 M129.854 224.000 C 130.721 228.978,139.241 238.414,142.852 238.398 C 143.154 238.396,142.905 238.126,142.300 237.798 C 141.695 237.469,140.711 236.936,140.113 236.612 C 136.134 234.461,131.805 228.964,130.023 223.800 C 129.614 222.613,129.612 222.615,129.854 224.000 M119.284 228.699 C 118.088 230.532,118.334 230.765,119.567 228.967 C 120.088 228.205,120.444 227.518,120.358 227.439 C 120.271 227.361,119.788 227.928,119.284 228.699 M290.032 228.886 C 290.014 229.263,289.717 230.405,289.371 231.424 C 289.025 232.442,288.835 233.368,288.948 233.481 C 289.253 233.786,290.494 229.265,290.262 228.692 C 290.145 228.402,290.050 228.482,290.032 228.886 M151.913 229.895 C 153.076 229.976,154.876 229.976,155.913 229.893 C 156.951 229.811,156.000 229.745,153.800 229.746 C 151.600 229.747,150.751 229.814,151.913 229.895 M116.000 233.043 C 107.637 241.554,97.013 242.472,89.632 235.322 C 87.142 232.911,86.343 233.075,86.454 235.976 C 86.494 237.009,86.552 237.125,86.666 236.400 C 87.144 233.371,87.042 233.404,89.216 235.577 C 95.169 241.531,103.931 242.094,111.942 237.037 C 114.052 235.705,119.070 230.785,118.300 230.802 C 118.245 230.804,117.210 231.812,116.000 233.043 M28.012 232.350 C 31.830 234.397,39.523 234.560,43.800 232.685 C 45.120 232.106,45.965 231.625,45.678 231.616 C 45.391 231.607,44.311 231.992,43.278 232.472 C 39.821 234.078,31.218 233.876,28.611 232.129 C 28.177 231.838,27.550 231.600,27.217 231.600 C 26.884 231.600,27.242 231.938,28.012 232.350 M368.932 233.480 C 367.938 234.176,367.910 235.797,368.877 236.618 C 369.796 237.397,369.797 237.397,369.162 236.600 C 367.302 234.266,372.187 232.722,376.400 234.314 C 377.047 234.558,377.718 234.547,378.302 234.281 C 378.798 234.055,379.326 233.993,379.477 234.143 C 380.052 234.719,380.107 239.188,379.548 239.901 C 379.052 240.534,379.066 240.548,379.700 240.051 C 380.220 239.643,380.398 238.924,380.394 237.251 C 380.386 234.312,380.026 233.807,377.914 233.770 C 376.971 233.753,374.670 233.607,372.800 233.446 C 370.930 233.285,369.189 233.300,368.932 233.480 M288.000 237.333 C 288.000 239.863,287.331 240.027,277.510 239.908 L 268.636 239.800 268.358 238.800 C 268.125 237.962,268.073 237.933,268.040 238.620 C 267.959 240.288,268.550 240.400,277.461 240.400 C 287.040 240.400,287.846 240.230,288.241 238.120 C 288.381 237.374,288.384 236.651,288.248 236.515 C 288.112 236.378,288.000 236.747,288.000 237.333 M369.647 238.476 C 369.621 239.068,369.823 239.690,370.095 239.859 C 370.649 240.201,379.060 240.526,378.726 240.193 C 378.609 240.076,376.643 239.918,374.357 239.842 L 370.200 239.703 369.947 238.551 L 369.695 237.400 369.647 238.476 M22.200 239.390 C 23.080 239.932,24.070 240.373,24.400 240.369 C 25.032 240.364,21.690 238.448,21.000 238.420 C 20.780 238.411,21.320 238.848,22.200 239.390 M143.600 238.575 C 143.600 240.384,157.300 241.023,161.600 239.414 C 164.726 238.245,164.137 238.064,160.904 239.200 C 158.118 240.179,150.003 240.328,147.400 239.447 C 145.257 238.722,143.600 238.342,143.600 238.575 M26.400 240.920 C 27.365 241.470,31.195 242.262,30.752 241.819 C 30.632 241.699,29.739 241.443,28.767 241.250 C 27.795 241.056,26.640 240.775,26.200 240.624 C 25.715 240.457,25.794 240.574,26.400 240.920 M45.945 240.588 C 45.842 240.692,44.777 241.055,43.579 241.396 C 41.634 241.949,41.576 241.993,43.044 241.812 C 44.774 241.598,47.854 240.443,46.767 240.416 C 46.418 240.407,46.049 240.485,45.945 240.588 M33.717 242.297 C 35.211 242.374,37.551 242.374,38.917 242.296 C 40.282 242.218,39.060 242.155,36.200 242.155 C 33.340 242.156,32.222 242.220,33.717 242.297 M96.507 247.200 C 92.929 247.753,92.243 255.222,95.684 256.144 C 96.945 256.482,398.432 256.410,399.285 256.072 C 399.662 255.922,331.493 255.800,247.799 255.800 C 103.302 255.800,95.593 255.765,94.927 255.099 C 93.880 254.052,93.658 249.182,94.621 248.383 C 95.232 247.876,115.079 247.774,247.761 247.599 L 400.200 247.399 249.000 247.199 C 165.840 247.090,97.218 247.090,96.507 247.200 M34.515 247.595 C 64.786 247.774,69.278 247.877,69.609 248.400 C 70.210 249.351,70.082 254.135,69.432 255.024 C 68.878 255.782,68.055 255.800,34.447 255.800 C 15.517 255.800,0.338 255.922,0.715 256.072 C 1.542 256.400,67.439 256.486,68.651 256.161 C 69.874 255.833,70.400 254.352,70.400 251.243 C 70.400 246.773,74.163 247.186,34.369 247.295 L -0.200 247.389 34.515 247.595 " stroke="none" fill="#8abfc4" fill-rule="evenodd"></path><path id="path2" d="M0.000 61.600 L 0.000 123.200 200.000 123.200 L 400.000 123.200 400.000 61.600 L 400.000 0.000 200.000 0.000 L 0.000 0.000 0.000 61.600 M0.000 198.400 L 0.000 246.000 34.600 246.000 C 73.555 246.000,70.415 245.740,71.029 249.015 C 71.416 251.078,70.878 255.683,70.167 256.400 C 69.647 256.924,65.175 257.000,34.786 257.000 L 0.000 257.000 0.000 328.500 L 0.000 400.000 200.000 400.000 L 400.000 400.000 400.000 328.500 L 400.000 257.000 247.214 257.000 C 104.608 257.000,94.384 256.955,93.756 256.327 C 92.031 254.602,92.715 247.117,94.665 246.375 C 95.273 246.144,154.052 246.000,247.826 246.000 L 400.000 246.000 400.000 218.200 C 400.000 202.581,399.847 190.400,399.650 190.400 C 399.285 190.400,398.804 192.282,398.794 193.750 C 398.791 194.217,398.527 195.050,398.208 195.600 C 397.888 196.150,397.286 197.320,396.869 198.200 C 395.436 201.225,390.190 206.196,387.594 206.991 C 387.047 207.158,386.309 207.549,385.953 207.861 C 385.598 208.172,384.187 208.608,382.817 208.828 C 381.448 209.049,379.857 209.538,379.282 209.915 C 378.378 210.508,376.833 210.618,367.820 210.736 C 360.485 210.832,357.316 211.009,357.108 211.336 C 356.945 211.591,356.809 218.045,356.806 225.677 L 356.800 239.555 355.911 240.177 C 354.395 241.239,330.189 241.100,329.614 240.026 C 328.681 238.283,329.081 159.059,330.029 157.854 L 330.858 156.800 354.203 156.800 C 379.069 156.800,381.227 156.941,384.680 158.791 C 385.509 159.236,386.499 159.600,386.878 159.600 C 387.258 159.600,387.891 159.935,388.284 160.344 C 388.678 160.753,389.494 161.206,390.097 161.350 C 391.586 161.708,395.824 165.930,396.837 168.065 C 397.290 169.019,397.914 170.250,398.224 170.800 C 398.534 171.350,398.793 172.250,398.800 172.800 C 398.806 173.350,398.919 174.205,399.052 174.700 C 399.760 177.343,400.000 174.435,400.000 163.200 L 400.000 150.800 200.000 150.800 L 0.000 150.800 0.000 198.400 M265.208 157.404 C 266.615 158.131,267.200 159.126,267.200 160.788 C 267.200 161.470,267.481 162.456,267.824 162.980 C 268.167 163.504,268.595 165.394,268.775 167.180 C 268.987 169.287,269.339 170.691,269.776 171.173 C 270.175 171.614,270.532 172.872,270.652 174.259 C 270.763 175.546,271.204 177.343,271.631 178.252 C 272.058 179.160,272.692 181.140,273.039 182.652 C 273.387 184.163,273.911 186.210,274.205 187.200 C 274.499 188.190,274.940 190.120,275.185 191.488 C 275.430 192.857,275.881 194.574,276.186 195.305 C 276.492 196.036,276.868 197.752,277.022 199.117 C 277.460 202.982,278.996 201.754,279.455 197.172 C 279.597 195.758,280.023 193.970,280.402 193.200 C 280.782 192.430,281.219 190.641,281.374 189.225 C 281.530 187.809,281.894 186.189,282.184 185.625 C 282.474 185.061,282.919 183.260,283.172 181.622 C 283.425 179.984,283.789 178.454,283.981 178.222 C 284.173 177.990,284.539 176.646,284.794 175.235 C 285.050 173.824,285.767 171.124,286.388 169.235 C 287.010 167.346,287.635 164.960,287.779 163.933 C 287.922 162.906,288.278 161.867,288.570 161.625 C 288.861 161.383,289.214 160.472,289.353 159.601 C 289.801 156.805,289.829 156.800,307.242 156.800 L 322.524 156.800 323.862 157.820 L 325.200 158.841 325.200 199.020 C 325.200 238.667,325.189 239.211,324.400 240.000 C 323.308 241.092,304.018 241.248,302.489 240.177 L 301.600 239.555 301.553 216.877 C 301.528 204.405,301.390 193.030,301.248 191.600 L 300.990 189.000 300.705 191.755 C 300.548 193.270,300.122 194.964,299.759 195.519 C 299.395 196.074,298.947 197.872,298.763 199.513 C 298.578 201.155,298.180 202.881,297.876 203.349 C 297.573 203.817,297.201 205.280,297.050 206.600 C 296.899 207.920,296.443 210.080,296.037 211.400 C 295.631 212.720,294.814 215.870,294.221 218.400 C 293.628 220.930,292.952 223.810,292.719 224.800 C 292.485 225.790,291.987 227.145,291.612 227.812 C 291.238 228.479,290.815 230.009,290.673 231.212 C 290.532 232.415,290.053 234.113,289.608 234.985 C 289.164 235.856,288.800 237.238,288.800 238.056 C 288.800 240.771,288.688 240.800,277.999 240.800 L 268.454 240.800 267.646 239.665 C 266.743 238.396,264.800 232.912,264.800 231.631 C 264.800 231.176,264.455 229.767,264.032 228.502 C 263.610 227.236,263.143 225.133,262.995 223.828 C 262.846 222.524,262.486 221.084,262.195 220.628 C 261.904 220.173,261.542 218.540,261.391 217.000 C 261.240 215.460,260.848 213.774,260.519 213.254 C 260.191 212.734,259.746 211.043,259.532 209.496 C 259.318 207.949,258.899 206.305,258.602 205.842 C 258.305 205.379,257.937 204.100,257.783 203.000 C 257.405 200.294,256.012 196.304,255.251 195.743 C 254.899 195.484,254.518 194.360,254.372 193.143 C 254.229 191.965,254.087 201.922,254.056 215.271 C 254.006 236.754,253.928 239.615,253.371 240.171 C 252.305 241.238,232.191 241.104,231.614 240.026 C 231.336 239.508,231.200 225.937,231.200 198.855 L 231.200 158.458 232.254 157.629 C 233.662 156.521,263.112 156.320,265.208 157.404 M46.400 164.024 C 50.242 165.359,53.642 166.984,55.000 168.133 C 55.660 168.691,57.517 170.258,59.126 171.615 C 62.447 174.415,64.153 176.594,65.984 180.374 C 66.684 181.818,67.535 183.540,67.874 184.200 C 68.214 184.860,68.635 186.538,68.811 187.930 C 69.002 189.450,69.423 190.784,69.865 191.272 C 70.979 192.503,70.987 213.490,69.874 215.530 C 69.475 216.262,68.985 217.862,68.786 219.085 C 68.587 220.309,68.173 221.601,67.866 221.955 C 67.559 222.310,67.180 223.140,67.023 223.800 C 65.996 228.141,57.537 237.348,53.181 238.866 C 52.567 239.081,51.969 239.503,51.853 239.806 C 51.737 240.108,50.958 240.464,50.121 240.597 C 49.284 240.729,47.880 241.175,47.000 241.587 C 42.417 243.734,28.391 243.659,25.050 241.470 C 24.576 241.159,23.618 240.780,22.922 240.627 C 22.225 240.474,21.448 240.099,21.196 239.795 C 20.943 239.490,20.120 239.038,19.368 238.789 C 18.616 238.541,18.000 238.174,18.000 237.974 C 18.000 237.774,17.415 237.358,16.700 237.050 C 14.873 236.262,9.600 230.871,9.600 229.791 C 9.600 229.650,9.001 228.784,8.269 227.867 C 6.744 225.958,4.800 222.673,4.800 222.007 C 4.800 221.759,4.462 220.801,4.048 219.878 C 3.635 218.955,3.172 217.167,3.020 215.905 C 2.868 214.643,2.471 213.063,2.138 212.395 C 1.338 210.793,1.488 194.497,2.311 193.507 C 2.592 193.169,2.928 191.656,3.058 190.146 C 3.188 188.636,3.514 187.040,3.781 186.600 C 4.049 186.160,4.476 185.193,4.730 184.451 C 4.984 183.710,6.049 181.681,7.096 179.943 C 8.143 178.206,9.189 176.443,9.420 176.025 C 9.937 175.093,15.361 169.600,15.765 169.600 C 15.925 169.600,16.899 168.902,17.928 168.049 C 19.647 166.625,24.378 164.400,25.688 164.400 C 25.992 164.400,26.433 164.207,26.668 163.972 C 28.092 162.548,42.261 162.585,46.400 164.024 M32.600 173.842 C 31.720 174.176,30.100 174.679,29.000 174.961 C 27.900 175.243,25.761 176.312,24.247 177.337 C 22.733 178.362,21.338 179.200,21.147 179.200 C 20.956 179.200,20.800 179.464,20.800 179.786 C 20.800 180.108,20.454 180.557,20.032 180.783 C 19.610 181.009,19.056 181.825,18.801 182.597 C 18.546 183.369,18.179 184.000,17.985 184.000 C 17.791 184.000,17.410 184.765,17.139 185.700 C 16.867 186.635,16.423 187.760,16.152 188.200 C 15.656 189.003,15.290 190.885,14.403 197.200 C 13.546 203.304,14.583 215.621,16.166 218.122 C 16.472 218.605,16.843 219.585,16.993 220.300 C 17.142 221.015,17.425 221.600,17.622 221.600 C 17.818 221.600,18.275 222.185,18.637 222.900 C 19.250 224.113,23.383 228.285,25.944 230.278 C 26.578 230.770,27.975 231.275,29.129 231.428 C 30.261 231.578,31.391 231.948,31.642 232.251 C 32.297 233.040,40.301 233.001,41.354 232.204 C 41.769 231.890,42.889 231.516,43.843 231.373 C 44.798 231.229,45.965 230.777,46.437 230.368 C 46.909 229.959,47.651 229.511,48.086 229.373 C 50.944 228.466,57.265 218.434,57.839 213.895 C 57.984 212.743,58.350 211.193,58.652 210.451 C 59.548 208.245,59.379 197.984,58.400 195.200 C 57.974 193.990,57.620 192.419,57.613 191.709 C 57.599 190.288,53.120 181.213,52.170 180.680 C 51.857 180.504,51.600 180.095,51.600 179.772 C 51.600 179.448,51.150 178.978,50.600 178.727 C 50.050 178.477,49.600 178.139,49.600 177.977 C 49.600 177.553,44.204 175.017,41.212 174.035 C 38.241 173.060,34.862 172.984,32.600 173.842 M357.205 176.791 C 356.940 177.285,356.822 180.180,356.891 184.491 L 357.000 191.400 362.929 191.339 C 369.535 191.271,368.840 191.531,372.200 187.871 C 373.096 186.895,373.402 180.644,372.581 180.085 C 372.350 179.928,371.770 179.239,371.291 178.553 C 369.765 176.366,358.206 174.921,357.205 176.791 M108.906 180.320 C 109.618 180.747,110.653 181.203,111.207 181.333 C 113.409 181.848,118.053 186.061,119.107 188.500 C 119.369 189.105,119.747 189.600,119.948 189.600 C 120.149 189.600,120.425 190.045,120.562 190.590 C 120.698 191.134,121.258 192.240,121.806 193.047 C 122.354 193.855,123.000 195.254,123.242 196.158 C 123.483 197.061,123.954 198.700,124.289 199.800 C 125.056 202.321,125.436 213.340,124.862 216.400 C 123.756 222.295,122.280 226.733,121.203 227.398 C 120.981 227.535,120.800 228.005,120.800 228.443 C 120.800 228.880,120.350 229.655,119.800 230.165 C 119.250 230.675,118.800 231.264,118.800 231.474 C 118.800 233.007,111.817 238.800,109.969 238.800 C 109.302 238.800,108.672 239.139,108.300 239.700 C 107.720 240.573,107.504 240.600,101.083 240.600 C 94.770 240.600,94.420 240.558,93.506 239.700 C 92.980 239.205,92.359 238.800,92.126 238.800 C 91.894 238.800,90.800 238.080,89.695 237.200 C 88.590 236.320,87.576 235.600,87.443 235.600 C 86.771 235.600,87.202 253.425,87.898 254.411 C 88.488 255.247,88.616 256.545,88.726 262.800 C 88.932 274.501,88.649 275.000,81.813 275.000 C 74.324 275.000,74.930 280.051,75.100 219.082 L 75.200 183.164 76.182 182.182 C 78.471 179.893,86.286 181.000,86.926 183.704 L 87.279 185.198 89.140 183.551 C 90.163 182.646,91.450 181.711,92.000 181.475 C 92.550 181.239,93.316 180.782,93.701 180.459 C 95.485 178.970,106.491 178.869,108.906 180.320 M162.161 180.364 C 162.651 180.824,163.346 181.200,163.707 181.200 C 164.526 181.200,166.400 182.035,166.400 182.400 C 166.400 182.549,166.811 182.859,167.314 183.088 C 170.778 184.666,176.418 192.432,177.059 196.505 C 177.205 197.437,177.597 198.619,177.929 199.131 C 178.577 200.130,179.131 209.427,178.655 211.322 C 178.248 212.947,177.750 212.992,158.000 213.200 L 139.000 213.400 138.896 215.400 C 138.833 216.624,139.023 217.788,139.386 218.400 C 139.712 218.950,140.264 220.004,140.612 220.741 C 141.724 223.096,144.603 225.772,147.586 227.222 C 149.134 227.974,150.400 228.727,150.400 228.895 C 150.400 229.063,151.705 229.203,153.300 229.207 C 157.419 229.216,161.919 226.943,164.234 223.685 C 167.371 219.270,167.163 219.412,170.367 219.508 C 175.539 219.664,180.571 223.011,178.011 224.593 C 177.797 224.726,177.420 225.591,177.174 226.517 C 176.927 227.443,176.507 228.470,176.240 228.800 C 175.973 229.130,175.558 229.850,175.317 230.400 C 174.151 233.065,167.656 238.800,165.806 238.800 C 165.415 238.800,164.443 239.205,163.647 239.700 C 162.263 240.561,161.823 240.600,153.590 240.600 C 145.267 240.600,144.942 240.570,143.836 239.700 C 143.207 239.205,142.288 238.800,141.795 238.800 C 141.302 238.800,140.665 238.520,140.381 238.177 C 140.096 237.834,139.309 237.315,138.632 237.024 C 136.283 236.013,131.600 231.076,131.600 229.611 C 131.600 229.419,131.178 228.753,130.662 228.131 C 130.146 227.509,129.602 226.374,129.454 225.610 C 129.305 224.845,128.801 223.429,128.334 222.463 C 126.690 219.068,126.888 200.389,128.595 197.758 C 128.896 197.296,129.267 196.216,129.420 195.358 C 129.662 193.998,131.144 191.182,132.389 189.717 C 132.615 189.451,132.800 189.053,132.800 188.833 C 132.800 188.220,137.981 183.200,138.613 183.200 C 138.919 183.200,139.491 182.855,139.884 182.432 C 140.278 182.010,141.140 181.536,141.800 181.379 C 142.460 181.221,143.330 180.805,143.733 180.454 C 145.487 178.927,160.553 178.853,162.161 180.364 M216.437 180.364 C 217.059 180.824,217.935 181.200,218.384 181.200 C 218.833 181.200,219.520 181.515,219.911 181.900 C 220.303 182.285,221.259 183.030,222.036 183.556 C 224.181 185.008,226.630 189.121,227.017 191.923 C 227.159 192.955,227.529 194.688,227.838 195.773 C 228.510 198.130,228.668 238.956,228.009 240.000 C 227.450 240.887,217.746 241.106,216.600 240.257 C 215.822 239.682,215.794 239.081,215.600 218.733 C 215.379 195.590,215.517 196.779,212.720 193.982 C 211.189 192.451,207.868 190.809,206.291 190.804 C 202.191 190.789,196.032 195.366,195.191 199.052 C 194.947 200.124,194.534 201.360,194.273 201.800 C 193.935 202.371,193.743 207.900,193.600 221.133 C 193.408 238.893,193.368 239.689,192.624 240.233 C 191.688 240.916,183.590 241.037,182.374 240.386 C 181.620 239.982,181.600 239.234,181.600 210.976 L 181.600 181.980 182.626 181.590 C 183.190 181.376,185.371 181.200,187.472 181.200 L 191.292 181.200 192.607 182.635 L 193.921 184.070 195.061 183.340 C 195.687 182.939,196.438 182.383,196.728 182.106 C 197.018 181.828,197.738 181.487,198.328 181.347 C 198.918 181.207,199.721 180.813,200.114 180.471 C 201.888 178.929,214.385 178.847,216.437 180.364 M96.741 191.941 C 92.703 193.910,89.035 197.218,88.577 199.305 C 88.422 200.011,88.004 201.033,87.648 201.577 C 86.494 203.338,86.702 218.641,87.900 220.164 C 88.395 220.793,88.800 221.628,88.800 222.019 C 88.800 223.052,92.249 226.196,94.695 227.394 C 95.853 227.961,96.800 228.599,96.800 228.812 C 96.800 230.010,101.658 229.186,104.531 227.500 C 107.876 225.538,109.600 224.246,109.600 223.704 C 109.600 223.495,109.942 223.014,110.360 222.636 C 110.779 222.257,111.242 221.284,111.390 220.474 C 111.538 219.663,111.961 218.550,112.330 218.000 C 113.313 216.534,113.330 202.861,112.351 201.742 C 111.994 201.334,111.580 200.325,111.432 199.499 C 111.029 197.246,107.738 194.056,103.958 192.252 C 100.346 190.528,99.697 190.500,96.741 191.941 M149.400 191.433 C 148.740 191.778,147.300 192.441,146.200 192.907 C 143.714 193.960,141.566 195.740,140.010 198.036 C 137.725 201.408,136.979 201.224,152.500 201.105 L 166.200 201.000 166.058 200.000 C 165.261 194.378,154.424 188.805,149.400 191.433 M377.191 232.894 C 380.631 232.915,380.800 233.122,380.800 237.312 C 380.800 241.451,380.426 241.754,376.065 241.137 C 373.737 240.808,372.525 240.797,371.862 241.099 C 370.592 241.678,368.400 240.031,368.400 238.497 C 368.400 237.922,368.034 237.062,367.587 236.586 C 365.600 234.472,367.896 232.241,371.675 232.613 C 373.146 232.758,375.628 232.884,377.191 232.894 " stroke="none" fill="#fbfbfb" fill-rule="evenodd"></path><path id="path3" d="M1.100 124.287 C 0.495 124.378,-0.000 124.621,-0.000 124.827 C -0.000 125.057,76.420 125.200,200.000 125.200 C 314.019 125.200,400.000 125.050,400.000 124.850 C 400.000 124.658,399.438 124.388,398.750 124.250 C 397.389 123.978,2.899 124.014,1.100 124.287 M-0.000 149.100 C -0.000 149.499,40.267 149.600,200.000 149.600 C 359.733 149.600,400.000 149.499,400.000 149.100 C 400.000 148.701,359.733 148.600,200.000 148.600 C 40.267 148.600,-0.000 148.701,-0.000 149.100 M232.900 158.412 L 232.000 158.774 232.000 198.907 C 232.000 229.588,232.113 239.153,232.480 239.520 C 233.072 240.112,251.074 240.193,252.000 239.609 C 252.520 239.280,252.627 235.723,252.800 212.920 C 252.978 189.567,253.070 186.597,253.621 186.491 C 254.630 186.297,256.680 192.020,258.175 199.200 C 258.867 202.528,260.204 207.875,261.174 211.200 C 261.592 212.630,262.674 216.860,263.579 220.600 C 265.055 226.696,266.414 231.881,268.087 237.800 L 268.652 239.800 277.439 239.907 C 287.915 240.035,287.397 240.240,288.399 235.579 C 288.798 233.721,289.614 230.400,290.212 228.200 C 290.810 226.000,291.534 223.210,291.821 222.000 C 293.440 215.168,294.208 212.224,295.246 208.873 C 295.881 206.824,296.400 204.802,296.400 204.382 C 296.400 203.961,296.752 202.488,297.181 201.108 C 297.611 199.729,298.241 197.250,298.581 195.600 C 300.354 186.989,302.210 183.152,302.877 186.720 C 303.029 187.534,303.164 199.639,303.177 213.620 C 303.194 232.832,303.317 239.157,303.680 239.520 C 304.026 239.866,306.747 240.000,313.400 240.000 C 320.053 240.000,322.774 239.866,323.120 239.520 C 323.834 238.806,323.815 158.986,323.100 158.524 C 322.421 158.084,293.586 157.877,291.954 158.300 C 291.075 158.528,290.561 158.955,290.367 159.618 C 290.208 160.158,289.775 161.582,289.405 162.782 C 289.034 163.981,288.484 166.231,288.182 167.782 C 287.880 169.332,287.087 172.580,286.420 175.000 C 284.587 181.647,280.768 196.369,280.365 198.340 C 279.510 202.525,278.199 205.133,277.369 204.303 C 277.010 203.944,275.001 196.736,273.439 190.200 C 272.650 186.900,271.738 183.300,271.414 182.200 C 270.474 179.017,268.802 172.381,268.390 170.200 C 268.182 169.100,267.649 166.850,267.204 165.200 C 266.760 163.550,266.213 161.442,265.987 160.516 C 265.628 159.038,265.395 158.781,264.089 158.418 C 262.238 157.904,234.178 157.899,232.900 158.412 M330.649 158.608 C 329.801 159.456,329.636 238.676,330.480 239.520 C 331.075 240.115,353.467 240.198,354.400 239.609 C 354.911 239.286,355.018 237.126,355.119 225.015 L 355.238 210.801 356.399 210.200 C 357.319 209.725,359.244 209.600,365.680 209.599 C 386.054 209.596,396.191 203.433,398.579 189.599 C 401.165 174.615,395.527 163.395,383.600 159.790 C 382.390 159.424,380.860 158.921,380.200 158.673 C 378.036 157.857,331.461 157.796,330.649 158.608 M265.014 160.568 C 265.310 161.431,265.674 162.853,265.822 163.728 C 265.970 164.604,266.520 166.549,267.045 168.052 C 267.570 169.555,268.000 171.243,268.000 171.802 C 268.000 172.362,268.360 173.844,268.800 175.096 C 269.240 176.348,269.600 177.789,269.600 178.299 C 269.600 178.808,269.969 180.321,270.421 181.661 C 270.872 183.001,271.491 185.380,271.796 186.948 C 273.504 195.718,276.668 206.400,277.558 206.400 C 278.297 206.400,279.974 203.941,280.226 202.488 C 280.544 200.655,280.658 200.202,283.414 189.800 C 284.638 185.180,285.919 180.230,286.261 178.800 C 286.604 177.370,287.211 175.120,287.610 173.800 C 288.010 172.480,288.463 170.410,288.617 169.200 C 288.771 167.990,289.211 166.190,289.595 165.200 C 289.979 164.210,290.425 162.500,290.586 161.400 C 290.986 158.664,290.026 158.813,307.300 158.806 L 322.800 158.800 322.800 198.957 C 322.800 235.206,322.738 239.138,322.167 239.357 C 320.908 239.841,304.987 239.627,304.480 239.120 C 304.116 238.756,304.000 231.906,304.000 210.739 C 304.000 183.436,303.892 180.800,302.769 180.800 C 302.144 180.800,300.025 185.898,299.636 188.340 C 299.414 189.737,299.048 191.101,298.824 191.371 C 298.600 191.641,298.232 193.164,298.006 194.754 C 297.781 196.345,297.349 198.131,297.046 198.724 C 296.744 199.316,296.372 200.430,296.221 201.200 C 296.069 201.970,295.480 204.220,294.912 206.200 C 293.692 210.446,292.566 215.093,291.796 219.052 C 291.491 220.620,290.872 222.999,290.421 224.339 C 289.969 225.679,289.600 227.146,289.600 227.600 C 289.600 228.054,289.330 229.072,289.000 229.862 C 288.670 230.652,288.216 232.448,287.992 233.853 C 287.054 239.723,287.170 239.664,276.805 239.513 L 269.010 239.400 268.521 236.705 C 268.253 235.222,267.861 233.688,267.650 233.294 C 267.440 232.901,267.064 231.414,266.815 229.990 C 266.566 228.565,266.031 226.320,265.627 225.000 C 265.223 223.680,264.217 219.810,263.393 216.400 C 262.568 212.990,261.658 209.733,261.369 209.163 C 261.080 208.592,260.723 207.152,260.575 205.963 C 260.427 204.773,259.988 203.058,259.599 202.151 C 259.209 201.245,258.758 199.355,258.597 197.951 C 258.436 196.548,257.989 194.590,257.605 193.600 C 257.221 192.610,256.787 190.978,256.640 189.973 C 256.341 187.927,254.541 183.058,253.535 181.572 C 251.867 179.110,251.812 179.936,251.600 210.520 L 251.400 239.400 242.651 239.508 C 236.533 239.583,233.735 239.478,233.351 239.159 C 232.760 238.669,232.485 159.648,233.071 159.062 C 233.220 158.913,240.347 158.838,248.909 158.895 L 264.475 159.000 265.014 160.568 M380.000 159.600 C 381.116 160.040,382.484 160.400,383.040 160.400 C 386.429 160.400,393.305 165.803,395.292 170.028 C 397.932 175.641,397.965 175.752,398.222 180.000 C 399.058 193.770,393.991 202.724,383.142 206.652 C 379.172 208.089,376.591 208.396,365.728 208.722 C 357.162 208.979,356.370 209.064,355.328 209.843 L 354.200 210.686 354.095 224.823 C 354.015 235.521,353.869 239.036,353.495 239.273 C 353.223 239.446,348.005 239.591,341.900 239.594 L 330.800 239.600 330.800 199.200 L 330.800 158.800 354.385 158.800 C 377.027 158.800,378.052 158.832,380.000 159.600 M30.000 164.600 C 29.450 164.914,28.679 165.178,28.287 165.186 C 24.414 165.263,16.893 169.648,12.614 174.325 C 1.610 186.351,-0.482 210.068,8.126 225.200 C 8.689 226.190,9.502 227.630,9.933 228.400 C 14.593 236.731,26.099 242.334,37.635 241.890 C 56.814 241.152,69.118 227.083,69.897 205.000 C 70.097 199.321,69.883 197.185,68.452 190.600 C 65.695 177.911,57.835 169.270,45.571 165.444 C 40.302 163.800,32.170 163.359,30.000 164.600 M42.146 165.403 C 42.939 165.735,44.536 166.205,45.694 166.448 C 47.587 166.845,51.500 168.342,52.640 169.105 C 52.882 169.267,53.811 169.887,54.704 170.482 C 65.665 177.788,71.317 195.436,68.305 212.947 C 67.532 217.438,67.446 217.674,64.252 224.157 C 60.715 231.335,51.570 239.522,47.000 239.603 C 46.560 239.611,44.940 240.062,43.400 240.607 C 39.708 241.912,33.550 242.011,30.161 240.820 C 28.941 240.391,27.143 239.921,26.166 239.774 C 25.190 239.628,24.292 239.349,24.172 239.155 C 24.052 238.960,22.961 238.332,21.747 237.758 C 17.274 235.641,12.184 230.836,9.128 225.844 C 8.472 224.772,7.153 221.566,6.230 218.800 C 1.935 205.924,3.686 188.161,10.197 178.566 C 12.617 175.000,19.010 169.157,21.294 168.422 C 22.116 168.158,22.881 167.793,22.993 167.611 C 23.105 167.430,24.566 166.976,26.239 166.604 C 27.912 166.232,29.847 165.681,30.540 165.379 C 32.344 164.594,40.249 164.611,42.146 165.403 M30.200 171.895 C 29.540 171.992,28.749 172.280,28.442 172.535 C 28.136 172.791,27.185 173.270,26.330 173.600 C 8.875 180.339,6.023 216.411,21.898 229.656 C 29.316 235.845,42.351 236.587,48.925 231.195 C 49.186 230.981,50.179 230.177,51.132 229.408 C 54.417 226.757,57.878 221.603,58.660 218.200 C 58.811 217.540,59.298 216.190,59.741 215.200 C 60.975 212.442,60.968 194.808,59.732 191.800 C 59.279 190.700,58.783 189.107,58.629 188.261 C 57.722 183.278,50.867 175.141,46.142 173.438 C 45.294 173.133,44.060 172.595,43.400 172.244 C 42.232 171.622,33.625 171.395,30.200 171.895 M43.801 173.389 C 47.225 174.770,48.193 175.364,51.221 177.947 C 54.479 180.725,57.712 186.208,58.432 190.174 C 58.671 191.497,59.039 192.900,59.249 193.292 C 60.733 196.065,60.428 210.029,58.758 215.768 C 54.601 230.049,39.207 238.351,28.012 232.350 C 27.242 231.938,26.400 231.600,26.142 231.600 C 25.599 231.600,21.963 228.838,20.200 227.086 C 10.705 217.654,9.862 193.016,18.618 180.828 C 21.021 177.483,25.237 174.742,31.400 172.518 C 34.263 171.485,40.093 171.894,43.801 173.389 M356.008 174.114 C 354.155 175.051,353.978 175.997,354.093 184.335 L 354.200 192.071 355.367 193.074 C 356.981 194.461,365.390 194.340,368.478 192.885 C 369.511 192.398,370.501 191.999,370.678 191.998 C 371.416 191.994,373.766 189.328,374.529 187.630 C 377.027 182.067,373.756 175.834,367.460 174.158 C 364.844 173.462,357.354 173.433,356.008 174.114 M368.685 175.642 C 374.891 177.898,376.415 185.684,371.549 190.271 C 368.677 192.978,358.261 194.298,356.182 192.218 C 354.929 190.965,354.634 177.387,355.823 175.689 C 356.730 174.393,365.165 174.362,368.685 175.642 M97.400 180.367 C 94.376 181.200,92.151 182.558,89.685 185.072 C 86.934 187.878,85.938 188.099,85.688 185.959 C 85.280 182.463,84.737 181.998,81.071 182.006 C 79.492 182.009,77.930 182.183,77.600 182.391 C 76.974 182.786,76.309 253.087,76.804 266.538 C 77.061 273.547,77.218 273.748,82.276 273.537 C 87.616 273.315,87.278 275.496,86.602 245.600 C 86.297 232.153,86.311 232.106,89.632 235.322 C 96.979 242.439,107.629 241.551,115.919 233.130 C 123.631 225.297,126.296 205.033,121.013 194.400 C 120.740 193.850,119.995 192.351,119.358 191.070 C 115.651 183.612,104.806 178.326,97.400 180.367 M145.574 181.171 C 131.418 185.700,123.912 205.563,129.787 222.946 C 131.700 228.606,137.455 236.386,139.738 236.398 C 139.924 236.399,140.570 236.751,141.172 237.180 C 144.726 239.711,156.024 240.885,160.826 239.223 C 162.134 238.770,163.427 238.400,163.702 238.400 C 166.207 238.399,172.161 233.152,174.666 228.737 C 177.844 223.136,177.536 222.268,171.910 220.971 C 168.341 220.148,168.056 220.270,166.219 223.404 C 158.634 236.347,136.834 228.809,137.933 213.622 C 138.048 212.029,138.245 212.013,157.481 212.006 C 178.544 211.999,178.000 212.073,178.000 209.226 C 178.000 196.337,170.599 183.894,161.455 181.408 C 160.325 181.100,158.771 180.658,158.003 180.425 C 155.315 179.608,149.336 179.967,145.574 181.171 M204.800 180.225 C 204.470 180.342,203.002 180.825,201.538 181.297 C 199.669 181.900,198.004 182.852,195.953 184.491 C 192.551 187.209,191.935 187.260,191.524 184.854 C 191.074 182.220,190.740 182.000,187.174 182.000 C 182.373 182.000,182.800 179.123,182.800 211.475 C 182.800 243.634,182.141 240.100,188.102 239.915 L 191.800 239.800 192.023 221.800 C 192.268 201.963,192.555 199.529,195.075 195.892 C 199.742 189.158,210.204 188.197,214.859 194.075 C 217.109 196.916,217.199 197.863,217.206 218.787 C 217.213 241.599,216.799 239.756,221.951 239.916 C 227.321 240.082,226.800 242.432,226.797 218.051 C 226.793 190.615,226.300 188.143,219.890 183.427 C 216.708 181.086,207.735 179.182,204.800 180.225 M105.714 181.361 C 106.201 181.669,107.230 182.051,108.000 182.209 C 110.672 182.758,117.984 188.476,118.009 190.035 C 118.014 190.346,118.370 191.050,118.800 191.600 C 119.230 192.150,119.587 192.870,119.593 193.200 C 119.598 193.530,119.981 194.420,120.443 195.177 C 123.200 199.700,123.307 218.728,120.606 224.200 C 120.281 224.860,119.734 226.030,119.392 226.800 C 119.049 227.570,118.461 228.751,118.085 229.425 C 116.588 232.102,110.160 237.210,107.333 237.967 C 106.417 238.212,105.157 238.679,104.533 239.004 C 100.707 241.000,94.666 239.063,89.915 234.318 L 87.230 231.636 86.366 232.718 L 85.503 233.800 85.785 252.632 L 86.068 271.464 85.048 272.132 C 83.580 273.094,79.011 273.071,78.562 272.100 C 78.117 271.138,77.550 263.058,77.586 258.200 C 77.602 256.000,77.706 238.370,77.817 219.022 C 78.041 179.589,77.802 182.400,80.936 182.400 C 83.349 182.400,84.400 183.565,84.400 186.241 C 84.400 190.393,85.831 190.382,89.677 186.202 C 94.007 181.496,102.078 179.059,105.714 181.361 M158.357 181.349 C 158.608 181.650,159.586 181.985,160.532 182.091 C 163.403 182.415,170.122 187.305,171.784 190.279 C 172.128 190.896,172.575 191.670,172.776 192.000 C 176.084 197.423,178.011 210.548,175.600 211.235 C 175.050 211.392,166.443 211.538,156.474 211.560 C 137.140 211.603,136.800 211.637,136.800 213.550 C 136.800 218.957,141.177 226.719,145.317 228.655 C 146.023 228.985,147.140 229.551,147.800 229.912 C 148.720 230.416,150.072 230.566,153.600 230.558 C 160.271 230.542,164.325 228.278,167.731 222.664 C 168.917 220.710,169.571 220.401,170.400 221.400 C 170.688 221.747,171.560 222.000,172.467 222.000 C 174.532 222.000,176.176 223.492,175.641 224.880 C 173.206 231.189,166.148 238.000,162.044 238.000 C 161.562 238.000,160.462 238.360,159.600 238.800 C 157.511 239.866,149.488 239.984,148.363 238.966 C 147.977 238.617,146.883 238.234,145.931 238.113 C 140.319 237.402,130.438 227.409,130.395 222.400 C 130.392 222.070,130.032 220.659,129.595 219.264 C 128.568 215.989,128.464 205.189,129.435 202.600 C 129.765 201.720,130.187 200.007,130.373 198.794 C 131.388 192.194,139.683 183.182,145.795 182.041 C 146.826 181.848,147.870 181.490,148.115 181.245 C 148.801 180.559,157.777 180.650,158.357 181.349 M213.120 181.347 C 213.714 181.647,214.830 182.007,215.601 182.146 C 218.792 182.722,222.393 186.207,224.130 190.400 C 225.898 194.669,226.000 196.183,226.000 218.247 L 226.000 239.185 225.092 239.413 C 224.592 239.538,222.927 239.587,221.392 239.520 L 218.600 239.400 218.393 219.200 C 218.150 195.441,217.785 193.542,213.050 191.335 C 212.362 191.014,211.350 190.495,210.800 190.182 C 207.186 188.121,199.354 190.099,195.523 194.039 C 191.957 197.708,191.871 198.287,191.618 220.400 L 191.400 239.400 188.608 239.520 C 187.073 239.587,185.408 239.538,184.908 239.413 L 184.000 239.185 184.000 211.415 L 184.000 183.645 184.889 183.023 C 187.202 181.402,190.396 182.641,190.405 185.162 C 190.422 189.539,191.596 189.546,196.528 185.200 C 198.519 183.446,200.893 182.000,201.784 182.000 C 202.259 182.000,202.996 181.736,203.424 181.413 C 204.472 180.620,211.588 180.571,213.120 181.347 M94.287 190.788 C 88.301 193.982,84.737 200.232,84.133 208.600 C 83.758 213.785,85.577 222.087,87.424 223.620 C 87.741 223.883,88.000 224.308,88.000 224.566 C 88.000 227.146,94.802 230.597,99.802 230.553 C 111.913 230.447,118.789 215.740,114.046 200.086 C 111.547 191.838,101.329 187.030,94.287 190.788 M147.587 189.976 C 147.030 190.146,146.220 190.475,145.787 190.709 C 145.354 190.942,144.407 191.353,143.682 191.623 C 140.235 192.902,136.187 199.818,137.825 201.628 C 138.687 202.580,166.986 202.854,167.920 201.920 C 169.653 200.187,164.968 191.665,162.239 191.587 C 161.998 191.581,160.900 191.132,159.800 190.591 C 157.716 189.566,150.186 189.187,147.587 189.976 M105.600 191.446 C 109.466 193.448,112.528 197.471,113.633 202.000 C 114.292 204.696,114.308 214.998,113.659 217.686 C 109.602 234.478,89.355 234.004,85.845 217.034 C 84.708 211.535,85.643 200.741,87.428 198.769 C 87.743 198.422,88.000 197.947,88.000 197.714 C 88.000 196.921,92.595 192.520,94.400 191.585 C 97.793 189.826,102.363 189.769,105.600 191.446 M160.000 191.476 C 163.163 192.696,165.178 194.555,166.866 197.810 C 169.100 202.119,169.238 202.082,151.443 201.918 C 137.060 201.785,137.564 201.903,138.384 198.860 C 140.239 191.970,151.397 188.158,160.000 191.476 M369.042 234.041 C 368.944 234.349,368.783 234.870,368.684 235.200 C 368.585 235.530,368.772 236.108,369.099 236.484 C 369.427 236.860,369.811 237.738,369.954 238.435 L 370.213 239.702 374.327 239.840 C 376.589 239.916,378.591 240.071,378.775 240.184 C 379.567 240.674,380.091 239.133,379.923 236.809 C 379.722 234.030,379.525 233.723,378.302 234.281 C 377.733 234.540,377.036 234.557,376.413 234.327 C 374.520 233.626,369.239 233.422,369.042 234.041 M376.400 235.521 C 376.980 235.739,377.784 235.753,378.314 235.553 C 379.427 235.134,379.707 235.665,379.527 237.858 C 379.422 239.133,379.235 239.423,378.448 239.535 C 376.509 239.809,374.820 239.220,374.559 238.179 C 374.099 236.346,371.600 236.383,371.600 238.224 C 371.600 238.761,371.420 239.200,371.200 239.200 C 370.980 239.200,370.799 238.885,370.798 238.500 C 370.796 238.115,370.546 237.322,370.240 236.737 C 369.269 234.876,372.828 234.173,376.400 235.521 M0.000 247.993 C 0.000 248.266,11.276 248.400,34.124 248.400 C 72.926 248.400,69.866 248.107,69.487 251.782 C 69.356 253.048,69.133 254.200,68.991 254.342 C 68.849 254.484,53.268 254.600,34.367 254.600 C 8.259 254.600,-0.000 254.713,-0.000 255.071 C 0.000 256.430,68.439 256.383,69.432 255.024 C 70.082 254.135,70.209 249.351,69.609 248.400 C 69.142 247.661,0.000 247.257,0.000 247.993 M94.847 248.252 C 93.660 249.084,93.716 253.888,94.927 255.099 C 95.593 255.764,103.294 255.806,245.714 255.917 C 393.924 256.033,400.000 256.000,400.000 255.071 C 400.000 254.710,364.607 254.626,248.700 254.710 C 165.485 254.771,97.018 254.728,96.551 254.615 C 95.026 254.247,94.277 249.628,95.605 248.788 C 95.974 248.555,153.937 248.410,248.100 248.406 C 349.096 248.402,400.000 248.266,400.000 248.000 C 400.000 247.220,95.961 247.472,94.847 248.252 " stroke="none" fill="#7cb4bc" fill-rule="evenodd"></path><path id="path4" d="M-0.000 123.500 C -0.000 123.665,90.000 123.800,200.000 123.800 C 310.000 123.800,400.000 123.665,400.000 123.500 C 400.000 123.335,310.000 123.200,200.000 123.200 C 90.000 123.200,-0.000 123.335,-0.000 123.500 M0.000 150.400 C 0.000 150.666,66.933 150.800,200.000 150.800 C 333.067 150.800,400.000 150.666,400.000 150.400 C 400.000 150.134,333.067 150.000,200.000 150.000 C 66.933 150.000,0.000 150.134,0.000 150.400 M232.254 157.629 L 231.200 158.458 231.200 198.855 C 231.200 225.937,231.336 239.508,231.614 240.026 C 232.191 241.104,252.305 241.238,253.371 240.171 C 253.928 239.615,254.006 236.754,254.056 215.271 C 254.087 201.922,254.229 191.965,254.372 193.143 C 254.518 194.360,254.899 195.484,255.251 195.743 C 256.012 196.304,257.405 200.294,257.783 203.000 C 257.937 204.100,258.305 205.379,258.602 205.842 C 258.899 206.305,259.318 207.949,259.532 209.496 C 259.746 211.043,260.191 212.734,260.519 213.254 C 260.848 213.774,261.240 215.460,261.391 217.000 C 261.542 218.540,261.904 220.173,262.195 220.628 C 262.486 221.084,262.846 222.524,262.995 223.828 C 263.143 225.133,263.610 227.236,264.032 228.502 C 264.455 229.767,264.800 231.176,264.800 231.631 C 264.800 232.912,266.743 238.396,267.646 239.665 L 268.454 240.800 277.999 240.800 C 288.688 240.800,288.800 240.771,288.800 238.056 C 288.800 237.238,289.164 235.856,289.608 234.985 C 290.053 234.113,290.532 232.415,290.673 231.212 C 290.815 230.009,291.238 228.479,291.612 227.812 C 291.987 227.145,292.485 225.790,292.719 224.800 C 292.952 223.810,293.628 220.930,294.221 218.400 C 294.814 215.870,295.631 212.720,296.037 211.400 C 296.443 210.080,296.899 207.920,297.050 206.600 C 297.201 205.280,297.573 203.817,297.876 203.349 C 298.180 202.881,298.578 201.155,298.763 199.513 C 298.947 197.872,299.395 196.074,299.759 195.519 C 300.122 194.964,300.548 193.270,300.705 191.755 L 300.990 189.000 301.248 191.600 C 301.390 193.030,301.528 204.405,301.553 216.877 L 301.600 239.555 302.489 240.177 C 304.018 241.248,323.308 241.092,324.400 240.000 C 325.189 239.211,325.200 238.667,325.200 199.020 L 325.200 158.841 323.862 157.820 L 322.524 156.800 307.242 156.800 C 289.829 156.800,289.801 156.805,289.353 159.601 C 289.214 160.472,288.861 161.383,288.570 161.625 C 288.278 161.867,287.922 162.906,287.779 163.933 C 287.635 164.960,287.010 167.346,286.388 169.235 C 285.767 171.124,285.050 173.824,284.794 175.235 C 284.539 176.646,284.173 177.990,283.981 178.222 C 283.789 178.454,283.425 179.984,283.172 181.622 C 282.919 183.260,282.474 185.061,282.184 185.625 C 281.894 186.189,281.530 187.809,281.374 189.225 C 281.219 190.641,280.782 192.430,280.402 193.200 C 280.023 193.970,279.597 195.758,279.455 197.172 C 278.996 201.754,277.460 202.982,277.022 199.117 C 276.868 197.752,276.492 196.036,276.186 195.305 C 275.881 194.574,275.430 192.857,275.185 191.488 C 274.940 190.120,274.499 188.190,274.205 187.200 C 273.911 186.210,273.387 184.163,273.039 182.652 C 272.692 181.140,272.058 179.160,271.631 178.252 C 271.204 177.343,270.763 175.546,270.652 174.259 C 270.532 172.872,270.175 171.614,269.776 171.173 C 269.339 170.691,268.987 169.287,268.775 167.180 C 268.595 165.394,268.167 163.504,267.824 162.980 C 267.481 162.456,267.200 161.470,267.200 160.788 C 267.200 156.896,266.755 156.800,248.674 156.800 C 233.734 156.800,233.279 156.823,232.254 157.629 M330.029 157.854 C 329.081 159.059,328.681 238.283,329.614 240.026 C 330.189 241.100,354.395 241.239,355.911 240.177 L 356.800 239.555 356.806 225.677 C 356.809 218.045,356.945 211.591,357.108 211.336 C 357.316 211.009,360.485 210.832,367.820 210.736 C 376.833 210.618,378.378 210.508,379.282 209.915 C 379.857 209.538,381.448 209.049,382.817 208.828 C 384.187 208.608,385.598 208.172,385.953 207.861 C 386.309 207.549,387.047 207.158,387.594 206.991 C 390.164 206.204,395.579 201.095,396.698 198.400 C 397.018 197.630,397.538 196.709,397.853 196.353 C 398.169 195.998,398.611 194.558,398.836 193.153 C 399.061 191.749,399.415 190.540,399.623 190.467 C 400.205 190.261,400.087 188.304,399.504 188.499 C 399.231 188.590,398.816 189.820,398.583 191.232 C 396.542 203.564,386.439 209.494,366.667 209.964 C 357.447 210.183,356.693 210.256,356.167 210.976 C 355.704 211.611,355.600 214.263,355.600 225.467 L 355.600 239.182 354.661 239.797 C 353.860 240.322,352.017 240.397,342.172 240.306 L 330.623 240.200 330.118 239.200 C 329.379 237.740,329.365 159.674,330.103 158.665 C 330.994 157.447,379.579 157.847,383.200 159.102 C 391.693 162.044,396.889 167.219,398.384 174.222 C 399.149 177.806,399.212 178.000,399.608 178.000 C 400.127 178.000,400.116 175.705,399.595 175.532 C 399.372 175.457,399.018 174.338,398.807 173.043 C 398.596 171.749,398.178 170.399,397.878 170.045 C 397.577 169.690,397.082 168.772,396.778 168.005 C 396.058 166.192,391.563 161.703,390.120 161.356 C 389.504 161.208,388.678 160.753,388.284 160.344 C 387.891 159.935,387.258 159.600,386.878 159.600 C 386.499 159.600,385.509 159.236,384.680 158.791 C 381.227 156.941,379.069 156.800,354.203 156.800 L 330.858 156.800 330.029 157.854 M265.454 158.583 C 265.991 158.959,266.372 159.790,266.527 160.922 C 266.660 161.887,267.049 163.505,267.393 164.517 C 267.736 165.529,268.271 167.672,268.582 169.279 C 269.243 172.699,270.208 176.588,271.093 179.400 C 271.440 180.500,271.951 182.390,272.230 183.600 C 272.509 184.810,273.486 188.680,274.400 192.200 C 275.315 195.720,276.297 199.553,276.583 200.718 C 276.869 201.884,277.231 202.964,277.386 203.118 C 277.780 203.511,279.600 201.311,279.600 200.442 C 279.600 200.049,279.981 198.304,280.446 196.564 C 280.911 194.824,281.524 192.320,281.807 191.000 C 282.705 186.821,283.649 183.117,284.813 179.200 C 285.435 177.110,286.070 174.680,286.225 173.800 C 286.380 172.920,286.825 171.300,287.214 170.200 C 287.603 169.100,288.036 167.390,288.176 166.400 C 288.428 164.620,289.777 159.960,290.377 158.800 C 290.780 158.020,322.531 157.679,323.453 158.444 C 324.467 159.285,324.244 239.442,323.226 239.986 C 322.005 240.639,304.381 240.512,303.500 239.843 C 302.846 239.347,302.800 237.631,302.800 213.870 L 302.800 188.428 301.949 187.973 C 300.937 187.431,300.416 187.997,300.406 189.650 C 300.403 190.227,300.119 191.487,299.776 192.450 C 299.433 193.412,298.815 195.730,298.404 197.600 C 296.865 204.595,295.617 209.620,295.250 210.307 C 295.041 210.697,294.575 212.452,294.214 214.208 C 293.852 215.964,293.230 218.570,292.829 220.000 C 292.429 221.430,291.892 223.410,291.635 224.400 C 291.378 225.390,290.721 227.820,290.175 229.800 C 289.048 233.890,288.556 235.963,288.217 238.056 C 287.856 240.276,287.091 240.433,277.241 240.308 C 270.107 240.218,268.638 240.100,268.397 239.600 C 267.866 238.502,267.113 236.225,266.545 234.000 C 266.237 232.790,265.555 230.270,265.031 228.400 C 264.508 226.530,263.507 222.480,262.808 219.400 C 262.109 216.320,261.201 212.630,260.790 211.200 C 259.727 207.502,258.840 203.853,258.187 200.495 C 257.877 198.897,257.449 197.266,257.238 196.870 C 257.026 196.474,256.579 194.992,256.246 193.575 C 255.912 192.159,255.288 190.323,254.860 189.495 L 254.082 187.991 253.641 189.255 C 253.338 190.122,253.200 198.158,253.200 214.837 L 253.200 239.155 252.311 239.777 C 250.944 240.735,233.395 240.701,232.331 239.738 C 231.470 238.958,231.162 160.366,232.014 158.774 C 232.572 157.731,263.982 157.551,265.454 158.583 M29.848 163.197 C 28.334 163.388,26.903 163.737,26.668 163.972 C 26.433 164.207,25.992 164.400,25.688 164.400 C 24.378 164.400,19.647 166.625,17.928 168.049 C 16.899 168.902,15.925 169.600,15.765 169.600 C 15.361 169.600,9.937 175.093,9.420 176.025 C 9.189 176.443,8.143 178.206,7.096 179.943 C 6.049 181.681,4.984 183.710,4.730 184.451 C 4.476 185.193,4.049 186.160,3.781 186.600 C 3.514 187.040,3.188 188.636,3.058 190.146 C 2.928 191.656,2.592 193.169,2.311 193.507 C 1.488 194.497,1.338 210.793,2.138 212.395 C 2.471 213.063,2.868 214.643,3.020 215.905 C 3.172 217.167,3.635 218.955,4.048 219.878 C 4.462 220.801,4.800 221.759,4.800 222.007 C 4.800 222.673,6.744 225.958,8.269 227.867 C 9.001 228.784,9.600 229.650,9.600 229.791 C 9.600 230.871,14.873 236.262,16.700 237.050 C 17.415 237.358,18.000 237.774,18.000 237.974 C 18.000 238.174,18.616 238.541,19.368 238.789 C 20.120 239.038,20.943 239.490,21.196 239.795 C 21.448 240.099,22.225 240.474,22.922 240.627 C 23.618 240.780,24.576 241.159,25.050 241.470 C 28.391 243.659,42.417 243.734,47.000 241.587 C 47.880 241.175,49.284 240.729,50.121 240.597 C 50.958 240.464,51.737 240.108,51.853 239.806 C 51.969 239.503,52.567 239.081,53.181 238.866 C 57.537 237.348,65.996 228.141,67.023 223.800 C 67.180 223.140,67.559 222.310,67.866 221.955 C 68.173 221.601,68.587 220.309,68.786 219.085 C 68.985 217.862,69.475 216.262,69.874 215.530 C 70.987 213.490,70.979 192.503,69.865 191.272 C 69.423 190.784,69.002 189.450,68.811 187.930 C 68.635 186.538,68.214 184.860,67.874 184.200 C 67.535 183.540,66.684 181.818,65.984 180.374 C 64.153 176.594,62.447 174.415,59.126 171.615 C 57.517 170.258,55.660 168.691,55.000 168.133 C 53.642 166.984,50.242 165.359,46.400 164.024 C 43.442 162.996,34.849 162.566,29.848 163.197 M43.800 164.368 C 50.633 166.209,55.248 168.832,59.921 173.529 C 62.471 176.092,65.647 180.922,66.807 184.000 C 67.097 184.770,67.491 185.607,67.683 185.860 C 67.875 186.113,68.216 187.463,68.441 188.860 C 68.665 190.257,69.153 192.300,69.525 193.400 C 70.634 196.684,70.486 208.962,69.275 214.200 C 67.415 222.245,64.323 228.219,59.483 233.119 C 52.182 240.512,40.005 244.103,29.800 241.875 C 26.089 241.064,19.757 238.607,18.800 237.607 C 18.690 237.492,17.826 236.872,16.880 236.230 C 13.892 234.203,10.876 230.641,7.479 225.128 C 6.851 224.109,5.815 221.681,4.542 218.243 C 0.992 208.661,2.435 187.668,7.034 182.000 C 7.301 181.670,7.815 180.770,8.175 180.000 C 8.534 179.230,9.123 178.060,9.482 177.400 C 10.356 175.795,16.646 169.600,17.402 169.600 C 17.731 169.600,18.000 169.435,18.000 169.234 C 18.000 168.367,22.936 166.122,28.600 164.411 C 32.049 163.370,40.012 163.348,43.800 164.368 M31.776 172.987 C 31.349 173.310,30.589 173.580,30.087 173.587 C 28.953 173.603,25.842 175.159,23.028 177.117 C 9.992 186.188,9.323 216.421,21.901 228.040 C 24.641 230.570,27.671 232.171,31.683 233.208 C 34.582 233.957,40.960 233.554,43.278 232.474 C 44.311 231.993,45.375 231.600,45.643 231.600 C 49.358 231.600,56.651 221.987,58.692 214.400 C 60.006 209.519,60.248 197.640,59.104 194.200 C 58.738 193.100,58.327 191.480,58.189 190.600 C 57.714 187.560,53.585 180.302,51.135 178.197 C 45.668 173.504,34.919 170.610,31.776 172.987 M41.212 174.035 C 44.204 175.017,49.600 177.553,49.600 177.977 C 49.600 178.139,50.050 178.477,50.600 178.727 C 51.150 178.978,51.600 179.448,51.600 179.772 C 51.600 180.095,51.857 180.504,52.170 180.680 C 53.120 181.213,57.599 190.288,57.613 191.709 C 57.620 192.419,57.974 193.990,58.400 195.200 C 59.379 197.984,59.548 208.245,58.652 210.451 C 58.350 211.193,57.984 212.743,57.839 213.895 C 57.265 218.434,50.944 228.466,48.086 229.373 C 47.651 229.511,46.909 229.959,46.437 230.368 C 45.965 230.777,44.798 231.229,43.843 231.373 C 42.889 231.516,41.769 231.890,41.354 232.204 C 40.301 233.001,32.297 233.040,31.642 232.251 C 31.391 231.948,30.261 231.578,29.129 231.428 C 27.975 231.275,26.578 230.770,25.944 230.278 C 23.383 228.285,19.250 224.113,18.637 222.900 C 18.275 222.185,17.818 221.600,17.622 221.600 C 17.425 221.600,17.142 221.015,16.993 220.300 C 16.843 219.585,16.472 218.605,16.166 218.122 C 14.583 215.621,13.546 203.304,14.403 197.200 C 15.290 190.885,15.656 189.003,16.152 188.200 C 16.423 187.760,16.867 186.635,17.139 185.700 C 17.410 184.765,17.791 184.000,17.985 184.000 C 18.179 184.000,18.546 183.369,18.801 182.597 C 19.056 181.825,19.610 181.009,20.032 180.783 C 20.454 180.557,20.800 180.108,20.800 179.786 C 20.800 179.464,20.956 179.200,21.147 179.200 C 21.338 179.200,22.733 178.362,24.247 177.337 C 25.761 176.312,27.900 175.243,29.000 174.961 C 30.100 174.679,31.720 174.176,32.600 173.842 C 34.862 172.984,38.241 173.060,41.212 174.035 M356.400 176.000 C 355.659 176.741,355.600 177.333,355.600 183.971 L 355.600 191.142 356.700 192.018 C 359.031 193.875,369.222 192.296,371.640 189.703 C 375.180 185.909,374.522 179.006,370.411 176.806 C 367.119 175.044,357.887 174.513,356.400 176.000 M366.853 176.653 C 370.056 177.239,370.509 177.433,371.291 178.553 C 371.770 179.239,372.350 179.928,372.581 180.085 C 373.402 180.644,373.096 186.895,372.200 187.871 C 368.840 191.531,369.535 191.271,362.929 191.339 L 357.000 191.400 356.891 184.491 C 356.822 180.180,356.940 177.285,357.205 176.791 C 357.753 175.766,361.698 175.710,366.853 176.653 M95.901 179.555 C 95.077 179.730,94.087 180.137,93.701 180.459 C 93.316 180.782,92.550 181.239,92.000 181.475 C 91.450 181.711,90.163 182.646,89.140 183.551 L 87.279 185.198 86.926 183.704 C 86.286 181.000,78.471 179.893,76.182 182.182 L 75.200 183.164 75.100 219.082 C 74.930 280.051,74.324 275.000,81.813 275.000 C 88.649 275.000,88.932 274.501,88.726 262.800 C 88.616 256.545,88.488 255.247,87.898 254.411 C 87.202 253.425,86.771 235.600,87.443 235.600 C 87.576 235.600,88.590 236.320,89.695 237.200 C 90.800 238.080,91.894 238.800,92.126 238.800 C 92.359 238.800,92.980 239.205,93.506 239.700 C 94.420 240.558,94.770 240.600,101.083 240.600 C 107.504 240.600,107.720 240.573,108.300 239.700 C 108.672 239.139,109.302 238.800,109.969 238.800 C 111.817 238.800,118.800 233.007,118.800 231.474 C 118.800 231.264,119.250 230.675,119.800 230.165 C 120.350 229.655,120.800 228.880,120.800 228.443 C 120.800 228.005,120.981 227.535,121.203 227.398 C 122.280 226.733,123.756 222.295,124.862 216.400 C 125.436 213.340,125.056 202.321,124.289 199.800 C 123.954 198.700,123.483 197.061,123.242 196.158 C 123.000 195.254,122.354 193.855,121.806 193.047 C 121.258 192.240,120.698 191.134,120.562 190.590 C 120.425 190.045,120.149 189.600,119.948 189.600 C 119.747 189.600,119.369 189.105,119.107 188.500 C 118.053 186.061,113.409 181.848,111.207 181.333 C 110.653 181.203,109.618 180.747,108.906 180.320 C 107.461 179.452,98.783 178.941,95.901 179.555 M146.533 179.536 C 145.396 179.690,144.136 180.103,143.733 180.454 C 143.330 180.805,142.460 181.221,141.800 181.379 C 141.140 181.536,140.278 182.010,139.884 182.432 C 139.491 182.855,138.919 183.200,138.613 183.200 C 137.981 183.200,132.800 188.220,132.800 188.833 C 132.800 189.053,132.615 189.451,132.389 189.717 C 131.144 191.182,129.662 193.998,129.420 195.358 C 129.267 196.216,128.896 197.296,128.595 197.758 C 126.888 200.389,126.690 219.068,128.334 222.463 C 128.801 223.429,129.305 224.845,129.454 225.610 C 129.602 226.374,130.146 227.509,130.662 228.131 C 131.178 228.753,131.600 229.419,131.600 229.611 C 131.600 231.076,136.283 236.013,138.632 237.024 C 139.309 237.315,140.096 237.834,140.381 238.177 C 140.665 238.520,141.302 238.800,141.795 238.800 C 142.288 238.800,143.207 239.205,143.836 239.700 C 144.942 240.570,145.267 240.600,153.590 240.600 C 161.823 240.600,162.263 240.561,163.647 239.700 C 164.443 239.205,165.415 238.800,165.806 238.800 C 167.656 238.800,174.151 233.065,175.317 230.400 C 175.558 229.850,175.973 229.130,176.240 228.800 C 176.507 228.470,176.927 227.443,177.174 226.517 C 177.420 225.591,177.797 224.726,178.011 224.593 C 180.571 223.011,175.539 219.664,170.367 219.508 C 167.163 219.412,167.371 219.270,164.234 223.685 C 161.919 226.943,157.419 229.216,153.300 229.207 C 151.705 229.203,150.400 229.063,150.400 228.895 C 150.400 228.727,149.134 227.974,147.586 227.222 C 144.603 225.772,141.724 223.096,140.612 220.741 C 140.264 220.004,139.712 218.950,139.386 218.400 C 139.023 217.788,138.833 216.624,138.896 215.400 L 139.000 213.400 158.000 213.200 C 177.750 212.992,178.248 212.947,178.655 211.322 C 179.131 209.427,178.577 200.130,177.929 199.131 C 177.597 198.619,177.205 197.437,177.059 196.505 C 176.418 192.432,170.778 184.666,167.314 183.088 C 166.811 182.859,166.400 182.549,166.400 182.400 C 166.400 182.035,164.526 181.200,163.707 181.200 C 163.346 181.200,162.651 180.824,162.161 180.364 C 161.187 179.449,151.116 178.915,146.533 179.536 M202.514 179.547 C 201.587 179.714,200.507 180.130,200.114 180.471 C 199.721 180.813,198.918 181.207,198.328 181.347 C 197.738 181.487,197.018 181.828,196.728 182.106 C 196.438 182.383,195.687 182.939,195.061 183.340 L 193.921 184.070 192.607 182.635 L 191.292 181.200 187.472 181.200 C 185.371 181.200,183.190 181.376,182.626 181.590 L 181.600 181.980 181.600 210.976 C 181.600 239.234,181.620 239.982,182.374 240.386 C 183.590 241.037,191.688 240.916,192.624 240.233 C 193.368 239.689,193.408 238.893,193.600 221.133 C 193.743 207.900,193.935 202.371,194.273 201.800 C 194.534 201.360,194.947 200.124,195.191 199.052 C 196.032 195.366,202.191 190.789,206.291 190.804 C 207.868 190.809,211.189 192.451,212.720 193.982 C 215.517 196.779,215.379 195.590,215.600 218.733 C 215.794 239.081,215.822 239.682,216.600 240.257 C 217.746 241.106,227.450 240.887,228.009 240.000 C 228.668 238.956,228.510 198.130,227.838 195.773 C 227.529 194.688,227.159 192.955,227.017 191.923 C 226.630 189.121,224.181 185.008,222.036 183.556 C 221.259 183.030,220.303 182.285,219.911 181.900 C 219.520 181.515,218.833 181.200,218.384 181.200 C 217.935 181.200,217.059 180.824,216.437 180.364 C 215.194 179.445,206.067 178.909,202.514 179.547 M108.343 181.036 C 115.348 183.452,119.420 188.265,122.695 198.000 C 123.589 200.657,123.726 201.845,123.891 208.400 C 124.081 215.957,124.101 215.775,122.372 222.540 C 118.291 238.502,99.536 245.898,89.242 235.604 C 87.582 233.944,87.226 233.742,86.974 234.317 C 86.277 235.915,86.282 251.232,86.981 254.572 C 88.093 259.888,87.747 272.192,86.456 273.236 C 85.080 274.349,78.920 274.349,77.544 273.236 C 76.234 272.176,76.172 269.575,76.332 222.332 C 76.482 178.002,76.117 181.932,80.112 181.678 C 83.984 181.431,85.537 182.066,85.850 184.023 C 86.351 187.157,86.842 187.252,89.352 184.701 C 94.278 179.696,100.805 178.436,108.343 181.036 M158.274 180.186 C 169.917 182.691,176.429 191.144,178.078 205.893 C 178.851 212.814,180.217 212.395,156.887 212.398 C 136.038 212.400,137.899 211.974,138.459 216.624 C 140.111 230.350,159.210 234.439,166.231 222.569 C 167.790 219.932,168.573 219.712,172.696 220.753 C 177.211 221.893,177.485 222.162,176.866 224.844 C 174.172 236.515,158.734 243.550,145.296 239.231 C 136.212 236.311,130.719 229.867,128.391 219.400 C 127.771 216.612,127.934 203.707,128.624 201.000 C 128.961 199.680,129.412 197.911,129.627 197.069 C 131.666 189.086,138.513 182.754,148.000 180.077 C 150.129 179.476,155.224 179.530,158.274 180.186 M216.097 181.097 C 222.012 183.284,225.897 188.188,226.793 194.600 C 227.008 196.140,227.188 206.889,227.192 218.486 C 227.201 242.948,227.797 240.400,222.071 240.400 C 216.288 240.400,216.838 242.635,216.709 218.600 C 216.588 195.974,216.688 196.849,213.871 193.731 C 210.926 190.472,204.575 189.231,201.579 191.330 C 201.052 191.698,200.323 192.000,199.957 192.000 C 199.591 192.000,198.220 193.145,196.911 194.545 C 192.921 198.810,192.669 200.380,192.494 221.987 C 192.401 233.480,192.209 239.549,191.927 239.887 C 191.277 240.671,184.440 240.584,183.289 239.777 L 182.400 239.155 182.400 211.254 C 182.400 179.066,182.012 181.893,186.461 181.676 C 190.395 181.484,191.485 181.934,191.810 183.882 C 192.301 186.832,192.556 186.873,195.231 184.431 C 200.261 179.836,208.937 178.450,216.097 181.097 M96.104 191.187 C 87.752 194.979,84.087 204.335,86.207 216.455 C 88.923 231.984,106.429 234.630,112.309 220.400 C 114.326 215.520,114.353 204.279,112.360 199.552 C 109.407 192.550,101.765 188.618,96.104 191.187 M148.189 190.943 C 147.755 191.242,146.680 191.719,145.800 192.004 C 142.413 193.099,138.243 197.767,138.482 200.196 L 138.600 201.400 152.867 201.400 C 160.714 201.400,167.241 201.293,167.371 201.163 C 168.506 200.027,162.811 192.457,160.400 191.897 C 159.850 191.770,158.680 191.388,157.800 191.050 C 155.716 190.249,149.301 190.178,148.189 190.943 M103.958 192.252 C 107.738 194.056,111.029 197.246,111.432 199.499 C 111.580 200.325,111.994 201.334,112.351 201.742 C 113.330 202.861,113.313 216.534,112.330 218.000 C 111.961 218.550,111.538 219.663,111.390 220.474 C 111.242 221.284,110.779 222.257,110.360 222.636 C 109.942 223.014,109.600 223.495,109.600 223.704 C 109.600 224.246,107.876 225.538,104.531 227.500 C 101.658 229.186,96.800 230.010,96.800 228.812 C 96.800 228.599,95.853 227.961,94.695 227.394 C 92.249 226.196,88.800 223.052,88.800 222.019 C 88.800 221.628,88.395 220.793,87.900 220.164 C 86.702 218.641,86.494 203.338,87.648 201.577 C 88.004 201.033,88.422 200.011,88.577 199.305 C 89.035 197.218,92.703 193.910,96.741 191.941 C 99.697 190.500,100.346 190.528,103.958 192.252 M157.230 191.830 C 162.430 193.633,165.567 196.535,166.058 200.000 L 166.200 201.000 152.500 201.105 C 136.979 201.224,137.725 201.408,140.010 198.036 C 141.566 195.740,143.714 193.960,146.200 192.907 C 147.300 192.441,148.740 191.778,149.400 191.433 C 151.145 190.520,153.849 190.657,157.230 191.830 M368.318 232.875 C 367.013 233.880,366.672 235.612,367.587 236.586 C 368.034 237.062,368.400 237.922,368.400 238.497 C 368.400 240.031,370.592 241.678,371.862 241.099 C 372.525 240.797,373.737 240.808,376.065 241.137 C 380.426 241.754,380.800 241.451,380.800 237.312 C 380.800 233.122,380.631 232.915,377.191 232.894 C 375.628 232.884,373.146 232.758,371.675 232.613 C 369.737 232.422,368.812 232.494,368.318 232.875 M377.914 233.770 C 380.026 233.807,380.386 234.312,380.394 237.251 C 380.402 240.311,380.174 240.438,374.947 240.289 C 370.031 240.149,369.600 240.000,369.600 238.438 C 369.600 237.822,369.233 236.991,368.777 236.579 C 368.179 236.038,368.024 235.558,368.209 234.822 C 368.595 233.284,369.114 233.128,372.800 233.446 C 374.670 233.607,376.971 233.753,377.914 233.770 M0.000 246.600 C 0.000 247.129,4.104 247.200,34.538 247.200 C 74.282 247.200,70.400 246.755,70.400 251.313 C 70.400 256.964,74.121 256.459,33.500 256.317 C 15.075 256.253,-0.000 256.327,-0.000 256.482 C 0.000 257.513,69.143 257.432,70.167 256.400 C 71.567 254.988,71.434 248.234,69.978 246.778 C 68.910 245.710,0.000 245.535,0.000 246.600 M94.540 246.398 C 92.706 247.138,92.110 254.681,93.756 256.327 C 94.855 257.427,400.000 257.581,400.000 256.482 C 400.000 256.327,331.915 256.251,248.700 256.314 C 165.485 256.376,96.815 256.323,96.101 256.196 C 92.282 255.515,92.720 247.202,96.575 247.199 C 97.249 247.198,165.795 247.199,248.900 247.200 C 383.062 247.202,400.000 247.135,400.000 246.601 C 400.000 245.915,96.238 245.713,94.540 246.398 " stroke="none" fill="#bcdcdc" fill-rule="evenodd"></path></g></svg>