<svg id="svg" version="1.1" xmlns="http://www.w3.org/2000/svg" xmlns:xlink="http://www.w3.org/1999/xlink" width="400" height="240" viewBox="0, 0, 400,240"><g id="svgg"><path id="path0" d="M194.598 0.242 C 194.070 0.358,192.859 0.459,191.907 0.466 C 190.955 0.474,189.334 0.590,188.305 0.725 C 187.276 0.859,185.516 1.081,184.394 1.218 C 183.271 1.354,181.813 1.563,181.152 1.682 C 180.492 1.801,179.250 2.022,178.391 2.172 C 177.533 2.323,175.372 2.776,173.589 3.179 C 171.807 3.582,170.050 3.963,169.685 4.025 C 169.320 4.086,168.963 4.233,168.890 4.349 C 168.818 4.466,168.530 4.562,168.249 4.562 C 167.969 4.562,167.138 4.769,166.403 5.021 C 165.667 5.274,163.824 5.872,162.305 6.351 C 160.786 6.830,159.274 7.340,158.944 7.485 C 158.082 7.862,157.590 8.059,155.702 8.782 C 152.913 9.851,146.665 12.813,143.821 14.415 C 142.961 14.899,141.771 15.566,141.176 15.897 C 140.582 16.229,139.760 16.704,139.349 16.953 C 138.938 17.203,138.073 17.727,137.428 18.118 C 136.783 18.510,136.218 18.915,136.174 19.019 C 136.130 19.123,135.978 19.208,135.836 19.208 C 135.694 19.208,134.649 19.875,133.515 20.691 C 130.712 22.708,126.918 25.520,126.771 25.689 C 126.705 25.765,126.373 26.039,126.034 26.299 C 125.455 26.742,123.780 28.170,121.262 30.365 C 117.736 33.440,111.696 39.862,108.160 44.298 C 107.107 45.618,106.185 46.753,106.110 46.819 C 105.187 47.635,97.479 59.655,97.479 60.278 C 97.479 60.402,97.398 60.505,97.299 60.506 C 97.200 60.507,97.004 60.750,96.863 61.046 C 96.723 61.342,95.951 62.881,95.148 64.466 C 93.238 68.237,91.743 71.490,91.011 73.469 C 90.840 73.932,90.563 74.634,90.396 75.030 C 89.954 76.076,88.717 79.566,88.098 81.513 C 87.804 82.437,87.372 83.788,87.139 84.514 C 86.906 85.240,86.431 87.023,86.084 88.475 C 85.736 89.928,85.357 91.495,85.241 91.957 C 85.046 92.733,84.934 93.290,84.301 96.639 C 82.111 108.229,81.908 127.754,83.888 136.255 C 83.949 136.519,84.120 137.437,84.268 138.295 C 84.690 140.753,85.012 142.427,85.239 143.337 C 85.354 143.800,85.729 145.312,86.073 146.699 C 86.738 149.384,87.558 152.271,87.879 153.061 C 87.987 153.325,88.131 153.758,88.199 154.022 C 88.312 154.462,89.300 157.298,90.099 159.479 C 90.279 159.972,90.501 160.449,90.592 160.540 C 90.682 160.630,90.756 160.845,90.756 161.017 C 90.756 161.189,91.016 161.901,91.334 162.598 C 91.652 163.295,92.414 165.000,93.027 166.386 C 96.535 174.312,102.916 184.653,108.423 191.335 C 116.388 201.002,124.439 208.373,134.094 214.838 C 136.339 216.342,138.366 217.724,138.598 217.909 C 138.831 218.095,139.069 218.247,139.128 218.247 C 139.187 218.247,139.763 218.559,140.409 218.940 C 141.586 219.634,146.146 222.054,148.619 223.298 C 150.900 224.446,153.207 225.461,156.062 226.576 C 157.581 227.169,159.040 227.750,159.304 227.867 C 159.913 228.137,165.549 230.016,166.507 230.270 C 172.675 231.900,175.414 232.556,177.551 232.914 C 178.211 233.024,179.346 233.223,180.072 233.355 C 181.396 233.596,183.332 233.868,186.915 234.315 C 196.539 235.517,209.165 235.154,219.328 233.384 C 219.988 233.268,221.176 233.068,221.969 232.937 C 224.229 232.566,230.078 231.168,232.173 230.499 C 232.503 230.394,233.205 230.186,233.733 230.038 C 235.520 229.536,240.214 228.021,240.576 227.829 C 240.774 227.724,242.103 227.195,243.528 226.653 C 247.693 225.070,255.150 221.443,258.583 219.330 C 259.046 219.045,259.592 218.751,259.798 218.675 C 260.212 218.523,269.917 212.045,270.108 211.793 C 270.174 211.706,271.092 210.957,272.149 210.128 C 274.746 208.091,274.810 208.039,276.591 206.514 C 281.656 202.174,288.220 195.290,292.077 190.271 C 292.869 189.240,293.653 188.260,293.818 188.093 C 294.237 187.669,300.619 178.144,300.791 177.685 C 300.869 177.479,301.278 176.717,301.700 175.990 C 303.864 172.266,303.560 172.852,306.497 166.747 C 307.069 165.558,307.767 163.992,308.049 163.265 C 308.330 162.539,308.703 161.621,308.876 161.224 C 309.621 159.523,311.475 154.229,312.114 151.981 C 312.282 151.387,312.511 150.630,312.620 150.300 C 313.419 147.901,314.424 143.789,315.026 140.456 C 315.157 139.730,315.369 138.595,315.495 137.935 C 317.098 129.579,317.642 115.309,316.681 106.843 C 316.040 101.202,315.844 99.723,315.490 97.839 C 315.342 97.047,315.133 95.858,315.026 95.198 C 314.640 92.807,313.480 88.029,312.608 85.234 C 312.505 84.904,312.283 84.148,312.116 83.553 C 311.787 82.389,309.831 76.539,309.506 75.750 C 308.936 74.367,308.770 73.976,308.307 72.932 C 308.030 72.306,307.803 71.733,307.803 71.658 C 307.803 71.310,303.064 61.475,302.776 61.224 C 302.700 61.158,302.324 60.510,301.941 59.784 C 301.558 59.058,301.046 58.177,300.803 57.826 C 300.559 57.476,300.360 57.128,300.360 57.054 C 300.360 56.933,296.942 51.702,295.869 50.180 C 289.689 41.416,281.920 33.151,272.968 25.816 C 269.602 23.057,262.165 17.963,258.944 16.209 C 258.019 15.706,256.885 15.056,256.423 14.766 C 254.760 13.721,246.610 9.838,243.818 8.760 C 242.893 8.403,241.813 7.970,241.417 7.797 C 240.546 7.416,235.623 5.781,233.133 5.044 C 232.143 4.752,231.062 4.428,230.732 4.325 C 228.867 3.743,224.845 2.828,221.849 2.303 C 220.726 2.107,219.484 1.879,219.088 1.796 C 217.622 1.489,211.790 0.775,208.163 0.458 C 204.342 0.123,195.762 -0.013,194.598 0.242 M258.096 80.802 C 264.684 82.521,270.066 88.335,272.754 96.639 C 273.181 97.959,273.617 99.256,273.723 99.520 C 273.931 100.039,274.193 101.250,274.789 104.442 C 275.113 106.173,275.158 108.251,275.086 118.127 C 274.998 130.164,274.917 131.277,273.888 134.454 C 273.696 135.048,273.395 136.020,273.219 136.615 C 272.936 137.572,272.445 138.754,271.124 141.657 C 268.929 146.482,263.923 151.067,259.064 152.703 C 255.964 153.746,256.038 153.743,227.611 153.885 L 200.120 154.022 200.120 156.303 L 200.120 158.583 218.159 158.645 C 232.790 158.695,236.248 158.767,236.462 159.025 C 236.791 159.421,236.955 177.031,236.646 178.631 C 235.632 183.867,229.012 189.018,220.888 190.893 C 216.722 191.854,215.196 192.078,207.923 192.792 C 197.292 193.837,182.782 192.209,175.870 189.197 C 173.895 188.336,173.247 187.990,171.549 186.886 C 167.549 184.287,164.835 180.842,163.839 177.102 C 163.412 175.499,163.349 138.348,163.769 136.029 C 164.654 131.144,166.481 127.449,169.085 125.277 C 169.516 124.918,170.192 124.347,170.588 124.009 C 171.638 123.112,175.350 121.354,177.431 120.767 C 180.802 119.818,186.474 119.582,206.152 119.575 L 224.188 119.568 226.459 118.992 C 229.710 118.167,231.930 117.146,233.799 115.616 C 234.621 114.943,236.880 112.524,237.072 112.112 C 237.191 111.855,237.380 111.645,237.492 111.645 C 237.604 111.645,237.695 111.483,237.695 111.285 C 237.695 111.086,237.803 110.924,237.935 110.924 C 238.067 110.924,238.175 110.771,238.175 110.584 C 238.175 110.397,238.264 110.208,238.372 110.164 C 238.481 110.120,238.953 109.112,239.421 107.923 C 240.190 105.973,240.391 105.316,240.958 102.881 C 241.050 102.485,241.191 97.299,241.271 91.357 L 241.417 80.552 244.778 80.405 C 250.329 80.161,256.325 80.340,258.096 80.802 M219.328 168.531 C 211.962 170.312,213.345 181.032,220.940 181.032 C 226.715 181.032,229.437 173.924,225.178 169.964 C 223.714 168.603,221.386 168.033,219.328 168.531 " stroke="none" fill="#215065" fill-rule="evenodd"></path><path id="path1" d="M245.836 80.595 L 241.851 80.684 241.694 84.318 C 241.607 86.316,241.536 90.878,241.535 94.456 C 241.533 100.537,241.363 102.966,240.806 104.862 C 240.191 106.953,239.984 107.541,239.428 108.764 C 237.624 112.734,234.323 116.141,230.612 117.863 C 229.952 118.169,229.250 118.500,229.052 118.597 C 228.854 118.695,228.097 118.914,227.371 119.084 C 226.645 119.255,225.672 119.507,225.210 119.645 C 224.668 119.806,217.934 119.918,206.242 119.961 C 179.546 120.058,178.885 120.109,173.938 122.427 C 168.204 125.115,165.177 129.283,164.117 135.952 C 163.590 139.267,163.563 173.797,164.085 176.509 C 166.429 188.693,185.537 194.839,212.485 192.079 C 223.930 190.906,232.616 186.754,235.448 181.101 L 236.375 179.251 236.375 169.278 L 236.375 159.304 218.261 159.242 C 204.135 159.194,200.105 159.115,199.957 158.882 C 199.629 158.366,199.719 153.901,200.060 153.778 C 200.225 153.719,212.731 153.634,227.851 153.590 C 259.156 153.499,256.975 153.639,261.345 151.433 C 267.491 148.329,272.862 140.086,274.286 131.573 C 274.363 131.110,274.530 130.246,274.658 129.652 C 274.986 128.117,274.975 107.095,274.644 105.282 C 273.865 101.010,273.733 100.387,273.477 99.760 C 273.369 99.496,272.984 98.307,272.621 97.119 C 270.112 88.895,264.399 82.682,257.863 81.070 C 256.095 80.634,251.769 80.463,245.836 80.595 M223.583 168.638 C 229.214 171.175,228.728 179.063,222.809 181.202 C 218.876 182.623,214.166 179.143,214.166 174.816 C 214.166 173.447,214.253 173.095,215.045 171.262 C 216.159 168.682,220.630 167.308,223.583 168.638 " stroke="none" fill="#fad344" fill-rule="evenodd"></path><path id="path2" d="M0.000 120.048 L 0.000 240.096 200.000 240.096 L 400.000 240.096 400.000 120.048 L 400.000 0.000 304.142 0.030 C 251.420 0.047,209.040 0.148,209.964 0.254 C 214.887 0.821,218.203 1.274,218.823 1.466 C 219.206 1.584,219.826 1.681,220.200 1.681 C 220.575 1.681,221.342 1.783,221.905 1.907 C 222.468 2.032,223.469 2.244,224.130 2.380 C 226.434 2.853,230.616 3.865,231.092 4.065 C 231.357 4.176,232.059 4.404,232.653 4.570 C 234.071 4.969,241.519 7.401,242.137 7.667 C 242.401 7.781,242.995 8.035,243.457 8.233 C 249.684 10.888,250.824 11.422,255.222 13.740 C 259.915 16.213,265.219 19.552,268.788 22.279 C 268.920 22.379,269.406 22.724,269.868 23.044 C 270.330 23.364,270.762 23.686,270.828 23.759 C 270.894 23.832,271.381 24.210,271.909 24.599 C 272.437 24.987,272.923 25.365,272.989 25.439 C 273.055 25.513,273.516 25.877,274.014 26.248 C 274.512 26.619,275.176 27.158,275.489 27.447 C 275.802 27.735,276.746 28.565,277.585 29.290 C 282.059 33.156,291.262 43.023,293.397 46.243 C 293.595 46.542,294.567 47.901,295.556 49.264 C 300.255 55.735,306.389 66.605,308.267 71.789 C 308.435 72.251,308.660 72.845,308.769 73.109 C 309.773 75.560,311.164 79.388,311.164 79.703 C 311.164 79.919,311.254 80.199,311.363 80.324 C 311.472 80.450,311.701 81.038,311.871 81.633 C 312.041 82.227,312.272 82.983,312.383 83.313 C 312.645 84.088,314.181 89.696,314.388 90.636 C 314.476 91.032,314.657 91.789,314.792 92.317 C 315.233 94.053,315.975 98.480,316.440 102.161 C 316.557 103.085,316.821 105.138,317.028 106.723 C 317.873 113.212,317.470 127.203,316.198 135.534 C 316.057 136.459,315.879 137.730,315.803 138.360 C 315.727 138.990,315.570 139.564,315.455 139.635 C 315.340 139.706,315.246 140.080,315.246 140.467 C 315.246 141.107,315.098 141.881,314.514 144.298 C 314.402 144.760,314.132 145.894,313.913 146.819 C 313.694 147.743,313.432 148.770,313.329 149.100 C 313.227 149.430,312.903 150.510,312.609 151.501 C 312.316 152.491,311.979 153.489,311.860 153.718 C 311.742 153.948,311.645 154.346,311.645 154.604 C 311.645 154.863,311.537 155.140,311.405 155.222 C 311.273 155.304,311.164 155.579,311.164 155.834 C 311.164 156.294,310.329 158.607,309.458 160.562 C 309.208 161.121,309.004 161.690,309.004 161.825 C 309.004 161.961,308.897 162.259,308.767 162.488 C 308.637 162.718,308.197 163.661,307.789 164.586 C 306.112 168.382,304.237 172.267,303.386 173.709 C 302.206 175.710,301.080 177.721,301.080 177.831 C 301.080 177.894,300.756 178.416,300.360 178.992 C 299.964 179.567,299.640 180.092,299.640 180.158 C 299.640 180.310,294.839 187.303,294.493 187.655 C 294.353 187.799,294.022 188.215,293.758 188.580 C 293.237 189.299,292.112 190.779,291.646 191.357 C 291.486 191.555,290.925 192.257,290.398 192.917 C 289.872 193.577,288.832 194.766,288.087 195.558 C 287.343 196.351,286.154 197.644,285.444 198.433 C 282.896 201.266,277.073 206.646,273.469 209.498 C 272.479 210.281,271.615 210.977,271.549 211.044 C 271.354 211.242,268.867 213.059,267.827 213.764 C 262.067 217.669,259.952 219.002,257.503 220.271 C 256.975 220.544,256.489 220.822,256.423 220.888 C 256.177 221.134,250.993 223.775,249.220 224.557 C 248.758 224.761,247.677 225.243,246.819 225.627 C 245.960 226.011,244.880 226.466,244.418 226.637 C 243.956 226.807,243.253 227.087,242.857 227.257 C 240.873 228.112,235.791 229.839,232.653 230.726 C 232.059 230.894,231.086 231.171,230.492 231.343 C 229.898 231.514,228.818 231.783,228.091 231.940 C 227.365 232.098,226.523 232.323,226.219 232.440 C 225.916 232.557,225.437 232.653,225.156 232.653 C 224.874 232.653,224.312 232.755,223.907 232.880 C 222.409 233.340,215.164 234.435,210.684 234.877 C 206.998 235.241,192.573 235.238,188.956 234.872 C 184.255 234.398,177.012 233.317,175.613 232.882 C 175.208 232.756,174.646 232.653,174.364 232.653 C 174.082 232.653,173.604 232.557,173.301 232.440 C 172.997 232.323,172.155 232.095,171.429 231.933 C 166.842 230.911,157.944 227.894,153.138 225.731 C 152.568 225.474,151.507 225.013,150.780 224.706 C 148.504 223.743,141.734 220.187,139.551 218.807 C 138.855 218.367,138.233 218.007,138.168 218.007 C 138.040 218.007,133.929 215.328,133.733 215.117 C 133.667 215.045,132.695 214.350,131.573 213.571 C 129.830 212.362,127.227 210.398,125.450 208.953 C 124.992 208.580,122.611 206.498,120.292 204.442 C 114.516 199.321,107.127 190.774,102.444 183.794 C 101.558 182.473,100.729 181.264,100.601 181.107 C 100.473 180.950,100.156 180.444,99.897 179.982 C 99.638 179.521,99.150 178.706,98.812 178.172 C 98.475 177.637,98.199 177.155,98.199 177.100 C 98.199 177.045,97.749 176.260,97.200 175.355 C 96.226 173.752,92.917 167.287,92.917 166.987 C 92.917 166.904,92.582 166.114,92.173 165.231 C 90.714 162.081,88.836 157.306,88.836 156.747 C 88.836 156.518,88.727 156.264,88.595 156.182 C 88.463 156.101,88.355 155.792,88.355 155.496 C 88.355 155.200,88.265 154.855,88.155 154.730 C 87.972 154.523,87.056 151.644,86.400 149.220 C 86.257 148.691,86.051 148.043,85.943 147.779 C 85.835 147.515,85.692 146.975,85.625 146.579 C 85.558 146.182,85.384 145.372,85.237 144.778 C 84.651 142.408,83.921 138.352,83.053 132.653 C 82.223 127.194,81.932 113.009,82.535 107.323 C 83.156 101.468,84.104 95.113,84.757 92.437 C 84.902 91.843,85.114 90.924,85.229 90.396 C 85.423 89.504,85.667 88.592,86.192 86.795 C 86.307 86.399,86.474 85.804,86.561 85.474 C 86.853 84.373,88.402 79.358,88.601 78.872 C 88.709 78.607,89.307 77.041,89.929 75.390 C 90.551 73.739,91.154 72.286,91.269 72.161 C 91.383 72.035,91.477 71.795,91.477 71.627 C 91.477 71.105,94.500 64.710,96.055 61.945 C 96.537 61.086,97.341 59.628,97.841 58.703 C 98.826 56.883,101.972 52.037,103.921 49.340 C 104.589 48.415,105.438 47.237,105.809 46.722 C 109.103 42.142,115.630 35.078,121.584 29.651 C 126.058 25.572,137.259 17.287,138.298 17.287 C 138.428 17.287,138.535 17.179,138.535 17.047 C 138.535 16.915,138.640 16.807,138.769 16.807 C 138.897 16.807,139.842 16.302,140.869 15.686 C 142.997 14.409,149.764 10.930,151.741 10.097 C 152.467 9.790,154.142 9.084,155.462 8.527 C 157.635 7.611,164.144 5.349,166.867 4.564 C 167.461 4.393,168.388 4.114,168.927 3.944 C 169.466 3.774,170.924 3.407,172.168 3.130 C 173.412 2.852,174.808 2.528,175.270 2.409 C 175.732 2.291,176.921 2.071,177.911 1.919 C 178.902 1.768,180.144 1.550,180.672 1.434 C 181.530 1.247,184.614 0.839,189.556 0.258 C 190.480 0.150,148.208 0.047,95.618 0.030 L 0.000 0.000 0.000 120.048 " stroke="none" fill="#f4f4f4" fill-rule="evenodd"></path><path id="path3" d="M244.778 80.405 L 241.417 80.552 241.271 91.357 C 241.191 97.299,241.050 102.485,240.958 102.881 C 240.391 105.316,240.190 105.973,239.421 107.923 C 238.953 109.112,238.481 110.120,238.372 110.164 C 238.264 110.208,238.175 110.397,238.175 110.584 C 238.175 110.771,238.067 110.924,237.935 110.924 C 237.803 110.924,237.695 111.086,237.695 111.285 C 237.695 111.483,237.604 111.645,237.492 111.645 C 237.380 111.645,237.191 111.855,237.072 112.112 C 236.665 112.988,234.051 115.511,232.455 116.567 C 231.898 116.936,231.491 117.286,231.551 117.345 C 231.725 117.520,233.867 115.970,235.265 114.657 C 237.331 112.718,239.472 109.269,240.302 106.543 C 240.959 104.386,241.051 103.994,241.274 102.401 C 241.403 101.477,241.557 96.258,241.615 90.804 C 241.673 85.350,241.768 80.841,241.826 80.783 C 242.210 80.399,256.171 80.602,257.743 81.015 C 264.503 82.787,270.095 88.839,272.621 97.119 C 272.984 98.307,273.369 99.496,273.477 99.760 C 273.705 100.317,273.894 101.171,274.186 102.964 C 274.393 104.239,274.670 104.895,274.670 104.112 C 274.670 103.518,273.968 100.085,273.732 99.520 C 273.621 99.256,273.181 97.959,272.754 96.639 C 271.218 91.895,269.456 88.895,266.394 85.817 C 261.384 80.779,257.635 79.841,244.778 80.405 M274.790 117.383 C 274.790 124.385,274.863 129.929,274.953 129.703 C 275.161 129.178,275.155 105.949,274.946 105.208 C 274.860 104.902,274.790 110.382,274.790 117.383 M316.747 106.963 C 316.750 107.491,316.799 107.679,316.856 107.380 C 316.914 107.081,316.912 106.649,316.852 106.420 C 316.792 106.190,316.745 106.435,316.747 106.963 M317.259 116.447 C 317.259 118.097,317.298 118.773,317.345 117.947 C 317.392 117.122,317.392 115.771,317.345 114.946 C 317.298 114.121,317.259 114.796,317.259 116.447 M229.806 117.928 C 229.230 118.192,227.731 118.669,226.474 118.988 L 224.188 119.568 205.912 119.593 C 195.859 119.607,186.663 119.701,185.474 119.801 C 184.286 119.901,192.551 119.964,203.842 119.940 C 217.343 119.912,224.657 119.811,225.210 119.646 C 225.672 119.507,226.645 119.255,227.371 119.084 C 228.097 118.914,228.854 118.692,229.052 118.591 C 229.250 118.490,229.817 118.231,230.312 118.016 C 230.807 117.801,231.212 117.576,231.212 117.516 C 231.212 117.334,230.900 117.426,229.806 117.928 M177.942 120.653 C 175.547 121.272,171.780 122.991,170.588 124.009 C 170.192 124.347,169.516 124.918,169.085 125.277 C 166.481 127.449,164.654 131.144,163.769 136.029 C 163.349 138.348,163.412 175.499,163.839 177.102 C 164.835 180.842,167.549 184.287,171.549 186.886 C 173.247 187.990,173.895 188.336,175.870 189.197 C 177.936 190.097,184.032 191.798,184.286 191.544 C 184.352 191.478,183.620 191.237,182.659 191.007 C 172.101 188.483,165.379 183.236,164.085 176.509 C 163.563 173.797,163.590 139.267,164.117 135.952 C 165.515 127.152,171.452 121.570,180.552 120.501 C 183.047 120.207,183.311 120.106,181.633 120.088 C 180.835 120.079,179.188 120.331,177.942 120.653 M316.742 128.451 C 316.742 128.914,316.792 129.103,316.852 128.872 C 316.913 128.640,316.913 128.262,316.852 128.031 C 316.792 127.800,316.742 127.989,316.742 128.451 M274.341 130.912 C 274.261 131.209,274.195 131.666,274.193 131.926 C 274.186 132.913,272.527 137.940,271.405 140.368 C 268.859 145.886,265.288 149.524,259.771 152.224 C 259.566 152.324,258.599 152.601,257.622 152.838 C 256.646 153.075,255.985 153.315,256.154 153.372 C 257.071 153.677,261.808 151.759,263.986 150.200 C 266.558 148.359,269.889 144.372,271.124 141.657 C 272.427 138.793,272.932 137.586,273.181 136.735 C 273.336 136.206,273.678 135.088,273.941 134.249 C 274.431 132.690,274.830 130.372,274.609 130.372 C 274.541 130.372,274.421 130.615,274.341 130.912 M217.287 153.661 L 199.880 153.782 199.809 155.942 C 199.771 157.131,199.799 158.346,199.874 158.642 L 200.008 159.181 218.191 159.242 L 236.375 159.304 236.495 168.788 C 236.576 175.201,236.685 177.964,236.830 177.323 C 237.126 176.024,236.781 159.409,236.450 159.010 C 236.252 158.771,232.356 158.693,218.159 158.645 L 200.120 158.583 200.120 156.303 L 200.120 154.022 227.651 153.902 C 242.793 153.836,255.236 153.727,255.301 153.661 C 255.367 153.595,250.757 153.541,245.057 153.541 C 239.357 153.541,226.861 153.595,217.287 153.661 M218.367 168.555 C 216.861 169.135,215.476 170.264,215.045 171.262 C 214.253 173.095,214.166 173.447,214.166 174.816 C 214.166 179.813,219.769 183.082,224.130 180.628 C 226.524 179.280,228.463 174.826,227.391 173.133 C 227.256 172.920,227.176 173.458,227.171 174.601 C 227.143 181.811,217.120 183.630,214.808 176.846 C 212.275 169.411,222.970 164.828,226.608 171.789 C 226.884 172.317,227.114 172.609,227.120 172.437 C 227.216 169.621,221.816 167.226,218.367 168.555 M236.290 178.894 C 236.024 183.508,228.369 188.911,219.148 190.993 C 217.149 191.444,216.634 191.741,218.307 191.478 C 220.593 191.119,225.186 189.582,227.667 188.347 C 232.709 185.837,236.807 181.429,236.426 178.925 L 236.326 178.271 236.290 178.894 M186.074 191.965 C 187.773 192.337,191.554 192.710,191.351 192.485 C 191.282 192.408,190.147 192.220,188.830 192.066 C 184.919 191.610,184.360 191.589,186.074 191.965 M214.766 191.837 C 214.134 192.108,215.379 192.108,216.447 191.837 C 217.135 191.662,217.124 191.653,216.206 191.642 C 215.678 191.636,215.030 191.723,214.766 191.837 M209.724 192.317 C 208.548 192.478,208.558 192.482,210.204 192.502 C 211.128 192.512,212.371 192.435,212.965 192.329 C 214.413 192.072,211.591 192.061,209.724 192.317 M193.157 192.829 C 195.183 193.049,205.876 193.033,207.323 192.809 C 208.002 192.703,204.873 192.633,200.120 192.648 C 195.498 192.661,192.365 192.743,193.157 192.829 M284.139 199.340 L 283.433 200.120 284.214 199.415 C 284.941 198.758,285.104 198.559,284.919 198.559 C 284.878 198.559,284.526 198.911,284.139 199.340 " stroke="none" fill="#817a42" fill-rule="evenodd"></path><path id="path4" d="M189.556 0.258 C 184.614 0.839,181.530 1.247,180.672 1.434 C 180.144 1.550,178.902 1.768,177.911 1.919 C 176.921 2.071,175.732 2.291,175.270 2.409 C 174.808 2.528,173.412 2.852,172.168 3.130 C 170.924 3.407,169.466 3.774,168.927 3.944 C 168.388 4.114,167.461 4.393,166.867 4.564 C 164.144 5.349,157.635 7.611,155.462 8.527 C 154.142 9.084,152.467 9.790,151.741 10.097 C 149.764 10.930,142.997 14.409,140.869 15.686 C 139.842 16.302,138.897 16.807,138.769 16.807 C 138.640 16.807,138.535 16.915,138.535 17.047 C 138.535 17.179,138.428 17.287,138.298 17.287 C 137.259 17.287,126.058 25.572,121.584 29.651 C 115.630 35.078,109.103 42.142,105.809 46.722 C 105.438 47.237,104.589 48.415,103.921 49.340 C 101.972 52.037,98.826 56.883,97.841 58.703 C 97.341 59.628,96.537 61.086,96.055 61.945 C 94.500 64.710,91.477 71.105,91.477 71.627 C 91.477 71.795,91.383 72.035,91.269 72.161 C 91.154 72.286,90.551 73.739,89.929 75.390 C 89.307 77.041,88.709 78.607,88.601 78.872 C 88.029 80.272,86.652 85.040,86.746 85.296 C 86.806 85.460,86.936 85.270,87.034 84.874 C 87.559 82.761,90.290 74.961,91.258 72.812 C 91.510 72.252,91.717 71.746,91.717 71.688 C 91.717 71.053,96.596 61.359,98.465 58.280 C 98.847 57.650,99.160 57.089,99.160 57.031 C 99.160 56.890,102.802 51.292,102.992 51.140 C 103.075 51.074,103.867 49.994,104.752 48.739 C 110.953 39.945,120.087 30.644,129.438 23.601 C 131.834 21.796,139.549 16.567,139.816 16.567 C 139.883 16.567,140.946 15.985,142.178 15.274 C 144.138 14.143,149.116 11.655,153.181 9.774 C 155.860 8.534,163.337 5.869,167.107 4.810 C 167.701 4.643,168.457 4.423,168.788 4.322 C 172.086 3.308,178.771 1.916,182.713 1.422 C 183.571 1.314,185.570 1.061,187.155 0.858 C 188.739 0.656,190.792 0.475,191.717 0.457 C 192.641 0.438,193.721 0.341,194.118 0.240 C 195.117 -0.014,191.761 -0.001,189.556 0.258 M205.104 0.142 C 205.183 0.221,206.686 0.383,208.446 0.504 C 210.205 0.624,212.455 0.834,213.445 0.970 C 214.436 1.106,216.002 1.318,216.927 1.441 C 217.851 1.563,218.932 1.727,219.328 1.805 C 219.724 1.883,220.966 2.110,222.089 2.309 C 224.707 2.774,227.997 3.517,230.132 4.126 C 232.847 4.900,238.735 6.726,239.256 6.955 C 239.520 7.072,240.924 7.619,242.377 8.171 C 243.830 8.724,245.450 9.368,245.978 9.603 C 246.507 9.837,247.479 10.268,248.139 10.560 C 250.298 11.514,256.378 14.624,257.918 15.561 C 258.746 16.065,259.590 16.540,259.794 16.616 C 260.538 16.892,269.111 22.772,271.645 24.743 C 278.157 29.809,286.367 37.769,290.396 42.924 C 290.660 43.262,291.155 43.871,291.495 44.278 C 291.836 44.685,292.592 45.666,293.176 46.459 C 293.760 47.251,294.370 48.040,294.533 48.211 C 294.947 48.650,300.840 57.513,300.840 57.698 C 300.840 57.781,301.337 58.689,301.944 59.716 C 303.596 62.511,306.832 69.127,308.141 72.389 C 308.777 73.974,309.408 75.540,309.543 75.870 C 310.047 77.104,310.184 77.495,311.056 80.192 C 311.547 81.711,312.030 83.169,312.129 83.433 C 312.229 83.697,312.442 84.400,312.603 84.994 C 312.764 85.588,312.993 86.291,313.111 86.555 C 313.447 87.303,313.098 85.603,312.570 83.918 C 312.322 83.123,311.993 82.041,311.840 81.513 C 311.686 80.984,311.472 80.450,311.363 80.324 C 311.254 80.199,311.164 79.919,311.164 79.703 C 311.164 79.388,309.773 75.560,308.769 73.109 C 308.660 72.845,308.435 72.251,308.267 71.789 C 306.389 66.605,300.255 55.735,295.556 49.264 C 294.567 47.901,293.595 46.542,293.397 46.243 C 291.262 43.023,282.059 33.156,277.585 29.290 C 276.746 28.565,275.802 27.735,275.489 27.447 C 275.176 27.158,274.512 26.619,274.014 26.248 C 273.516 25.877,273.055 25.513,272.989 25.439 C 272.923 25.365,272.437 24.987,271.909 24.599 C 271.381 24.210,270.894 23.832,270.828 23.759 C 270.762 23.686,270.330 23.364,269.868 23.044 C 269.406 22.724,268.920 22.379,268.788 22.279 C 265.219 19.552,259.915 16.213,255.222 13.740 C 250.824 11.422,249.684 10.888,243.457 8.233 C 242.995 8.035,242.401 7.781,242.137 7.667 C 241.519 7.401,234.071 4.969,232.653 4.570 C 232.059 4.404,231.357 4.176,231.092 4.065 C 230.616 3.865,226.434 2.853,224.130 2.380 C 223.469 2.244,222.468 2.032,221.905 1.907 C 221.342 1.783,220.598 1.681,220.253 1.681 C 219.907 1.681,219.233 1.580,218.755 1.457 C 216.057 0.762,204.623 -0.339,205.104 0.142 M86.325 86.315 C 86.232 86.711,86.069 87.305,85.963 87.635 C 85.678 88.521,85.277 90.056,85.115 90.876 C 85.036 91.273,84.865 92.029,84.733 92.557 C 84.439 93.736,83.840 97.215,83.679 98.679 C 83.509 100.228,83.905 98.862,84.270 96.639 C 84.566 94.834,84.915 93.066,85.241 91.717 C 85.352 91.255,85.570 90.336,85.724 89.676 C 85.878 89.016,86.164 87.962,86.359 87.334 C 86.554 86.706,86.664 86.058,86.604 85.893 C 86.543 85.729,86.418 85.918,86.325 86.315 M313.349 87.299 C 313.336 87.445,313.593 88.687,313.919 90.060 C 314.773 93.648,314.989 94.725,315.628 98.559 C 315.716 99.088,315.835 99.392,315.892 99.236 C 316.038 98.835,315.356 94.539,314.793 92.317 C 314.659 91.789,314.441 90.870,314.308 90.276 C 313.993 88.866,313.379 86.961,313.349 87.299 M316.018 100.720 C 316.016 101.381,316.101 102.191,316.206 102.521 C 316.483 103.383,316.493 101.800,316.220 100.480 L 316.022 99.520 316.018 100.720 M83.208 101.479 C 82.769 105.078,82.585 106.666,82.419 108.283 C 82.139 110.997,82.214 124.810,82.526 128.091 C 82.844 131.433,83.293 134.753,83.447 134.907 C 83.639 135.100,83.562 133.896,83.211 131.212 C 82.059 122.422,82.065 114.450,83.232 104.012 C 83.442 102.126,83.555 100.522,83.482 100.449 C 83.409 100.376,83.286 100.839,83.208 101.479 M316.492 104.322 C 316.486 104.850,316.573 105.498,316.687 105.762 C 316.958 106.395,316.958 105.149,316.687 104.082 C 316.512 103.393,316.503 103.404,316.492 104.322 M317.103 110.084 C 317.173 111.933,317.271 113.490,317.319 113.545 C 317.487 113.736,317.364 109.119,317.170 107.923 C 317.048 107.175,317.023 107.990,317.103 110.084 M317.218 121.609 C 317.189 122.929,317.116 125.090,317.056 126.411 C 316.950 128.763,316.952 128.778,317.183 127.131 C 317.313 126.206,317.386 124.046,317.345 122.329 C 317.276 119.397,317.268 119.353,317.218 121.609 M316.595 130.732 C 316.509 131.657,316.332 132.934,316.202 133.572 C 316.073 134.209,315.982 135.181,316.000 135.733 L 316.034 136.735 316.206 135.534 C 316.714 131.989,316.964 129.646,316.864 129.366 C 316.802 129.193,316.681 129.808,316.595 130.732 M83.601 136.014 C 83.601 136.411,83.688 137.005,83.794 137.335 C 83.980 137.919,83.986 137.915,83.986 137.215 C 83.986 136.819,83.899 136.224,83.794 135.894 C 83.607 135.311,83.601 135.314,83.601 136.014 M315.603 137.755 C 315.524 138.250,315.403 138.926,315.335 139.256 C 315.257 139.637,315.295 139.768,315.438 139.616 C 315.662 139.378,316.035 136.855,315.846 136.855 C 315.792 136.855,315.683 137.260,315.603 137.755 M84.058 138.471 C 84.017 139.367,84.848 143.517,85.490 145.635 C 85.614 146.041,85.714 146.610,85.714 146.899 C 85.714 147.189,85.816 147.613,85.940 147.842 C 86.064 148.072,86.231 148.569,86.312 148.948 C 86.392 149.327,86.514 149.581,86.582 149.512 C 86.693 149.401,85.285 143.131,84.734 141.279 C 84.613 140.874,84.503 140.226,84.490 139.839 C 84.456 138.853,84.092 137.700,84.058 138.471 M314.709 142.142 C 314.479 143.375,314.339 144.431,314.397 144.489 C 314.455 144.547,314.552 144.339,314.613 144.026 C 314.674 143.713,314.854 142.858,315.012 142.125 C 315.170 141.392,315.261 140.591,315.213 140.346 C 315.165 140.100,314.938 140.909,314.709 142.142 M313.970 145.590 C 313.879 145.825,313.812 146.198,313.821 146.418 C 313.831 146.683,313.914 146.623,314.068 146.239 C 314.195 145.920,314.262 145.548,314.217 145.411 C 314.171 145.274,314.060 145.355,313.970 145.590 M313.485 147.339 C 313.397 147.427,313.325 147.717,313.325 147.983 C 313.325 148.250,313.123 149.069,312.876 149.804 C 312.029 152.324,311.639 153.736,311.756 153.853 C 311.821 153.917,311.917 153.820,311.970 153.636 C 312.189 152.872,313.157 149.655,313.335 149.100 C 313.807 147.622,313.863 146.961,313.485 147.339 M86.691 150.067 C 86.672 150.499,87.780 154.076,88.120 154.679 C 88.250 154.908,88.355 155.307,88.355 155.565 C 88.355 155.823,88.463 156.101,88.595 156.182 C 88.727 156.264,88.836 156.518,88.836 156.747 C 88.836 157.306,90.714 162.081,92.173 165.231 C 92.582 166.114,92.917 166.904,92.917 166.987 C 92.917 167.287,96.226 173.752,97.200 175.355 C 97.749 176.260,98.199 177.045,98.199 177.100 C 98.199 177.155,98.475 177.637,98.812 178.172 C 99.150 178.706,99.638 179.521,99.897 179.982 C 100.156 180.444,100.473 180.950,100.601 181.107 C 100.729 181.264,101.558 182.473,102.444 183.794 C 107.127 190.774,114.516 199.321,120.292 204.442 C 122.611 206.498,124.992 208.580,125.450 208.953 C 127.227 210.398,129.830 212.362,131.573 213.571 C 132.695 214.350,133.667 215.045,133.733 215.117 C 133.929 215.328,138.040 218.007,138.168 218.007 C 138.233 218.007,138.855 218.367,139.551 218.807 C 141.734 220.187,148.504 223.743,150.780 224.706 C 151.507 225.013,152.568 225.474,153.138 225.731 C 157.944 227.894,166.842 230.911,171.429 231.933 C 172.155 232.095,172.997 232.323,173.301 232.440 C 173.604 232.557,174.082 232.653,174.364 232.653 C 174.646 232.653,175.208 232.758,175.613 232.887 C 176.019 233.015,178.187 233.396,180.432 233.732 C 182.677 234.068,185.175 234.449,185.982 234.579 C 186.790 234.708,188.086 234.797,188.863 234.776 C 189.691 234.753,189.928 234.703,189.436 234.655 C 187.452 234.461,182.497 233.818,181.393 233.611 C 180.732 233.488,179.814 233.325,179.352 233.251 C 178.890 233.176,177.917 233.018,177.191 232.900 C 176.465 232.782,174.250 232.288,172.269 231.802 C 170.288 231.316,168.369 230.865,168.004 230.798 C 167.640 230.731,167.282 230.581,167.210 230.465 C 167.138 230.348,166.878 230.252,166.632 230.252 C 166.097 230.252,161.948 228.890,158.463 227.570 C 155.761 226.546,155.666 226.507,153.661 225.632 C 152.935 225.314,151.855 224.847,151.261 224.593 C 148.917 223.593,140.685 219.257,138.776 218.017 C 138.577 217.888,137.861 217.455,137.183 217.053 C 136.505 216.652,135.817 216.162,135.653 215.965 C 135.489 215.768,135.231 215.606,135.079 215.606 C 134.928 215.606,134.428 215.303,133.968 214.932 C 133.509 214.561,132.215 213.623,131.092 212.847 C 129.970 212.070,128.722 211.158,128.318 210.820 C 127.915 210.481,127.221 209.934,126.777 209.604 C 121.724 205.852,113.061 197.199,108.148 190.996 C 107.102 189.676,106.184 188.541,106.109 188.475 C 105.965 188.349,102.816 183.905,102.401 183.243 C 102.269 183.032,102.073 182.745,101.965 182.606 C 101.858 182.467,101.295 181.597,100.715 180.672 C 100.135 179.748,99.548 178.861,99.410 178.702 C 99.272 178.542,99.160 178.358,99.160 178.292 C 99.160 178.226,98.846 177.641,98.463 176.991 C 94.410 170.118,90.789 162.054,88.322 154.406 C 86.950 150.155,86.715 149.529,86.691 150.067 M310.811 156.344 C 310.657 156.893,310.517 157.266,310.018 158.463 C 308.791 161.409,308.397 162.651,308.764 162.425 C 308.896 162.343,309.004 162.120,309.004 161.928 C 309.004 161.736,309.209 161.121,309.460 160.562 C 310.338 158.604,311.240 156.058,311.105 155.923 C 311.030 155.848,310.898 156.037,310.811 156.344 M307.074 165.569 C 306.838 166.191,306.188 167.666,305.948 168.127 C 305.896 168.226,305.910 168.307,305.978 168.307 C 306.174 168.307,307.592 165.135,307.457 165.000 C 307.391 164.934,307.218 165.190,307.074 165.569 M305.315 169.420 C 305.087 169.897,304.951 170.337,305.011 170.397 C 305.072 170.458,305.306 170.116,305.533 169.639 C 305.760 169.161,305.896 168.722,305.837 168.662 C 305.777 168.602,305.542 168.944,305.315 169.420 M304.381 171.354 C 304.189 171.725,303.622 172.785,303.123 173.709 C 302.623 174.634,302.327 175.282,302.465 175.150 C 302.603 175.018,302.957 174.478,303.253 173.950 C 303.548 173.421,304.053 172.521,304.375 171.948 C 304.697 171.375,304.909 170.855,304.846 170.793 C 304.783 170.730,304.574 170.982,304.381 171.354 M301.959 175.690 C 301.898 175.789,301.498 176.519,301.069 177.311 C 300.353 178.635,295.191 186.518,294.859 186.795 C 294.404 187.174,293.413 188.715,293.625 188.715 C 293.764 188.715,293.878 188.628,293.878 188.521 C 293.878 188.414,294.074 188.115,294.314 187.857 C 294.809 187.326,299.640 180.343,299.640 180.158 C 299.640 180.092,299.941 179.587,300.309 179.035 C 301.134 177.796,302.354 175.510,302.190 175.510 C 302.124 175.510,302.020 175.591,301.959 175.690 M292.151 190.305 C 286.678 197.441,279.209 204.794,271.022 211.106 C 269.610 212.195,268.206 213.278,267.901 213.514 C 267.596 213.750,267.833 213.652,268.427 213.295 C 269.350 212.742,271.158 211.437,271.549 211.043 C 271.615 210.977,272.479 210.281,273.469 209.498 C 277.073 206.646,282.896 201.266,285.444 198.433 C 286.154 197.644,287.343 196.351,288.087 195.558 C 288.832 194.766,289.868 193.577,290.390 192.917 C 290.913 192.257,291.398 191.663,291.468 191.597 C 291.662 191.415,293.043 189.598,293.247 189.256 C 293.698 188.499,293.088 189.083,292.151 190.305 M264.106 216.007 C 262.455 217.127,260.941 218.116,260.741 218.205 C 259.721 218.660,256.647 220.473,256.740 220.565 C 256.798 220.624,257.210 220.468,257.655 220.219 C 258.100 219.971,258.973 219.483,259.595 219.137 C 262.233 217.668,268.052 213.688,267.181 213.948 C 267.140 213.960,265.756 214.886,264.106 216.007 M252.432 222.700 C 250.303 223.779,248.206 224.785,247.771 224.937 C 247.337 225.088,247.039 225.271,247.111 225.342 C 247.285 225.516,251.137 223.733,255.222 221.587 C 256.546 220.892,256.525 220.905,256.403 220.813 C 256.348 220.772,254.561 221.621,252.432 222.700 M244.418 226.392 C 243.824 226.623,243.121 226.892,242.857 226.989 C 242.593 227.086,242.189 227.266,241.960 227.388 C 241.731 227.511,241.386 227.611,241.194 227.611 C 241.002 227.611,240.771 227.731,240.680 227.877 C 240.488 228.188,241.154 228.011,242.617 227.363 C 243.145 227.128,244.091 226.750,244.718 226.521 C 245.345 226.292,245.858 226.066,245.858 226.018 C 245.858 225.872,245.548 225.953,244.418 226.392 M238.055 228.812 L 237.575 229.018 238.055 229.031 C 238.319 229.038,238.697 228.940,238.896 228.812 C 239.373 228.503,238.773 228.503,238.055 228.812 M235.174 229.626 C 234.250 229.930,233.007 230.311,232.413 230.472 C 231.819 230.633,231.008 230.860,230.612 230.976 C 229.465 231.312,225.219 232.324,223.709 232.621 C 219.379 233.475,217.629 233.747,211.164 234.572 L 209.484 234.787 211.525 234.696 C 214.231 234.576,222.187 233.409,223.907 232.880 C 224.312 232.755,224.874 232.653,225.156 232.653 C 225.437 232.653,225.916 232.557,226.219 232.440 C 226.523 232.323,227.365 232.098,228.091 231.940 C 228.818 231.783,229.898 231.514,230.492 231.343 C 231.086 231.171,232.059 230.894,232.653 230.725 C 234.326 230.252,237.319 229.268,237.433 229.154 C 237.671 228.915,236.743 229.110,235.174 229.626 M191.251 235.086 C 192.219 235.294,207.098 235.306,208.259 235.100 C 208.773 235.009,204.998 234.934,199.870 234.934 C 194.741 234.934,190.863 235.002,191.251 235.086 " stroke="none" fill="#93aab0" fill-rule="evenodd"></path></g></svg>