<svg id="svg" version="1.1" xmlns="http://www.w3.org/2000/svg" xmlns:xlink="http://www.w3.org/1999/xlink" width="400" height="250" viewBox="0, 0, 400,250"><g id="svgg"><path id="path0" d="M0.000 125.000 L 0.000 250.000 200.000 250.000 L 400.000 250.000 400.000 125.000 L 400.000 0.000 200.000 0.000 L 0.000 0.000 0.000 125.000 M242.375 49.507 C 248.777 50.123,249.508 50.227,250.047 50.605 C 250.357 50.822,250.864 51.000,251.172 51.000 C 251.480 51.000,252.215 51.155,252.804 51.345 C 253.393 51.535,254.719 51.946,255.750 52.259 C 259.203 53.306,259.620 53.460,260.750 54.100 C 261.369 54.451,262.833 55.234,264.003 55.841 C 266.733 57.257,270.134 59.574,272.197 61.422 C 273.090 62.221,274.085 63.042,274.410 63.245 C 274.734 63.449,275.000 63.678,275.000 63.755 C 275.000 63.831,275.519 64.443,276.154 65.115 C 277.629 66.677,280.250 69.996,280.250 70.303 C 280.250 70.432,280.748 71.186,281.358 71.978 C 282.801 73.853,284.017 76.282,285.625 80.500 C 286.123 81.806,286.629 83.100,286.750 83.375 C 286.872 83.650,287.047 84.269,287.141 84.750 C 287.234 85.231,287.444 85.906,287.608 86.250 C 289.377 89.969,290.241 105.118,289.026 111.125 C 288.887 111.813,288.590 113.612,288.365 115.125 C 288.140 116.638,287.862 118.156,287.746 118.500 C 287.631 118.844,287.239 120.250,286.875 121.625 C 286.512 123.000,286.063 124.408,285.878 124.754 C 285.693 125.100,285.207 126.347,284.799 127.524 C 284.391 128.702,283.915 129.893,283.742 130.170 C 283.536 130.499,283.496 130.926,283.627 131.400 C 283.873 132.292,283.801 133.142,283.397 134.125 C 283.041 134.990,281.937 138.116,280.792 141.500 C 280.722 141.706,280.523 142.325,280.350 142.875 C 280.176 143.425,279.674 144.887,279.234 146.125 C 276.959 152.525,279.277 155.790,283.375 151.958 C 287.700 147.914,287.408 148.296,287.743 146.250 C 287.911 145.219,288.207 143.841,288.400 143.188 C 288.592 142.534,288.925 141.409,289.139 140.688 C 289.353 139.966,289.747 138.898,290.014 138.315 C 290.281 137.732,290.500 137.152,290.500 137.026 C 290.500 136.619,291.953 133.644,292.462 133.011 C 292.844 132.535,293.282 132.361,294.415 132.235 C 295.218 132.145,296.697 131.933,297.701 131.764 C 299.928 131.390,300.251 131.490,300.248 132.555 C 300.247 133.243,299.407 136.164,298.827 137.500 C 298.585 138.055,298.073 140.500,298.198 140.500 C 298.257 140.500,299.400 139.403,300.738 138.063 C 303.779 135.015,304.939 134.082,307.985 132.237 C 312.049 129.776,316.482 132.711,315.512 137.222 C 315.073 139.261,314.060 142.596,313.225 144.750 C 312.825 145.781,312.498 146.818,312.499 147.053 C 312.499 147.289,312.295 148.076,312.043 148.803 C 310.501 153.269,310.439 153.785,311.373 154.397 C 312.606 155.205,313.892 154.453,317.338 150.912 C 319.881 148.299,320.266 148.309,320.232 150.985 C 320.204 153.255,318.579 154.962,313.032 158.550 C 307.893 161.873,303.699 161.346,302.250 157.194 C 301.655 155.492,301.613 153.782,302.122 152.102 C 302.327 151.427,302.496 150.581,302.497 150.222 C 302.499 149.863,302.830 148.841,303.234 147.951 C 303.637 147.062,304.246 145.274,304.587 143.979 C 304.927 142.684,305.449 141.084,305.747 140.422 C 306.251 139.299,306.260 139.178,305.886 138.606 L 305.484 137.994 303.966 139.059 C 301.781 140.593,297.538 145.249,296.536 147.214 C 295.777 148.702,295.006 153.334,295.003 156.423 C 295.000 159.199,295.020 159.159,293.454 159.481 C 292.861 159.603,291.723 159.882,290.925 160.101 C 287.365 161.080,287.000 160.748,287.000 156.525 C 287.000 153.212,287.001 153.213,285.257 154.829 C 284.475 155.553,283.217 156.555,282.461 157.057 C 281.705 157.559,280.941 158.144,280.764 158.359 C 280.290 158.929,277.073 160.437,275.615 160.772 C 273.099 161.350,269.750 158.487,269.750 155.757 C 269.750 154.364,268.977 153.642,268.636 154.716 C 268.554 154.972,267.922 155.659,267.231 156.242 C 266.539 156.825,265.705 157.728,265.377 158.247 C 263.869 160.636,253.083 168.823,250.023 169.902 C 249.529 170.076,248.535 170.507,247.814 170.859 C 247.093 171.212,246.399 171.500,246.272 171.500 C 246.145 171.500,246.002 171.619,245.953 171.765 C 245.840 172.104,243.048 173.247,242.327 173.249 C 242.026 173.249,241.710 173.363,241.625 173.500 C 241.540 173.637,241.280 173.751,241.048 173.752 C 240.815 173.752,240.314 173.915,239.935 174.113 C 239.555 174.311,238.151 174.771,236.814 175.135 C 235.477 175.499,234.100 175.939,233.754 176.111 C 233.037 176.469,229.411 177.223,227.000 177.515 C 224.783 177.783,221.886 178.201,218.750 178.704 C 214.175 179.438,199.316 179.089,193.500 178.111 C 192.331 177.914,189.688 177.521,187.625 177.236 C 184.349 176.785,182.234 176.286,179.375 175.289 C 178.963 175.145,177.613 174.692,176.375 174.282 C 169.029 171.848,166.526 169.171,164.019 161.066 C 163.604 159.723,162.867 157.353,162.382 155.798 C 161.897 154.243,161.500 152.593,161.500 152.130 C 161.500 151.667,161.389 150.745,161.253 150.082 C 159.740 142.701,159.097 127.669,160.010 121.000 C 160.447 117.803,160.786 115.738,161.384 112.625 C 161.701 110.975,162.035 109.079,162.125 108.411 C 162.285 107.222,163.302 103.730,164.282 101.000 C 164.554 100.244,165.005 98.894,165.284 98.000 C 166.056 95.530,170.625 86.564,172.313 84.210 C 174.802 80.737,175.651 79.587,176.070 79.120 C 176.943 78.148,178.541 76.170,178.921 75.590 C 179.134 75.265,179.441 75.000,179.605 75.000 C 179.769 75.000,181.252 73.671,182.902 72.046 C 184.551 70.422,186.457 68.718,187.138 68.260 C 187.818 67.802,188.713 67.120,189.125 66.743 C 189.537 66.367,190.944 65.350,192.250 64.483 C 193.556 63.616,194.715 62.759,194.825 62.578 C 194.935 62.398,195.130 62.250,195.259 62.250 C 195.388 62.250,196.423 61.704,197.559 61.037 C 203.273 57.684,204.988 56.738,206.241 56.249 C 206.992 55.955,207.892 55.561,208.241 55.373 C 210.116 54.362,217.938 51.750,219.092 51.750 C 219.361 51.750,220.153 51.587,220.853 51.389 C 223.839 50.541,226.558 50.005,229.250 49.735 C 230.831 49.576,232.238 49.411,232.375 49.368 C 232.954 49.186,240.071 49.286,242.375 49.507 M118.250 103.123 C 124.595 104.678,129.260 106.410,131.992 108.225 C 132.874 108.811,134.165 109.575,134.860 109.923 C 136.195 110.592,139.020 112.809,141.120 114.837 C 141.810 115.504,142.783 116.325,143.282 116.663 C 144.409 117.425,147.473 121.199,148.325 122.875 C 148.674 123.563,149.251 124.512,149.605 124.986 C 149.960 125.460,150.250 125.988,150.250 126.159 C 150.250 126.331,150.482 126.865,150.766 127.347 C 151.378 128.383,152.750 132.174,152.750 132.827 C 152.750 133.245,153.202 135.366,154.164 139.464 C 154.369 140.338,154.644 142.419,154.776 144.089 C 154.908 145.759,155.036 147.294,155.062 147.500 C 155.226 148.810,154.620 158.363,154.224 160.724 C 153.171 167.003,150.895 172.450,148.872 173.533 C 148.324 173.827,147.483 174.277,147.004 174.533 C 146.524 174.790,145.953 175.000,145.734 175.000 C 145.515 175.000,144.631 175.287,143.769 175.637 C 138.355 177.837,122.341 178.731,117.375 177.111 C 116.825 176.931,115.813 176.671,115.125 176.532 C 114.438 176.393,112.822 175.991,111.535 175.640 C 110.248 175.288,109.025 175.000,108.818 175.000 C 108.452 175.000,102.631 172.208,101.125 171.310 C 99.288 170.215,95.052 166.729,94.474 165.836 C 94.282 165.539,93.225 164.321,92.125 163.130 C 90.301 161.153,87.250 156.951,87.250 156.414 C 87.250 156.292,86.735 155.418,86.106 154.472 C 84.960 152.748,83.250 149.128,83.250 148.426 C 83.250 148.221,82.912 147.259,82.500 146.290 C 82.087 145.321,81.750 144.260,81.750 143.933 C 81.750 143.606,81.462 142.390,81.109 141.232 C 79.314 135.328,80.490 121.697,83.016 119.138 C 83.145 119.007,83.251 118.726,83.251 118.513 C 83.258 116.801,88.064 110.931,91.685 108.213 C 93.713 106.691,95.217 105.870,99.415 103.993 C 100.279 103.607,104.428 102.862,108.250 102.407 C 110.811 102.102,115.433 102.433,118.250 103.123 M238.749 106.376 C 238.408 106.788,238.272 119.680,238.604 120.217 C 239.265 121.285,240.250 120.051,240.250 118.155 C 240.250 115.063,241.325 114.957,243.069 117.877 C 244.381 120.073,244.806 120.500,245.681 120.500 C 246.602 120.500,246.616 119.868,245.729 118.443 C 242.744 113.650,242.833 114.150,244.625 112.271 C 246.222 110.597,246.377 110.000,245.214 110.000 C 244.567 110.000,244.137 110.307,242.767 111.750 C 240.226 114.425,239.970 114.242,240.166 109.883 C 240.318 106.511,239.768 105.149,238.749 106.376 M234.102 106.878 C 233.798 108.090,235.295 108.835,235.729 107.688 C 236.018 106.922,235.617 106.250,234.871 106.250 C 234.426 106.250,234.216 106.421,234.102 106.878 M248.450 106.885 C 248.184 107.468,248.208 107.601,248.630 107.910 C 249.410 108.480,249.875 108.232,249.875 107.247 C 249.875 106.087,248.924 105.846,248.450 106.885 M253.550 107.300 C 253.385 107.465,253.250 107.922,253.250 108.316 C 253.250 109.203,252.844 110.000,252.393 110.000 C 251.671 110.000,251.725 110.829,252.491 111.529 L 253.250 112.222 253.250 115.599 C 253.250 119.548,253.432 120.135,254.783 120.539 C 256.489 121.050,256.962 120.217,255.750 118.837 C 254.348 117.240,254.743 111.250,256.250 111.250 C 256.734 111.250,256.493 110.264,255.938 109.971 C 255.186 109.576,255.008 109.269,255.004 108.362 C 255.000 107.587,254.622 107.000,254.125 107.000 C 253.974 107.000,253.715 107.135,253.550 107.300 M215.530 110.177 C 212.786 111.530,213.341 114.946,216.435 115.738 C 219.261 116.463,220.290 117.240,219.753 118.244 C 218.979 119.691,217.076 119.636,215.586 118.125 C 213.671 116.183,212.611 117.608,214.394 119.727 C 216.904 122.710,223.173 119.934,221.739 116.474 C 221.425 115.715,218.897 114.251,217.898 114.249 C 217.014 114.247,215.750 113.323,215.750 112.679 C 215.750 111.267,217.843 111.021,219.520 112.235 C 220.656 113.059,221.250 113.003,221.250 112.074 C 221.250 110.258,217.734 109.092,215.530 110.177 M226.001 110.294 C 223.250 111.716,222.477 116.417,224.528 119.249 C 226.450 121.902,231.994 120.661,231.999 117.577 C 232.001 116.415,230.503 116.534,230.006 117.736 C 229.336 119.352,226.580 119.551,225.772 118.041 C 223.724 114.215,227.267 109.541,229.972 112.500 C 231.331 113.987,232.334 113.644,231.755 111.889 C 231.120 109.967,228.201 109.158,226.001 110.294 M234.300 110.300 C 233.824 110.776,233.882 119.841,234.363 120.240 C 235.653 121.311,236.000 120.080,235.841 115.000 C 235.679 109.873,235.444 109.156,234.300 110.300 M248.655 110.380 C 248.009 111.027,248.054 119.495,248.707 120.086 C 249.911 121.175,250.184 120.406,250.203 115.875 C 250.227 110.449,249.866 109.170,248.655 110.380 " stroke="none" fill="#ececec" fill-rule="evenodd"></path><path id="path1" d="M108.250 102.407 C 104.428 102.862,100.279 103.607,99.415 103.993 C 91.501 107.531,88.606 109.846,84.869 115.625 C 83.980 117.000,83.252 118.299,83.251 118.513 C 83.251 118.726,83.145 119.007,83.016 119.138 C 80.490 121.697,79.314 135.328,81.109 141.232 C 81.462 142.390,81.750 143.606,81.750 143.933 C 81.750 144.260,82.087 145.321,82.500 146.290 C 82.912 147.259,83.250 148.221,83.250 148.426 C 83.250 149.128,84.960 152.748,86.106 154.472 C 86.735 155.418,87.250 156.292,87.250 156.414 C 87.250 156.951,90.301 161.153,92.125 163.130 C 93.225 164.321,94.282 165.539,94.474 165.836 C 95.052 166.729,99.288 170.215,101.125 171.310 C 102.631 172.208,108.452 175.000,108.818 175.000 C 109.025 175.000,110.248 175.288,111.535 175.640 C 112.822 175.991,114.438 176.393,115.125 176.532 C 115.813 176.671,116.825 176.931,117.375 177.111 C 122.341 178.731,138.355 177.837,143.769 175.637 C 144.631 175.287,145.515 175.000,145.734 175.000 C 145.953 175.000,146.524 174.790,147.004 174.533 C 147.483 174.277,148.324 173.827,148.872 173.533 C 150.895 172.450,153.171 167.003,154.224 160.724 C 154.620 158.363,155.226 148.810,155.062 147.500 C 155.036 147.294,154.908 145.759,154.776 144.089 C 154.644 142.419,154.369 140.338,154.164 139.464 C 153.202 135.366,152.750 133.245,152.750 132.827 C 152.750 132.174,151.378 128.383,150.766 127.347 C 150.482 126.865,150.250 126.331,150.250 126.159 C 150.250 125.988,149.960 125.460,149.605 124.986 C 149.251 124.512,148.674 123.563,148.325 122.875 C 147.473 121.199,144.409 117.425,143.282 116.663 C 142.783 116.325,141.810 115.504,141.120 114.837 C 139.020 112.809,136.195 110.592,134.860 109.923 C 134.165 109.575,132.874 108.811,131.992 108.225 C 126.518 104.589,114.550 101.656,108.250 102.407 " stroke="none" fill="#359aca" fill-rule="evenodd"></path><path id="path2" d="M232.375 49.368 C 232.238 49.411,230.831 49.576,229.250 49.735 C 226.558 50.005,223.839 50.541,220.853 51.389 C 220.153 51.587,219.361 51.750,219.092 51.750 C 217.938 51.750,210.116 54.362,208.241 55.373 C 207.892 55.561,206.992 55.955,206.241 56.249 C 204.988 56.738,203.273 57.684,197.559 61.037 C 196.423 61.704,195.388 62.250,195.259 62.250 C 195.130 62.250,194.935 62.398,194.825 62.578 C 194.715 62.759,193.556 63.616,192.250 64.483 C 190.944 65.350,189.537 66.367,189.125 66.743 C 188.713 67.120,187.818 67.802,187.138 68.260 C 186.457 68.718,184.551 70.422,182.902 72.046 C 181.252 73.671,179.769 75.000,179.605 75.000 C 179.441 75.000,179.134 75.265,178.921 75.590 C 178.541 76.170,176.943 78.148,176.070 79.120 C 175.651 79.587,174.802 80.737,172.313 84.210 C 170.625 86.564,166.056 95.530,165.284 98.000 C 165.005 98.894,164.554 100.244,164.282 101.000 C 163.302 103.730,162.285 107.222,162.125 108.411 C 162.035 109.079,161.701 110.975,161.384 112.625 C 160.786 115.738,160.447 117.803,160.010 121.000 C 159.097 127.669,159.740 142.701,161.253 150.082 C 161.389 150.745,161.500 151.667,161.500 152.130 C 161.500 152.593,161.897 154.243,162.382 155.798 C 162.867 157.353,163.604 159.723,164.019 161.066 C 166.526 169.171,169.029 171.848,176.375 174.282 C 177.613 174.692,178.963 175.145,179.375 175.289 C 182.234 176.286,184.349 176.785,187.625 177.236 C 189.688 177.521,192.331 177.914,193.500 178.111 C 199.316 179.089,214.175 179.438,218.750 178.704 C 221.886 178.201,224.783 177.783,227.000 177.515 C 229.411 177.223,233.037 176.469,233.754 176.111 C 234.100 175.939,235.477 175.499,236.814 175.135 C 238.151 174.771,239.555 174.311,239.935 174.113 C 240.314 173.915,240.815 173.752,241.048 173.752 C 241.280 173.751,241.540 173.637,241.625 173.500 C 241.710 173.363,242.026 173.249,242.327 173.249 C 243.048 173.247,245.840 172.104,245.953 171.765 C 246.002 171.619,246.145 171.500,246.272 171.500 C 246.399 171.500,247.093 171.212,247.814 170.859 C 248.535 170.507,249.529 170.076,250.023 169.902 C 253.083 168.823,263.869 160.636,265.377 158.247 C 265.705 157.728,266.539 156.825,267.231 156.242 C 267.922 155.659,268.554 154.972,268.636 154.716 C 268.802 154.192,269.404 154.088,269.560 154.556 C 269.616 154.724,269.676 154.266,269.692 153.538 C 269.734 151.711,270.342 150.154,273.199 144.564 C 273.891 143.211,273.806 143.075,272.573 143.560 C 272.052 143.765,271.221 144.006,270.727 144.095 C 269.948 144.236,269.622 144.549,268.284 146.441 C 266.251 149.315,262.888 153.022,260.251 155.294 C 259.083 156.301,257.632 157.591,257.026 158.160 C 254.570 160.468,251.335 161.610,249.374 160.861 C 247.144 160.010,246.266 158.634,245.646 155.020 C 245.308 153.054,244.976 152.898,244.102 154.296 C 243.356 155.490,239.405 159.500,238.975 159.500 C 238.825 159.500,238.404 159.710,238.039 159.967 C 235.444 161.794,231.838 161.366,229.438 158.946 C 228.647 158.149,228.000 157.352,228.000 157.176 C 228.000 157.000,227.775 156.414,227.500 155.875 C 227.225 155.336,227.000 154.637,227.000 154.322 C 227.000 153.980,226.849 153.750,226.625 153.750 C 226.419 153.750,226.250 153.849,226.250 153.970 C 226.250 154.209,223.369 156.690,221.392 158.153 C 214.571 163.203,204.566 161.244,202.751 154.503 C 202.401 153.203,202.388 153.206,200.079 155.188 C 198.997 156.116,197.608 157.207,196.993 157.612 C 196.378 158.018,195.650 158.541,195.375 158.774 C 194.629 159.406,191.339 160.661,189.575 160.985 C 183.462 162.110,179.333 156.582,180.061 148.250 C 180.342 145.036,180.719 142.212,180.980 141.375 C 181.108 140.963,181.401 139.781,181.629 138.750 C 182.117 136.551,183.052 133.338,183.921 130.875 C 184.260 129.912,184.815 128.281,185.154 127.250 C 185.493 126.219,185.945 124.981,186.160 124.500 C 186.374 124.019,186.773 123.119,187.047 122.500 C 187.320 121.881,187.804 120.813,188.122 120.125 C 188.440 119.438,188.998 118.203,189.362 117.382 C 190.268 115.336,190.553 115.084,192.733 114.395 C 193.780 114.065,195.284 113.507,196.077 113.157 C 200.459 111.219,201.808 112.234,201.844 117.500 C 201.862 120.025,201.396 124.492,201.047 125.155 C 200.910 125.414,200.384 126.806,199.876 128.250 C 199.340 129.777,198.319 131.921,197.436 133.375 C 196.602 134.750,195.714 136.261,195.464 136.732 C 195.214 137.203,194.743 137.878,194.418 138.232 C 194.093 138.586,193.657 139.131,193.449 139.443 C 193.241 139.755,192.689 140.431,192.223 140.945 C 189.487 143.961,189.410 144.113,189.236 146.856 C 188.657 156.029,192.215 157.632,199.142 151.318 L 201.822 148.875 202.505 146.124 C 202.881 144.610,203.419 142.923,203.701 142.374 C 203.983 141.824,204.393 140.991,204.611 140.522 C 205.026 139.632,206.556 137.719,208.490 135.675 C 213.556 130.319,222.215 130.018,224.531 135.118 C 226.620 139.715,222.307 144.869,213.947 147.771 C 211.121 148.752,211.000 148.840,211.000 149.927 C 211.000 153.314,216.343 155.960,219.926 154.348 C 222.309 153.275,227.000 148.909,227.000 147.763 C 227.000 147.316,227.162 146.596,227.359 146.163 C 227.557 145.730,228.016 144.655,228.379 143.774 C 229.646 140.700,231.630 138.123,234.766 135.479 C 236.020 134.422,237.729 133.365,240.053 132.209 C 243.152 130.668,246.646 131.106,248.851 133.311 L 250.335 134.795 251.230 134.293 C 251.722 134.018,252.631 133.509,253.250 133.163 C 258.145 130.428,259.351 130.675,258.254 134.185 C 257.963 135.114,257.565 136.438,257.369 137.125 C 257.172 137.813,256.742 139.275,256.412 140.375 C 256.083 141.475,255.672 142.994,255.500 143.750 C 255.328 144.506,254.976 145.652,254.719 146.296 C 254.461 146.941,254.250 147.964,254.250 148.572 C 254.250 149.179,254.123 150.040,253.967 150.486 C 253.456 151.953,254.379 153.971,255.572 153.992 C 257.025 154.018,261.135 150.361,264.194 146.319 C 266.026 143.899,265.987 144.106,264.846 142.861 C 263.735 141.650,263.500 141.062,263.500 139.494 C 263.500 136.741,266.490 132.064,268.509 131.661 C 272.918 130.779,274.309 133.629,272.123 139.063 C 271.794 139.880,273.796 139.546,275.043 138.576 C 276.291 137.604,278.789 134.811,279.471 133.625 C 280.547 131.751,280.999 131.434,282.439 131.537 C 283.588 131.620,283.651 131.593,283.549 131.061 C 283.490 130.751,283.568 130.345,283.722 130.158 C 283.877 129.972,284.350 128.821,284.772 127.601 C 285.195 126.381,285.693 125.100,285.878 124.754 C 286.063 124.408,286.512 123.000,286.875 121.625 C 287.239 120.250,287.631 118.844,287.746 118.500 C 287.862 118.156,288.140 116.638,288.365 115.125 C 288.590 113.612,288.887 111.813,289.026 111.125 C 290.241 105.118,289.377 89.969,287.608 86.250 C 287.444 85.906,287.234 85.231,287.141 84.750 C 287.047 84.269,286.872 83.650,286.750 83.375 C 286.629 83.100,286.123 81.806,285.625 80.500 C 284.017 76.282,282.801 73.853,281.358 71.978 C 280.748 71.186,280.250 70.432,280.250 70.303 C 280.250 69.996,277.629 66.677,276.154 65.115 C 275.519 64.443,275.000 63.831,275.000 63.755 C 275.000 63.678,274.734 63.449,274.410 63.245 C 274.085 63.042,273.090 62.221,272.197 61.422 C 270.134 59.574,266.733 57.257,264.003 55.841 C 262.833 55.234,261.369 54.451,260.750 54.100 C 259.620 53.460,259.203 53.306,255.750 52.259 C 254.719 51.946,253.393 51.535,252.804 51.345 C 252.215 51.155,251.480 51.000,251.172 51.000 C 250.864 51.000,250.357 50.822,250.047 50.605 C 249.508 50.227,248.777 50.123,242.375 49.507 C 240.071 49.286,232.954 49.186,232.375 49.368 M239.860 106.483 C 240.241 106.904,240.280 107.340,240.166 109.883 C 239.970 114.242,240.226 114.425,242.767 111.750 C 244.137 110.307,244.567 110.000,245.214 110.000 C 246.377 110.000,246.222 110.597,244.625 112.271 C 242.833 114.150,242.744 113.650,245.729 118.443 C 246.616 119.868,246.602 120.500,245.681 120.500 C 244.806 120.500,244.381 120.073,243.069 117.877 C 241.325 114.957,240.250 115.063,240.250 118.155 C 240.250 119.736,239.883 120.500,239.122 120.500 C 238.483 120.500,238.429 119.939,238.433 113.342 C 238.438 105.982,238.619 105.112,239.860 106.483 M235.712 106.688 C 236.031 107.296,235.620 108.250,235.039 108.250 C 234.351 108.250,233.917 107.614,234.102 106.878 C 234.291 106.125,235.351 105.999,235.712 106.688 M249.875 107.247 C 249.875 108.232,249.410 108.480,248.630 107.910 C 247.947 107.410,248.471 106.176,249.315 106.295 C 249.773 106.360,249.875 106.534,249.875 107.247 M254.700 107.300 C 254.865 107.465,255.002 107.943,255.004 108.362 C 255.008 109.269,255.186 109.576,255.938 109.971 C 256.493 110.264,256.734 111.250,256.250 111.250 C 254.743 111.250,254.348 117.240,255.750 118.837 C 256.962 120.217,256.489 121.050,254.783 120.539 C 253.432 120.135,253.250 119.548,253.250 115.599 L 253.250 112.222 252.491 111.529 C 251.725 110.829,251.671 110.000,252.393 110.000 C 252.844 110.000,253.250 109.203,253.250 108.316 C 253.250 107.582,253.637 107.000,254.125 107.000 C 254.276 107.000,254.535 107.135,254.700 107.300 M218.978 109.908 C 220.028 110.118,221.250 111.283,221.250 112.074 C 221.250 113.003,220.656 113.059,219.520 112.235 C 217.843 111.021,215.750 111.267,215.750 112.679 C 215.750 113.323,217.014 114.247,217.898 114.249 C 218.897 114.251,221.425 115.715,221.739 116.474 C 223.173 119.934,216.904 122.710,214.394 119.727 C 212.611 117.608,213.671 116.183,215.586 118.125 C 217.076 119.636,218.979 119.691,219.753 118.244 C 220.290 117.240,219.261 116.463,216.435 115.738 C 211.421 114.454,213.851 108.883,218.978 109.908 M230.721 110.480 C 231.631 111.127,232.193 112.591,231.742 113.135 C 231.276 113.696,230.963 113.584,229.972 112.500 C 227.267 109.541,223.724 114.215,225.772 118.041 C 226.580 119.551,229.336 119.352,230.006 117.736 C 230.503 116.534,232.001 116.415,231.999 117.577 C 231.994 120.661,226.450 121.902,224.528 119.249 C 220.992 114.367,226.074 107.170,230.721 110.480 M235.605 110.563 C 235.791 111.482,235.974 118.818,235.829 119.554 C 235.676 120.327,234.903 120.689,234.363 120.240 C 233.882 119.841,233.824 110.776,234.300 110.300 C 234.790 109.810,235.480 109.948,235.605 110.563 M250.043 111.128 C 250.561 114.061,250.152 120.500,249.448 120.500 C 248.214 120.500,247.511 111.525,248.655 110.380 C 249.307 109.728,249.848 110.019,250.043 111.128 M197.202 117.313 C 196.259 118.806,194.062 124.105,193.651 125.875 C 193.556 126.287,193.186 127.525,192.830 128.625 C 192.228 130.488,191.791 132.263,191.263 135.000 C 191.143 135.619,190.966 136.436,190.870 136.815 C 190.725 137.386,190.764 137.479,191.097 137.351 C 191.319 137.266,191.500 137.054,191.500 136.879 C 191.500 136.704,191.665 136.424,191.866 136.257 C 192.961 135.348,196.188 129.458,197.100 126.703 C 197.433 125.697,197.885 124.454,198.105 123.940 C 199.388 120.939,198.594 115.109,197.202 117.313 M215.111 135.222 C 212.978 136.190,211.279 139.218,210.650 143.171 C 210.241 145.739,210.349 145.944,211.811 145.386 C 216.045 143.769,218.660 139.879,217.760 136.537 C 217.316 134.889,216.612 134.540,215.111 135.222 M242.851 135.249 C 241.139 136.052,238.817 139.183,237.849 141.995 C 237.674 142.503,237.257 143.527,236.923 144.272 C 236.122 146.057,235.626 150.288,236.031 151.894 C 237.091 156.105,241.948 153.889,244.597 147.984 C 248.627 139.002,247.795 132.929,242.851 135.249 " stroke="none" fill="#f39a3b" fill-rule="evenodd"></path><path id="path3" d="M197.583 113.155 C 197.285 113.363,195.779 113.971,194.237 114.504 C 191.431 115.476,190.400 116.123,190.096 117.102 C 190.007 117.390,189.452 118.638,188.862 119.875 C 187.505 122.721,187.149 123.572,186.088 126.500 C 185.615 127.806,184.881 129.831,184.457 131.000 C 184.032 132.169,183.541 133.744,183.366 134.500 C 183.190 135.256,182.748 136.997,182.384 138.369 C 179.417 149.551,180.244 156.960,184.750 159.570 C 186.532 160.602,190.149 160.711,191.871 159.785 C 192.419 159.491,192.988 159.250,193.135 159.250 C 193.814 159.250,198.339 156.034,200.958 153.692 C 202.635 152.192,202.897 152.191,203.120 153.688 C 203.451 155.905,205.835 158.647,208.442 159.810 C 210.201 160.594,215.415 160.583,216.871 159.792 C 217.419 159.494,218.030 159.250,218.228 159.250 C 218.786 159.250,221.891 157.091,224.329 155.008 C 227.199 152.556,226.927 152.506,228.145 155.702 C 230.790 162.643,238.374 161.667,243.792 153.688 C 245.477 151.206,245.915 151.389,246.260 154.719 C 247.114 162.974,252.478 162.313,262.237 152.749 C 263.717 151.298,266.666 147.895,267.180 147.044 C 268.777 144.400,269.348 143.910,271.705 143.161 C 272.849 142.798,273.946 142.500,274.142 142.500 C 274.540 142.500,274.636 143.507,274.275 143.887 C 273.591 144.607,270.973 150.411,270.509 152.235 C 269.299 156.989,271.715 160.724,275.620 160.139 C 276.672 159.981,280.621 158.205,280.790 157.814 C 280.837 157.706,281.494 157.171,282.250 156.627 C 283.006 156.083,284.268 155.031,285.054 154.289 C 286.945 152.504,287.130 152.615,287.348 155.665 C 287.702 160.594,287.545 160.429,291.017 159.506 C 292.039 159.234,293.180 159.009,293.554 159.006 C 294.568 158.997,294.750 158.371,294.750 154.878 C 294.750 149.289,295.657 146.804,299.049 143.102 C 304.226 137.450,306.500 136.216,306.500 139.058 C 306.500 139.483,306.106 141.022,305.624 142.478 C 305.142 143.934,304.628 145.519,304.482 146.000 C 304.336 146.481,304.122 147.100,304.005 147.375 C 301.287 153.797,301.982 158.985,305.694 159.985 C 306.923 160.316,309.884 159.933,310.516 159.361 C 310.735 159.162,311.094 159.000,311.314 159.000 C 311.788 159.000,316.158 155.792,317.822 154.223 C 318.463 153.619,319.159 152.980,319.369 152.803 C 319.765 152.467,319.940 149.497,319.563 149.503 C 319.459 149.505,318.700 150.249,317.875 151.157 C 312.021 157.597,308.363 156.086,311.654 148.587 C 311.844 148.154,312.000 147.656,312.000 147.482 C 312.000 147.307,312.556 145.524,313.235 143.519 C 315.617 136.487,315.479 133.547,312.700 132.101 C 311.499 131.476,309.215 131.901,307.803 133.012 C 307.462 133.280,307.073 133.500,306.940 133.500 C 306.576 133.500,304.363 135.247,302.587 136.938 C 302.118 137.384,301.625 137.750,301.492 137.750 C 301.359 137.750,301.250 137.878,301.250 138.034 C 301.250 138.190,300.997 138.557,300.688 138.849 C 300.378 139.142,299.649 139.927,299.068 140.594 C 297.556 142.331,296.639 141.739,297.623 139.663 C 297.829 139.230,298.171 138.256,298.384 137.500 C 298.596 136.744,298.867 135.787,298.984 135.375 C 299.101 134.963,299.402 134.092,299.651 133.440 C 300.249 131.883,299.995 131.624,298.360 132.120 C 297.681 132.326,296.731 132.499,296.250 132.504 C 294.557 132.523,292.755 133.315,292.248 134.262 C 290.566 137.409,288.578 143.464,288.107 146.875 C 287.933 148.140,287.388 149.500,287.056 149.500 C 286.871 149.500,285.793 150.423,283.683 152.390 C 283.028 153.000,282.334 153.500,282.141 153.500 C 281.948 153.500,281.445 153.697,281.023 153.938 C 278.195 155.549,276.650 149.939,278.768 145.750 C 278.872 145.544,279.370 144.081,279.874 142.500 C 280.895 139.301,281.677 137.090,282.012 136.454 C 282.413 135.692,283.250 133.026,283.250 132.508 C 283.250 130.764,279.952 132.953,279.225 135.180 C 279.092 135.586,276.241 138.500,275.977 138.500 C 275.863 138.500,275.561 138.724,275.306 138.998 C 274.794 139.547,272.306 140.486,271.813 140.316 C 271.387 140.169,271.419 138.928,271.877 137.832 C 274.670 131.147,268.029 129.748,264.963 136.375 C 263.667 139.178,263.760 140.799,265.313 142.459 C 265.966 143.157,266.500 143.894,266.500 144.097 C 266.500 145.061,258.779 153.323,257.160 154.092 C 254.700 155.259,252.852 153.546,253.351 150.563 C 253.943 147.030,254.108 146.212,254.501 144.875 C 254.743 144.050,255.137 142.644,255.377 141.750 C 255.617 140.856,255.961 139.675,256.141 139.125 C 256.321 138.575,256.708 137.281,257.000 136.250 C 257.292 135.219,257.693 133.921,257.891 133.367 C 258.371 132.020,258.365 132.000,257.489 132.000 C 256.752 132.000,252.519 134.069,251.279 135.035 C 250.404 135.717,250.156 135.630,248.990 134.238 C 246.646 131.438,243.487 131.213,238.844 133.514 C 233.228 136.298,229.124 141.592,227.508 148.136 C 227.224 149.287,222.729 153.535,220.543 154.717 C 216.839 156.720,211.577 154.525,210.506 150.529 C 210.015 148.695,210.226 148.388,212.479 147.662 C 223.683 144.048,228.137 136.704,221.500 132.789 C 214.945 128.922,202.750 138.988,202.750 148.266 C 202.750 148.669,202.553 149.168,202.313 149.374 C 202.072 149.580,200.863 150.629,199.625 151.705 C 194.526 156.139,191.904 156.853,189.907 154.350 C 188.092 152.076,187.931 145.548,189.632 143.240 C 190.609 141.913,192.972 139.010,194.099 137.750 C 194.407 137.406,194.735 136.919,194.829 136.668 C 194.923 136.416,195.374 135.629,195.832 134.918 C 197.457 132.395,198.750 130.090,198.750 129.714 C 198.750 129.505,198.819 129.264,198.903 129.180 C 199.072 129.011,200.059 126.330,200.672 124.375 C 201.299 122.376,201.289 114.366,200.659 113.438 C 200.116 112.637,198.532 112.492,197.583 113.155 M198.907 116.889 C 200.811 119.795,195.726 134.084,191.483 137.750 C 191.404 137.819,191.263 138.080,191.170 138.331 C 190.934 138.970,190.143 138.750,190.039 138.015 C 189.992 137.683,190.177 136.615,190.451 135.643 C 190.725 134.671,191.136 132.975,191.365 131.875 C 191.888 129.363,193.514 123.980,194.385 121.875 C 196.628 116.456,197.787 115.179,198.907 116.889 M217.645 134.772 C 220.260 137.662,217.299 143.970,212.500 145.730 C 212.019 145.906,211.369 146.172,211.055 146.321 C 209.970 146.837,209.655 146.128,209.951 143.839 C 210.233 141.659,210.668 139.781,210.982 139.385 C 211.096 139.242,211.269 138.862,211.368 138.541 C 212.295 135.522,216.201 133.176,217.645 134.772 M246.363 134.773 C 247.132 135.448,247.827 136.933,247.816 137.875 C 247.784 140.413,246.973 144.165,246.105 145.789 C 245.910 146.154,245.750 146.612,245.750 146.807 C 245.750 147.462,243.754 151.027,242.684 152.285 C 240.622 154.708,237.598 155.353,236.229 153.662 C 235.317 152.536,234.931 150.872,235.251 149.445 C 235.414 148.719,235.635 147.394,235.742 146.500 C 236.599 139.338,243.227 132.020,246.363 134.773 " stroke="none" fill="#0f0906" fill-rule="evenodd"></path><path id="path4" d="M197.750 112.493 C 197.406 112.603,196.563 112.940,195.875 113.242 C 195.188 113.545,193.771 114.063,192.728 114.394 C 190.552 115.085,190.267 115.337,189.362 117.382 C 188.998 118.203,188.440 119.438,188.122 120.125 C 187.804 120.813,187.320 121.881,187.047 122.500 C 186.773 123.119,186.374 124.019,186.160 124.500 C 185.945 124.981,185.493 126.219,185.154 127.250 C 184.815 128.281,184.260 129.912,183.921 130.875 C 183.052 133.338,182.117 136.551,181.629 138.750 C 181.401 139.781,181.108 140.963,180.980 141.375 C 178.675 148.774,180.213 157.459,184.295 160.089 C 186.771 161.685,192.782 160.972,195.375 158.774 C 195.650 158.541,196.378 158.018,196.993 157.612 C 197.608 157.207,198.997 156.116,200.079 155.188 C 202.388 153.206,202.401 153.203,202.751 154.503 C 204.566 161.244,214.571 163.203,221.392 158.153 C 223.369 156.690,226.250 154.209,226.250 153.970 C 226.250 153.849,226.419 153.750,226.625 153.750 C 226.849 153.750,227.000 153.980,227.000 154.322 C 227.000 154.637,227.225 155.336,227.500 155.875 C 227.775 156.414,228.000 157.000,228.000 157.176 C 228.000 157.352,228.647 158.149,229.438 158.946 C 231.838 161.366,235.444 161.794,238.039 159.967 C 238.404 159.710,238.825 159.500,238.975 159.500 C 239.405 159.500,243.356 155.490,244.102 154.296 C 244.976 152.898,245.308 153.054,245.646 155.020 C 246.266 158.634,247.144 160.010,249.374 160.861 C 251.335 161.610,254.570 160.468,257.026 158.160 C 257.632 157.591,259.083 156.301,260.251 155.294 C 262.888 153.022,266.251 149.315,268.284 146.441 C 269.622 144.549,269.948 144.236,270.727 144.095 C 271.221 144.006,272.052 143.765,272.573 143.560 C 273.806 143.075,273.891 143.211,273.199 144.564 C 270.027 150.772,269.678 151.755,269.713 154.385 C 269.770 158.518,272.511 161.485,275.615 160.772 C 277.073 160.437,280.290 158.929,280.764 158.359 C 280.941 158.144,281.705 157.559,282.461 157.057 C 283.217 156.555,284.475 155.553,285.257 154.829 C 287.001 153.213,287.000 153.212,287.000 156.525 C 287.000 160.748,287.365 161.080,290.925 160.101 C 291.723 159.882,292.861 159.603,293.454 159.481 C 295.020 159.159,295.000 159.199,295.003 156.423 C 295.006 153.334,295.777 148.702,296.536 147.214 C 297.538 145.249,301.781 140.593,303.966 139.059 L 305.484 137.994 305.886 138.606 C 306.260 139.178,306.251 139.299,305.747 140.422 C 305.449 141.084,304.927 142.684,304.587 143.979 C 304.246 145.274,303.637 147.062,303.234 147.951 C 302.830 148.841,302.499 149.863,302.497 150.222 C 302.496 150.581,302.327 151.427,302.122 152.102 C 300.229 158.343,305.272 162.723,310.921 159.742 C 314.373 157.920,319.516 153.989,320.045 152.767 C 320.358 152.044,320.262 149.611,319.900 149.117 C 319.570 148.666,319.421 148.771,317.338 150.912 C 313.892 154.453,312.606 155.205,311.373 154.397 C 310.439 153.785,310.501 153.269,312.043 148.803 C 312.295 148.076,312.499 147.289,312.499 147.053 C 312.498 146.818,312.825 145.781,313.225 144.750 C 314.060 142.596,315.073 139.261,315.512 137.222 C 316.482 132.711,312.049 129.776,307.985 132.237 C 304.939 134.082,303.779 135.015,300.738 138.063 C 299.400 139.403,298.257 140.500,298.198 140.500 C 298.073 140.500,298.585 138.055,298.827 137.500 C 299.407 136.164,300.247 133.243,300.248 132.555 C 300.251 131.490,299.928 131.390,297.701 131.764 C 296.697 131.933,295.218 132.145,294.415 132.235 C 293.282 132.361,292.844 132.535,292.462 133.011 C 291.953 133.644,290.500 136.619,290.500 137.026 C 290.500 137.152,290.281 137.732,290.014 138.315 C 289.747 138.898,289.363 139.938,289.160 140.625 C 288.957 141.313,288.624 142.438,288.420 143.125 C 288.216 143.813,287.911 145.219,287.743 146.250 C 287.408 148.296,287.700 147.914,283.375 151.958 C 279.277 155.790,276.959 152.525,279.234 146.125 C 279.674 144.887,280.176 143.425,280.350 142.875 C 280.683 141.819,280.700 141.767,281.302 140.000 C 282.399 136.781,283.095 134.831,283.283 134.446 C 285.166 130.602,281.269 130.144,279.249 133.971 C 278.785 134.849,276.213 137.665,275.043 138.576 C 273.796 139.546,271.794 139.880,272.123 139.063 C 274.309 133.629,272.918 130.779,268.509 131.661 C 266.490 132.064,263.500 136.741,263.500 139.494 C 263.500 141.062,263.735 141.650,264.846 142.861 C 265.987 144.106,266.026 143.899,264.194 146.319 C 261.135 150.361,257.025 154.018,255.572 153.992 C 254.379 153.971,253.456 151.953,253.967 150.486 C 254.123 150.040,254.250 149.179,254.250 148.572 C 254.250 147.964,254.461 146.941,254.719 146.296 C 254.976 145.652,255.328 144.506,255.500 143.750 C 255.672 142.994,256.083 141.475,256.412 140.375 C 256.742 139.275,257.172 137.813,257.369 137.125 C 257.565 136.438,257.963 135.114,258.254 134.185 C 259.351 130.675,258.145 130.428,253.250 133.163 C 252.631 133.509,251.722 134.018,251.230 134.293 L 250.335 134.795 248.851 133.311 C 246.646 131.106,243.152 130.668,240.053 132.209 C 237.729 133.365,236.020 134.422,234.766 135.479 C 231.630 138.123,229.646 140.700,228.379 143.774 C 228.016 144.655,227.557 145.730,227.359 146.163 C 227.162 146.596,227.000 147.316,227.000 147.763 C 227.000 148.909,222.309 153.275,219.926 154.348 C 216.343 155.960,211.000 153.314,211.000 149.927 C 211.000 148.840,211.121 148.752,213.947 147.771 C 222.307 144.869,226.620 139.715,224.531 135.118 C 222.215 130.018,213.556 130.319,208.490 135.675 C 206.581 137.693,205.081 139.575,204.546 140.625 C 203.413 142.848,203.177 143.486,202.513 146.125 L 201.822 148.875 199.142 151.318 C 192.215 157.632,188.657 156.029,189.236 146.856 C 189.410 144.113,189.487 143.961,192.223 140.945 C 192.689 140.431,193.241 139.755,193.449 139.443 C 193.657 139.131,194.093 138.586,194.418 138.232 C 194.743 137.878,195.214 137.203,195.464 136.732 C 195.714 136.261,196.602 134.750,197.436 133.375 C 198.319 131.921,199.340 129.777,199.876 128.250 C 200.384 126.806,200.910 125.414,201.047 125.155 C 201.396 124.492,201.862 120.025,201.844 117.500 C 201.813 112.922,200.692 111.552,197.750 112.493 M200.659 113.438 C 201.289 114.366,201.299 122.376,200.672 124.375 C 200.059 126.330,199.072 129.011,198.903 129.180 C 198.819 129.264,198.750 129.505,198.750 129.714 C 198.750 130.090,197.457 132.395,195.832 134.918 C 195.374 135.629,194.923 136.416,194.829 136.668 C 194.735 136.919,194.407 137.406,194.099 137.750 C 192.972 139.010,190.609 141.913,189.632 143.240 C 187.931 145.548,188.092 152.076,189.907 154.350 C 191.904 156.853,194.526 156.139,199.625 151.705 C 200.863 150.629,202.072 149.580,202.313 149.374 C 202.553 149.168,202.750 148.669,202.750 148.266 C 202.750 138.988,214.945 128.922,221.500 132.789 C 228.137 136.704,223.683 144.048,212.479 147.662 C 210.226 148.388,210.015 148.695,210.506 150.529 C 211.577 154.525,216.839 156.720,220.543 154.717 C 222.729 153.535,227.224 149.287,227.508 148.136 C 229.124 141.592,233.228 136.298,238.844 133.514 C 243.487 131.213,246.646 131.438,248.990 134.238 C 250.156 135.630,250.404 135.717,251.279 135.035 C 252.519 134.069,256.752 132.000,257.489 132.000 C 258.365 132.000,258.371 132.020,257.891 133.367 C 257.693 133.921,257.292 135.219,257.000 136.250 C 256.708 137.281,256.321 138.575,256.141 139.125 C 255.961 139.675,255.617 140.856,255.377 141.750 C 255.137 142.644,254.743 144.050,254.501 144.875 C 254.108 146.212,253.943 147.030,253.351 150.563 C 252.852 153.546,254.700 155.259,257.160 154.092 C 258.779 153.323,266.500 145.061,266.500 144.097 C 266.500 143.894,265.966 143.157,265.313 142.459 C 263.760 140.799,263.667 139.178,264.963 136.375 C 268.029 129.748,274.670 131.147,271.877 137.832 C 271.419 138.928,271.387 140.169,271.813 140.316 C 272.306 140.486,274.794 139.547,275.306 138.998 C 275.561 138.724,275.863 138.500,275.977 138.500 C 276.241 138.500,279.092 135.586,279.225 135.180 C 279.952 132.953,283.250 130.764,283.250 132.508 C 283.250 133.026,282.413 135.692,282.012 136.454 C 281.677 137.090,280.895 139.301,279.874 142.500 C 279.370 144.081,278.872 145.544,278.768 145.750 C 276.650 149.939,278.195 155.549,281.023 153.938 C 281.445 153.697,281.948 153.500,282.141 153.500 C 282.334 153.500,283.028 153.000,283.683 152.390 C 285.793 150.423,286.871 149.500,287.056 149.500 C 287.388 149.500,287.933 148.140,288.107 146.875 C 288.578 143.464,290.566 137.409,292.248 134.262 C 292.755 133.315,294.557 132.523,296.250 132.504 C 296.731 132.499,297.681 132.326,298.360 132.120 C 299.995 131.624,300.249 131.883,299.651 133.440 C 299.402 134.092,299.101 134.963,298.984 135.375 C 298.867 135.787,298.596 136.744,298.384 137.500 C 298.171 138.256,297.829 139.230,297.623 139.663 C 296.639 141.739,297.556 142.331,299.068 140.594 C 299.649 139.927,300.378 139.142,300.688 138.849 C 300.997 138.557,301.250 138.190,301.250 138.034 C 301.250 137.878,301.359 137.750,301.492 137.750 C 301.625 137.750,302.118 137.384,302.587 136.938 C 304.363 135.247,306.576 133.500,306.940 133.500 C 307.073 133.500,307.462 133.280,307.803 133.012 C 309.215 131.901,311.499 131.476,312.700 132.101 C 315.479 133.547,315.617 136.487,313.235 143.519 C 312.556 145.524,312.000 147.307,312.000 147.482 C 312.000 147.656,311.844 148.154,311.654 148.587 C 308.363 156.086,312.021 157.597,317.875 151.157 C 318.700 150.249,319.459 149.505,319.563 149.503 C 319.940 149.497,319.765 152.467,319.369 152.803 C 319.159 152.980,318.463 153.619,317.822 154.223 C 316.158 155.792,311.788 159.000,311.314 159.000 C 311.094 159.000,310.735 159.162,310.516 159.361 C 309.884 159.933,306.923 160.316,305.694 159.985 C 301.982 158.985,301.287 153.797,304.005 147.375 C 304.122 147.100,304.336 146.481,304.482 146.000 C 304.628 145.519,305.142 143.934,305.624 142.478 C 307.415 137.067,306.099 136.088,302.128 139.877 C 296.120 145.610,294.750 148.395,294.750 154.878 C 294.750 158.371,294.568 158.997,293.554 159.006 C 293.180 159.009,292.039 159.234,291.017 159.506 C 287.545 160.429,287.702 160.594,287.348 155.665 C 287.130 152.615,286.945 152.504,285.054 154.289 C 284.268 155.031,283.006 156.083,282.250 156.627 C 281.494 157.171,280.837 157.706,280.790 157.814 C 280.621 158.205,276.672 159.981,275.620 160.139 C 271.715 160.724,269.299 156.989,270.509 152.235 C 270.973 150.411,273.591 144.607,274.275 143.887 C 274.636 143.507,274.540 142.500,274.142 142.500 C 273.946 142.500,272.849 142.798,271.705 143.161 C 269.348 143.910,268.777 144.400,267.180 147.044 C 265.578 149.697,256.799 158.099,254.140 159.524 C 249.846 161.825,246.803 159.970,246.260 154.719 C 245.915 151.389,245.477 151.206,243.792 153.688 C 238.374 161.667,230.790 162.643,228.145 155.702 C 226.927 152.506,227.199 152.556,224.329 155.008 C 221.891 157.091,218.786 159.250,218.228 159.250 C 218.030 159.250,217.419 159.494,216.871 159.792 C 215.415 160.583,210.201 160.594,208.442 159.810 C 205.835 158.647,203.451 155.905,203.120 153.688 C 202.897 152.191,202.635 152.192,200.958 153.692 C 198.339 156.034,193.814 159.250,193.135 159.250 C 192.988 159.250,192.419 159.491,191.871 159.785 C 190.149 160.711,186.532 160.602,184.750 159.570 C 180.244 156.960,179.417 149.551,182.384 138.369 C 182.748 136.997,183.190 135.256,183.366 134.500 C 183.541 133.744,184.032 132.169,184.457 131.000 C 184.881 129.831,185.615 127.806,186.088 126.500 C 187.149 123.572,187.505 122.721,188.862 119.875 C 189.452 118.638,190.007 117.390,190.096 117.102 C 190.400 116.123,191.431 115.476,194.237 114.504 C 195.779 113.971,197.285 113.363,197.583 113.155 C 198.532 112.492,200.116 112.637,200.659 113.438 M196.761 116.984 C 196.123 117.881,194.536 121.317,193.811 123.375 C 193.052 125.525,191.732 130.116,191.365 131.875 C 191.136 132.975,190.725 134.671,190.451 135.643 C 190.177 136.615,189.992 137.683,190.039 138.015 C 190.143 138.750,190.934 138.970,191.170 138.331 C 191.263 138.080,191.404 137.819,191.483 137.750 C 193.929 135.636,198.700 125.651,199.128 121.750 C 199.653 116.961,198.472 114.582,196.761 116.984 M198.526 117.299 C 198.928 118.049,198.632 122.706,198.105 123.940 C 197.885 124.454,197.433 125.697,197.100 126.703 C 196.188 129.458,192.961 135.348,191.866 136.257 C 191.665 136.424,191.500 136.704,191.500 136.879 C 191.500 137.054,191.319 137.266,191.097 137.351 C 190.764 137.479,190.725 137.386,190.870 136.815 C 190.966 136.436,191.143 135.619,191.263 135.000 C 191.791 132.263,192.228 130.488,192.830 128.625 C 193.186 127.525,193.556 126.287,193.651 125.875 C 194.062 124.105,196.259 118.806,197.202 117.313 C 197.652 116.600,198.150 116.595,198.526 117.299 M215.750 134.238 C 214.187 134.581,211.891 136.836,211.368 138.541 C 211.269 138.862,211.096 139.242,210.982 139.385 C 210.668 139.781,210.233 141.659,209.951 143.839 C 209.655 146.128,209.970 146.837,211.055 146.321 C 211.369 146.172,212.019 145.906,212.500 145.730 C 214.068 145.155,216.415 143.301,217.278 141.956 C 219.559 138.402,218.610 133.609,215.750 134.238 M242.847 134.563 C 239.853 136.213,236.248 142.270,235.742 146.500 C 235.635 147.394,235.414 148.719,235.251 149.445 C 234.931 150.872,235.317 152.536,236.229 153.662 C 237.598 155.353,240.622 154.708,242.684 152.285 C 243.754 151.027,245.750 147.462,245.750 146.807 C 245.750 146.612,245.910 146.154,246.105 145.789 C 246.973 144.165,247.784 140.413,247.816 137.875 C 247.851 135.029,245.203 133.264,242.847 134.563 M216.937 135.134 C 218.631 136.320,217.886 141.104,215.721 142.945 C 213.629 144.724,210.863 146.088,210.509 145.515 C 209.375 143.679,212.658 136.336,215.111 135.222 C 216.346 134.661,216.266 134.664,216.937 135.134 M246.006 135.254 C 248.453 136.997,246.633 145.795,242.706 151.204 C 240.196 154.660,236.815 155.009,236.031 151.894 C 235.626 150.288,236.122 146.057,236.923 144.272 C 237.257 143.527,237.674 142.503,237.849 141.995 C 239.599 136.915,243.644 133.572,246.006 135.254 " stroke="none" fill="#895621" fill-rule="evenodd"></path></g></svg>