<svg id="svg" version="1.1" xmlns="http://www.w3.org/2000/svg" xmlns:xlink="http://www.w3.org/1999/xlink" width="400" height="400" viewBox="0, 0, 400,400"><g id="svgg"><path id="path0" d="M233.600 60.357 C 233.600 60.627,233.432 60.744,233.228 60.617 C 233.023 60.491,232.742 60.570,232.604 60.793 C 232.466 61.017,232.623 61.200,232.953 61.200 C 233.624 61.200,234.210 60.477,233.840 60.107 C 233.708 59.975,233.600 60.087,233.600 60.357 M138.977 66.438 C 138.828 66.678,138.273 66.793,137.744 66.691 C 137.214 66.590,136.708 66.626,136.618 66.771 C 136.272 67.332,138.726 67.172,139.198 66.602 C 139.473 66.271,139.597 66.000,139.473 66.000 C 139.349 66.000,139.125 66.197,138.977 66.438 M305.392 119.200 C 305.392 139.330,305.440 147.565,305.500 137.500 C 305.559 127.435,305.559 110.965,305.500 100.900 C 305.440 90.835,305.392 99.070,305.392 119.200 M305.384 192.000 C 305.384 201.570,305.436 205.485,305.500 200.700 C 305.563 195.915,305.563 188.085,305.500 183.300 C 305.436 178.515,305.384 182.430,305.384 192.000 " stroke="none" fill="#6cbc44" fill-rule="evenodd"></path><path id="path1" d="M192.694 52.196 C 192.068 53.057,191.639 53.180,188.894 53.283 C 186.126 53.388,185.758 53.495,185.405 54.300 C 185.047 55.115,184.735 55.200,182.087 55.200 C 179.502 55.200,179.048 55.316,178.164 56.200 C 177.224 57.140,176.910 57.200,172.963 57.200 C 168.996 57.200,168.710 57.256,167.835 58.200 C 167.023 59.076,166.574 59.200,164.212 59.200 C 161.823 59.200,161.427 59.313,160.741 60.184 C 160.048 61.065,159.624 61.180,156.683 61.284 C 153.624 61.392,153.391 61.461,153.272 62.300 C 153.148 63.175,153.014 63.200,148.442 63.200 C 143.963 63.200,143.696 63.247,142.814 64.185 C 142.002 65.050,141.494 65.183,138.645 65.285 C 135.625 65.392,135.391 65.462,135.272 66.300 C 135.151 67.151,134.964 67.200,131.801 67.200 C 128.579 67.200,127.200 67.674,127.200 68.783 C 127.200 68.963,125.290 69.180,122.955 69.266 C 119.155 69.407,118.635 69.517,117.991 70.312 C 117.350 71.104,116.902 71.200,113.864 71.200 C 110.536 71.200,109.200 71.667,109.200 72.829 C 109.200 73.033,107.850 73.200,106.200 73.200 C 103.278 73.200,103.200 73.226,103.200 74.186 C 103.200 75.158,103.147 75.173,99.300 75.286 C 95.600 75.394,95.393 75.446,95.272 76.300 C 95.169 77.029,94.890 77.200,93.801 77.200 C 91.004 77.200,91.200 74.025,91.200 119.398 L 91.200 160.338 92.431 161.569 L 93.662 162.800 120.431 162.800 L 147.200 162.800 147.200 166.000 L 147.200 169.200 119.680 169.200 C 98.809 169.200,92.044 169.316,91.680 169.680 C 91.317 170.043,91.200 176.038,91.200 194.210 L 91.200 218.261 92.200 219.200 C 93.170 220.111,93.200 220.301,93.200 225.470 L 93.200 230.800 94.200 230.800 L 95.200 230.800 95.200 234.800 C 95.200 238.784,95.204 238.800,96.186 238.800 C 97.158 238.800,97.173 238.853,97.286 242.700 C 97.394 246.400,97.446 246.607,98.300 246.728 C 99.094 246.841,99.200 247.087,99.200 248.828 C 99.200 250.665,99.269 250.800,100.200 250.800 C 101.122 250.800,101.200 250.944,101.200 252.642 C 101.200 254.121,101.393 254.637,102.180 255.256 C 102.982 255.887,103.183 256.444,103.280 258.314 C 103.385 260.320,103.508 260.615,104.279 260.725 C 105.021 260.831,105.177 261.144,105.279 262.725 C 105.382 264.321,105.534 264.619,106.300 264.728 C 106.957 264.821,107.200 265.124,107.200 265.846 C 107.200 266.391,107.650 267.286,108.200 267.836 C 108.750 268.386,109.200 269.207,109.200 269.661 C 109.200 270.114,109.650 270.839,110.200 271.271 C 110.919 271.837,111.200 272.443,111.200 273.429 C 111.200 274.625,111.328 274.800,112.200 274.800 C 113.000 274.800,113.200 275.000,113.200 275.800 C 113.200 276.600,113.400 276.800,114.200 276.800 C 115.133 276.800,115.200 276.933,115.200 278.800 C 115.200 280.667,115.267 280.800,116.200 280.800 C 117.000 280.800,117.200 281.000,117.200 281.800 C 117.200 282.594,117.401 282.800,118.178 282.800 C 119.061 282.800,119.168 282.985,119.278 284.700 C 119.381 286.304,119.536 286.619,120.275 286.725 C 120.821 286.802,121.198 287.179,121.275 287.725 C 121.354 288.279,121.730 288.647,122.300 288.728 C 122.951 288.820,123.200 289.124,123.200 289.828 C 123.200 290.598,123.408 290.800,124.200 290.800 C 125.000 290.800,125.200 291.000,125.200 291.800 C 125.200 292.600,125.400 292.800,126.200 292.800 C 127.000 292.800,127.200 293.000,127.200 293.800 C 127.200 294.600,127.400 294.800,128.200 294.800 C 128.950 294.800,129.200 295.011,129.200 295.642 C 129.200 296.106,129.650 296.839,130.200 297.271 C 130.750 297.704,131.200 298.310,131.200 298.619 C 131.200 298.927,132.000 299.949,132.979 300.889 C 134.845 302.684,136.947 304.764,138.059 305.917 C 138.421 306.293,139.288 307.050,139.986 307.600 C 141.273 308.614,144.977 312.255,146.395 313.900 C 146.822 314.395,147.628 314.800,148.186 314.800 C 149.001 314.800,149.200 314.996,149.200 315.800 C 149.200 316.600,149.400 316.800,150.200 316.800 C 151.000 316.800,151.200 317.000,151.200 317.800 C 151.200 318.592,151.402 318.800,152.172 318.800 C 152.876 318.800,153.180 319.049,153.272 319.700 C 153.349 320.244,153.721 320.646,154.212 320.716 C 154.659 320.780,155.199 321.230,155.412 321.716 C 155.709 322.393,156.198 322.629,157.500 322.723 C 159.002 322.832,159.200 322.960,159.200 323.823 C 159.200 324.598,159.406 324.800,160.200 324.800 C 161.000 324.800,161.200 325.000,161.200 325.800 C 161.200 326.592,161.402 326.800,162.172 326.800 C 162.876 326.800,163.180 327.049,163.272 327.700 C 163.381 328.468,163.679 328.618,165.300 328.722 C 167.015 328.832,167.200 328.939,167.200 329.822 C 167.200 330.591,167.408 330.800,168.172 330.800 C 168.876 330.800,169.180 331.049,169.272 331.700 C 169.355 332.282,169.722 332.646,170.311 332.729 C 170.812 332.800,171.659 333.295,172.193 333.829 C 172.727 334.363,173.579 334.800,174.087 334.800 C 174.661 334.800,175.160 335.141,175.405 335.700 C 175.710 336.395,176.187 336.628,177.500 336.723 C 179.002 336.832,179.200 336.960,179.200 337.823 C 179.200 338.591,179.408 338.800,180.172 338.800 C 180.876 338.800,181.180 339.049,181.272 339.700 C 181.381 340.468,181.679 340.618,183.300 340.722 C 185.015 340.832,185.200 340.939,185.200 341.822 C 185.200 342.729,185.345 342.800,187.200 342.800 C 189.067 342.800,189.200 342.867,189.200 343.800 C 189.200 344.572,189.406 344.800,190.105 344.800 C 190.660 344.800,191.163 345.148,191.405 345.700 C 191.709 346.392,192.188 346.628,193.475 346.722 C 194.849 346.822,195.173 347.001,195.275 347.722 C 195.392 348.544,195.636 348.607,199.100 348.715 L 202.800 348.830 202.800 347.837 C 202.800 346.936,202.976 346.833,204.700 346.722 C 206.321 346.618,206.619 346.468,206.728 345.700 C 206.813 345.103,207.130 344.800,207.670 344.800 C 208.118 344.800,208.839 344.350,209.271 343.800 C 209.802 343.126,210.454 342.800,211.271 342.800 C 212.089 342.800,212.741 342.474,213.271 341.800 C 213.837 341.081,214.443 340.800,215.429 340.800 C 216.625 340.800,216.800 340.672,216.800 339.800 C 216.800 338.952,216.985 338.800,218.019 338.800 C 218.806 338.800,219.567 338.445,220.165 337.800 C 220.675 337.250,221.476 336.800,221.946 336.800 C 222.585 336.800,222.800 336.554,222.800 335.822 C 222.800 334.939,222.985 334.832,224.700 334.722 C 226.321 334.618,226.619 334.468,226.728 333.700 C 226.820 333.049,227.124 332.800,227.828 332.800 C 228.598 332.800,228.800 332.592,228.800 331.800 C 228.800 331.000,229.000 330.800,229.800 330.800 C 230.594 330.800,230.800 330.599,230.800 329.822 C 230.800 328.939,230.985 328.832,232.700 328.722 C 234.321 328.618,234.619 328.468,234.728 327.700 C 234.820 327.049,235.124 326.800,235.828 326.800 C 236.598 326.800,236.800 326.592,236.800 325.800 C 236.800 325.000,237.000 324.800,237.800 324.800 C 238.594 324.800,238.800 324.599,238.800 323.822 C 238.800 322.939,238.985 322.832,240.700 322.722 C 242.321 322.618,242.619 322.468,242.728 321.700 C 242.820 321.049,243.124 320.800,243.828 320.800 C 244.598 320.800,244.800 320.592,244.800 319.800 C 244.800 319.000,245.000 318.800,245.800 318.800 C 246.600 318.800,246.800 318.600,246.800 317.800 C 246.800 316.995,246.999 316.800,247.818 316.800 C 248.378 316.800,249.272 316.364,249.804 315.832 C 250.337 315.300,251.094 314.804,251.486 314.730 C 251.879 314.656,252.375 314.199,252.588 313.714 C 252.801 313.229,253.341 312.780,253.788 312.716 C 254.266 312.648,254.650 312.246,254.722 311.741 C 254.790 311.268,255.208 310.787,255.652 310.670 C 256.096 310.554,256.554 310.096,256.670 309.652 C 256.787 309.208,257.268 308.790,257.741 308.722 C 258.279 308.646,258.648 308.263,258.728 307.700 C 258.820 307.049,259.124 306.800,259.828 306.800 C 260.591 306.800,260.800 306.591,260.800 305.828 C 260.800 305.124,261.049 304.820,261.700 304.728 C 262.270 304.647,262.646 304.279,262.725 303.725 C 262.802 303.179,263.179 302.802,263.725 302.725 C 264.270 302.647,264.647 302.270,264.725 301.725 C 264.802 301.179,265.179 300.802,265.725 300.725 C 266.270 300.647,266.647 300.270,266.725 299.725 C 266.802 299.179,267.179 298.802,267.725 298.725 C 268.264 298.648,268.647 298.270,268.722 297.741 C 268.790 297.268,269.208 296.787,269.652 296.670 C 270.096 296.554,270.555 296.092,270.673 295.643 C 270.790 295.194,271.210 294.724,271.606 294.598 C 272.001 294.473,272.607 293.666,272.951 292.805 C 273.296 291.944,273.959 291.036,274.426 290.786 C 274.987 290.486,275.207 290.072,275.075 289.566 C 274.921 288.975,275.086 288.800,275.794 288.800 C 276.441 288.800,276.788 288.504,276.964 287.800 C 277.126 287.154,277.496 286.800,278.008 286.800 C 278.489 286.800,278.800 286.531,278.800 286.115 C 278.800 285.738,279.258 285.063,279.818 284.615 C 280.682 283.923,280.985 283.136,281.172 281.100 C 281.188 280.935,281.557 280.800,281.992 280.800 C 282.496 280.800,282.873 280.449,283.026 279.838 C 283.159 279.309,283.598 278.789,284.003 278.683 C 284.524 278.547,284.818 277.955,285.014 276.646 C 285.229 275.209,285.456 274.800,286.038 274.800 C 286.493 274.800,286.879 274.424,287.026 273.838 C 287.159 273.309,287.613 272.785,288.034 272.675 C 288.487 272.557,288.825 272.092,288.861 271.537 C 288.894 271.022,288.964 270.420,289.015 270.200 C 289.066 269.980,289.128 269.596,289.154 269.347 C 289.179 269.097,289.560 268.799,290.000 268.684 C 290.453 268.566,290.822 268.112,290.850 267.637 C 290.877 267.177,290.945 266.620,291.000 266.400 C 291.055 266.180,291.123 265.730,291.150 265.400 C 291.178 265.070,291.548 264.800,291.973 264.800 C 292.675 264.800,293.320 263.796,293.166 262.941 C 292.940 261.677,293.270 260.800,293.973 260.800 C 294.773 260.800,295.440 259.511,295.004 258.807 C 294.868 258.587,295.199 257.964,295.740 257.424 C 296.328 256.836,296.816 255.777,296.954 254.790 C 297.092 253.802,297.525 252.865,298.032 252.454 C 298.829 251.809,299.110 250.689,299.174 247.900 C 299.193 247.088,299.403 246.800,299.973 246.800 C 300.839 246.800,301.192 245.995,301.126 244.164 C 301.100 243.439,301.468 242.406,302.015 241.666 C 302.803 240.600,302.966 239.836,303.069 236.736 C 303.171 233.665,303.322 232.946,304.000 232.314 C 304.738 231.626,304.807 231.093,304.773 226.290 C 304.748 222.788,304.883 220.972,305.175 220.875 C 306.838 220.321,306.811 220.787,306.703 194.468 L 306.600 169.400 304.600 169.329 C 303.500 169.290,290.945 169.245,276.700 169.229 L 250.800 169.200 250.800 166.000 L 250.800 162.800 277.818 162.800 L 304.836 162.800 305.820 161.816 L 306.804 160.833 306.702 119.116 L 306.600 77.400 304.800 77.200 C 303.312 77.035,302.978 76.844,302.872 76.100 C 302.751 75.249,302.564 75.200,299.401 75.200 C 296.312 75.200,295.998 75.124,295.271 74.200 C 294.566 73.303,294.196 73.200,291.670 73.200 C 289.056 73.200,288.847 73.136,288.728 72.300 C 288.606 71.445,288.401 71.394,284.652 71.285 C 281.136 71.182,280.626 71.073,279.988 70.285 C 279.346 69.492,278.836 69.386,275.059 69.264 C 271.096 69.137,270.839 69.077,270.723 68.264 C 270.607 67.452,270.370 67.397,266.800 67.346 C 263.017 67.292,262.999 67.287,262.873 66.246 C 262.750 65.224,262.679 65.200,259.792 65.200 C 257.173 65.200,256.723 65.086,255.836 64.200 C 254.876 63.240,254.638 63.200,249.818 63.200 L 244.800 63.200 244.800 62.200 C 244.800 61.227,244.724 61.200,241.946 61.200 C 239.415 61.200,238.987 61.087,238.165 60.200 C 237.329 59.298,236.933 59.200,234.114 59.200 C 231.258 59.200,230.956 59.123,230.595 58.300 C 230.223 57.452,229.935 57.394,225.590 57.288 C 221.264 57.183,220.955 57.121,220.590 56.288 C 220.229 55.465,219.935 55.400,216.600 55.400 C 213.081 55.400,212.995 55.378,212.797 54.400 C 212.606 53.458,212.426 53.393,209.698 53.282 C 207.244 53.183,206.651 53.015,205.819 52.182 C 204.304 50.667,193.798 50.678,192.694 52.196 M233.816 60.773 C 233.671 61.008,233.283 61.200,232.953 61.200 C 232.623 61.200,232.466 61.017,232.604 60.793 C 232.742 60.570,233.023 60.491,233.228 60.617 C 233.432 60.744,233.600 60.627,233.600 60.357 C 233.600 60.087,233.708 59.975,233.840 60.107 C 233.972 60.239,233.961 60.539,233.816 60.773 M139.198 66.602 C 138.726 67.172,136.272 67.332,136.618 66.771 C 136.708 66.626,137.214 66.590,137.744 66.691 C 138.273 66.793,138.828 66.678,138.977 66.438 C 139.125 66.197,139.349 66.000,139.473 66.000 C 139.597 66.000,139.473 66.271,139.198 66.602 M305.500 137.500 C 305.440 147.565,305.392 139.330,305.392 119.200 C 305.392 99.070,305.440 90.835,305.500 100.900 C 305.559 110.965,305.559 127.435,305.500 137.500 M207.274 131.717 C 207.381 132.465,207.690 132.619,209.304 132.722 C 210.682 132.810,211.478 133.114,212.186 133.822 C 212.724 134.360,213.614 134.800,214.164 134.800 C 214.714 134.800,215.614 135.250,216.164 135.800 C 216.714 136.350,217.622 136.800,218.182 136.800 C 219.001 136.800,219.200 136.995,219.200 137.800 C 219.200 138.592,219.402 138.800,220.172 138.800 C 220.876 138.800,221.180 139.049,221.272 139.700 C 221.352 140.263,221.721 140.646,222.259 140.722 C 222.732 140.790,223.213 141.208,223.330 141.652 C 223.446 142.096,223.904 142.554,224.348 142.670 C 224.792 142.787,225.210 143.268,225.278 143.741 C 225.354 144.279,225.737 144.648,226.300 144.728 C 226.951 144.820,227.200 145.124,227.200 145.828 C 227.200 146.592,227.409 146.800,228.177 146.800 C 229.040 146.800,229.168 146.998,229.277 148.500 C 229.371 149.802,229.607 150.291,230.284 150.588 C 231.046 150.922,231.183 151.336,231.284 153.588 C 231.385 155.855,231.519 156.252,232.300 156.595 C 233.195 156.988,233.200 157.036,233.200 166.095 L 233.200 175.200 232.200 175.200 C 231.268 175.200,231.200 175.335,231.200 177.182 C 231.200 178.762,230.998 179.366,230.200 180.164 C 229.650 180.714,229.200 181.622,229.200 182.182 C 229.200 182.742,229.033 183.200,228.829 183.200 C 228.022 183.200,227.200 184.527,227.200 185.829 C 227.200 187.025,227.072 187.200,226.200 187.200 C 225.400 187.200,225.200 187.400,225.200 188.200 C 225.200 189.000,225.000 189.200,224.200 189.200 C 223.400 189.200,223.200 189.400,223.200 190.200 C 223.200 190.950,222.989 191.200,222.358 191.200 C 221.894 191.200,221.177 191.630,220.764 192.155 C 220.351 192.680,219.565 193.222,219.018 193.360 C 218.471 193.497,217.832 193.967,217.597 194.405 C 217.349 194.868,216.761 195.200,216.186 195.200 C 215.406 195.200,215.200 195.405,215.200 196.182 C 215.200 197.115,215.068 197.169,212.500 197.282 C 210.143 197.385,209.750 197.514,209.405 198.300 C 209.031 199.153,208.785 199.200,204.734 199.200 C 200.422 199.200,199.223 199.574,199.188 200.929 C 199.181 201.188,198.972 201.040,198.722 200.600 C 197.989 199.307,197.610 199.213,193.128 199.206 C 189.004 199.200,188.851 199.169,188.728 198.300 C 188.610 197.470,188.383 197.397,185.800 197.356 C 183.086 197.312,182.996 197.279,182.873 196.256 C 182.777 195.448,182.525 195.200,181.801 195.200 C 181.125 195.200,180.819 194.943,180.728 194.300 C 180.646 193.722,180.278 193.354,179.700 193.272 C 179.205 193.202,178.800 192.990,178.800 192.801 C 178.800 192.020,177.454 191.200,176.171 191.200 C 174.975 191.200,174.800 191.072,174.800 190.200 C 174.800 189.400,174.600 189.200,173.800 189.200 C 172.952 189.200,172.800 189.015,172.800 187.981 C 172.800 187.211,172.449 186.437,171.848 185.880 C 171.325 185.395,170.828 184.638,170.744 184.199 C 170.656 183.738,170.213 183.346,169.696 183.272 C 168.906 183.160,168.800 182.910,168.800 181.172 C 168.800 179.335,168.731 179.200,167.800 179.200 C 166.865 179.200,166.800 179.068,166.800 177.182 C 166.800 175.562,166.602 174.966,165.800 174.164 L 164.800 173.164 164.800 164.982 L 164.800 156.800 165.800 156.800 C 166.732 156.800,166.800 156.665,166.800 154.818 C 166.800 153.217,167.000 152.637,167.841 151.796 C 168.495 151.142,168.807 150.472,168.682 149.993 C 168.555 149.508,168.903 148.792,169.642 148.019 C 170.290 147.341,170.800 146.365,170.800 145.804 C 170.800 145.000,170.999 144.800,171.800 144.800 C 172.592 144.800,172.800 144.598,172.800 143.828 C 172.800 143.124,173.049 142.820,173.700 142.728 C 174.278 142.646,174.646 142.278,174.728 141.700 C 174.820 141.049,175.124 140.800,175.828 140.800 C 176.598 140.800,176.800 140.592,176.800 139.800 C 176.800 139.000,177.000 138.800,177.800 138.800 C 178.600 138.800,178.800 138.600,178.800 137.800 C 178.800 136.952,178.985 136.800,180.019 136.800 C 180.796 136.800,181.565 136.448,182.138 135.829 C 182.732 135.188,183.575 134.814,184.619 134.729 C 185.804 134.632,186.299 134.374,186.595 133.700 C 186.925 132.948,187.303 132.800,188.895 132.800 C 190.646 132.800,190.800 132.722,190.800 131.827 C 190.800 130.593,191.017 130.567,200.074 130.717 C 207.024 130.832,207.151 130.850,207.274 131.717 M197.907 144.400 C 197.501 145.051,196.974 145.200,195.085 145.200 C 193.152 145.200,192.614 145.360,191.880 146.152 C 191.395 146.675,190.638 147.172,190.199 147.255 C 189.556 147.377,189.376 147.778,189.278 149.304 C 189.168 151.021,189.063 151.200,188.168 151.200 L 187.181 151.200 187.290 157.900 C 187.398 164.506,187.413 164.602,188.300 164.728 C 188.951 164.820,189.200 165.124,189.200 165.828 C 189.200 166.592,189.409 166.800,190.178 166.800 C 191.061 166.800,191.168 166.985,191.278 168.700 C 191.382 170.321,191.532 170.619,192.300 170.728 C 192.951 170.820,193.200 171.124,193.200 171.828 C 193.200 172.598,193.408 172.800,194.200 172.800 L 195.200 172.800 195.200 177.773 L 195.200 182.747 196.300 182.913 L 197.400 183.080 196.300 183.140 C 194.530 183.236,194.633 187.771,196.446 189.584 C 198.100 191.238,204.494 191.347,204.725 189.725 C 204.802 189.179,205.179 188.802,205.725 188.725 C 206.598 188.600,206.600 188.571,206.706 177.700 L 206.813 166.800 207.806 166.800 C 208.600 166.800,208.800 166.598,208.800 165.800 C 208.800 164.998,208.999 164.800,209.809 164.800 L 210.818 164.800 210.709 157.300 C 210.602 149.955,210.581 149.792,209.700 149.405 C 209.148 149.163,208.800 148.660,208.800 148.105 C 208.800 147.413,208.571 147.200,207.828 147.200 C 207.124 147.200,206.820 146.951,206.728 146.300 C 206.616 145.512,206.331 145.385,204.434 145.277 C 203.045 145.198,201.913 144.875,201.280 144.377 C 200.006 143.375,198.541 143.385,197.907 144.400 M199.076 154.700 C 198.975 155.085,198.893 154.770,198.893 154.000 C 198.893 153.230,198.975 152.915,199.076 153.300 C 199.176 153.685,199.176 154.315,199.076 154.700 M305.500 200.700 C 305.436 205.485,305.384 201.570,305.384 192.000 C 305.384 182.430,305.436 178.515,305.500 183.300 C 305.563 188.085,305.563 195.915,305.500 200.700 " stroke="none" fill="#64bc43" fill-rule="evenodd"></path><path id="path2" d="" stroke="none" fill="#6cbc48" fill-rule="evenodd"></path><path id="path3" d="" stroke="none" fill="#6cbc48" fill-rule="evenodd"></path><path id="path4" d="" stroke="none" fill="#6cbc48" fill-rule="evenodd"></path></g></svg>