<svg id="svg" version="1.1" xmlns="http://www.w3.org/2000/svg" xmlns:xlink="http://www.w3.org/1999/xlink" width="400" height="400" viewBox="0, 0, 400,400"><g id="svgg"><path id="path0" d="M345.600 6.754 C 345.600 6.949,344.610 7.232,343.400 7.383 C 342.190 7.534,341.200 7.825,341.200 8.029 C 341.200 8.233,340.570 8.400,339.800 8.400 C 339.030 8.400,338.400 8.559,338.400 8.753 C 338.400 8.948,337.230 9.232,335.800 9.385 C 334.370 9.538,333.200 9.829,333.200 10.032 C 333.200 10.234,332.750 10.400,332.200 10.400 C 331.650 10.400,331.200 10.562,331.200 10.759 C 331.200 10.957,329.940 11.245,328.400 11.400 C 326.860 11.555,325.600 11.843,325.600 12.041 C 325.600 12.238,325.060 12.400,324.400 12.400 C 323.740 12.400,323.200 12.571,323.200 12.780 C 323.200 12.989,322.120 13.282,320.800 13.432 C 319.480 13.581,318.400 13.860,318.400 14.052 C 318.400 14.243,317.770 14.400,317.000 14.400 C 316.230 14.400,315.600 14.559,315.600 14.754 C 315.600 14.949,314.610 15.232,313.400 15.383 C 312.190 15.534,311.200 15.825,311.200 16.029 C 311.200 16.233,310.570 16.400,309.800 16.400 C 309.030 16.400,308.400 16.559,308.400 16.753 C 308.400 16.948,307.230 17.232,305.800 17.385 C 304.370 17.538,303.200 17.829,303.200 18.032 C 303.200 18.234,302.750 18.400,302.200 18.400 C 301.650 18.400,301.200 18.562,301.200 18.759 C 301.200 18.957,299.940 19.245,298.400 19.400 C 296.860 19.555,295.600 19.843,295.600 20.041 C 295.600 20.238,295.150 20.400,294.600 20.400 C 294.050 20.400,293.600 20.566,293.600 20.768 C 293.600 20.971,292.430 21.262,291.000 21.415 C 289.570 21.568,288.400 21.852,288.400 22.047 C 288.400 22.241,287.770 22.400,287.000 22.400 C 286.230 22.400,285.600 22.567,285.600 22.771 C 285.600 22.975,284.610 23.266,283.400 23.417 C 282.190 23.568,281.200 23.851,281.200 24.046 C 281.200 24.241,280.570 24.400,279.800 24.400 C 279.030 24.400,278.400 24.557,278.400 24.748 C 278.400 24.940,277.320 25.219,276.000 25.368 C 274.680 25.518,273.600 25.811,273.600 26.020 C 273.600 26.229,273.060 26.400,272.400 26.400 C 271.740 26.400,271.200 26.562,271.200 26.759 C 271.200 26.957,269.940 27.245,268.400 27.400 C 266.860 27.555,265.600 27.843,265.600 28.041 C 265.600 28.238,265.150 28.400,264.600 28.400 C 264.050 28.400,263.600 28.566,263.600 28.768 C 263.600 28.971,262.430 29.262,261.000 29.415 C 259.570 29.568,258.400 29.852,258.400 30.047 C 258.400 30.241,257.770 30.400,257.000 30.400 C 256.230 30.400,255.600 30.567,255.600 30.771 C 255.600 30.975,254.610 31.266,253.400 31.417 C 252.190 31.568,251.200 31.851,251.200 32.046 C 251.200 32.241,250.570 32.400,249.800 32.400 C 249.030 32.400,248.400 32.580,248.400 32.800 C 248.400 33.020,247.770 33.200,247.000 33.200 C 246.230 33.200,245.600 33.355,245.600 33.545 C 245.600 33.734,245.150 33.803,244.600 33.698 C 244.016 33.586,243.600 33.693,243.600 33.953 C 243.600 34.199,243.060 34.400,242.400 34.400 C 241.740 34.400,241.200 34.562,241.200 34.759 C 241.200 34.957,239.940 35.245,238.400 35.400 C 236.860 35.555,235.600 35.843,235.600 36.041 C 235.600 36.238,235.150 36.400,234.600 36.400 C 234.050 36.400,233.600 36.566,233.600 36.768 C 233.600 36.971,232.430 37.262,231.000 37.415 C 229.570 37.568,228.400 37.852,228.400 38.047 C 228.400 38.241,227.770 38.400,227.000 38.400 C 226.230 38.400,225.600 38.580,225.600 38.800 C 225.600 39.020,225.161 39.200,224.624 39.200 C 224.087 39.200,223.551 39.356,223.433 39.546 C 223.315 39.737,222.765 39.806,222.210 39.700 C 221.618 39.587,221.200 39.692,221.200 39.953 C 221.200 40.199,220.570 40.400,219.800 40.400 C 219.030 40.400,218.400 40.557,218.400 40.748 C 218.400 40.940,217.320 41.219,216.000 41.368 C 214.680 41.518,213.600 41.811,213.600 42.020 C 213.600 42.229,213.060 42.400,212.400 42.400 C 211.740 42.400,211.200 42.562,211.200 42.759 C 211.200 42.957,209.940 43.245,208.400 43.400 C 206.860 43.555,205.600 43.843,205.600 44.041 C 205.600 44.238,205.150 44.400,204.600 44.400 C 204.050 44.400,203.600 44.566,203.600 44.768 C 203.600 44.971,202.430 45.262,201.000 45.415 C 199.570 45.568,198.400 45.852,198.400 46.047 C 198.400 46.241,197.950 46.400,197.400 46.400 C 196.850 46.400,196.400 46.580,196.400 46.800 C 196.400 47.020,195.905 47.202,195.300 47.205 C 193.416 47.215,192.400 47.649,192.400 48.447 C 192.400 48.861,192.240 49.200,192.043 49.200 C 191.847 49.200,191.565 49.684,191.417 50.276 C 191.268 50.868,190.777 51.673,190.326 52.064 C 189.840 52.486,189.604 53.034,189.748 53.409 C 189.888 53.774,189.824 53.938,189.595 53.797 C 189.378 53.663,189.200 53.923,189.200 54.376 C 189.200 54.829,189.009 55.200,188.776 55.200 C 188.543 55.200,188.444 55.348,188.556 55.529 C 188.668 55.709,188.408 56.158,187.980 56.525 C 187.551 56.892,187.200 57.464,187.200 57.796 C 187.200 58.128,187.020 58.400,186.800 58.400 C 186.580 58.400,186.400 58.670,186.400 59.000 C 186.400 59.330,186.243 59.600,186.050 59.600 C 185.857 59.600,185.587 60.164,185.449 60.854 C 185.311 61.543,184.851 62.409,184.426 62.777 C 184.001 63.146,183.532 63.932,183.383 64.524 C 183.235 65.116,182.953 65.600,182.757 65.600 C 182.560 65.600,182.400 65.941,182.400 66.357 C 182.400 66.774,182.130 67.218,181.800 67.345 C 181.470 67.471,181.200 67.941,181.200 68.387 C 181.200 68.834,181.020 69.200,180.800 69.200 C 180.580 69.200,180.400 69.470,180.400 69.800 C 180.400 70.130,180.240 70.400,180.043 70.400 C 179.847 70.400,179.574 70.850,179.436 71.400 C 179.298 71.950,179.008 72.400,178.792 72.400 C 178.577 72.400,178.400 72.670,178.400 73.000 C 178.400 73.330,178.243 73.600,178.050 73.600 C 177.857 73.600,177.587 74.164,177.449 74.854 C 177.311 75.543,176.851 76.409,176.426 76.777 C 176.001 77.146,175.532 77.932,175.383 78.524 C 175.235 79.116,174.953 79.600,174.757 79.600 C 174.560 79.600,174.400 79.941,174.400 80.357 C 174.400 80.774,174.130 81.218,173.800 81.345 C 173.470 81.471,173.200 81.941,173.200 82.387 C 173.200 82.834,173.020 83.200,172.800 83.200 C 172.580 83.200,172.400 83.470,172.400 83.800 C 172.400 84.130,172.240 84.400,172.043 84.400 C 171.847 84.400,171.574 84.850,171.436 85.400 C 171.298 85.950,171.008 86.400,170.792 86.400 C 170.577 86.400,170.400 86.697,170.400 87.060 C 170.400 87.668,168.574 87.703,147.134 87.505 L 123.868 87.291 67.534 143.625 C 36.550 174.609,11.200 200.139,11.200 200.359 C 11.200 200.579,36.589 226.149,67.619 257.180 L 124.039 313.600 130.419 313.600 C 134.406 313.600,136.800 313.450,136.800 313.200 C 136.800 312.940,142.667 312.800,153.600 312.800 C 169.817 312.800,170.400 312.826,170.400 313.557 C 170.400 313.974,170.670 314.418,171.000 314.545 C 171.330 314.671,171.600 315.141,171.600 315.587 C 171.600 316.034,171.780 316.400,172.000 316.400 C 172.220 316.400,172.400 316.670,172.400 317.000 C 172.400 317.330,172.560 317.600,172.757 317.600 C 172.953 317.600,173.226 318.050,173.364 318.600 C 173.502 319.150,173.792 319.600,174.008 319.600 C 174.223 319.600,174.400 319.870,174.400 320.200 C 174.400 320.530,174.558 320.800,174.750 320.800 C 174.942 320.800,175.213 321.364,175.351 322.054 C 175.489 322.743,175.949 323.609,176.374 323.977 C 176.799 324.346,177.268 325.132,177.417 325.724 C 177.565 326.316,177.847 326.800,178.043 326.800 C 178.240 326.800,178.400 327.141,178.400 327.557 C 178.400 327.974,178.670 328.418,179.000 328.545 C 179.330 328.671,179.600 329.141,179.600 329.587 C 179.600 330.034,179.780 330.400,180.000 330.400 C 180.220 330.400,180.400 330.670,180.400 331.000 C 180.400 331.330,180.560 331.600,180.757 331.600 C 180.953 331.600,181.226 332.050,181.364 332.600 C 181.502 333.150,181.792 333.600,182.008 333.600 C 182.223 333.600,182.400 333.870,182.400 334.200 C 182.400 334.530,182.558 334.800,182.750 334.800 C 182.942 334.800,183.210 335.350,183.345 336.023 C 183.590 337.248,184.529 338.537,184.904 338.162 C 185.014 338.053,185.224 338.601,185.370 339.381 C 185.516 340.162,185.808 340.800,186.018 340.800 C 186.228 340.800,186.400 341.160,186.400 341.600 C 186.400 342.040,186.560 342.400,186.757 342.400 C 186.953 342.400,187.226 342.850,187.364 343.400 C 187.502 343.950,187.792 344.400,188.008 344.400 C 188.223 344.400,188.400 344.670,188.400 345.000 C 188.400 345.330,188.572 345.600,188.782 345.600 C 188.992 345.600,189.281 346.224,189.424 346.986 C 189.578 347.809,189.975 348.465,190.400 348.600 C 190.825 348.735,191.222 349.391,191.376 350.214 C 191.519 350.976,191.808 351.600,192.018 351.600 C 192.228 351.600,192.400 351.870,192.400 352.200 C 192.400 352.530,192.670 352.800,193.000 352.800 C 193.330 352.800,193.600 352.980,193.600 353.200 C 193.600 353.420,194.230 353.600,195.000 353.600 C 195.770 353.600,196.400 353.771,196.400 353.980 C 196.400 354.189,197.480 354.482,198.800 354.632 C 200.120 354.781,201.200 355.060,201.200 355.252 C 201.200 355.443,201.740 355.600,202.400 355.600 C 203.060 355.600,203.600 355.801,203.600 356.047 C 203.600 356.296,203.953 356.401,204.400 356.284 C 204.839 356.169,205.300 356.238,205.423 356.438 C 205.546 356.637,206.267 356.800,207.024 356.800 C 207.781 356.800,208.400 356.980,208.400 357.200 C 208.400 357.420,209.030 357.600,209.800 357.600 C 210.570 357.600,211.200 357.759,211.200 357.954 C 211.200 358.149,212.190 358.432,213.400 358.583 C 214.610 358.734,215.600 359.025,215.600 359.229 C 215.600 359.433,216.230 359.600,217.000 359.600 C 217.770 359.600,218.400 359.759,218.400 359.953 C 218.400 360.148,219.570 360.432,221.000 360.585 C 222.430 360.738,223.600 361.029,223.600 361.232 C 223.600 361.434,224.050 361.600,224.600 361.600 C 225.150 361.600,225.600 361.762,225.600 361.959 C 225.600 362.157,226.860 362.445,228.400 362.600 C 229.940 362.755,231.200 363.043,231.200 363.241 C 231.200 363.438,231.740 363.600,232.400 363.600 C 233.060 363.600,233.600 363.801,233.600 364.047 C 233.600 364.296,233.953 364.401,234.400 364.284 C 234.839 364.169,235.300 364.238,235.423 364.438 C 235.546 364.637,236.267 364.800,237.024 364.800 C 237.781 364.800,238.400 364.980,238.400 365.200 C 238.400 365.420,239.030 365.600,239.800 365.600 C 240.570 365.600,241.200 365.759,241.200 365.954 C 241.200 366.149,242.190 366.432,243.400 366.583 C 244.610 366.734,245.600 367.025,245.600 367.229 C 245.600 367.433,246.230 367.600,247.000 367.600 C 247.770 367.600,248.400 367.759,248.400 367.953 C 248.400 368.148,249.570 368.432,251.000 368.585 C 252.430 368.738,253.600 369.029,253.600 369.232 C 253.600 369.434,254.050 369.600,254.600 369.600 C 255.150 369.600,255.600 369.762,255.600 369.959 C 255.600 370.157,256.860 370.445,258.400 370.600 C 259.940 370.755,261.200 371.043,261.200 371.241 C 261.200 371.438,261.740 371.600,262.400 371.600 C 263.060 371.600,263.600 371.771,263.600 371.980 C 263.600 372.189,264.680 372.482,266.000 372.632 C 267.320 372.781,268.400 373.060,268.400 373.252 C 268.400 373.443,269.030 373.600,269.800 373.600 C 270.570 373.600,271.200 373.759,271.200 373.954 C 271.200 374.149,272.190 374.432,273.400 374.583 C 274.610 374.734,275.600 375.025,275.600 375.229 C 275.600 375.433,276.230 375.600,277.000 375.600 C 277.770 375.600,278.400 375.759,278.400 375.953 C 278.400 376.148,279.570 376.432,281.000 376.585 C 282.430 376.738,283.600 377.029,283.600 377.232 C 283.600 377.434,284.050 377.600,284.600 377.600 C 285.150 377.600,285.600 377.762,285.600 377.959 C 285.600 378.157,286.860 378.445,288.400 378.600 C 289.940 378.755,291.200 379.043,291.200 379.241 C 291.200 379.438,291.740 379.600,292.400 379.600 C 293.060 379.600,293.600 379.771,293.600 379.980 C 293.600 380.189,294.680 380.482,296.000 380.632 C 297.320 380.781,298.400 381.060,298.400 381.252 C 298.400 381.443,299.030 381.600,299.800 381.600 C 300.570 381.600,301.200 381.767,301.200 381.971 C 301.200 382.175,302.190 382.466,303.400 382.617 C 304.610 382.768,305.600 383.051,305.600 383.246 C 305.600 383.441,306.230 383.600,307.000 383.600 C 307.770 383.600,308.400 383.757,308.400 383.948 C 308.400 384.140,309.480 384.419,310.800 384.568 C 312.120 384.718,313.200 385.011,313.200 385.220 C 313.200 385.429,313.740 385.600,314.400 385.600 C 315.060 385.600,315.600 385.762,315.600 385.959 C 315.600 386.157,316.860 386.445,318.400 386.600 C 319.940 386.755,321.200 387.043,321.200 387.241 C 321.200 387.438,321.650 387.600,322.200 387.600 C 322.750 387.600,323.200 387.766,323.200 387.968 C 323.200 388.171,324.370 388.462,325.800 388.615 C 327.230 388.768,328.400 389.052,328.400 389.247 C 328.400 389.441,329.030 389.600,329.800 389.600 C 330.570 389.600,331.200 389.767,331.200 389.971 C 331.200 390.175,332.190 390.466,333.400 390.617 C 334.610 390.768,335.600 391.051,335.600 391.246 C 335.600 391.441,336.230 391.600,337.000 391.600 C 337.770 391.600,338.400 391.757,338.400 391.948 C 338.400 392.140,339.480 392.419,340.800 392.568 C 342.120 392.718,343.200 393.011,343.200 393.220 C 343.200 393.429,343.740 393.600,344.400 393.600 C 345.060 393.600,345.600 393.780,345.600 394.000 C 345.600 394.220,346.224 394.400,346.986 394.400 C 348.348 394.400,348.377 394.364,348.638 392.400 C 348.784 391.300,349.060 390.400,349.252 390.400 C 349.443 390.400,349.600 389.950,349.600 389.400 C 349.600 388.850,349.762 388.400,349.959 388.400 C 350.157 388.400,350.445 387.140,350.600 385.600 C 350.755 384.060,351.043 382.800,351.241 382.800 C 351.438 382.800,351.600 382.350,351.600 381.800 C 351.600 381.250,351.766 380.800,351.968 380.800 C 352.171 380.800,352.462 379.630,352.615 378.200 C 352.768 376.770,353.052 375.600,353.247 375.600 C 353.441 375.600,353.600 374.970,353.600 374.200 C 353.600 373.430,353.767 372.800,353.971 372.800 C 354.175 372.800,354.466 371.810,354.617 370.600 C 354.768 369.390,355.051 368.400,355.246 368.400 C 355.441 368.400,355.600 367.770,355.600 367.000 C 355.600 366.230,355.771 365.600,355.980 365.600 C 356.189 365.600,356.482 364.520,356.632 363.200 C 356.781 361.880,357.060 360.800,357.252 360.800 C 357.443 360.800,357.600 360.260,357.600 359.600 C 357.600 358.940,357.757 358.400,357.948 358.400 C 358.140 358.400,358.419 357.320,358.568 356.000 C 358.718 354.680,359.011 353.600,359.220 353.600 C 359.429 353.600,359.600 352.970,359.600 352.200 C 359.600 351.430,359.766 350.800,359.968 350.800 C 360.171 350.800,360.462 349.630,360.615 348.200 C 360.768 346.770,361.052 345.600,361.247 345.600 C 361.441 345.600,361.600 345.150,361.600 344.600 C 361.600 344.050,361.759 343.600,361.953 343.600 C 362.148 343.600,362.432 342.430,362.585 341.000 C 362.738 339.570,363.029 338.400,363.232 338.400 C 363.434 338.400,363.600 337.950,363.600 337.400 C 363.600 336.850,363.762 336.400,363.959 336.400 C 364.157 336.400,364.445 335.140,364.600 333.600 C 364.755 332.060,365.043 330.800,365.241 330.800 C 365.438 330.800,365.600 330.260,365.600 329.600 C 365.600 328.940,365.771 328.400,365.980 328.400 C 366.189 328.400,366.482 327.320,366.632 326.000 C 366.781 324.680,367.060 323.600,367.252 323.600 C 367.443 323.600,367.600 322.970,367.600 322.200 C 367.600 321.430,367.767 320.800,367.971 320.800 C 368.175 320.800,368.466 319.810,368.617 318.600 C 368.768 317.390,369.051 316.400,369.246 316.400 C 369.441 316.400,369.600 315.770,369.600 315.000 C 369.600 314.230,369.757 313.600,369.948 313.600 C 370.140 313.600,370.419 312.520,370.568 311.200 C 370.718 309.880,371.011 308.800,371.220 308.800 C 371.429 308.800,371.600 308.260,371.600 307.600 C 371.600 306.940,371.757 306.400,371.948 306.400 C 372.140 306.400,372.419 305.320,372.568 304.000 C 372.718 302.680,373.011 301.600,373.220 301.600 C 373.429 301.600,373.600 300.970,373.600 300.200 C 373.600 299.430,373.766 298.800,373.968 298.800 C 374.171 298.800,374.462 297.630,374.615 296.200 C 374.768 294.770,375.052 293.600,375.247 293.600 C 375.441 293.600,375.600 293.150,375.600 292.600 C 375.600 292.050,375.759 291.600,375.953 291.600 C 376.148 291.600,376.432 290.430,376.585 289.000 C 376.738 287.570,377.029 286.400,377.232 286.400 C 377.434 286.400,377.600 285.950,377.600 285.400 C 377.600 284.850,377.762 284.400,377.959 284.400 C 378.157 284.400,378.445 283.140,378.600 281.600 C 378.755 280.060,379.043 278.800,379.241 278.800 C 379.438 278.800,379.600 278.260,379.600 277.600 C 379.600 276.940,379.801 276.400,380.047 276.400 C 380.296 276.400,380.401 276.047,380.284 275.600 C 380.169 275.161,380.238 274.700,380.438 274.577 C 380.637 274.454,380.800 273.733,380.800 272.976 C 380.800 272.219,380.980 271.600,381.200 271.600 C 381.420 271.600,381.600 270.970,381.600 270.200 C 381.600 269.430,381.759 268.800,381.954 268.800 C 382.149 268.800,382.432 267.810,382.583 266.600 C 382.734 265.390,383.025 264.400,383.229 264.400 C 383.433 264.400,383.600 263.770,383.600 263.000 C 383.600 262.230,383.757 261.600,383.948 261.600 C 384.140 261.600,384.419 260.520,384.568 259.200 C 384.718 257.880,385.011 256.800,385.220 256.800 C 385.429 256.800,385.600 256.260,385.600 255.600 C 385.600 254.940,385.762 254.400,385.959 254.400 C 386.157 254.400,386.445 253.140,386.600 251.600 C 386.755 250.060,387.043 248.800,387.241 248.800 C 387.438 248.800,387.600 248.350,387.600 247.800 C 387.600 247.250,387.766 246.800,387.968 246.800 C 388.171 246.800,388.462 245.630,388.615 244.200 C 388.768 242.770,389.052 241.600,389.247 241.600 C 389.441 241.600,389.600 241.060,389.600 240.400 C 389.600 239.740,389.420 239.200,389.200 239.200 C 388.980 239.200,388.800 238.834,388.800 238.387 C 388.800 237.941,388.530 237.471,388.200 237.345 C 387.870 237.218,387.600 236.774,387.600 236.357 C 387.600 235.941,387.440 235.600,387.243 235.600 C 387.047 235.600,386.765 235.116,386.617 234.524 C 386.468 233.932,385.999 233.146,385.574 232.777 C 385.149 232.409,384.690 231.549,384.553 230.866 C 384.417 230.183,383.988 229.523,383.600 229.400 C 383.212 229.277,382.783 228.617,382.647 227.934 C 382.510 227.251,382.051 226.391,381.626 226.023 C 381.201 225.654,380.732 224.868,380.583 224.276 C 380.435 223.684,380.153 223.200,379.957 223.200 C 379.760 223.200,379.600 222.859,379.600 222.443 C 379.600 222.026,379.330 221.582,379.000 221.455 C 378.670 221.329,378.400 220.859,378.400 220.413 C 378.400 219.966,378.220 219.600,378.000 219.600 C 377.780 219.600,377.600 219.330,377.600 219.000 C 377.600 218.670,377.423 218.400,377.208 218.400 C 376.992 218.400,376.702 217.950,376.564 217.400 C 376.426 216.850,376.153 216.400,375.957 216.400 C 375.760 216.400,375.600 216.130,375.600 215.800 C 375.600 215.470,375.423 215.200,375.208 215.200 C 374.992 215.200,374.702 214.750,374.564 214.200 C 374.426 213.650,374.153 213.200,373.957 213.200 C 373.760 213.200,373.600 212.859,373.600 212.443 C 373.600 212.026,373.330 211.582,373.000 211.455 C 372.670 211.329,372.400 210.859,372.400 210.413 C 372.400 209.966,372.220 209.600,372.000 209.600 C 371.780 209.600,371.600 209.330,371.600 209.000 C 371.600 208.670,371.440 208.400,371.243 208.400 C 371.047 208.400,370.774 207.950,370.636 207.400 C 370.498 206.850,370.208 206.400,369.992 206.400 C 369.777 206.400,369.600 206.130,369.600 205.800 C 369.600 205.470,369.420 205.200,369.200 205.200 C 368.980 205.200,368.800 204.834,368.800 204.387 C 368.800 203.941,368.530 203.471,368.200 203.345 C 367.870 203.218,367.600 202.774,367.600 202.357 C 367.600 201.941,367.420 201.600,367.200 201.600 C 366.980 201.600,366.800 200.970,366.800 200.200 C 366.800 199.430,366.980 198.800,367.200 198.800 C 367.420 198.800,367.600 198.530,367.600 198.200 C 367.600 197.870,367.777 197.600,367.992 197.600 C 368.208 197.600,368.498 197.150,368.636 196.600 C 368.774 196.050,369.047 195.600,369.243 195.600 C 369.440 195.600,369.600 195.330,369.600 195.000 C 369.600 194.670,369.777 194.400,369.992 194.400 C 370.208 194.400,370.498 193.950,370.636 193.400 C 370.774 192.850,371.047 192.400,371.243 192.400 C 371.440 192.400,371.600 192.059,371.600 191.643 C 371.600 191.226,371.870 190.782,372.200 190.655 C 372.530 190.529,372.800 190.059,372.800 189.613 C 372.800 189.166,372.980 188.800,373.200 188.800 C 373.420 188.800,373.600 188.530,373.600 188.200 C 373.600 187.870,373.760 187.600,373.957 187.600 C 374.153 187.600,374.426 187.150,374.564 186.600 C 374.702 186.050,374.992 185.600,375.208 185.600 C 375.423 185.600,375.600 185.330,375.600 185.000 C 375.600 184.670,375.780 184.400,376.000 184.400 C 376.220 184.400,376.400 184.034,376.400 183.587 C 376.400 183.141,376.670 182.671,377.000 182.545 C 377.330 182.418,377.600 181.974,377.600 181.557 C 377.600 181.141,377.760 180.800,377.957 180.800 C 378.153 180.800,378.426 180.350,378.564 179.800 C 378.702 179.250,378.992 178.800,379.208 178.800 C 379.423 178.800,379.600 178.530,379.600 178.200 C 379.600 177.870,379.772 177.600,379.982 177.600 C 380.192 177.600,380.481 176.976,380.624 176.214 C 380.777 175.396,381.175 174.735,381.594 174.602 C 381.985 174.478,382.416 173.818,382.553 173.134 C 382.690 172.451,383.135 171.602,383.544 171.246 C 383.952 170.891,384.427 170.150,384.600 169.600 C 384.773 169.050,385.248 168.309,385.656 167.954 C 386.065 167.598,386.511 166.743,386.649 166.054 C 386.787 165.364,387.058 164.800,387.250 164.800 C 387.443 164.800,387.600 164.530,387.600 164.200 C 387.600 163.870,387.791 163.600,388.024 163.600 C 388.257 163.600,388.336 163.420,388.200 163.200 C 388.064 162.980,388.143 162.800,388.376 162.800 C 388.609 162.800,388.800 162.530,388.800 162.200 C 388.800 161.870,388.980 161.600,389.200 161.600 C 389.420 161.600,389.600 161.060,389.600 160.400 C 389.600 159.740,389.438 159.200,389.241 159.200 C 389.043 159.200,388.755 157.940,388.600 156.400 C 388.445 154.860,388.157 153.600,387.959 153.600 C 387.762 153.600,387.600 153.150,387.600 152.600 C 387.600 152.050,387.434 151.600,387.232 151.600 C 387.029 151.600,386.738 150.430,386.585 149.000 C 386.432 147.570,386.148 146.400,385.953 146.400 C 385.759 146.400,385.600 145.770,385.600 145.000 C 385.600 144.230,385.433 143.600,385.229 143.600 C 385.025 143.600,384.734 142.610,384.583 141.400 C 384.432 140.190,384.149 139.200,383.954 139.200 C 383.759 139.200,383.600 138.570,383.600 137.800 C 383.600 137.030,383.429 136.400,383.220 136.400 C 383.011 136.400,382.718 135.320,382.568 134.000 C 382.419 132.680,382.140 131.600,381.948 131.600 C 381.757 131.600,381.600 131.060,381.600 130.400 C 381.600 129.740,381.443 129.200,381.252 129.200 C 381.060 129.200,380.781 128.120,380.632 126.800 C 380.482 125.480,380.189 124.400,379.980 124.400 C 379.771 124.400,379.600 123.770,379.600 123.000 C 379.600 122.230,379.441 121.600,379.246 121.600 C 379.051 121.600,378.768 120.610,378.617 119.400 C 378.466 118.190,378.175 117.200,377.971 117.200 C 377.767 117.200,377.600 116.570,377.600 115.800 C 377.600 115.030,377.441 114.400,377.247 114.400 C 377.052 114.400,376.768 113.230,376.615 111.800 C 376.462 110.370,376.171 109.200,375.968 109.200 C 375.766 109.200,375.600 108.750,375.600 108.200 C 375.600 107.650,375.438 107.200,375.241 107.200 C 375.043 107.200,374.755 105.940,374.600 104.400 C 374.445 102.860,374.157 101.600,373.959 101.600 C 373.762 101.600,373.600 101.060,373.600 100.400 C 373.600 99.740,373.429 99.200,373.220 99.200 C 373.011 99.200,372.718 98.120,372.568 96.800 C 372.419 95.480,372.140 94.400,371.948 94.400 C 371.757 94.400,371.600 93.770,371.600 93.000 C 371.600 92.230,371.433 91.600,371.229 91.600 C 371.025 91.600,370.734 90.610,370.583 89.400 C 370.432 88.190,370.149 87.200,369.954 87.200 C 369.759 87.200,369.600 86.570,369.600 85.800 C 369.600 85.030,369.420 84.400,369.200 84.400 C 368.980 84.400,368.800 83.781,368.800 83.024 C 368.800 82.267,368.637 81.546,368.438 81.423 C 368.238 81.300,368.169 80.839,368.284 80.400 C 368.401 79.953,368.296 79.600,368.047 79.600 C 367.801 79.600,367.600 79.060,367.600 78.400 C 367.600 77.740,367.443 77.200,367.252 77.200 C 367.060 77.200,366.781 76.120,366.632 74.800 C 366.482 73.480,366.189 72.400,365.980 72.400 C 365.771 72.400,365.600 71.770,365.600 71.000 C 365.600 70.230,365.434 69.600,365.232 69.600 C 365.029 69.600,364.738 68.430,364.585 67.000 C 364.432 65.570,364.148 64.400,363.953 64.400 C 363.759 64.400,363.600 63.950,363.600 63.400 C 363.600 62.850,363.441 62.400,363.247 62.400 C 363.052 62.400,362.768 61.230,362.615 59.800 C 362.462 58.370,362.171 57.200,361.968 57.200 C 361.766 57.200,361.600 56.750,361.600 56.200 C 361.600 55.650,361.438 55.200,361.241 55.200 C 361.043 55.200,360.755 53.940,360.600 52.400 C 360.445 50.860,360.157 49.600,359.959 49.600 C 359.762 49.600,359.600 49.060,359.600 48.400 C 359.600 47.740,359.429 47.200,359.220 47.200 C 359.011 47.200,358.718 46.120,358.568 44.800 C 358.419 43.480,358.140 42.400,357.948 42.400 C 357.757 42.400,357.600 41.770,357.600 41.000 C 357.600 40.230,357.441 39.600,357.246 39.600 C 357.051 39.600,356.768 38.610,356.617 37.400 C 356.466 36.190,356.175 35.200,355.971 35.200 C 355.767 35.200,355.600 34.570,355.600 33.800 C 355.600 33.030,355.443 32.400,355.252 32.400 C 355.060 32.400,354.781 31.320,354.632 30.000 C 354.482 28.680,354.189 27.600,353.980 27.600 C 353.771 27.600,353.600 27.060,353.600 26.400 C 353.600 25.740,353.438 25.200,353.241 25.200 C 353.043 25.200,352.755 23.940,352.600 22.400 C 352.445 20.860,352.157 19.600,351.959 19.600 C 351.762 19.600,351.600 19.150,351.600 18.600 C 351.600 18.050,351.434 17.600,351.232 17.600 C 351.029 17.600,350.738 16.430,350.585 15.000 C 350.432 13.570,350.148 12.400,349.953 12.400 C 349.759 12.400,349.600 11.950,349.600 11.400 C 349.600 10.850,349.420 10.400,349.200 10.400 C 348.980 10.400,348.798 9.905,348.795 9.300 C 348.783 7.002,348.401 6.400,346.953 6.400 C 346.209 6.400,345.600 6.559,345.600 6.754 M290.400 66.357 C 290.400 66.774,290.130 67.218,289.800 67.345 C 289.470 67.471,289.200 67.941,289.200 68.387 C 289.200 68.834,289.020 69.200,288.800 69.200 C 288.580 69.200,288.400 69.470,288.400 69.800 C 288.400 70.130,288.240 70.400,288.043 70.400 C 287.847 70.400,287.574 70.850,287.436 71.400 C 287.298 71.950,287.008 72.400,286.792 72.400 C 286.577 72.400,286.400 72.670,286.400 73.000 C 286.400 73.330,286.220 73.600,286.000 73.600 C 285.780 73.600,285.600 73.966,285.600 74.413 C 285.600 74.859,285.330 75.329,285.000 75.455 C 284.670 75.582,284.400 76.026,284.400 76.443 C 284.400 76.859,284.240 77.200,284.043 77.200 C 283.847 77.200,283.565 77.684,283.417 78.276 C 283.268 78.868,282.799 79.654,282.374 80.023 C 281.949 80.391,281.489 81.257,281.351 81.946 C 281.213 82.636,280.943 83.200,280.750 83.200 C 280.558 83.200,280.400 83.470,280.400 83.800 C 280.400 84.130,280.223 84.400,280.008 84.400 C 279.792 84.400,279.502 84.850,279.364 85.400 C 279.226 85.950,278.953 86.400,278.757 86.400 C 278.560 86.400,278.400 86.670,278.400 87.000 C 278.400 87.330,278.223 87.600,278.008 87.600 C 277.792 87.600,277.502 88.050,277.364 88.600 C 277.226 89.150,276.953 89.600,276.757 89.600 C 276.560 89.600,276.400 89.960,276.400 90.400 C 276.400 90.840,276.240 91.200,276.043 91.200 C 275.847 91.200,275.574 91.650,275.436 92.200 C 275.298 92.750,275.008 93.200,274.792 93.200 C 274.577 93.200,274.400 93.470,274.400 93.800 C 274.400 94.130,274.228 94.400,274.018 94.400 C 273.808 94.400,273.519 95.024,273.376 95.786 C 273.223 96.604,272.825 97.265,272.406 97.398 C 272.015 97.522,271.584 98.182,271.447 98.866 C 271.310 99.549,270.851 100.409,270.426 100.777 C 270.001 101.146,269.532 101.932,269.383 102.524 C 269.235 103.116,268.953 103.600,268.757 103.600 C 268.560 103.600,268.400 103.941,268.400 104.357 C 268.400 104.774,268.130 105.218,267.800 105.345 C 267.470 105.471,267.200 105.941,267.200 106.387 C 267.200 106.834,267.020 107.200,266.800 107.200 C 266.580 107.200,266.400 107.470,266.400 107.800 C 266.400 108.130,266.240 108.400,266.043 108.400 C 265.847 108.400,265.574 108.850,265.436 109.400 C 265.298 109.950,265.008 110.400,264.792 110.400 C 264.577 110.400,264.400 110.670,264.400 111.000 C 264.400 111.330,264.220 111.600,264.000 111.600 C 263.780 111.600,263.600 111.966,263.600 112.413 C 263.600 112.859,263.330 113.329,263.000 113.455 C 262.670 113.582,262.400 114.026,262.400 114.443 C 262.400 114.859,262.240 115.200,262.043 115.200 C 261.847 115.200,261.565 115.684,261.417 116.276 C 261.268 116.868,260.799 117.654,260.374 118.023 C 259.949 118.391,259.489 119.257,259.351 119.946 C 259.213 120.636,258.943 121.200,258.750 121.200 C 258.558 121.200,258.400 121.470,258.400 121.800 C 258.400 122.130,258.223 122.400,258.008 122.400 C 257.792 122.400,257.502 122.850,257.364 123.400 C 257.226 123.950,256.953 124.400,256.757 124.400 C 256.560 124.400,256.400 124.670,256.400 125.000 C 256.400 125.330,256.201 125.600,255.957 125.600 C 255.714 125.600,255.622 125.879,255.753 126.221 C 255.889 126.577,255.822 126.737,255.595 126.597 C 255.378 126.463,255.200 126.633,255.200 126.976 C 255.200 127.319,255.020 127.600,254.800 127.600 C 254.580 127.600,254.400 127.960,254.400 128.400 C 254.400 128.840,254.240 129.200,254.043 129.200 C 253.847 129.200,253.574 129.650,253.436 130.200 C 253.298 130.750,253.008 131.200,252.792 131.200 C 252.577 131.200,252.400 131.470,252.400 131.800 C 252.400 132.130,252.228 132.400,252.018 132.400 C 251.808 132.400,251.519 133.024,251.376 133.786 C 251.223 134.604,250.825 135.265,250.406 135.398 C 250.015 135.522,249.584 136.182,249.447 136.866 C 249.310 137.549,248.851 138.409,248.426 138.777 C 248.001 139.146,247.532 139.932,247.383 140.524 C 247.235 141.116,246.953 141.600,246.757 141.600 C 246.560 141.600,246.400 141.941,246.400 142.357 C 246.400 142.774,246.130 143.218,245.800 143.345 C 245.470 143.471,245.200 143.941,245.200 144.387 C 245.200 144.834,245.020 145.200,244.800 145.200 C 244.580 145.200,244.400 145.470,244.400 145.800 C 244.400 146.130,244.240 146.400,244.043 146.400 C 243.847 146.400,243.574 146.850,243.436 147.400 C 243.298 147.950,243.008 148.400,242.792 148.400 C 242.577 148.400,242.400 148.670,242.400 149.000 C 242.400 149.330,242.220 149.600,242.000 149.600 C 241.780 149.600,241.600 149.966,241.600 150.413 C 241.600 150.859,241.330 151.329,241.000 151.455 C 240.670 151.582,240.400 152.026,240.400 152.443 C 240.400 152.859,240.240 153.200,240.043 153.200 C 239.847 153.200,239.565 153.684,239.417 154.276 C 239.268 154.868,238.799 155.654,238.374 156.023 C 237.949 156.391,237.489 157.257,237.351 157.946 C 237.213 158.636,236.943 159.200,236.750 159.200 C 236.558 159.200,236.400 159.470,236.400 159.800 C 236.400 160.130,236.223 160.400,236.008 160.400 C 235.792 160.400,235.502 160.850,235.364 161.400 C 235.226 161.950,234.953 162.400,234.757 162.400 C 234.560 162.400,234.400 162.670,234.400 163.000 C 234.400 163.330,234.201 163.600,233.957 163.600 C 233.714 163.600,233.622 163.879,233.753 164.221 C 233.889 164.577,233.822 164.737,233.595 164.597 C 233.378 164.463,233.200 164.633,233.200 164.976 C 233.200 165.319,233.020 165.600,232.800 165.600 C 232.580 165.600,232.400 165.960,232.400 166.400 C 232.400 166.840,232.240 167.200,232.043 167.200 C 231.847 167.200,231.574 167.650,231.436 168.200 C 231.298 168.750,231.008 169.200,230.792 169.200 C 230.577 169.200,230.400 169.470,230.400 169.800 C 230.400 170.130,230.228 170.400,230.018 170.400 C 229.808 170.400,229.519 171.024,229.376 171.786 C 229.223 172.604,228.825 173.265,228.406 173.398 C 228.015 173.522,227.584 174.182,227.447 174.866 C 227.310 175.549,226.851 176.409,226.426 176.777 C 226.001 177.146,225.532 177.932,225.383 178.524 C 225.235 179.116,224.953 179.600,224.757 179.600 C 224.560 179.600,224.400 179.960,224.400 180.400 C 224.400 181.197,224.142 181.200,157.500 181.173 C 109.097 181.153,90.849 181.026,91.500 180.712 C 91.995 180.473,92.400 180.024,92.400 179.714 C 92.400 179.404,100.950 170.605,111.400 160.160 C 121.850 149.716,130.400 141.005,130.400 140.803 C 130.400 140.602,139.040 131.799,149.600 121.241 C 160.160 110.684,168.800 101.778,168.800 101.450 C 168.800 101.122,169.151 100.743,169.580 100.606 C 170.008 100.470,170.467 100.017,170.600 99.600 C 170.733 99.183,171.183 98.733,171.600 98.600 C 172.017 98.467,172.467 98.017,172.600 97.600 C 172.733 97.183,173.192 96.730,173.620 96.594 C 174.049 96.457,174.400 96.178,174.400 95.973 C 174.400 95.768,174.670 95.600,175.000 95.600 C 175.330 95.600,175.600 95.443,175.600 95.251 C 175.600 94.873,178.563 94.235,179.700 94.368 C 180.085 94.413,180.400 94.259,180.400 94.025 C 180.400 93.791,180.940 93.600,181.600 93.600 C 182.260 93.600,182.800 93.438,182.800 93.241 C 182.800 93.043,184.060 92.755,185.600 92.600 C 187.140 92.445,188.400 92.157,188.400 91.959 C 188.400 91.762,188.940 91.600,189.600 91.600 C 190.260 91.600,190.800 91.438,190.800 91.241 C 190.800 91.043,192.060 90.755,193.600 90.600 C 195.140 90.445,196.400 90.157,196.400 89.959 C 196.400 89.762,196.940 89.600,197.600 89.600 C 198.260 89.600,198.800 89.443,198.800 89.252 C 198.800 89.060,199.880 88.781,201.200 88.632 C 202.520 88.482,203.600 88.189,203.600 87.980 C 203.600 87.771,204.230 87.600,205.000 87.600 C 205.770 87.600,206.400 87.434,206.400 87.232 C 206.400 87.029,207.570 86.738,209.000 86.585 C 210.430 86.432,211.600 86.148,211.600 85.953 C 211.600 85.759,212.230 85.600,213.000 85.600 C 213.770 85.600,214.400 85.434,214.400 85.232 C 214.400 85.029,215.570 84.738,217.000 84.585 C 218.430 84.432,219.600 84.148,219.600 83.953 C 219.600 83.759,220.230 83.600,221.000 83.600 C 221.770 83.600,222.400 83.440,222.400 83.244 C 222.400 82.859,224.716 82.384,226.500 82.402 C 227.105 82.408,227.600 82.230,227.600 82.006 C 227.600 81.783,228.050 81.600,228.600 81.600 C 229.150 81.600,229.600 81.441,229.600 81.247 C 229.600 81.052,230.770 80.768,232.200 80.615 C 233.630 80.462,234.800 80.171,234.800 79.968 C 234.800 79.766,235.430 79.600,236.200 79.600 C 236.970 79.600,237.600 79.441,237.600 79.247 C 237.600 79.052,238.770 78.768,240.200 78.615 C 241.630 78.462,242.800 78.171,242.800 77.968 C 242.800 77.766,243.430 77.600,244.200 77.600 C 244.970 77.600,245.600 77.441,245.600 77.247 C 245.600 77.052,246.770 76.768,248.200 76.615 C 249.630 76.462,250.800 76.171,250.800 75.968 C 250.800 75.766,251.430 75.600,252.200 75.600 C 252.970 75.600,253.600 75.443,253.600 75.251 C 253.600 74.873,256.563 74.235,257.700 74.368 C 258.085 74.413,258.400 74.259,258.400 74.025 C 258.400 73.791,258.940 73.600,259.600 73.600 C 260.260 73.600,260.800 73.438,260.800 73.241 C 260.800 73.043,262.060 72.755,263.600 72.600 C 265.140 72.445,266.400 72.157,266.400 71.959 C 266.400 71.762,266.940 71.600,267.600 71.600 C 268.260 71.600,268.800 71.438,268.800 71.241 C 268.800 71.043,270.060 70.755,271.600 70.600 C 273.140 70.445,274.400 70.157,274.400 69.959 C 274.400 69.762,274.940 69.600,275.600 69.600 C 276.260 69.600,276.800 69.438,276.800 69.241 C 276.800 69.043,278.060 68.755,279.600 68.600 C 281.140 68.445,282.400 68.157,282.400 67.959 C 282.400 67.762,282.850 67.600,283.400 67.600 C 283.950 67.600,284.400 67.434,284.400 67.232 C 284.400 67.029,285.570 66.738,287.000 66.585 C 288.430 66.432,289.600 66.148,289.600 65.953 C 289.600 65.759,289.780 65.600,290.000 65.600 C 290.220 65.600,290.400 65.941,290.400 66.357 M325.491 86.400 C 325.616 86.730,325.679 87.405,325.631 87.900 C 325.582 88.395,325.736 88.800,325.971 88.800 C 326.207 88.800,326.400 89.250,326.400 89.800 C 326.400 90.350,326.562 90.800,326.759 90.800 C 326.957 90.800,327.245 92.060,327.400 93.600 C 327.555 95.140,327.843 96.400,328.041 96.400 C 328.238 96.400,328.400 96.850,328.400 97.400 C 328.400 97.950,328.559 98.400,328.754 98.400 C 328.949 98.400,329.232 99.390,329.383 100.600 C 329.534 101.810,329.825 102.800,330.029 102.800 C 330.233 102.800,330.400 103.430,330.400 104.200 C 330.400 104.970,330.571 105.600,330.780 105.600 C 330.989 105.600,331.282 106.680,331.432 108.000 C 331.581 109.320,331.860 110.400,332.052 110.400 C 332.243 110.400,332.400 110.940,332.400 111.600 C 332.400 112.260,332.571 112.800,332.780 112.800 C 332.989 112.800,333.282 113.880,333.432 115.200 C 333.581 116.520,333.860 117.600,334.052 117.600 C 334.243 117.600,334.400 118.050,334.400 118.600 C 334.400 119.150,334.557 119.600,334.748 119.600 C 334.940 119.600,335.219 120.680,335.368 122.000 C 335.518 123.320,335.811 124.400,336.020 124.400 C 336.229 124.400,336.400 124.940,336.400 125.600 C 336.400 126.260,336.557 126.800,336.748 126.800 C 336.940 126.800,337.219 127.880,337.368 129.200 C 337.518 130.520,337.811 131.600,338.020 131.600 C 338.229 131.600,338.400 132.230,338.400 133.000 C 338.400 133.770,338.580 134.400,338.800 134.400 C 339.020 134.400,339.200 134.839,339.200 135.376 C 339.200 135.913,339.356 136.449,339.546 136.567 C 339.737 136.685,339.806 137.235,339.700 137.790 C 339.587 138.382,339.692 138.800,339.953 138.800 C 340.199 138.800,340.400 139.250,340.400 139.800 C 340.400 140.350,340.562 140.800,340.759 140.800 C 340.957 140.800,341.245 142.060,341.400 143.600 C 341.555 145.140,341.843 146.400,342.041 146.400 C 342.238 146.400,342.400 146.850,342.400 147.400 C 342.400 147.950,342.559 148.400,342.754 148.400 C 342.949 148.400,343.232 149.390,343.383 150.600 C 343.534 151.810,343.825 152.800,344.029 152.800 C 344.233 152.800,344.400 153.430,344.400 154.200 C 344.400 154.970,344.557 155.600,344.748 155.600 C 344.940 155.600,345.219 156.680,345.368 158.000 C 345.518 159.320,345.811 160.400,346.020 160.400 C 346.229 160.400,346.400 160.940,346.400 161.600 C 346.400 162.260,346.571 162.800,346.780 162.800 C 346.989 162.800,347.282 163.880,347.432 165.200 C 347.581 166.520,347.860 167.600,348.052 167.600 C 348.243 167.600,348.400 168.050,348.400 168.600 C 348.400 169.150,348.559 169.600,348.753 169.600 C 348.948 169.600,349.232 170.770,349.385 172.200 C 349.538 173.630,349.829 174.800,350.032 174.800 C 350.234 174.800,350.400 175.250,350.400 175.800 C 350.400 176.350,350.557 176.800,350.748 176.800 C 350.940 176.800,351.219 177.880,351.368 179.200 C 351.518 180.520,351.811 181.600,352.020 181.600 C 352.229 181.600,352.400 182.230,352.400 183.000 C 352.400 183.770,352.580 184.400,352.800 184.400 C 353.020 184.400,353.200 184.839,353.200 185.376 C 353.200 185.913,353.356 186.449,353.546 186.567 C 353.737 186.685,353.806 187.235,353.700 187.790 C 353.587 188.382,353.692 188.800,353.953 188.800 C 354.199 188.800,354.400 189.430,354.400 190.200 C 354.400 190.970,354.571 191.600,354.780 191.600 C 354.989 191.600,355.282 192.680,355.432 194.000 C 355.581 195.320,355.860 196.400,356.052 196.400 C 356.243 196.400,356.400 196.850,356.400 197.400 C 356.400 197.950,356.580 198.400,356.800 198.400 C 357.020 198.400,357.200 199.300,357.200 200.400 C 357.200 201.500,357.020 202.400,356.800 202.400 C 356.580 202.400,356.400 202.850,356.400 203.400 C 356.400 203.950,356.243 204.400,356.052 204.400 C 355.860 204.400,355.581 205.480,355.432 206.800 C 355.282 208.120,354.989 209.200,354.780 209.200 C 354.571 209.200,354.400 209.740,354.400 210.400 C 354.400 211.060,354.243 211.600,354.052 211.600 C 353.860 211.600,353.581 212.680,353.432 214.000 C 353.282 215.320,352.989 216.400,352.780 216.400 C 352.571 216.400,352.400 217.030,352.400 217.800 C 352.400 218.570,352.233 219.200,352.029 219.200 C 351.825 219.200,351.534 220.190,351.383 221.400 C 351.232 222.610,350.949 223.600,350.754 223.600 C 350.559 223.600,350.400 224.230,350.400 225.000 C 350.400 225.770,350.229 226.400,350.020 226.400 C 349.811 226.400,349.518 227.480,349.368 228.800 C 349.219 230.120,348.940 231.200,348.748 231.200 C 348.557 231.200,348.400 231.650,348.400 232.200 C 348.400 232.750,348.241 233.200,348.046 233.200 C 347.851 233.200,347.568 234.190,347.417 235.400 C 347.266 236.610,346.975 237.600,346.771 237.600 C 346.567 237.600,346.400 238.230,346.400 239.000 C 346.400 239.770,346.243 240.400,346.052 240.400 C 345.860 240.400,345.581 241.480,345.432 242.800 C 345.282 244.120,344.989 245.200,344.780 245.200 C 344.571 245.200,344.400 245.740,344.400 246.400 C 344.400 247.060,344.229 247.600,344.020 247.600 C 343.811 247.600,343.518 248.680,343.368 250.000 C 343.219 251.320,342.940 252.400,342.748 252.400 C 342.557 252.400,342.400 252.850,342.400 253.400 C 342.400 253.950,342.241 254.400,342.047 254.400 C 341.852 254.400,341.568 255.570,341.415 257.000 C 341.262 258.430,340.971 259.600,340.768 259.600 C 340.566 259.600,340.400 260.050,340.400 260.600 C 340.400 261.150,340.243 261.600,340.052 261.600 C 339.860 261.600,339.581 262.680,339.432 264.000 C 339.282 265.320,338.989 266.400,338.780 266.400 C 338.571 266.400,338.400 267.030,338.400 267.800 C 338.400 268.570,338.233 269.200,338.029 269.200 C 337.825 269.200,337.534 270.190,337.383 271.400 C 337.232 272.610,336.949 273.600,336.754 273.600 C 336.559 273.600,336.400 274.230,336.400 275.000 C 336.400 275.770,336.229 276.400,336.020 276.400 C 335.811 276.400,335.518 277.480,335.368 278.800 C 335.219 280.120,334.940 281.200,334.748 281.200 C 334.557 281.200,334.400 281.650,334.400 282.200 C 334.400 282.750,334.241 283.200,334.046 283.200 C 333.851 283.200,333.568 284.190,333.417 285.400 C 333.266 286.610,332.975 287.600,332.771 287.600 C 332.567 287.600,332.400 288.230,332.400 289.000 C 332.400 289.770,332.243 290.400,332.052 290.400 C 331.860 290.400,331.581 291.480,331.432 292.800 C 331.282 294.120,330.989 295.200,330.780 295.200 C 330.571 295.200,330.400 295.740,330.400 296.400 C 330.400 297.060,330.229 297.600,330.020 297.600 C 329.811 297.600,329.518 298.680,329.368 300.000 C 329.219 301.320,328.940 302.400,328.748 302.400 C 328.557 302.400,328.400 302.850,328.400 303.400 C 328.400 303.950,328.241 304.400,328.047 304.400 C 327.852 304.400,327.568 305.570,327.415 307.000 C 327.262 308.430,326.971 309.600,326.768 309.600 C 326.566 309.600,326.400 310.050,326.400 310.600 C 326.400 311.150,326.220 311.600,326.000 311.600 C 325.780 311.600,325.587 312.185,325.572 312.900 C 325.524 315.127,324.971 316.061,324.625 314.500 C 324.466 313.785,324.171 313.200,323.968 313.200 C 323.766 313.200,323.600 312.859,323.600 312.443 C 323.600 312.026,323.330 311.582,323.000 311.455 C 322.670 311.329,322.400 310.859,322.400 310.413 C 322.400 309.966,322.220 309.600,322.000 309.600 C 321.780 309.600,321.600 309.330,321.600 309.000 C 321.600 308.670,321.440 308.400,321.243 308.400 C 321.047 308.400,320.774 307.950,320.636 307.400 C 320.498 306.850,320.208 306.400,319.992 306.400 C 319.777 306.400,319.600 306.130,319.600 305.800 C 319.600 305.470,319.420 305.200,319.200 305.200 C 318.980 305.200,318.800 304.834,318.800 304.387 C 318.800 303.941,318.530 303.471,318.200 303.345 C 317.870 303.218,317.600 302.774,317.600 302.357 C 317.600 301.941,317.440 301.600,317.243 301.600 C 317.047 301.600,316.765 301.116,316.617 300.524 C 316.468 299.932,315.999 299.146,315.574 298.777 C 315.149 298.409,314.689 297.543,314.551 296.854 C 314.413 296.164,314.143 295.600,313.950 295.600 C 313.757 295.600,313.600 295.330,313.600 295.000 C 313.600 294.670,313.423 294.400,313.208 294.400 C 312.992 294.400,312.702 293.950,312.564 293.400 C 312.426 292.850,312.153 292.400,311.957 292.400 C 311.760 292.400,311.600 292.130,311.600 291.800 C 311.600 291.470,311.423 291.200,311.208 291.200 C 310.992 291.200,310.702 290.750,310.564 290.200 C 310.426 289.650,310.153 289.200,309.957 289.200 C 309.760 289.200,309.600 288.840,309.600 288.400 C 309.600 287.960,309.440 287.600,309.243 287.600 C 309.047 287.600,308.774 287.150,308.636 286.600 C 308.498 286.050,308.208 285.600,307.992 285.600 C 307.777 285.600,307.600 285.330,307.600 285.000 C 307.600 284.670,307.420 284.400,307.200 284.400 C 306.980 284.400,306.800 284.130,306.800 283.800 C 306.800 283.470,306.637 283.200,306.437 283.200 C 306.238 283.200,306.164 282.857,306.274 282.439 C 306.409 281.923,306.218 281.596,305.684 281.427 C 305.212 281.277,304.795 280.677,304.647 279.934 C 304.510 279.251,304.051 278.391,303.626 278.023 C 303.201 277.654,302.732 276.868,302.583 276.276 C 302.435 275.684,302.153 275.200,301.957 275.200 C 301.760 275.200,301.600 274.859,301.600 274.443 C 301.600 274.026,301.330 273.582,301.000 273.455 C 300.670 273.329,300.400 272.859,300.400 272.413 C 300.400 271.966,300.220 271.600,300.000 271.600 C 299.780 271.600,299.600 271.330,299.600 271.000 C 299.600 270.670,299.440 270.400,299.243 270.400 C 299.047 270.400,298.774 269.950,298.636 269.400 C 298.498 268.850,298.208 268.400,297.992 268.400 C 297.777 268.400,297.600 268.130,297.600 267.800 C 297.600 267.470,297.420 267.200,297.200 267.200 C 296.980 267.200,296.800 266.834,296.800 266.387 C 296.800 265.941,296.530 265.471,296.200 265.345 C 295.870 265.218,295.600 264.774,295.600 264.357 C 295.600 263.941,295.440 263.600,295.243 263.600 C 295.047 263.600,294.765 263.116,294.617 262.524 C 294.468 261.932,293.999 261.146,293.574 260.777 C 293.149 260.409,292.689 259.543,292.551 258.854 C 292.413 258.164,292.143 257.600,291.950 257.600 C 291.757 257.600,291.600 257.330,291.600 257.000 C 291.600 256.670,291.423 256.400,291.208 256.400 C 290.992 256.400,290.702 255.950,290.564 255.400 C 290.426 254.850,290.153 254.400,289.957 254.400 C 289.760 254.400,289.600 254.130,289.600 253.800 C 289.600 253.470,289.423 253.200,289.208 253.200 C 288.992 253.200,288.702 252.750,288.564 252.200 C 288.426 251.650,288.153 251.200,287.957 251.200 C 287.760 251.200,287.600 250.840,287.600 250.400 C 287.600 249.960,287.440 249.600,287.243 249.600 C 287.047 249.600,286.774 249.150,286.636 248.600 C 286.498 248.050,286.208 247.600,285.992 247.600 C 285.777 247.600,285.600 247.330,285.600 247.000 C 285.600 246.670,285.420 246.400,285.200 246.400 C 284.980 246.400,284.800 246.130,284.800 245.800 C 284.800 245.470,284.637 245.200,284.437 245.200 C 284.238 245.200,284.164 244.857,284.274 244.439 C 284.409 243.923,284.218 243.596,283.684 243.427 C 283.212 243.277,282.795 242.677,282.647 241.934 C 282.510 241.251,282.051 240.391,281.626 240.023 C 281.201 239.654,280.732 238.868,280.583 238.276 C 280.435 237.684,280.153 237.200,279.957 237.200 C 279.760 237.200,279.600 236.859,279.600 236.443 C 279.600 236.026,279.330 235.582,279.000 235.455 C 278.670 235.329,278.400 234.859,278.400 234.413 C 278.400 233.966,278.220 233.600,278.000 233.600 C 277.780 233.600,277.600 233.330,277.600 233.000 C 277.600 232.670,277.440 232.400,277.243 232.400 C 277.047 232.400,276.774 231.950,276.636 231.400 C 276.498 230.850,276.208 230.400,275.992 230.400 C 275.777 230.400,275.600 230.130,275.600 229.800 C 275.600 229.470,275.420 229.200,275.200 229.200 C 274.980 229.200,274.800 228.834,274.800 228.387 C 274.800 227.941,274.530 227.471,274.200 227.345 C 273.870 227.218,273.600 226.774,273.600 226.357 C 273.600 225.941,273.440 225.600,273.243 225.600 C 273.047 225.600,272.765 225.116,272.617 224.524 C 272.468 223.932,271.999 223.146,271.574 222.777 C 271.149 222.409,270.689 221.543,270.551 220.854 C 270.413 220.164,270.143 219.600,269.950 219.600 C 269.757 219.600,269.600 219.330,269.600 219.000 C 269.600 218.670,269.423 218.400,269.208 218.400 C 268.992 218.400,268.702 217.950,268.564 217.400 C 268.426 216.850,268.153 216.400,267.957 216.400 C 267.760 216.400,267.600 216.130,267.600 215.800 C 267.600 215.470,267.423 215.200,267.208 215.200 C 266.992 215.200,266.702 214.750,266.564 214.200 C 266.426 213.650,266.153 213.200,265.957 213.200 C 265.760 213.200,265.600 212.840,265.600 212.400 C 265.600 211.960,265.440 211.600,265.243 211.600 C 265.047 211.600,264.774 211.150,264.636 210.600 C 264.498 210.050,264.208 209.600,263.992 209.600 C 263.777 209.600,263.600 209.330,263.600 209.000 C 263.600 208.670,263.420 208.400,263.200 208.400 C 262.980 208.400,262.800 208.130,262.800 207.800 C 262.800 207.470,262.637 207.200,262.437 207.200 C 262.238 207.200,262.164 206.857,262.274 206.439 C 262.409 205.922,262.218 205.596,261.679 205.425 C 261.184 205.268,260.792 204.682,260.640 203.873 C 260.506 203.159,260.037 202.315,259.598 201.999 C 258.528 201.227,258.497 198.950,259.552 198.615 C 259.987 198.477,260.410 197.851,260.553 197.134 C 260.690 196.451,261.149 195.591,261.574 195.223 C 261.999 194.854,262.468 194.068,262.617 193.476 C 262.765 192.884,263.047 192.400,263.243 192.400 C 263.440 192.400,263.600 192.059,263.600 191.643 C 263.600 191.226,263.870 190.782,264.200 190.655 C 264.530 190.529,264.800 190.059,264.800 189.613 C 264.800 189.166,264.980 188.800,265.200 188.800 C 265.420 188.800,265.600 188.530,265.600 188.200 C 265.600 187.870,265.760 187.600,265.957 187.600 C 266.153 187.600,266.426 187.150,266.564 186.600 C 266.702 186.050,266.992 185.600,267.208 185.600 C 267.423 185.600,267.600 185.330,267.600 185.000 C 267.600 184.670,267.780 184.400,268.000 184.400 C 268.220 184.400,268.400 184.034,268.400 183.587 C 268.400 183.141,268.670 182.671,269.000 182.545 C 269.330 182.418,269.600 181.974,269.600 181.557 C 269.600 181.141,269.760 180.800,269.957 180.800 C 270.153 180.800,270.435 180.316,270.583 179.724 C 270.732 179.132,271.201 178.346,271.626 177.977 C 272.051 177.609,272.511 176.743,272.649 176.054 C 272.787 175.364,273.058 174.800,273.250 174.800 C 273.443 174.800,273.600 174.530,273.600 174.200 C 273.600 173.870,273.791 173.600,274.024 173.600 C 274.257 173.600,274.336 173.420,274.200 173.200 C 274.064 172.980,274.143 172.800,274.376 172.800 C 274.609 172.800,274.800 172.530,274.800 172.200 C 274.800 171.870,274.980 171.600,275.200 171.600 C 275.420 171.600,275.600 171.330,275.600 171.000 C 275.600 170.670,275.777 170.400,275.992 170.400 C 276.208 170.400,276.498 169.950,276.636 169.400 C 276.774 168.850,277.047 168.400,277.243 168.400 C 277.440 168.400,277.600 168.040,277.600 167.600 C 277.600 167.160,277.760 166.800,277.957 166.800 C 278.153 166.800,278.426 166.350,278.564 165.800 C 278.702 165.250,278.992 164.800,279.208 164.800 C 279.423 164.800,279.600 164.530,279.600 164.200 C 279.600 163.870,279.772 163.600,279.982 163.600 C 280.192 163.600,280.481 162.976,280.624 162.214 C 280.777 161.396,281.175 160.735,281.594 160.602 C 281.985 160.478,282.416 159.818,282.553 159.134 C 282.690 158.451,283.149 157.591,283.574 157.223 C 283.999 156.854,284.468 156.068,284.617 155.476 C 284.765 154.884,285.047 154.400,285.243 154.400 C 285.440 154.400,285.600 154.059,285.600 153.643 C 285.600 153.226,285.870 152.782,286.200 152.655 C 286.530 152.529,286.800 152.059,286.800 151.613 C 286.800 151.166,286.980 150.800,287.200 150.800 C 287.420 150.800,287.600 150.530,287.600 150.200 C 287.600 149.870,287.760 149.600,287.957 149.600 C 288.153 149.600,288.426 149.150,288.564 148.600 C 288.702 148.050,288.992 147.600,289.208 147.600 C 289.423 147.600,289.600 147.330,289.600 147.000 C 289.600 146.670,289.780 146.400,290.000 146.400 C 290.220 146.400,290.400 146.034,290.400 145.587 C 290.400 145.141,290.670 144.671,291.000 144.545 C 291.330 144.418,291.600 143.974,291.600 143.557 C 291.600 143.141,291.760 142.800,291.957 142.800 C 292.153 142.800,292.435 142.316,292.583 141.724 C 292.732 141.132,293.201 140.346,293.626 139.977 C 294.051 139.609,294.511 138.743,294.649 138.054 C 294.787 137.364,295.058 136.800,295.250 136.800 C 295.443 136.800,295.600 136.530,295.600 136.200 C 295.600 135.870,295.791 135.600,296.024 135.600 C 296.257 135.600,296.336 135.420,296.200 135.200 C 296.064 134.980,296.143 134.800,296.376 134.800 C 296.609 134.800,296.800 134.530,296.800 134.200 C 296.800 133.870,296.980 133.600,297.200 133.600 C 297.420 133.600,297.600 133.330,297.600 133.000 C 297.600 132.670,297.777 132.400,297.992 132.400 C 298.208 132.400,298.498 131.950,298.636 131.400 C 298.774 130.850,299.047 130.400,299.243 130.400 C 299.440 130.400,299.600 130.040,299.600 129.600 C 299.600 129.160,299.760 128.800,299.957 128.800 C 300.153 128.800,300.426 128.350,300.564 127.800 C 300.702 127.250,300.992 126.800,301.208 126.800 C 301.423 126.800,301.600 126.530,301.600 126.200 C 301.600 125.870,301.772 125.600,301.982 125.600 C 302.192 125.600,302.481 124.976,302.624 124.214 C 302.777 123.396,303.175 122.735,303.594 122.602 C 303.985 122.478,304.416 121.818,304.553 121.134 C 304.690 120.451,305.149 119.591,305.574 119.223 C 305.999 118.854,306.468 118.068,306.617 117.476 C 306.765 116.884,307.047 116.400,307.243 116.400 C 307.440 116.400,307.600 116.059,307.600 115.643 C 307.600 115.226,307.870 114.782,308.200 114.655 C 308.530 114.529,308.800 114.059,308.800 113.613 C 308.800 113.166,308.980 112.800,309.200 112.800 C 309.420 112.800,309.600 112.530,309.600 112.200 C 309.600 111.870,309.760 111.600,309.957 111.600 C 310.153 111.600,310.426 111.150,310.564 110.600 C 310.702 110.050,310.992 109.600,311.208 109.600 C 311.423 109.600,311.600 109.330,311.600 109.000 C 311.600 108.670,311.780 108.400,312.000 108.400 C 312.220 108.400,312.400 108.034,312.400 107.587 C 312.400 107.141,312.670 106.671,313.000 106.545 C 313.330 106.418,313.600 105.974,313.600 105.557 C 313.600 105.141,313.760 104.800,313.957 104.800 C 314.153 104.800,314.435 104.316,314.583 103.724 C 314.732 103.132,315.201 102.346,315.626 101.977 C 316.051 101.609,316.511 100.743,316.649 100.054 C 316.787 99.364,317.058 98.800,317.250 98.800 C 317.443 98.800,317.600 98.530,317.600 98.200 C 317.600 97.870,317.791 97.600,318.024 97.600 C 318.257 97.600,318.336 97.420,318.200 97.200 C 318.064 96.980,318.143 96.800,318.376 96.800 C 318.609 96.800,318.800 96.530,318.800 96.200 C 318.800 95.870,318.980 95.600,319.200 95.600 C 319.420 95.600,319.600 95.330,319.600 95.000 C 319.600 94.670,319.777 94.400,319.992 94.400 C 320.208 94.400,320.498 93.950,320.636 93.400 C 320.774 92.850,321.047 92.400,321.243 92.400 C 321.440 92.400,321.600 92.040,321.600 91.600 C 321.600 91.160,321.760 90.800,321.957 90.800 C 322.153 90.800,322.426 90.350,322.564 89.800 C 322.702 89.250,322.992 88.800,323.208 88.800 C 323.423 88.800,323.600 88.530,323.600 88.200 C 323.600 87.870,323.772 87.600,323.982 87.600 C 324.192 87.600,324.491 86.925,324.647 86.100 C 324.802 85.275,325.005 84.870,325.097 85.200 C 325.188 85.530,325.366 86.070,325.491 86.400 M224.400 220.200 C 224.400 220.530,224.558 220.800,224.750 220.800 C 224.943 220.800,225.213 221.364,225.351 222.054 C 225.489 222.743,225.949 223.609,226.374 223.977 C 226.799 224.346,227.268 225.132,227.417 225.724 C 227.565 226.316,227.847 226.800,228.043 226.800 C 228.240 226.800,228.400 227.141,228.400 227.557 C 228.400 227.974,228.670 228.418,229.000 228.545 C 229.330 228.671,229.600 229.141,229.600 229.587 C 229.600 230.034,229.780 230.400,230.000 230.400 C 230.220 230.400,230.400 230.670,230.400 231.000 C 230.400 231.330,230.577 231.600,230.792 231.600 C 231.008 231.600,231.298 232.050,231.436 232.600 C 231.574 233.150,231.847 233.600,232.043 233.600 C 232.240 233.600,232.400 233.870,232.400 234.200 C 232.400 234.530,232.580 234.800,232.800 234.800 C 233.020 234.800,233.200 235.166,233.200 235.613 C 233.200 236.059,233.470 236.529,233.800 236.655 C 234.130 236.782,234.400 237.226,234.400 237.643 C 234.400 238.059,234.560 238.400,234.757 238.400 C 234.953 238.400,235.226 238.850,235.364 239.400 C 235.502 239.950,235.792 240.400,236.008 240.400 C 236.223 240.400,236.400 240.670,236.400 241.000 C 236.400 241.330,236.572 241.600,236.782 241.600 C 236.992 241.600,237.281 242.224,237.424 242.986 C 237.578 243.809,237.975 244.465,238.400 244.600 C 238.825 244.735,239.222 245.391,239.376 246.214 C 239.519 246.976,239.808 247.600,240.018 247.600 C 240.228 247.600,240.400 247.870,240.400 248.200 C 240.400 248.530,240.577 248.800,240.792 248.800 C 241.008 248.800,241.298 249.250,241.436 249.800 C 241.574 250.350,241.847 250.800,242.043 250.800 C 242.240 250.800,242.400 251.141,242.400 251.557 C 242.400 251.974,242.670 252.418,243.000 252.545 C 243.330 252.671,243.600 253.141,243.600 253.587 C 243.600 254.034,243.780 254.400,244.000 254.400 C 244.220 254.400,244.400 254.670,244.400 255.000 C 244.400 255.330,244.560 255.600,244.757 255.600 C 244.953 255.600,245.226 256.050,245.364 256.600 C 245.502 257.150,245.792 257.600,246.008 257.600 C 246.223 257.600,246.400 257.870,246.400 258.200 C 246.400 258.530,246.558 258.800,246.750 258.800 C 246.943 258.800,247.213 259.364,247.351 260.054 C 247.489 260.743,247.935 261.598,248.344 261.954 C 248.752 262.309,249.227 263.050,249.400 263.600 C 249.573 264.150,250.048 264.891,250.456 265.246 C 250.865 265.602,251.311 266.457,251.449 267.146 C 251.587 267.836,251.857 268.400,252.050 268.400 C 252.243 268.400,252.400 268.630,252.400 268.912 C 252.400 269.193,252.744 269.671,253.164 269.974 C 253.584 270.276,253.834 270.766,253.721 271.062 C 253.607 271.358,253.714 271.600,253.957 271.600 C 254.201 271.600,254.400 271.870,254.400 272.200 C 254.400 272.530,254.580 272.800,254.800 272.800 C 255.020 272.800,255.200 273.166,255.200 273.613 C 255.200 274.059,255.470 274.529,255.800 274.655 C 256.130 274.782,256.400 275.226,256.400 275.643 C 256.400 276.059,256.560 276.400,256.757 276.400 C 256.953 276.400,257.226 276.850,257.364 277.400 C 257.502 277.950,257.792 278.400,258.008 278.400 C 258.223 278.400,258.400 278.670,258.400 279.000 C 258.400 279.330,258.572 279.600,258.782 279.600 C 258.992 279.600,259.281 280.224,259.424 280.986 C 259.578 281.809,259.975 282.465,260.400 282.600 C 260.825 282.735,261.222 283.391,261.376 284.214 C 261.519 284.976,261.808 285.600,262.018 285.600 C 262.228 285.600,262.400 285.870,262.400 286.200 C 262.400 286.530,262.577 286.800,262.792 286.800 C 263.008 286.800,263.298 287.250,263.436 287.800 C 263.574 288.350,263.847 288.800,264.043 288.800 C 264.240 288.800,264.400 289.141,264.400 289.557 C 264.400 289.974,264.670 290.418,265.000 290.545 C 265.330 290.671,265.600 291.141,265.600 291.587 C 265.600 292.034,265.780 292.400,266.000 292.400 C 266.220 292.400,266.400 292.670,266.400 293.000 C 266.400 293.330,266.560 293.600,266.757 293.600 C 266.953 293.600,267.226 294.050,267.364 294.600 C 267.502 295.150,267.792 295.600,268.008 295.600 C 268.223 295.600,268.400 295.870,268.400 296.200 C 268.400 296.530,268.558 296.800,268.750 296.800 C 268.943 296.800,269.213 297.364,269.351 298.054 C 269.489 298.743,269.935 299.598,270.344 299.954 C 270.752 300.309,271.227 301.050,271.400 301.600 C 271.573 302.150,272.048 302.891,272.456 303.246 C 272.865 303.602,273.311 304.457,273.449 305.146 C 273.587 305.836,273.858 306.400,274.050 306.400 C 274.243 306.400,274.400 306.630,274.400 306.912 C 274.400 307.193,274.744 307.671,275.164 307.974 C 275.584 308.276,275.834 308.766,275.721 309.062 C 275.607 309.358,275.714 309.600,275.957 309.600 C 276.201 309.600,276.400 309.870,276.400 310.200 C 276.400 310.530,276.580 310.800,276.800 310.800 C 277.020 310.800,277.200 311.166,277.200 311.613 C 277.200 312.059,277.470 312.529,277.800 312.655 C 278.130 312.782,278.400 313.226,278.400 313.643 C 278.400 314.059,278.560 314.400,278.757 314.400 C 278.953 314.400,279.226 314.850,279.364 315.400 C 279.502 315.950,279.792 316.400,280.008 316.400 C 280.223 316.400,280.400 316.670,280.400 317.000 C 280.400 317.330,280.572 317.600,280.782 317.600 C 280.992 317.600,281.281 318.224,281.424 318.986 C 281.578 319.809,281.975 320.465,282.400 320.600 C 282.825 320.735,283.222 321.391,283.376 322.214 C 283.519 322.976,283.808 323.600,284.018 323.600 C 284.228 323.600,284.400 323.870,284.400 324.200 C 284.400 324.530,284.577 324.800,284.792 324.800 C 285.008 324.800,285.298 325.250,285.436 325.800 C 285.574 326.350,285.847 326.800,286.043 326.800 C 286.240 326.800,286.400 327.141,286.400 327.557 C 286.400 327.974,286.670 328.418,287.000 328.545 C 287.330 328.671,287.600 329.141,287.600 329.587 C 287.600 330.034,287.780 330.400,288.000 330.400 C 288.220 330.400,288.400 330.670,288.400 331.000 C 288.400 331.330,288.560 331.600,288.757 331.600 C 288.953 331.600,289.226 332.050,289.364 332.600 C 289.502 333.150,289.792 333.600,290.008 333.600 C 290.223 333.600,290.400 333.855,290.400 334.167 C 290.400 334.478,290.625 334.824,290.900 334.935 C 291.175 335.046,290.995 335.151,290.500 335.168 C 290.005 335.186,289.600 335.020,289.600 334.800 C 289.600 334.580,288.970 334.400,288.200 334.400 C 287.430 334.400,286.800 334.241,286.800 334.046 C 286.800 333.851,285.810 333.568,284.600 333.417 C 283.390 333.266,282.400 332.975,282.400 332.771 C 282.400 332.567,281.770 332.400,281.000 332.400 C 280.230 332.400,279.600 332.241,279.600 332.047 C 279.600 331.852,278.430 331.568,277.000 331.415 C 275.570 331.262,274.400 330.971,274.400 330.768 C 274.400 330.566,273.770 330.400,273.000 330.400 C 272.230 330.400,271.600 330.241,271.600 330.047 C 271.600 329.852,270.430 329.568,269.000 329.415 C 267.570 329.262,266.400 328.971,266.400 328.768 C 266.400 328.566,265.770 328.400,265.000 328.400 C 264.230 328.400,263.600 328.241,263.600 328.047 C 263.600 327.852,262.430 327.568,261.000 327.415 C 259.570 327.262,258.400 326.971,258.400 326.768 C 258.400 326.566,257.950 326.400,257.400 326.400 C 256.850 326.400,256.400 326.238,256.400 326.041 C 256.400 325.843,255.140 325.555,253.600 325.400 C 252.060 325.245,250.800 324.957,250.800 324.759 C 250.800 324.562,250.260 324.400,249.600 324.400 C 248.940 324.400,248.400 324.238,248.400 324.041 C 248.400 323.843,247.140 323.555,245.600 323.400 C 244.060 323.245,242.800 322.957,242.800 322.759 C 242.800 322.562,242.260 322.400,241.600 322.400 C 240.940 322.400,240.400 322.238,240.400 322.041 C 240.400 321.843,239.140 321.555,237.600 321.400 C 236.060 321.245,234.800 320.957,234.800 320.759 C 234.800 320.562,234.260 320.400,233.600 320.400 C 232.940 320.400,232.400 320.229,232.400 320.020 C 232.400 319.811,231.320 319.518,230.000 319.368 C 228.680 319.219,227.600 318.940,227.600 318.748 C 227.600 318.557,226.970 318.400,226.200 318.400 C 225.430 318.400,224.800 318.234,224.800 318.032 C 224.800 317.829,223.630 317.538,222.200 317.385 C 220.770 317.232,219.600 316.948,219.600 316.753 C 219.600 316.559,218.970 316.400,218.200 316.400 C 217.430 316.400,216.800 316.199,216.800 315.953 C 216.800 315.692,216.382 315.587,215.790 315.700 C 215.235 315.806,214.685 315.737,214.567 315.546 C 214.449 315.356,213.733 315.200,212.976 315.200 C 212.219 315.200,211.600 315.020,211.600 314.800 C 211.600 314.580,210.970 314.400,210.200 314.400 C 209.430 314.400,208.800 314.234,208.800 314.032 C 208.800 313.829,207.630 313.538,206.200 313.385 C 204.770 313.232,203.600 312.948,203.600 312.753 C 203.600 312.559,203.150 312.400,202.600 312.400 C 202.050 312.400,201.600 312.241,201.600 312.047 C 201.600 311.852,200.430 311.568,199.000 311.415 C 197.570 311.262,196.400 310.971,196.400 310.768 C 196.400 310.566,195.770 310.400,195.000 310.400 C 194.230 310.400,193.600 310.241,193.600 310.047 C 193.600 309.852,192.430 309.568,191.000 309.415 C 189.570 309.262,188.400 308.971,188.400 308.768 C 188.400 308.566,187.770 308.400,187.000 308.400 C 186.230 308.400,185.600 308.241,185.600 308.047 C 185.600 307.852,184.430 307.568,183.000 307.415 C 181.570 307.262,180.400 306.971,180.400 306.768 C 180.400 306.566,179.770 306.400,179.000 306.400 C 178.230 306.400,177.600 306.244,177.600 306.052 C 177.600 305.861,176.978 305.604,176.217 305.480 C 174.696 305.233,168.400 299.421,168.400 298.264 C 168.400 297.928,168.049 297.543,167.620 297.406 C 167.192 297.270,166.733 296.817,166.600 296.400 C 166.467 295.983,166.017 295.533,165.600 295.400 C 165.183 295.267,164.733 294.817,164.600 294.400 C 164.467 293.983,164.017 293.533,163.600 293.400 C 163.183 293.267,162.733 292.817,162.600 292.400 C 162.467 291.983,162.017 291.533,161.600 291.400 C 161.183 291.267,160.733 290.817,160.600 290.400 C 160.467 289.983,160.017 289.533,159.600 289.400 C 159.183 289.267,158.733 288.817,158.600 288.400 C 158.467 287.983,158.017 287.533,157.600 287.400 C 157.183 287.267,156.733 286.817,156.600 286.400 C 156.467 285.983,156.017 285.533,155.600 285.400 C 155.183 285.267,154.733 284.817,154.600 284.400 C 154.467 283.983,154.017 283.533,153.600 283.400 C 153.183 283.267,152.733 282.817,152.600 282.400 C 152.467 281.983,152.017 281.533,151.600 281.400 C 151.183 281.267,150.733 280.817,150.600 280.400 C 150.467 279.983,150.017 279.533,149.600 279.400 C 149.183 279.267,148.733 278.817,148.600 278.400 C 148.467 277.983,148.017 277.533,147.600 277.400 C 147.183 277.267,146.733 276.817,146.600 276.400 C 146.467 275.983,146.017 275.533,145.600 275.400 C 145.183 275.267,144.733 274.817,144.600 274.400 C 144.467 273.983,144.017 273.533,143.600 273.400 C 143.183 273.267,142.733 272.817,142.600 272.400 C 142.467 271.983,142.017 271.533,141.600 271.400 C 141.183 271.267,140.733 270.817,140.600 270.400 C 140.467 269.983,140.017 269.533,139.600 269.400 C 139.183 269.267,138.733 268.817,138.600 268.400 C 138.467 267.983,138.017 267.533,137.600 267.400 C 137.183 267.267,136.733 266.817,136.600 266.400 C 136.467 265.983,136.017 265.533,135.600 265.400 C 135.183 265.267,134.733 264.817,134.600 264.400 C 134.467 263.983,134.017 263.533,133.600 263.400 C 133.183 263.267,132.733 262.817,132.600 262.400 C 132.467 261.983,132.017 261.533,131.600 261.400 C 131.183 261.267,130.720 260.777,130.571 260.310 C 130.423 259.843,121.594 250.754,110.951 240.112 C 100.308 229.470,91.600 220.502,91.600 220.182 C 91.600 219.675,100.169 219.600,158.000 219.600 C 216.756 219.600,224.400 219.669,224.400 220.200 " stroke="none" fill="#242c34" fill-rule="evenodd"></path><path id="path1" d="" stroke="none" fill="#242c3c" fill-rule="evenodd"></path><path id="path2" d="" stroke="none" fill="#282c34" fill-rule="evenodd"></path><path id="path3" d="" stroke="none" fill="#282c34" fill-rule="evenodd"></path><path id="path4" d="" stroke="none" fill="#282c34" fill-rule="evenodd"></path></g></svg>